<?xml version="1.0" encoding="utf-8"?>
<!-- Generator: Adobe Illustrator 22.0.0, SVG Export Plug-In . SVG Version: 6.00 Build 0)  -->
<svg version="1.1" id="Capa_1" xmlns="http://www.w3.org/2000/svg" xmlns:xlink="http://www.w3.org/1999/xlink" x="0px" y="0px"
	 width="210px" height="53px" viewBox="0 0 210 53" style="enable-background:new 0 0 210 53;" xml:space="preserve">
<style type="text/css">
	.st0{fill:#FFFFFF;stroke:#000000;stroke-miterlimit:10;}
	.st1{fill:none;stroke:#000000;stroke-miterlimit:10;}
	.st2{font-family:'RoundedElegance-Regular';}
	.st3{font-size:12px;}
	.st4{fill:#F49600;}
	.st5{fill:#5A11CE;}
	.st6{fill:#FFCE00;}
	.st7{font-size:13.3415px;}
	.st8{fill:#CA5E35;}
	.st9{font-size:13.5117px;}
</style>
<path class="st0" d="M50.3,30.8"/>
<g>
	<polyline class="st0" points="123.2,3.5 78.2,48.5 123.2,48.5 133,48.5 	"/>
	<path class="st0" d="M86.1,40.5c0,0,7.2,1.3,3.6,8"/>
	<polyline class="st1" points="86.8,42.2 86.8,40.7 88.8,39.8 	"/>
	<text transform="matrix(1 0 0 1 95.1869 43.9375)" class="st2 st3">45ยบ</text>
</g>
<text transform="matrix(0.9312 -0.3645 0.3645 0.9312 5.8154 21.5417)" class="st4 st2 st3">90ยบ</text>
<text transform="matrix(0.9171 0.3986 -0.3986 0.9171 154.8899 15.9998)" class="st5 st2 st3">57ยบ = 1 R</text>
<text transform="matrix(0.8217 0.5699 -0.5699 0.8217 139.8227 42.2188)" class="st6 st2 st7">180ยบ</text>
<g>
	<g>
		<path class="st8" d="M49.8,24.7c-3.4,0.3-7.8-7.2-7.8-7.2s2.1-2,2.3-2.2c0.2-0.2,1-1.3,0-2.4c-1.3-1.4-2.4-0.2-2.4-0.2
			s-6.5,6-8.7,8.1c-1.4,1.3-1.2,4.2-0.8,6c0.2,1,0.6,0.9,1,0c1.4-3.3,2.4-3.5,2.4-3.5c0.9,0.6,4.3,4.2,5.1,6.1
			c0.7,1.9,1.1,4.7,3.7,4.1c2-0.5,1.9-3.3-0.6-5.8c-1.4-1.3-6.2-6.3-6.2-6.3l2.2-2c0.6,0.9,4.1,5.3,6.8,7.3c4.2,3.6,7.8-1.2,6.5-4.3
			c-0.4-0.8-0.9-1.3-1.4-1.5c-0.9-0.4-1.4,0-1.1,0.2c0.2,0.2,0.4,0.4,0.5,0.6C51.6,22.5,51.3,24.5,49.8,24.7z"/>
	</g>
</g>
<g>
	<line class="st8" x1="60.2" y1="22.9" x2="40.5" y2="42.6"/>
	<g>
		<path class="st8" d="M59.9,22.6c-6.6,6.6-13.1,13.1-19.7,19.7c-0.4,0.4,0.2,1,0.6,0.6c6.6-6.6,13.1-13.1,19.7-19.7
			C60.9,22.8,60.3,22.2,59.9,22.6L59.9,22.6z"/>
	</g>
</g>
<text transform="matrix(0.7001 -0.7141 0.7141 0.7001 57.8098 43.9374)" class="st8 st2 st9">2</text>
</svg>
