<?xml version="1.0" encoding="utf-8"?>
<!-- Generator: Adobe Illustrator 22.0.0, SVG Export Plug-In . SVG Version: 6.00 Build 0)  -->
<svg version="1.1" id="Capa_1" xmlns="http://www.w3.org/2000/svg" xmlns:xlink="http://www.w3.org/1999/xlink" x="0px" y="0px"
	 width="722.5px" height="243.3px" viewBox="0 0 722.5 243.3" style="enable-background:new 0 0 722.5 243.3;" xml:space="preserve"
	>
<style type="text/css">
	.st0{fill:none;}
	.st1{fill:none;stroke:#FF6010;stroke-width:0.2835;stroke-miterlimit:10;}
	.st2{fill:#FFFFFF;}
	.st3{fill:#FF6010;}
	.st4{font-family:'RoundedElegance-Regular';}
	.st5{font-size:24.9345px;}
	.st6{font-size:17.4898px;}
	.st7{font-size:17.3669px;}
	.st8{fill:#FFFFFF;stroke:#FF6010;stroke-width:0.8504;stroke-miterlimit:10;}
	.st9{font-size:19.0798px;}
	.st10{font-family:'MyriadPro-Regular';}
	.st11{font-size:23.0297px;}
</style>
<line class="st0" x1="272.6" y1="115.6" x2="272.6" y2="101.1"/>
<line class="st1" x1="274.7" y1="113.9" x2="274.7" y2="96.6"/>
<g>
	<rect x="60" y="19.4" class="st2" width="214.5" height="69.6"/>
	<path class="st3" d="M274,19.9v68.6H60.5V19.9H274 M275,18.9H59.5v70.6H275V18.9L275,18.9z"/>
</g>
<text transform="matrix(1 0 0 1 139.8555 112.2549)" class="st3 st4 st5">Base</text>
<line class="st0" x1="61.6" y1="95.7" x2="61.6" y2="110.3"/>
<text transform="matrix(1 0 0 1 3.394 59.1855)" class="st3 st4 st6">Altura</text>
<line class="st1" x1="15.9" y1="18.9" x2="45" y2="18.9"/>
<line class="st1" x1="29.7" y1="18.9" x2="29.7" y2="40.7"/>
<line class="st1" x1="44.3" y1="89.5" x2="15.2" y2="89.5"/>
<line class="st1" x1="30.4" y1="89.5" x2="30.4" y2="67.7"/>
<line class="st1" x1="59.5" y1="97.5" x2="59.5" y2="114.8"/>
<line class="st1" x1="59.5" y1="106.1" x2="130.2" y2="106.1"/>
<line class="st1" x1="274.7" y1="105.3" x2="204" y2="105.3"/>
<line class="st0" x1="490.7" y1="74.4" x2="490.7" y2="67.4"/>
<text transform="matrix(1 0 0 1 324.7598 63.6484)" class="st3 st4 st6">Altura</text>
<line class="st1" x1="337.2" y1="23.3" x2="366.3" y2="23.3"/>
<line class="st1" x1="351.1" y1="23.3" x2="351.1" y2="45.1"/>
<line class="st1" x1="365.6" y1="94" x2="336.6" y2="94"/>
<line class="st1" x1="351.8" y1="94" x2="351.8" y2="72.1"/>
<text transform="matrix(1 0 0 1 404.7988 115.2145)" class="st3 st4 st7">Base</text>
<line class="st0" x1="367.3" y1="106.1" x2="367.3" y2="113.1"/>
<line class="st1" x1="371.3" y1="106.5" x2="371.3" y2="114.8"/>
<line class="st1" x1="467.2" y1="106.9" x2="467.2" y2="115.2"/>
<line class="st1" x1="371.3" y1="111.1" x2="400.2" y2="111.1"/>
<line class="st1" x1="467.2" y1="110.7" x2="452.4" y2="110.7"/>
<polygon class="st8" points="417.8,23.3 371.3,94 464.4,94 "/>
<text transform="matrix(1 0 0 1 558.8574 63.6016)" class="st3 st4 st6">Altura</text>
<line class="st1" x1="570.2" y1="23.7" x2="599.3" y2="23.7"/>
<line class="st1" x1="584.1" y1="23.7" x2="584.1" y2="45.5"/>
<line class="st1" x1="598.6" y1="94.3" x2="569.5" y2="94.3"/>
<line class="st1" x1="584.8" y1="94.3" x2="584.8" y2="72.5"/>
<text transform="matrix(1 0 0 1 629.5292 119.8965)" class="st3 st4 st9">Base</text>
<line class="st0" x1="603.7" y1="109.4" x2="603.7" y2="116.4"/>
<line class="st1" x1="611.9" y1="110.3" x2="611.9" y2="118.6"/>
<line class="st1" x1="611.9" y1="114.4" x2="628.5" y2="114.4"/>
<line class="st0" x1="689.8" y1="118.6" x2="689.8" y2="111.6"/>
<line class="st1" x1="690.8" y1="117.7" x2="690.8" y2="109.4"/>
<line class="st1" x1="690.8" y1="113.6" x2="679.1" y2="113.6"/>
<rect x="611.9" y="19.6" class="st8" width="78.9" height="78.9"/>
<text transform="matrix(1 0 0 1 22 178.2314)" class="st10 st11">Area de rectangulo y cuadrado= Base x Altura = (BxH)</text>
<text transform="matrix(1 0 0 1 22 212.9668)" class="st10 st11">Area de Triangulo= (Base x Altura)/2   = (BxH)/2</text>
</svg>
