<?xml version="1.0" encoding="utf-8"?>
<!-- Generator: Adobe Illustrator 16.0.0, SVG Export Plug-In . SVG Version: 6.00 Build 0)  -->
<!DOCTYPE svg PUBLIC "-//W3C//DTD SVG 1.1//EN" "http://www.w3.org/Graphics/SVG/1.1/DTD/svg11.dtd">
<svg version="1.1" id="Capa_1" xmlns="http://www.w3.org/2000/svg" xmlns:xlink="http://www.w3.org/1999/xlink" x="0px" y="0px"
	 width="210px" height="80px" viewBox="0 0 210 80" enable-background="new 0 0 210 80" xml:space="preserve">
<text transform="matrix(1.0052 0 0 1 0 60.6416)" fill="#FF5B00" stroke="#CB6120" stroke-width="0.8658" stroke-miterlimit="10" font-family="'RoundedElegance-Regular'" font-size="52.1176">9   3 = ?</text>
<ellipse fill="#FF5B00" stroke="#CB6120" stroke-width="0.8658" stroke-miterlimit="10" cx="47.501" cy="35.885" rx="11.49" ry="3.052"/>
<path fill="#FF5B00" stroke="#CB6120" stroke-width="0.8658" stroke-miterlimit="10" d="M50.194,25.562
	c0,1.24-1.005,2.245-2.245,2.245h-0.896c-1.24,0-2.245-1.005-2.245-2.245l0,0c0-1.239,1.005-2.244,2.245-2.244h0.896
	C49.189,23.317,50.194,24.322,50.194,25.562L50.194,25.562z"/>
<path fill="#FF5B00" stroke="#CB6120" stroke-width="0.8658" stroke-miterlimit="10" d="M50.194,45.49
	c0,1.239-1.005,2.244-2.245,2.244h-0.896c-1.24,0-2.245-1.005-2.245-2.244l0,0c0-1.24,1.005-2.244,2.245-2.244h0.896
	C49.189,43.246,50.194,44.25,50.194,45.49L50.194,45.49z"/>
</svg>
