<?xml version="1.0" encoding="utf-8"?>
<!-- Generator: Adobe Illustrator 16.0.0, SVG Export Plug-In . SVG Version: 6.00 Build 0)  -->
<!DOCTYPE svg PUBLIC "-//W3C//DTD SVG 1.1//EN" "http://www.w3.org/Graphics/SVG/1.1/DTD/svg11.dtd">
<svg version="1.1" id="Capa_2" xmlns="http://www.w3.org/2000/svg" xmlns:xlink="http://www.w3.org/1999/xlink" x="0px" y="0px"
	 width="210px" height="80px" viewBox="0 0 210 80" enable-background="new 0 0 210 80" xml:space="preserve">
<path fill="#FF6010" d="M92.266,54.455h2.714c0,0-0.081-5.536,5.208-6.696c0,0,3.297-0.844,5.751,1.83c0,0,3.438,3.66,0,8.324
	c0,0-13.814,15.223-14.297,15.33h19.008l-0.107-2.656H97.808l8.178-8.684c0,0,4.987-5.02,4.155-9.679c0,0-0.885-5.946-6.193-6.911
	c0,0-4.719-1.395-8.257,1.716C95.691,47.029,92.112,49.763,92.266,54.455z"/>
<polyline fill="#FF6010" points="98.335,6.044 103.832,6.044 103.845,33.98 101.05,33.98 101.07,8.805 96.7,8.765 "/>
<path fill="#FF6010" d="M124.793,39.454c0,1.333-1.08,2.413-2.413,2.413H79.913c-1.333,0-2.413-1.08-2.413-2.413l0,0
	c0-1.333,1.08-2.413,2.413-2.413h42.467C123.713,37.041,124.793,38.121,124.793,39.454L124.793,39.454z"/>
</svg>
