<?xml version="1.0" encoding="utf-8"?>
<!-- Generator: Adobe Illustrator 22.0.0, SVG Export Plug-In . SVG Version: 6.00 Build 0)  -->
<svg version="1.1" xmlns="http://www.w3.org/2000/svg" xmlns:xlink="http://www.w3.org/1999/xlink" x="0px" y="0px" width="210px"
	 height="53px" viewBox="0 0 210 53" style="enable-background:new 0 0 210 53;" xml:space="preserve">
<style type="text/css">
	.st0{fill:#0291AB;}
	.st1{fill:#605E5F;}
	.st2{fill:#F3F3F3;}
	.st3{fill:#FEAE25;}
	.st4{fill:#F65C52;}
	.st5{fill:#48CC93;}
</style>
<g id="OBJECTS">
	<g>
		<g>
			<path class="st0" d="M38.3,35.8c0,7.5-6.1,13.7-13.7,13.7c-7.5,0-13.7-6.1-13.7-13.7c0-7.5,6.1-13.7,13.7-13.7
				C32.1,22.2,38.3,28.3,38.3,35.8z"/>
		</g>
		<g>
			<path class="st1" d="M23.3,48.5c-7.8,0-14.1-6.3-14.1-14.1c0-7.8,6.3-14.1,14.1-14.1c7.8,0,14.1,6.3,14.1,14.1
				C37.4,42.2,31.1,48.5,23.3,48.5z M23.3,21.2c-7.3,0-13.2,5.9-13.2,13.2c0,7.3,5.9,13.2,13.2,13.2c7.3,0,13.2-5.9,13.2-13.2
				C36.5,27.1,30.6,21.2,23.3,21.2z"/>
		</g>
		<g>
			<g>
				<path class="st2" d="M26.6,26.8v16.4h-3.7V30.8l-2.9,0.8L19,28.4l4.3-1.5H26.6z"/>
			</g>
		</g>
		<g>
			<g>
				<path class="st1" d="M25.7,42.8h-4.6V30.6l-2.8,0.8l-1.1-4l4.7-1.7h3.8V42.8z M22,41.9h2.8V26.5h-2.7l-3.8,1.4l0.7,2.4l3-0.8
					V41.9z"/>
			</g>
		</g>
	</g>
	<g>
		<g>
			<path class="st3" d="M92.6,21.4c0,8.9-7.2,16.2-16.2,16.2c-8.9,0-16.2-7.2-16.2-16.2c0-8.9,7.2-16.2,16.2-16.2
				C85.4,5.3,92.6,12.5,92.6,21.4z"/>
		</g>
		<g>
			<path class="st1" d="M74.9,36.4c-9.2,0-16.7-7.5-16.7-16.7c0-9.2,7.5-16.7,16.7-16.7s16.7,7.5,16.7,16.7
				C91.6,28.9,84.1,36.4,74.9,36.4z M74.9,4.1c-8.6,0-15.6,7-15.6,15.6c0,8.6,7,15.6,15.6,15.6s15.6-7,15.6-15.6
				C90.6,11.1,83.6,4.1,74.9,4.1z"/>
		</g>
		<g>
			<g>
				<path class="st2" d="M69.3,27.1l6.3-6.6c1.1-1.1,1.9-2.2,1.9-3.3c0-1.2-0.8-2-2-2c-1.3,0-2.3,0.9-2.8,2l-3.6-2.1
					c1.2-2.8,3.7-4.1,6.4-4.1c3.4,0,6.4,2.2,6.4,6c0,2.3-1.2,4.2-2.9,5.9l-3.1,3.2h6.3v4.1H69.3V27.1z"/>
			</g>
		</g>
		<g>
			<g>
				<path class="st1" d="M81.4,29.4H67.5v-3.9l6.5-6.7c1.2-1.3,1.8-2.2,1.8-3c0-0.9-0.5-1.5-1.5-1.5c-1.3,0-2,1.1-2.3,1.7l-0.2,0.5
					L67.2,14l0.2-0.4c1.2-2.8,3.8-4.4,6.8-4.4c3.4,0,6.9,2.2,6.9,6.5c0,2.2-1,4.2-3.1,6.3l-2.2,2.3h5.6V29.4z M68.6,28.4h11.8v-3.1
					h-7.1l4-4c1.9-1.9,2.8-3.7,2.8-5.6c0-3.6-2.9-5.5-5.9-5.5c-2.5,0-4.6,1.3-5.7,3.4l2.7,1.6c0.7-1.2,1.7-1.8,3-1.8
					c1.5,0,2.5,1,2.5,2.5c0,1.4-1.1,2.7-2.1,3.7L68.6,26V28.4z"/>
			</g>
		</g>
	</g>
	<g>
		<g>
			<path class="st4" d="M144.6,31.9c0,7.7-6.3,14-14,14c-7.7,0-14-6.3-14-14c0-7.7,6.3-14,14-14C138.4,18,144.6,24.2,144.6,31.9z"/>
		</g>
		<g>
			<path class="st1" d="M129.3,44.9c-8,0-14.4-6.5-14.4-14.4s6.5-14.4,14.4-14.4c8,0,14.4,6.5,14.4,14.4S137.3,44.9,129.3,44.9z
				 M129.3,17c-7.5,0-13.5,6.1-13.5,13.5c0,7.5,6.1,13.5,13.5,13.5c7.5,0,13.5-6.1,13.5-13.5C142.9,23,136.8,17,129.3,17z"/>
		</g>
		<g>
			<g>
				<path class="st2" d="M135.9,35c0,3.5-2.7,5.3-5.7,5.3c-2.4,0-4.5-1.1-5.5-3.4l3.1-1.8c0.4,1,1,1.7,2.4,1.7
					c1.5,0,2.1-0.8,2.1-1.8c0-1-0.7-1.8-2.1-1.8h-0.7l-1.4-2l2.9-3.6h-5.8v-3.4h10.1v2.9l-2.7,3.5C134.5,31.3,135.9,32.8,135.9,35z"
					/>
			</g>
		</g>
		<g>
			<g>
				<path class="st1" d="M128.8,39.8c-2.8,0-5-1.3-5.9-3.7l-0.2-0.4l3.9-2.3l0.2,0.5c0.3,1,0.9,1.4,2,1.4c1.1,0,1.7-0.5,1.7-1.3
					c0-0.8-0.6-1.3-1.7-1.3h-1l-1.7-2.5l2.5-3.1h-5.3v-4.3h11v3.5l-2.4,3.1c1.9,0.9,3.1,2.6,3.1,4.6C135,38,131.8,39.8,128.8,39.8z
					 M123.9,36.1c0.9,1.7,2.7,2.7,4.9,2.7c2.6,0,5.3-1.5,5.3-4.8c0-1.8-1.1-3.3-3-4l-0.6-0.2l3-3.8v-2.3h-9.2v2.5h6.2l-3.2,4.1
					l1.1,1.6h0.5c1.9,0,2.6,1.1,2.6,2.2c0,1.1-0.7,2.2-2.6,2.2c-1.3,0-2.1-0.5-2.6-1.5L123.9,36.1z"/>
			</g>
		</g>
	</g>
	<g>
		<g>
			<path class="st5" d="M207.7,21.4c0,9-7.3,16.3-16.3,16.3c-9,0-16.3-7.3-16.3-16.3c0-9,7.3-16.3,16.3-16.3
				C200.4,5.1,207.7,12.4,207.7,21.4z"/>
		</g>
		<g>
			<path class="st1" d="M189.8,36.6c-9.3,0-16.9-7.6-16.9-16.9c0-9.3,7.6-16.9,16.9-16.9c9.3,0,16.9,7.6,16.9,16.9
				C206.7,29,199.1,36.6,189.8,36.6z M189.8,3.9c-8.7,0-15.8,7.1-15.8,15.8c0,8.7,7.1,15.8,15.8,15.8c8.7,0,15.8-7.1,15.8-15.8
				C205.6,11,198.5,3.9,189.8,3.9z"/>
		</g>
		<g>
			<g>
				<path class="st2" d="M198.6,27.8h-2V31h-4.7v-3.2h-9.2v-4.3l6.4-12.7h5l-6.4,12.7h4.2v-4.3h4.7v4.3h2V27.8z"/>
			</g>
		</g>
		<g>
			<g>
				<path class="st1" d="M195.5,30.3h-5.7v-3.2h-9.2v-4.9L187.3,9h6.2L187,21.7h2.8v-4.3h5.7v4.3h2v5.3h-2V30.3z M190.9,29.2h3.6V26
					h2v-3.2h-2v-4.3h-3.6v4.3h-5.6l6.4-12.7h-3.8l-6.2,12.3V26h9.2V29.2z"/>
			</g>
		</g>
	</g>
</g>
<g id="DESIGNED_BY_FREEPIK">
</g>
</svg>
