<?xml version="1.0" encoding="utf-8"?>
<!-- Generator: Adobe Illustrator 22.0.0, SVG Export Plug-In . SVG Version: 6.00 Build 0)  -->
<svg version="1.1" id="Capa_1" xmlns="http://www.w3.org/2000/svg" xmlns:xlink="http://www.w3.org/1999/xlink" x="0px" y="0px"
	 width="210px" height="80px" viewBox="0 0 210 80" style="enable-background:new 0 0 210 80;" xml:space="preserve">
<style type="text/css">
	.st0{fill:none;stroke:#000000;stroke-miterlimit:10;}
	.st1{fill:none;stroke:#CA5E35;stroke-miterlimit:10;}
	.st2{fill:#CA5E35;}
	.st3{font-family:'MyriadPro-Regular';}
	.st4{font-size:8.5609px;}
</style>
<g>
	<g>
		<path class="st0" d="M32.8,76.1c0-39.9,32.3-72.2,72.2-72.2s72.2,32.3,72.2,72.2"/>
		<path class="st0" d="M33.4,76.1c0-19.8,16-35.8,35.8-35.8s35.8,16,35.8,35.8"/>
		<path class="st0" d="M177.2,76.1c0-19.8-16-35.8-35.8-35.8s-35.8,16-35.8,35.8"/>
	</g>
	<line class="st1" x1="141.4" y1="76.1" x2="177.2" y2="76.1"/>
	<line class="st1" x1="105.3" y1="76.1" x2="106.1" y2="3.9"/>
	<text transform="matrix(1 0 0 1 107.6293 22.9351)" class="st2 st3 st4">r = 50</text>
	<text transform="matrix(1 0 0 1 147.5795 73.5865)" class="st2 st3 st4">r = 25</text>
</g>
</svg>
