<?xml version="1.0" encoding="utf-8"?>
<!-- Generator: Adobe Illustrator 22.0.0, SVG Export Plug-In . SVG Version: 6.00 Build 0)  -->
<svg version="1.1" id="Capa_1" xmlns="http://www.w3.org/2000/svg" xmlns:xlink="http://www.w3.org/1999/xlink" x="0px" y="0px"
	 width="210px" height="53.8px" viewBox="0 0 210 53.8" style="enable-background:new 0 0 210 53.8;" xml:space="preserve">
<style type="text/css">
	.st0{fill:#CA5E35;}
</style>
<g>
	<defs>
		<rect id="SVGID_1_" x="75.8" y="7.5" width="74.9" height="71"/>
	</defs>
	<clipPath id="SVGID_2_">
		<use xlink:href="#SVGID_1_"  style="overflow:visible;"/>
	</clipPath>
</g>
<g>
	<g>
		<path class="st0" d="M114.1,36.5c-4.7-3.7-1.4-18.7-1.4-18.7s5.1,0,5.7,0s2.9-0.4,2.9-3.2c0-3.5-2.9-3.2-2.9-3.2s-15.7,0-21.1,0
			c-3.5,0-6.6,4-8.4,6.8c-1,1.5-0.4,1.9,1.2,1.2c5.8-2.5,7.4-1.6,7.4-1.6c0.4,1.9,0.5,10.7-0.9,14.1c-1.5,3.3-4.3,7.4-0.2,9.8
			c3.2,1.8,6.5-1.9,6.2-8.2c-0.2-3.3-0.4-15.8-0.4-15.8h5.3c-0.2,1.9-1.1,11.8-0.1,17.7c1,9.8,11.6,7.9,13.6,2.3
			c0.5-1.5,0.4-2.7,0-3.6c-0.7-1.6-1.8-1.7-1.7-1c0.1,0.5,0,1,0,1.4C119.1,36,116.3,38.1,114.1,36.5z"/>
	</g>
</g>
</svg>
