<?xml version="1.0" encoding="utf-8"?>
<!-- Generator: Adobe Illustrator 22.0.0, SVG Export Plug-In . SVG Version: 6.00 Build 0)  -->
<svg version="1.1" id="Capa_1" xmlns="http://www.w3.org/2000/svg" xmlns:xlink="http://www.w3.org/1999/xlink" x="0px" y="0px"
	 width="210px" height="211px" viewBox="0 0 210 211" style="enable-background:new 0 0 210 211;" xml:space="preserve">
<style type="text/css">
	.st0{fill:none;stroke:#0278C1;stroke-width:0.2835;stroke-miterlimit:10;}
	.st1{fill:none;stroke:#000000;stroke-width:0.8504;stroke-miterlimit:10;}
	.st2{stroke:#000000;stroke-width:0.8504;stroke-miterlimit:10;}
	.st3{font-family:'MyriadPro-Regular';}
	.st4{font-size:5.5341px;}
	.st5{fill:#D80927;}
	.st6{font-size:5.2128px;}
	.st7{font-size:6.4802px;}
	.st8{font-size:4.5378px;}
	.st9{font-size:12px;}
	.st10{stroke:#000000;stroke-miterlimit:10;}
	.st11{font-size:9.1988px;}
</style>
<g>
	<rect x="19" y="19.5" class="st0" width="172" height="172"/>
	<line class="st0" x1="19" y1="162.8" x2="191" y2="162.8"/>
	<line class="st0" x1="19" y1="134.2" x2="191" y2="134.2"/>
	<line class="st0" x1="191" y1="105.5" x2="19" y2="105.5"/>
	<line class="st0" x1="19" y1="76.8" x2="191" y2="76.8"/>
	<line class="st0" x1="19" y1="48.2" x2="191" y2="48.2"/>
	<line class="st0" x1="162.3" y1="19.5" x2="162.3" y2="191.5"/>
	<line class="st0" x1="133.7" y1="19.5" x2="133.7" y2="191.5"/>
	<line class="st0" x1="105" y1="19.5" x2="105" y2="191.5"/>
	<line class="st0" x1="76.3" y1="19.5" x2="76.3" y2="191.5"/>
	<line class="st0" x1="47.7" y1="19.5" x2="47.7" y2="191.5"/>
</g>
<line class="st1" x1="19.2" y1="105.3" x2="190.8" y2="105.3"/>
<line class="st1" x1="105.3" y1="19.8" x2="105.3" y2="191.5"/>
<path class="st2" d="M105.3,16l-3.6,3.6h7.3C108.9,19.6,105.3,16,105.3,16z"/>
<path class="st2" d="M194.6,105.4l-3.6-3.6v7.3C190.9,109.1,194.6,105.4,194.6,105.4z"/>
<path class="st2" d="M15.7,105.3l3.6,3.6v-7.3C19.4,101.6,15.7,105.3,15.7,105.3z"/>
<path class="st2" d="M105.4,195.4l3.6-3.6h-7.3C101.7,191.7,105.4,195.4,105.4,195.4z"/>
<line class="st2" x1="103.2" y1="76.8" x2="107.4" y2="76.8"/>
<line class="st2" x1="103.2" y1="61.9" x2="107.4" y2="61.9"/>
<line class="st2" x1="103.2" y1="48.2" x2="107.4" y2="48.2"/>
<line class="st2" x1="103.2" y1="33.5" x2="107.4" y2="33.5"/>
<line class="st2" x1="103.2" y1="92.2" x2="107.4" y2="92.2"/>
<line class="st2" x1="133.7" y1="103.4" x2="133.7" y2="107.7"/>
<line class="st2" x1="148.6" y1="103.4" x2="148.6" y2="107.7"/>
<line class="st2" x1="162.4" y1="103.4" x2="162.4" y2="107.7"/>
<line class="st2" x1="177" y1="103.4" x2="177" y2="107.7"/>
<line class="st2" x1="118.3" y1="103.4" x2="118.3" y2="107.7"/>
<line class="st2" x1="76.3" y1="107.7" x2="76.3" y2="103.4"/>
<line class="st2" x1="61.4" y1="107.7" x2="61.4" y2="103.4"/>
<line class="st2" x1="47.7" y1="107.7" x2="47.7" y2="103.4"/>
<line class="st2" x1="33" y1="107.7" x2="33" y2="103.4"/>
<line class="st2" x1="91.7" y1="107.7" x2="91.7" y2="103.4"/>
<line class="st2" x1="107.4" y1="134.4" x2="103.2" y2="134.4"/>
<line class="st2" x1="107.4" y1="149.3" x2="103.2" y2="149.3"/>
<line class="st2" x1="107.4" y1="163.1" x2="103.2" y2="163.1"/>
<line class="st2" x1="107.4" y1="177.7" x2="103.2" y2="177.7"/>
<line class="st2" x1="107.4" y1="119" x2="103.2" y2="119"/>
<text transform="matrix(1 0 0 1 94.5 93.9492)" class="st3 st4">0,5</text>
<text transform="matrix(1 0 0 1 93.2852 121.5303)" class="st5 st3 st6">-0,5</text>
<text transform="matrix(1 0 0 1 93.2852 151.0303)" class="st5 st3 st6">-1,5</text>
<text transform="matrix(1 0 0 1 93.2852 179.5303)" class="st5 st3 st6">-2,5</text>
<text transform="matrix(1 0 0 1 93.3333 64.5465)" class="st3 st7">1,5</text>
<text transform="matrix(1 0 0 1 93.3333 36.3799)" class="st3 st7">2,5</text>
<text transform="matrix(1 0 0 1 98.3333 79.5465)" class="st3 st7">1</text>
<text transform="matrix(1 0 0 1 96.3333 136.0465)" class="st5 st3 st7">-1</text>
<text transform="matrix(1 0 0 1 96.3333 165.2965)" class="st5 st3 st7">-2</text>
<text transform="matrix(1 0 0 1 87.0352 114.0303)" class="st5 st3 st6">-0,5</text>
<text transform="matrix(1 0 0 1 74.2227 114.0303)" class="st5 st3 st6">-1</text>
<text transform="matrix(1 0 0 1 57.4102 114.0303)" class="st5 st3 st6">-1,5</text>
<text transform="matrix(1 0 0 1 45.5768 113.9886)" class="st5 st3 st6">-2</text>
<text transform="matrix(1 0 0 1 28.6602 113.9886)" class="st5 st3 st6">-2</text>
<text transform="matrix(1 0 0 1 98.3333 50.7132)" class="st3 st7">2</text>
<line class="st1" x1="19.2" y1="105.3" x2="190.8" y2="105.3"/>
<line class="st1" x1="105.3" y1="19.8" x2="105.3" y2="191.5"/>
<path class="st2" d="M105.3,16l-3.6,3.6h7.3C108.9,19.6,105.3,16,105.3,16z"/>
<path class="st2" d="M194.6,105.4l-3.6-3.6v7.3C190.9,109.1,194.6,105.4,194.6,105.4z"/>
<path class="st2" d="M15.7,105.3l3.6,3.6v-7.3C19.4,101.6,15.7,105.3,15.7,105.3z"/>
<path class="st2" d="M105.4,195.4l3.6-3.6h-7.3C101.7,191.7,105.4,195.4,105.4,195.4z"/>
<line class="st2" x1="103.2" y1="76.8" x2="107.4" y2="76.8"/>
<line class="st2" x1="103.2" y1="61.9" x2="107.4" y2="61.9"/>
<line class="st2" x1="103.2" y1="48.2" x2="107.4" y2="48.2"/>
<line class="st2" x1="103.2" y1="33.5" x2="107.4" y2="33.5"/>
<line class="st2" x1="103.2" y1="92.2" x2="107.4" y2="92.2"/>
<line class="st2" x1="133.7" y1="103.4" x2="133.7" y2="107.7"/>
<line class="st2" x1="148.6" y1="103.4" x2="148.6" y2="107.7"/>
<line class="st2" x1="162.4" y1="103.4" x2="162.4" y2="107.7"/>
<line class="st2" x1="177" y1="103.4" x2="177" y2="107.7"/>
<line class="st2" x1="118.3" y1="103.4" x2="118.3" y2="107.7"/>
<line class="st2" x1="76.3" y1="107.7" x2="76.3" y2="103.4"/>
<line class="st2" x1="61.4" y1="107.7" x2="61.4" y2="103.4"/>
<line class="st2" x1="47.7" y1="107.7" x2="47.7" y2="103.4"/>
<line class="st2" x1="33" y1="107.7" x2="33" y2="103.4"/>
<line class="st2" x1="91.7" y1="107.7" x2="91.7" y2="103.4"/>
<line class="st2" x1="107.4" y1="134.4" x2="103.2" y2="134.4"/>
<line class="st2" x1="107.4" y1="149.3" x2="103.2" y2="149.3"/>
<line class="st2" x1="107.4" y1="163.1" x2="103.2" y2="163.1"/>
<line class="st2" x1="107.4" y1="177.7" x2="103.2" y2="177.7"/>
<line class="st2" x1="107.4" y1="119" x2="103.2" y2="119"/>
<text transform="matrix(1 0 0 1 94.5 93.9492)" class="st3 st4">0,5</text>
<text transform="matrix(1 0 0 1 115.625 112.7402)" class="st3 st8">0,5</text>
<text transform="matrix(1 0 0 1 132.4688 112.7402)" class="st3 st8">1</text>
<text transform="matrix(1 0 0 1 146.1354 112.7402)" class="st3 st8">1,5</text>
<text transform="matrix(1 0 0 1 161.2188 112.7402)" class="st3 st8">2</text>
<text transform="matrix(1 0 0 1 174.2188 112.7402)" class="st3 st8">2,5</text>
<text transform="matrix(1 0 0 1 93.2852 121.5303)" class="st5 st3 st6">-0,5</text>
<text transform="matrix(1 0 0 1 93.2852 151.0303)" class="st5 st3 st6">-1,5</text>
<text transform="matrix(1 0 0 1 93.2852 179.5303)" class="st5 st3 st6">-2,5</text>
<text transform="matrix(1 0 0 1 93.3333 64.5465)" class="st3 st7">1,5</text>
<text transform="matrix(1 0 0 1 93.3333 36.3799)" class="st3 st7">2,5</text>
<text transform="matrix(1 0 0 1 98.3333 79.5465)" class="st3 st7">1</text>
<text transform="matrix(1 0 0 1 96.3333 136.0465)" class="st5 st3 st7">-1</text>
<text transform="matrix(1 0 0 1 96.3333 165.2965)" class="st5 st3 st7">-2</text>
<text transform="matrix(1 0 0 1 87.0352 114.0303)" class="st5 st3 st6">-0,5</text>
<text transform="matrix(1 0 0 1 74.2227 114.0303)" class="st5 st3 st6">-1</text>
<text transform="matrix(1 0 0 1 57.4102 114.0303)" class="st5 st3 st6">-1,5</text>
<text transform="matrix(1 0 0 1 45.5768 113.9886)" class="st5 st3 st6">-2</text>
<text transform="matrix(1 0 0 1 28.6602 113.9886)" class="st5 st3 st6">-2</text>
<text transform="matrix(1 0 0 1 98.3333 50.7132)" class="st3 st7">2</text>
<text transform="matrix(1 0 0 1 145.792 62.9997)" class="st3 st9">I</text>
<line class="st10" x1="141.8" y1="54.9" x2="152.8" y2="54.9"/>
<line class="st10" x1="141.8" y1="62.9" x2="152.8" y2="62.9"/>
<text transform="matrix(1 0 0 1 55.917 62.9997)" class="st3 st9">I</text>
<text transform="matrix(1 0 0 1 59.667 62.9997)" class="st3 st9">I</text>
<line class="st10" x1="53.8" y1="54.9" x2="64.8" y2="54.9"/>
<line class="st10" x1="53.8" y1="62.9" x2="64.8" y2="62.9"/>
<text transform="matrix(1 0 0 1 54.6357 152.9997)" class="st3 st9">I</text>
<text transform="matrix(1 0 0 1 57.8857 152.9997)" class="st3 st9">I</text>
<text transform="matrix(1 0 0 1 61.0107 152.9997)" class="st3 st9">I</text>
<line class="st10" x1="53.8" y1="144.9" x2="64.8" y2="144.9"/>
<line class="st10" x1="53.8" y1="152.9" x2="64.8" y2="152.9"/>
<text transform="matrix(1.3045 0 0 1 143.5732 151.9912)" class="st3 st11">I</text>
<line class="st10" x1="142.3" y1="144.9" x2="153.3" y2="144.9"/>
<line class="st10" x1="142.3" y1="152.9" x2="153.3" y2="152.9"/>
<text transform="matrix(1 0 0 1 146.75 151.75)" class="st3 st9">v</text>
</svg>
