<?xml version="1.0" encoding="utf-8"?>
<!-- Generator: Adobe Illustrator 16.0.0, SVG Export Plug-In . SVG Version: 6.00 Build 0)  -->
<!DOCTYPE svg PUBLIC "-//W3C//DTD SVG 1.1//EN" "http://www.w3.org/Graphics/SVG/1.1/DTD/svg11.dtd">
<svg version="1.1" id="Capa_1" xmlns="http://www.w3.org/2000/svg" xmlns:xlink="http://www.w3.org/1999/xlink" x="0px" y="0px"
	 width="210px" height="80px" viewBox="0 0 210 80" enable-background="new 0 0 210 80" xml:space="preserve">
<path fill="#FF6010" d="M85.631,33.303h3.895c0,0-0.116-7.944,7.474-9.609c0,0,4.73-1.21,8.253,2.626c0,0,4.933,5.252,0,11.945
	c0,0-19.825,21.845-20.517,21.999h27.276l-0.154-3.812H93.583l11.736-12.461c0,0,7.155-7.203,5.961-13.889
	c0,0-1.27-8.533-8.888-9.917c0,0-6.771-2.001-11.848,2.462C90.545,22.646,85.409,26.569,85.631,33.303z"/>
<path fill="#FF6010" d="M132.705,11.145h1.241c0,0-0.037-2.532,2.382-3.063c0,0,1.508-0.386,2.631,0.837c0,0,1.572,1.674,0,3.807
	c0,0-6.318,6.962-6.539,7.011h8.693l-0.05-1.215h-5.823l3.74-3.971c0,0,2.28-2.296,1.899-4.427c0,0-0.404-2.72-2.832-3.161
	c0,0-2.158-0.638-3.776,0.785C134.271,7.749,132.635,8.999,132.705,11.145z"/>
<g>
	<path fill="#FF6010" d="M76.066,15.681c0,0-0.473,0.754-1.233,2.082c-0.752,1.333-1.795,3.238-2.884,5.565
		c-0.55,1.161-1.072,2.446-1.613,3.794c-0.511,1.361-1.036,2.793-1.458,4.302c-0.233,0.748-0.406,1.522-0.611,2.296
		c-0.164,0.783-0.344,1.571-0.479,2.371c-0.273,1.6-0.454,3.232-0.506,4.866c-0.04,0.816-0.013,1.633-0.004,2.443
		c0.087,0.807,0.064,1.623,0.197,2.416c0.113,0.793,0.19,1.59,0.367,2.359c0.076,0.389,0.152,0.773,0.228,1.156
		c0.1,0.377,0.199,0.752,0.297,1.125c0.099,0.373,0.198,0.744,0.295,1.111c0.123,0.359,0.246,0.715,0.366,1.068
		c0.118,0.355,0.235,0.707,0.351,1.055c0.141,0.34,0.28,0.674,0.417,1.004c0.511,1.346,1.148,2.559,1.697,3.711
		c0.656,1.086,1.158,2.168,1.75,3.035c0.578,0.875,1.017,1.703,1.477,2.311c0.87,1.256,1.346,2.02,1.346,2.02
		s-0.718-0.512-1.937-1.486c-0.628-0.469-1.3-1.131-2.084-1.891c-0.817-0.734-1.589-1.697-2.472-2.729
		c-0.805-1.086-1.724-2.254-2.478-3.637c-0.197-0.342-0.396-0.688-0.598-1.037c-0.174-0.365-0.351-0.736-0.529-1.109
		c-0.176-0.377-0.354-0.76-0.533-1.145c-0.148-0.398-0.298-0.801-0.45-1.205c-0.146-0.408-0.31-0.816-0.443-1.236
		c-0.115-0.426-0.231-0.855-0.349-1.287c-0.263-0.859-0.408-1.758-0.563-2.66c-0.178-0.9-0.22-1.826-0.314-2.748
		c-0.024-0.924-0.068-1.857-0.031-2.785c0.083-1.856,0.303-3.702,0.701-5.474c0.389-1.772,0.907-3.479,1.545-5.067
		c0.605-1.602,1.354-3.073,2.093-4.438c0.764-1.354,1.561-2.583,2.355-3.671c0.773-1.101,1.561-2.049,2.284-2.863
		c0.704-0.827,1.392-1.486,1.947-2.03C75.339,16.199,76.066,15.681,76.066,15.681z"/>
</g>
<g>
	<path fill="#FF6010" d="M121.607,14.955c0,0,0.727,0.518,1.855,1.593c0.556,0.543,1.243,1.203,1.947,2.03
		c0.723,0.814,1.511,1.763,2.284,2.863c0.794,1.088,1.59,2.317,2.354,3.671c0.739,1.365,1.488,2.836,2.093,4.438
		c0.638,1.588,1.156,3.295,1.545,5.067c0.398,1.771,0.619,3.618,0.701,5.474c0.037,0.928-0.006,1.86-0.03,2.784
		c-0.094,0.923-0.137,1.848-0.314,2.748c-0.155,0.903-0.301,1.801-0.563,2.66c-0.117,0.432-0.233,0.861-0.349,1.287
		c-0.133,0.421-0.296,0.828-0.442,1.236c-0.151,0.405-0.302,0.808-0.45,1.206c-0.18,0.385-0.357,0.767-0.533,1.144
		c-0.178,0.374-0.354,0.744-0.528,1.109c-0.202,0.351-0.401,0.696-0.599,1.037c-0.753,1.383-1.673,2.552-2.478,3.638
		c-0.883,1.031-1.654,1.994-2.472,2.728c-0.784,0.76-1.457,1.422-2.085,1.892c-1.219,0.975-1.937,1.485-1.937,1.485
		s0.476-0.764,1.347-2.019c0.459-0.607,0.898-1.437,1.477-2.311c0.592-0.867,1.093-1.949,1.75-3.036
		c0.549-1.152,1.187-2.365,1.696-3.71c0.138-0.33,0.277-0.665,0.418-1.004c0.116-0.348,0.232-0.699,0.352-1.055
		c0.12-0.354,0.243-0.71,0.366-1.069c0.098-0.367,0.195-0.737,0.295-1.111c0.099-0.371,0.197-0.747,0.298-1.124
		c0.075-0.383,0.15-0.769,0.228-1.156c0.176-0.771,0.254-1.566,0.366-2.36c0.133-0.793,0.11-1.608,0.197-2.415
		c0.008-0.813,0.035-1.628-0.005-2.444c-0.052-1.633-0.233-3.266-0.506-4.866c-0.135-0.8-0.315-1.588-0.479-2.371
		c-0.205-0.774-0.378-1.548-0.611-2.296c-0.422-1.508-0.947-2.941-1.458-4.302c-0.542-1.348-1.063-2.633-1.613-3.794
		c-1.089-2.327-2.131-4.232-2.884-5.565C122.08,15.709,121.607,14.955,121.607,14.955z"/>
</g>
</svg>
