<?xml version="1.0" encoding="utf-8"?>
<!-- Generator: Adobe Illustrator 16.0.0, SVG Export Plug-In . SVG Version: 6.00 Build 0)  -->
<!DOCTYPE svg PUBLIC "-//W3C//DTD SVG 1.1//EN" "http://www.w3.org/Graphics/SVG/1.1/DTD/svg11.dtd">
<svg version="1.1" id="Capa_1" xmlns="http://www.w3.org/2000/svg" xmlns:xlink="http://www.w3.org/1999/xlink" x="0px" y="0px"
	 width="332.27px" height="251.649px" viewBox="0 0 332.27 251.649" enable-background="new 0 0 332.27 251.649"
	 xml:space="preserve">
<path fill="#F4722A" d="M323.667,230c0,6.627-5.373,12-12,12H21.333c-6.627,0-12-5.373-12-12V21.004c0-6.627,5.373-12,12-12h290.333
	c6.627,0,12,5.373,12,12V230z"/>
<linearGradient id="SVGID_1_" gradientUnits="userSpaceOnUse" x1="167.1934" y1="18.5156" x2="166.7541" y2="73.2283">
	<stop  offset="0.046" style="stop-color:#00CD00"/>
	<stop  offset="1" style="stop-color:#FFFFFF"/>
</linearGradient>
<path fill="url(#SVGID_1_)" d="M314.334,221.473c0,6.642-5.373,12.027-12,12.027h-272c-6.627,0-12-5.386-12-12.027V29.697
	c0-6.643,5.373-12.028,12-12.028h272c6.627,0,12,5.385,12,12.028V221.473z"/>
<g>
	<ellipse fill="#FCF9F7" cx="41.964" cy="37.924" rx="5.172" ry="10.857"/>
	<path fill="#211915" d="M41.964,48.881c-2.904,0-5.266-4.916-5.266-10.957c0-6.042,2.362-10.958,5.266-10.958
		s5.266,4.916,5.266,10.958C47.23,43.965,44.869,48.881,41.964,48.881z M41.964,27.164c-2.799,0-5.076,4.827-5.076,10.76
		c0,5.931,2.277,10.758,5.076,10.758s5.076-4.827,5.076-10.758C47.04,31.991,44.764,27.164,41.964,27.164z"/>
</g>
<g>
	<ellipse cx="41.975" cy="37.924" rx="2.568" ry="2.772"/>
	<path fill="#211915" d="M41.976,40.808c-1.476,0-2.676-1.295-2.676-2.884c0-1.591,1.201-2.885,2.676-2.885
		c1.475,0,2.673,1.293,2.673,2.885C44.649,39.513,43.451,40.808,41.976,40.808z M41.976,35.263c-1.359,0-2.461,1.193-2.461,2.661
		c0,1.467,1.103,2.66,2.461,2.66c1.355,0,2.46-1.193,2.46-2.66C44.437,36.457,43.332,35.263,41.976,35.263z"/>
</g>
<g>
	<ellipse fill="#FCFCFC" cx="58" cy="37.88" rx="5.171" ry="10.857"/>
	<path fill="#211915" d="M58,48.837c-2.904,0-5.267-4.917-5.267-10.958S55.096,26.922,58,26.922c2.903,0,5.266,4.917,5.266,10.958
		S60.903,48.837,58,48.837z M58,27.121c-2.799,0-5.076,4.826-5.076,10.759c0,5.932,2.277,10.758,5.076,10.758
		c2.799,0,5.076-4.826,5.076-10.758C63.076,31.947,60.799,27.121,58,27.121z"/>
</g>
<g>
	<ellipse cx="57.79" cy="37.834" rx="2.568" ry="2.773"/>
	<path fill="#211915" d="M57.791,40.719c-1.476,0-2.676-1.292-2.676-2.885c0-1.588,1.2-2.883,2.676-2.883
		c1.474,0,2.674,1.294,2.674,2.883C60.465,39.426,59.265,40.719,57.791,40.719z M57.791,35.174c-1.357,0-2.462,1.194-2.462,2.66
		c0,1.469,1.105,2.663,2.462,2.663c1.355,0,2.46-1.194,2.46-2.663C60.251,36.368,59.146,35.174,57.791,35.174z"/>
</g>
<path fill="#050403" d="M23.831,65.327c0,0,0.074-0.039,0.216-0.113c0.14-0.073,0.348-0.181,0.615-0.309
	c0.266-0.132,0.593-0.283,0.968-0.457c0.376-0.17,0.799-0.367,1.269-0.56c0.234-0.098,0.479-0.201,0.731-0.307
	c0.254-0.101,0.518-0.204,0.788-0.312c0.54-0.217,1.119-0.42,1.714-0.639c0.301-0.101,0.606-0.206,0.915-0.311
	c0.31-0.103,0.622-0.215,0.941-0.308c0.637-0.19,1.282-0.4,1.936-0.571c0.327-0.087,0.653-0.175,0.979-0.262
	c0.325-0.085,0.653-0.156,0.976-0.234c0.325-0.075,0.646-0.148,0.963-0.224c0.319-0.062,0.635-0.123,0.947-0.184
	c0.311-0.06,0.616-0.119,0.916-0.176c0.3-0.046,0.595-0.089,0.882-0.131c0.287-0.042,0.565-0.083,0.835-0.124
	c0.27-0.045,0.533-0.059,0.786-0.087c0.502-0.049,0.964-0.092,1.373-0.132c0.409-0.019,0.768-0.033,1.063-0.047
	c0.587-0.021,0.924-0.033,0.924-0.033s-0.334,0.033-0.92,0.093c-0.293,0.027-0.648,0.061-1.056,0.099
	c-0.406,0.058-0.864,0.122-1.363,0.193c-0.501,0.059-1.038,0.162-1.608,0.261c-0.283,0.05-0.575,0.101-0.874,0.154
	c-0.297,0.063-0.601,0.127-0.908,0.192c-0.31,0.065-0.622,0.131-0.939,0.198c-0.317,0.076-0.635,0.154-0.956,0.232
	c-0.322,0.079-0.648,0.151-0.972,0.238c-0.323,0.089-0.648,0.178-0.972,0.267c-0.652,0.166-1.295,0.372-1.93,0.558
	c-0.634,0.193-1.255,0.398-1.856,0.59c-0.3,0.104-0.592,0.204-0.88,0.304c-0.289,0.096-0.57,0.194-0.841,0.296
	c-0.273,0.099-0.539,0.194-0.795,0.288c-0.255,0.097-0.502,0.189-0.738,0.279c-0.475,0.178-0.906,0.354-1.289,0.501
	c-0.381,0.156-0.714,0.291-0.986,0.407c-0.272,0.116-0.487,0.208-0.632,0.271C23.908,65.293,23.831,65.327,23.831,65.327z"/>
<path fill="#050403" d="M23.49,59.808c0,0,0.081-0.031,0.229-0.086c0.149-0.054,0.366-0.136,0.647-0.231
	c0.559-0.195,1.358-0.471,2.326-0.772c0.484-0.15,1.008-0.316,1.567-0.475c0.279-0.08,0.565-0.164,0.858-0.248
	c0.294-0.081,0.594-0.162,0.899-0.244c0.611-0.169,1.248-0.327,1.892-0.489c0.646-0.158,1.306-0.305,1.963-0.457
	c0.662-0.133,1.322-0.277,1.975-0.399c0.328-0.06,0.651-0.117,0.973-0.176c0.321-0.056,0.637-0.113,0.951-0.157
	c0.313-0.046,0.621-0.092,0.92-0.137c0.302-0.047,0.597-0.088,0.884-0.118c0.578-0.064,1.121-0.133,1.626-0.176
	c0.503-0.035,0.967-0.067,1.377-0.095c0.204-0.016,0.397-0.02,0.574-0.024c0.178-0.003,0.341-0.009,0.488-0.012
	c0.589-0.01,0.926-0.016,0.926-0.016s-0.334,0.027-0.923,0.076c-0.146,0.011-0.309,0.022-0.487,0.036
	c-0.176,0.013-0.367,0.025-0.57,0.052c-0.408,0.046-0.868,0.1-1.37,0.156c-0.5,0.062-1.04,0.149-1.613,0.227
	c-0.287,0.037-0.58,0.087-0.878,0.14c-0.3,0.05-0.605,0.102-0.916,0.154c-0.623,0.099-1.26,0.239-1.913,0.356
	c-0.649,0.125-1.307,0.272-1.966,0.408c-0.658,0.15-1.315,0.293-1.96,0.446c-0.644,0.16-1.281,0.301-1.893,0.461
	c-0.306,0.077-0.606,0.153-0.902,0.228c-0.294,0.076-0.582,0.152-0.861,0.226c-0.562,0.148-1.09,0.292-1.58,0.422
	c-0.975,0.269-1.789,0.493-2.355,0.661C23.814,59.711,23.49,59.808,23.49,59.808z"/>
<path fill="#050403" d="M76.1,65.327c0,0-0.068-0.051-0.204-0.139c-0.132-0.093-0.334-0.213-0.587-0.375
	c-0.26-0.151-0.57-0.341-0.939-0.535c-0.363-0.204-0.788-0.406-1.244-0.637c-0.23-0.113-0.475-0.218-0.726-0.332
	c-0.125-0.059-0.252-0.116-0.38-0.176c-0.131-0.059-0.265-0.111-0.4-0.166c-0.271-0.112-0.549-0.226-0.833-0.342
	c-0.289-0.106-0.583-0.216-0.882-0.325c-0.592-0.235-1.228-0.409-1.862-0.621l-0.239-0.078l-0.243-0.065
	c-0.162-0.044-0.324-0.089-0.488-0.131c-0.327-0.09-0.653-0.178-0.98-0.267c-0.664-0.146-1.322-0.304-1.976-0.438
	c-0.657-0.115-1.304-0.229-1.93-0.338c-0.63-0.082-1.239-0.16-1.816-0.234c-0.289-0.045-0.572-0.057-0.845-0.082
	c-0.275-0.022-0.538-0.044-0.792-0.065c-0.506-0.038-0.971-0.091-1.385-0.095c-0.412-0.016-0.773-0.028-1.07-0.041
	c-0.593-0.024-0.933-0.038-0.933-0.038s0.34-0.008,0.935-0.02c0.296-0.004,0.659-0.01,1.073-0.015
	c0.415-0.018,0.881,0.012,1.39,0.035c0.256,0.011,0.522,0.024,0.796,0.036c0.275,0.016,0.56,0.021,0.851,0.059
	c0.582,0.062,1.196,0.127,1.833,0.194c0.63,0.099,1.283,0.205,1.946,0.316c0.659,0.131,1.323,0.288,1.992,0.431
	c0.329,0.091,0.658,0.182,0.987,0.273c0.164,0.044,0.327,0.09,0.491,0.134l0.244,0.069l0.241,0.079
	c0.639,0.215,1.273,0.407,1.869,0.65c0.298,0.118,0.595,0.226,0.881,0.343c0.283,0.125,0.561,0.249,0.831,0.367
	c0.134,0.059,0.268,0.115,0.397,0.178s0.255,0.125,0.38,0.187c0.249,0.125,0.491,0.24,0.717,0.36
	c0.453,0.248,0.87,0.471,1.224,0.696c0.361,0.213,0.663,0.42,0.916,0.583c0.247,0.173,0.441,0.311,0.567,0.41
	C76.035,65.271,76.1,65.327,76.1,65.327z"/>
<path fill="none" stroke="#050403" stroke-width="0.1483" stroke-miterlimit="10" d="M76.1,59.801"/>
<path fill="#050403" d="M76.1,59.801c0,0-0.08-0.028-0.228-0.083c-0.149-0.053-0.369-0.13-0.647-0.229
	c-0.279-0.1-0.619-0.213-1.008-0.343c-0.394-0.125-0.833-0.271-1.317-0.42c-0.482-0.153-1.007-0.307-1.563-0.471
	c-0.554-0.169-1.146-0.317-1.753-0.492c-0.612-0.156-1.242-0.324-1.887-0.479c-0.646-0.148-1.298-0.314-1.958-0.443
	c-0.33-0.068-0.659-0.139-0.986-0.208c-0.328-0.066-0.657-0.121-0.983-0.181c-0.325-0.061-0.648-0.119-0.966-0.177
	c-0.321-0.05-0.638-0.098-0.949-0.144c-0.312-0.049-0.618-0.096-0.917-0.141c-0.302-0.036-0.596-0.072-0.883-0.106
	c-0.572-0.068-1.114-0.141-1.617-0.174c-0.502-0.044-0.962-0.085-1.372-0.12c-0.409-0.019-0.765-0.033-1.059-0.046
	c-0.589-0.028-0.925-0.045-0.925-0.045s0.336-0.005,0.926-0.013c0.294-0.002,0.652-0.004,1.063-0.008
	c0.412,0.018,0.874,0.038,1.378,0.059c0.253,0.015,0.518,0.016,0.789,0.045c0.271,0.025,0.551,0.05,0.841,0.077
	c0.289,0.027,0.585,0.055,0.889,0.083c0.302,0.041,0.609,0.083,0.922,0.124c0.314,0.042,0.633,0.087,0.956,0.13
	c0.321,0.054,0.646,0.112,0.974,0.168c0.326,0.058,0.657,0.111,0.987,0.177c0.33,0.068,0.661,0.137,0.991,0.205
	c0.664,0.132,1.316,0.302,1.964,0.455c0.325,0.074,0.642,0.165,0.957,0.25c0.314,0.086,0.625,0.171,0.932,0.255
	c0.607,0.182,1.196,0.35,1.749,0.533c0.275,0.09,0.545,0.177,0.806,0.263c0.258,0.09,0.507,0.177,0.748,0.261
	c0.479,0.163,0.913,0.333,1.3,0.477c0.384,0.151,0.719,0.281,0.993,0.396c0.275,0.111,0.487,0.204,0.634,0.268
	C76.023,59.768,76.1,59.801,76.1,59.801z"/>
<path fill="none" stroke="#050403" stroke-width="0.1483" stroke-miterlimit="10" d="M46.069,55.496"/>
<g>
	<path fill="#CB6120" d="M46.627,55.496l6.589,0.128c0,0,1.236,0.15-0.896,2.393c-2.131,2.245-2.397,2.395-2.397,2.395l-2.52-2.458
		C47.402,57.954,44.956,55.748,46.627,55.496z"/>
	<path fill="#050403" d="M49.91,60.504l-2.558-2.495c-0.062-0.055-1.571-1.426-1.361-2.165c0.064-0.228,0.275-0.369,0.625-0.422
		l6.601,0.126c0.02,0.002,0.305,0.04,0.399,0.32c0.146,0.438-0.272,1.18-1.245,2.203c-2.115,2.225-2.404,2.402-2.416,2.407
		L49.91,60.504z M46.626,55.573c-0.279,0.042-0.45,0.147-0.497,0.314c-0.15,0.535,0.901,1.633,1.32,2.009l2.478,2.418
		c0.135-0.11,0.646-0.567,2.341-2.35c1.219-1.283,1.282-1.832,1.211-2.044c-0.063-0.191-0.264-0.221-0.272-0.222L46.626,55.573z"/>
</g>
<text transform="matrix(0.6973 0 0 1 76.0996 50.8887)" font-family="'RoundedElegance-Regular'" font-size="21.3744">Resuelve la siguiente operación:</text>
<text transform="matrix(1 0 0 1 44.6494 166.3701)" font-family="'RoundedElegance-Regular'" font-size="84.9548">2+7=?</text>
<text transform="matrix(1 0 0 1 223.2695 219.7324)" font-family="'RoundedElegance-Regular'" font-size="23.0305">¡Éxitos!</text>
</svg>
