<?xml version="1.0" encoding="utf-8"?>
<!-- Generator: Adobe Illustrator 16.0.0, SVG Export Plug-In . SVG Version: 6.00 Build 0)  -->
<!DOCTYPE svg PUBLIC "-//W3C//DTD SVG 1.1//EN" "http://www.w3.org/Graphics/SVG/1.1/DTD/svg11.dtd">
<svg version="1.1" id="Capa_1" xmlns="http://www.w3.org/2000/svg" xmlns:xlink="http://www.w3.org/1999/xlink" x="0px" y="0px"
	 width="332.27px" height="251.649px" viewBox="0 0 332.27 251.649" enable-background="new 0 0 332.27 251.649"
	 xml:space="preserve">
<path fill="#F4722A" d="M323.667,230c0,6.627-5.373,12-12,12H21.333c-6.627,0-11.999-5.373-11.999-12V21.004
	c0-6.627,5.372-12,11.999-12h290.334c6.627,0,12,5.373,12,12V230z"/>
<linearGradient id="SVGID_1_" gradientUnits="userSpaceOnUse" x1="167.1924" y1="18.5156" x2="166.7531" y2="73.2284">
	<stop  offset="0.046" style="stop-color:#00CD00"/>
	<stop  offset="1" style="stop-color:#FFFFFF"/>
</linearGradient>
<path fill="url(#SVGID_1_)" d="M314.334,221.473c0,6.643-5.373,12.027-12,12.027h-272c-6.628,0-12.001-5.385-12.001-12.027V29.697
	c0-6.643,5.373-12.028,12.001-12.028h272c6.627,0,12,5.385,12,12.028V221.473z"/>
<g>
	<ellipse fill="#FCF9F7" cx="41.964" cy="37.924" rx="5.171" ry="10.857"/>
	<path fill="#211915" d="M41.965,48.881c-2.904,0-5.267-4.916-5.267-10.957c0-6.042,2.362-10.958,5.267-10.958
		s5.266,4.916,5.266,10.958C47.23,43.965,44.869,48.881,41.965,48.881z M41.965,27.164c-2.8,0-5.076,4.827-5.076,10.76
		c0,5.931,2.276,10.758,5.076,10.758c2.799,0,5.075-4.827,5.075-10.758C47.04,31.991,44.764,27.164,41.965,27.164z"/>
</g>
<g>
	<ellipse cx="41.975" cy="37.924" rx="2.568" ry="2.772"/>
	<path fill="#211915" d="M41.977,40.808c-1.477,0-2.677-1.295-2.677-2.884c0-1.591,1.2-2.885,2.677-2.885
		c1.475,0,2.673,1.293,2.673,2.885C44.649,39.513,43.451,40.808,41.977,40.808z M41.977,35.263c-1.359,0-2.462,1.193-2.462,2.661
		c0,1.467,1.103,2.66,2.462,2.66c1.355,0,2.46-1.193,2.46-2.66C44.437,36.457,43.332,35.263,41.977,35.263z"/>
</g>
<g>
	<ellipse fill="#FCFCFC" cx="58" cy="37.88" rx="5.171" ry="10.857"/>
	<path fill="#211915" d="M58,48.837c-2.904,0-5.267-4.917-5.267-10.958S55.096,26.922,58,26.922c2.903,0,5.267,4.917,5.267,10.958
		S60.903,48.837,58,48.837z M58,27.121c-2.8,0-5.076,4.826-5.076,10.759c0,5.932,2.276,10.758,5.076,10.758
		c2.799,0,5.076-4.826,5.076-10.758C63.076,31.947,60.799,27.121,58,27.121z"/>
</g>
<g>
	<ellipse cx="57.79" cy="37.834" rx="2.568" ry="2.773"/>
	<path fill="#211915" d="M57.79,40.719c-1.476,0-2.676-1.292-2.676-2.885c0-1.588,1.2-2.883,2.676-2.883
		c1.475,0,2.675,1.294,2.675,2.883C60.465,39.426,59.265,40.719,57.79,40.719z M57.79,35.174c-1.356,0-2.461,1.194-2.461,2.66
		c0,1.469,1.104,2.663,2.461,2.663c1.355,0,2.461-1.194,2.461-2.663C60.251,36.368,59.146,35.174,57.79,35.174z"/>
</g>
<path fill="#050403" d="M23.831,65.327c0,0,0.073-0.039,0.216-0.113c0.14-0.073,0.348-0.181,0.615-0.309
	c0.266-0.132,0.592-0.283,0.968-0.457c0.376-0.17,0.799-0.367,1.269-0.56c0.234-0.098,0.479-0.201,0.732-0.307
	c0.254-0.101,0.518-0.204,0.787-0.312c0.541-0.217,1.119-0.42,1.715-0.639c0.301-0.101,0.605-0.206,0.915-0.311
	c0.31-0.103,0.622-0.215,0.94-0.308c0.638-0.19,1.283-0.4,1.937-0.571c0.327-0.087,0.653-0.175,0.978-0.262
	c0.325-0.085,0.654-0.156,0.977-0.234c0.324-0.075,0.646-0.148,0.963-0.224c0.32-0.062,0.636-0.123,0.947-0.184
	c0.311-0.06,0.616-0.119,0.916-0.176c0.301-0.046,0.595-0.089,0.883-0.131c0.286-0.042,0.564-0.083,0.834-0.124
	c0.271-0.045,0.533-0.059,0.786-0.087c0.502-0.049,0.964-0.092,1.372-0.132c0.41-0.019,0.768-0.033,1.063-0.047
	c0.588-0.021,0.924-0.033,0.924-0.033s-0.334,0.033-0.92,0.093c-0.293,0.027-0.648,0.061-1.057,0.099
	c-0.405,0.058-0.863,0.122-1.362,0.193c-0.501,0.059-1.038,0.162-1.608,0.261c-0.282,0.05-0.574,0.101-0.873,0.154
	c-0.297,0.063-0.602,0.127-0.908,0.192c-0.31,0.065-0.622,0.131-0.939,0.198c-0.316,0.076-0.635,0.154-0.955,0.232
	c-0.322,0.079-0.648,0.151-0.973,0.238c-0.322,0.089-0.647,0.178-0.972,0.267c-0.652,0.166-1.295,0.372-1.93,0.558
	c-0.634,0.193-1.255,0.398-1.856,0.59c-0.299,0.104-0.592,0.204-0.88,0.304c-0.288,0.096-0.569,0.194-0.841,0.296
	c-0.273,0.099-0.539,0.194-0.795,0.288c-0.255,0.097-0.502,0.189-0.738,0.279c-0.475,0.178-0.906,0.354-1.289,0.501
	c-0.381,0.156-0.714,0.291-0.985,0.407c-0.272,0.116-0.487,0.208-0.632,0.271C23.907,65.293,23.831,65.327,23.831,65.327z"/>
<path fill="#050403" d="M23.489,59.808c0,0,0.081-0.031,0.229-0.086c0.149-0.054,0.365-0.136,0.646-0.231
	c0.559-0.195,1.358-0.471,2.326-0.772c0.484-0.15,1.008-0.316,1.567-0.475c0.278-0.08,0.565-0.164,0.858-0.248
	c0.294-0.081,0.594-0.162,0.899-0.244c0.611-0.169,1.247-0.327,1.892-0.489c0.646-0.158,1.307-0.305,1.964-0.457
	c0.662-0.133,1.321-0.277,1.976-0.399c0.328-0.06,0.65-0.117,0.973-0.176c0.32-0.056,0.637-0.113,0.95-0.157
	c0.313-0.046,0.621-0.092,0.921-0.137c0.301-0.047,0.596-0.088,0.884-0.118c0.577-0.064,1.121-0.133,1.626-0.176
	c0.504-0.035,0.967-0.067,1.377-0.095c0.205-0.016,0.398-0.02,0.574-0.024c0.178-0.003,0.342-0.009,0.488-0.012
	c0.59-0.01,0.926-0.016,0.926-0.016s-0.334,0.027-0.922,0.076c-0.146,0.011-0.31,0.022-0.487,0.036
	c-0.177,0.013-0.367,0.025-0.569,0.052c-0.408,0.046-0.868,0.1-1.37,0.156c-0.499,0.062-1.04,0.149-1.612,0.227
	c-0.287,0.037-0.58,0.087-0.879,0.14c-0.3,0.05-0.605,0.102-0.916,0.154c-0.623,0.099-1.26,0.239-1.912,0.356
	c-0.65,0.125-1.308,0.272-1.967,0.408c-0.658,0.15-1.315,0.293-1.96,0.446c-0.644,0.16-1.28,0.301-1.894,0.461
	c-0.306,0.077-0.605,0.153-0.901,0.228c-0.294,0.076-0.581,0.152-0.861,0.226c-0.562,0.148-1.09,0.292-1.579,0.422
	c-0.975,0.269-1.789,0.493-2.355,0.661C23.814,59.711,23.489,59.808,23.489,59.808z"/>
<path fill="#050403" d="M76.1,65.327c0,0-0.068-0.051-0.203-0.139c-0.133-0.093-0.334-0.213-0.588-0.375
	c-0.26-0.151-0.569-0.341-0.938-0.535c-0.363-0.204-0.788-0.406-1.244-0.637c-0.229-0.113-0.476-0.218-0.726-0.332
	c-0.125-0.059-0.253-0.116-0.381-0.176c-0.131-0.059-0.266-0.111-0.4-0.166c-0.271-0.112-0.549-0.226-0.832-0.342
	c-0.289-0.106-0.582-0.216-0.883-0.325c-0.592-0.235-1.227-0.409-1.861-0.621l-0.239-0.078l-0.243-0.065
	c-0.162-0.044-0.324-0.089-0.488-0.131c-0.326-0.09-0.653-0.178-0.98-0.267c-0.663-0.146-1.321-0.304-1.976-0.438
	c-0.656-0.115-1.305-0.229-1.93-0.338c-0.631-0.082-1.24-0.16-1.816-0.234c-0.289-0.045-0.572-0.057-0.846-0.082
	c-0.274-0.022-0.537-0.044-0.791-0.065c-0.507-0.038-0.971-0.091-1.386-0.095c-0.412-0.016-0.772-0.028-1.07-0.041
	c-0.593-0.024-0.933-0.038-0.933-0.038s0.34-0.008,0.934-0.02c0.297-0.004,0.659-0.01,1.074-0.015
	c0.414-0.018,0.881,0.012,1.39,0.035c0.257,0.011,0.522,0.024,0.796,0.036c0.275,0.016,0.561,0.021,0.852,0.059
	c0.582,0.062,1.196,0.127,1.832,0.194c0.631,0.099,1.283,0.205,1.946,0.316c0.658,0.131,1.322,0.288,1.992,0.431
	c0.328,0.091,0.657,0.182,0.986,0.273c0.164,0.044,0.328,0.09,0.491,0.134l0.244,0.069l0.241,0.079
	c0.639,0.215,1.273,0.407,1.869,0.65c0.298,0.118,0.594,0.226,0.881,0.343c0.283,0.125,0.561,0.249,0.83,0.367
	c0.135,0.059,0.268,0.115,0.397,0.178s0.255,0.125,0.38,0.187c0.248,0.125,0.49,0.24,0.717,0.36c0.453,0.248,0.87,0.471,1.225,0.696
	c0.361,0.213,0.663,0.42,0.916,0.583c0.246,0.173,0.441,0.311,0.566,0.41C76.035,65.271,76.1,65.327,76.1,65.327z"/>
<path fill="none" stroke="#050403" stroke-width="0.1483" stroke-miterlimit="10" d="M76.1,59.801"/>
<path fill="#050403" d="M76.1,59.801c0,0-0.079-0.028-0.228-0.083c-0.149-0.053-0.368-0.13-0.647-0.229
	c-0.278-0.1-0.618-0.213-1.008-0.343c-0.393-0.125-0.832-0.271-1.316-0.42c-0.482-0.153-1.008-0.307-1.563-0.471
	c-0.554-0.169-1.146-0.317-1.753-0.492c-0.612-0.156-1.242-0.324-1.887-0.479c-0.646-0.148-1.298-0.314-1.958-0.443
	c-0.329-0.068-0.659-0.139-0.986-0.208c-0.327-0.066-0.657-0.121-0.983-0.181c-0.325-0.061-0.647-0.119-0.966-0.177
	c-0.321-0.05-0.639-0.098-0.949-0.144c-0.311-0.049-0.617-0.096-0.916-0.141c-0.303-0.036-0.596-0.072-0.884-0.106
	c-0.572-0.068-1.114-0.141-1.617-0.174c-0.503-0.044-0.962-0.085-1.372-0.12c-0.409-0.019-0.766-0.033-1.059-0.046
	c-0.59-0.028-0.926-0.045-0.926-0.045s0.337-0.005,0.926-0.013c0.295-0.002,0.652-0.004,1.063-0.008
	c0.412,0.018,0.875,0.038,1.379,0.059c0.253,0.015,0.518,0.016,0.789,0.045c0.271,0.025,0.551,0.05,0.842,0.077
	c0.288,0.027,0.584,0.055,0.889,0.083c0.301,0.041,0.608,0.083,0.922,0.124c0.314,0.042,0.633,0.087,0.955,0.13
	c0.321,0.054,0.646,0.112,0.975,0.168c0.325,0.058,0.657,0.111,0.987,0.177c0.33,0.068,0.66,0.137,0.99,0.205
	c0.664,0.132,1.316,0.302,1.965,0.455c0.324,0.074,0.641,0.165,0.956,0.25c0.314,0.086,0.625,0.171,0.933,0.255
	c0.606,0.182,1.195,0.35,1.748,0.533c0.275,0.09,0.545,0.177,0.806,0.263c0.258,0.09,0.507,0.177,0.747,0.261
	c0.48,0.163,0.913,0.333,1.301,0.477c0.385,0.151,0.719,0.281,0.992,0.396c0.275,0.111,0.488,0.204,0.635,0.268
	C76.023,59.768,76.1,59.801,76.1,59.801z"/>
<path fill="none" stroke="#050403" stroke-width="0.1483" stroke-miterlimit="10" d="M46.068,55.496"/>
<g>
	<path fill="#CB6120" d="M46.627,55.496l6.589,0.128c0,0,1.236,0.15-0.896,2.393c-2.132,2.245-2.397,2.395-2.397,2.395l-2.52-2.458
		C47.402,57.954,44.955,55.748,46.627,55.496z"/>
	<path fill="#050403" d="M49.91,60.504l-2.559-2.495c-0.062-0.055-1.57-1.426-1.361-2.165c0.064-0.228,0.275-0.369,0.626-0.422
		l6.602,0.126c0.02,0.002,0.305,0.04,0.398,0.32c0.146,0.438-0.272,1.18-1.244,2.203c-2.116,2.225-2.405,2.402-2.417,2.407
		L49.91,60.504z M46.626,55.573c-0.278,0.042-0.45,0.147-0.497,0.314c-0.15,0.535,0.901,1.633,1.32,2.009l2.479,2.418
		c0.135-0.11,0.646-0.567,2.341-2.35c1.219-1.283,1.281-1.832,1.211-2.044c-0.063-0.191-0.264-0.221-0.272-0.222L46.626,55.573z"/>
</g>
<text transform="matrix(0.6973 0 0 1 76.0996 50.8887)" font-family="'RoundedElegance-Regular'" font-size="21.3744">Resuelve la siguiente operación:</text>
<text transform="matrix(1 0 0 1 28.9785 170.0693)" font-family="'RoundedElegance-Regular'" font-size="76.6816">17+16=?</text>
<text transform="matrix(1 0 0 1 223.2695 219.7329)" font-family="'RoundedElegance-Regular'" font-size="23.0305">¡Éxitos!</text>
</svg>
