<?xml version="1.0" encoding="utf-8"?>
<!-- Generator: Adobe Illustrator 16.0.0, SVG Export Plug-In . SVG Version: 6.00 Build 0)  -->
<!DOCTYPE svg PUBLIC "-//W3C//DTD SVG 1.1//EN" "http://www.w3.org/Graphics/SVG/1.1/DTD/svg11.dtd">
<svg version="1.1" id="Capa_1" xmlns="http://www.w3.org/2000/svg" xmlns:xlink="http://www.w3.org/1999/xlink" x="0px" y="0px"
	 width="332.27px" height="251.649px" viewBox="0 0 332.27 251.649" enable-background="new 0 0 332.27 251.649"
	 xml:space="preserve">
<path fill="none" stroke="#050403" stroke-width="0.1483" stroke-miterlimit="10" d="M31.104,59.801"/>
<path fill="#F4722A" d="M323.667,229.998c0,6.627-5.373,12-12,12H21.333c-6.627,0-11.999-5.373-11.999-12V21.004
	c0-6.627,5.372-11.998,11.999-11.998h290.334c6.627,0,12,5.371,12,11.998V229.998z"/>
<linearGradient id="SVGID_1_" gradientUnits="userSpaceOnUse" x1="167.1943" y1="18.5176" x2="166.7551" y2="73.2294">
	<stop  offset="0.046" style="stop-color:#00CD00"/>
	<stop  offset="1" style="stop-color:#FFFFFF"/>
</linearGradient>
<path fill="url(#SVGID_1_)" d="M314.334,221.471c0,6.643-5.373,12.027-12,12.027h-272c-6.628,0-12.001-5.385-12.001-12.027V29.697
	c0-6.643,5.373-12.027,12.001-12.027h272c6.627,0,12,5.385,12,12.027V221.471z"/>
<g>
	<ellipse fill="#FCF9F7" cx="41.964" cy="37.926" rx="5.171" ry="10.857"/>
	<path fill="#211915" d="M41.965,48.881c-2.904,0-5.267-4.914-5.267-10.955c0-6.043,2.362-10.959,5.267-10.959
		s5.266,4.916,5.266,10.959C47.23,43.967,44.869,48.881,41.965,48.881z M41.965,27.164c-2.8,0-5.076,4.828-5.076,10.762
		c0,5.93,2.276,10.758,5.076,10.758c2.799,0,5.075-4.828,5.075-10.758C47.04,31.992,44.764,27.164,41.965,27.164z"/>
</g>
<g>
	<ellipse cx="41.975" cy="37.926" rx="2.568" ry="2.771"/>
	<path fill="#211915" d="M41.977,40.809c-1.477,0-2.677-1.295-2.677-2.883c0-1.592,1.2-2.885,2.677-2.885
		c1.475,0,2.673,1.293,2.673,2.885C44.649,39.514,43.451,40.809,41.977,40.809z M41.977,35.264c-1.359,0-2.462,1.193-2.462,2.662
		c0,1.467,1.103,2.66,2.462,2.66c1.355,0,2.46-1.193,2.46-2.66C44.437,36.457,43.332,35.264,41.977,35.264z"/>
</g>
<g>
	<ellipse fill="#FCFCFC" cx="58" cy="37.881" rx="5.171" ry="10.857"/>
	<path fill="#211915" d="M58,48.838c-2.904,0-5.267-4.916-5.267-10.957S55.096,26.924,58,26.924c2.903,0,5.267,4.916,5.267,10.957
		S60.903,48.838,58,48.838z M58,27.121c-2.8,0-5.076,4.826-5.076,10.76c0,5.932,2.276,10.758,5.076,10.758
		c2.799,0,5.076-4.826,5.076-10.758C63.076,31.947,60.799,27.121,58,27.121z"/>
</g>
<g>
	<ellipse cx="57.79" cy="37.834" rx="2.568" ry="2.773"/>
	<path fill="#211915" d="M57.79,40.719c-1.476,0-2.676-1.291-2.676-2.885c0-1.588,1.2-2.883,2.676-2.883
		c1.475,0,2.675,1.295,2.675,2.883C60.465,39.428,59.265,40.719,57.79,40.719z M57.79,35.174c-1.356,0-2.461,1.195-2.461,2.66
		c0,1.469,1.104,2.664,2.461,2.664c1.355,0,2.461-1.195,2.461-2.664C60.251,36.369,59.146,35.174,57.79,35.174z"/>
</g>
<path fill="#050403" d="M23.831,65.326c0,0,0.073-0.039,0.216-0.111c0.14-0.074,0.348-0.182,0.615-0.309
	c0.266-0.133,0.592-0.283,0.968-0.457c0.376-0.17,0.799-0.367,1.269-0.561c0.234-0.098,0.479-0.201,0.732-0.307
	c0.254-0.102,0.518-0.203,0.787-0.311c0.541-0.217,1.119-0.42,1.715-0.641c0.301-0.1,0.605-0.205,0.915-0.311
	c0.31-0.102,0.622-0.215,0.94-0.307c0.638-0.191,1.283-0.4,1.937-0.572c0.327-0.086,0.653-0.174,0.978-0.262
	c0.325-0.084,0.654-0.156,0.977-0.234c0.324-0.074,0.646-0.148,0.963-0.223c0.32-0.063,0.636-0.123,0.947-0.184
	c0.311-0.061,0.616-0.119,0.916-0.176c0.301-0.047,0.595-0.09,0.883-0.131c0.286-0.043,0.564-0.084,0.834-0.125
	c0.271-0.045,0.533-0.059,0.786-0.086c0.502-0.049,0.964-0.092,1.372-0.133c0.41-0.018,0.768-0.033,1.063-0.047
	c0.588-0.021,0.924-0.033,0.924-0.033s-0.334,0.033-0.92,0.094C43.354,59.93,42.998,59.963,42.59,60
	c-0.405,0.059-0.863,0.123-1.362,0.193c-0.501,0.059-1.038,0.162-1.608,0.262c-0.282,0.049-0.574,0.1-0.873,0.152
	c-0.297,0.064-0.602,0.129-0.908,0.193c-0.31,0.064-0.622,0.131-0.939,0.197c-0.316,0.076-0.635,0.154-0.955,0.232
	c-0.322,0.078-0.648,0.15-0.973,0.238c-0.322,0.088-0.647,0.178-0.972,0.266c-0.652,0.166-1.295,0.371-1.93,0.559
	c-0.634,0.193-1.255,0.398-1.856,0.59c-0.299,0.104-0.592,0.205-0.88,0.305c-0.288,0.096-0.569,0.193-0.841,0.297
	c-0.273,0.098-0.539,0.193-0.795,0.287c-0.255,0.096-0.502,0.189-0.738,0.277c-0.475,0.18-0.906,0.355-1.289,0.502
	c-0.381,0.156-0.714,0.291-0.985,0.406c-0.272,0.117-0.487,0.209-0.632,0.271C23.907,65.293,23.831,65.326,23.831,65.326z"/>
<path fill="#050403" d="M23.489,59.809c0,0,0.081-0.031,0.229-0.086c0.149-0.055,0.365-0.137,0.646-0.23
	c0.559-0.195,1.358-0.471,2.326-0.773c0.484-0.15,1.008-0.316,1.567-0.475c0.278-0.08,0.565-0.164,0.858-0.248
	c0.294-0.08,0.594-0.162,0.899-0.244c0.611-0.17,1.247-0.326,1.892-0.488c0.646-0.158,1.307-0.305,1.964-0.457
	c0.662-0.133,1.321-0.277,1.976-0.4c0.328-0.059,0.65-0.117,0.973-0.176c0.32-0.057,0.637-0.113,0.95-0.156
	c0.313-0.047,0.621-0.094,0.921-0.137c0.301-0.047,0.596-0.088,0.884-0.119c0.577-0.064,1.121-0.133,1.626-0.176
	c0.504-0.033,0.967-0.066,1.377-0.094c0.205-0.018,0.398-0.02,0.574-0.025c0.178-0.002,0.342-0.008,0.488-0.012
	c0.59-0.01,0.926-0.016,0.926-0.016s-0.334,0.027-0.922,0.076c-0.146,0.01-0.31,0.021-0.487,0.035
	c-0.177,0.014-0.367,0.025-0.569,0.053c-0.408,0.047-0.868,0.1-1.37,0.156c-0.499,0.063-1.04,0.148-1.612,0.227
	c-0.287,0.037-0.58,0.088-0.879,0.141c-0.3,0.049-0.605,0.102-0.916,0.154c-0.623,0.098-1.26,0.238-1.912,0.355
	c-0.65,0.125-1.308,0.273-1.967,0.408c-0.658,0.15-1.315,0.293-1.96,0.445c-0.644,0.16-1.28,0.301-1.894,0.463
	c-0.306,0.076-0.605,0.152-0.901,0.227c-0.294,0.076-0.581,0.152-0.861,0.227c-0.562,0.148-1.09,0.291-1.579,0.422
	c-0.975,0.27-1.789,0.492-2.355,0.662C23.814,59.713,23.489,59.809,23.489,59.809z"/>
<path fill="#050403" d="M76.1,65.326c0,0-0.068-0.051-0.203-0.139c-0.133-0.092-0.334-0.213-0.588-0.373
	c-0.26-0.152-0.569-0.342-0.938-0.535c-0.363-0.205-0.788-0.406-1.244-0.637c-0.229-0.113-0.476-0.219-0.726-0.332
	c-0.125-0.059-0.253-0.117-0.381-0.176c-0.131-0.059-0.266-0.111-0.4-0.166c-0.271-0.113-0.549-0.227-0.832-0.342
	c-0.289-0.107-0.582-0.217-0.883-0.326c-0.592-0.234-1.227-0.408-1.861-0.619l-0.239-0.078l-0.243-0.066
	c-0.162-0.045-0.324-0.088-0.488-0.131c-0.326-0.09-0.653-0.178-0.98-0.268c-0.663-0.145-1.321-0.303-1.976-0.438
	c-0.656-0.115-1.305-0.229-1.93-0.338c-0.631-0.082-1.24-0.16-1.816-0.234c-0.289-0.045-0.572-0.057-0.846-0.082
	c-0.274-0.021-0.537-0.045-0.791-0.064c-0.507-0.039-0.971-0.092-1.386-0.096c-0.412-0.016-0.772-0.027-1.07-0.041
	c-0.593-0.023-0.933-0.037-0.933-0.037s0.34-0.008,0.934-0.02c0.297-0.004,0.659-0.01,1.074-0.016
	c0.414-0.018,0.881,0.012,1.39,0.035c0.257,0.012,0.522,0.025,0.796,0.037c0.275,0.016,0.561,0.021,0.852,0.059
	c0.582,0.063,1.196,0.127,1.832,0.193c0.631,0.1,1.283,0.205,1.946,0.316c0.658,0.131,1.322,0.287,1.992,0.432
	c0.328,0.09,0.657,0.182,0.986,0.273c0.164,0.043,0.328,0.09,0.491,0.133l0.244,0.07l0.241,0.078
	c0.639,0.215,1.273,0.408,1.869,0.65c0.298,0.117,0.594,0.227,0.881,0.344c0.283,0.125,0.561,0.248,0.83,0.365
	c0.135,0.061,0.268,0.115,0.397,0.18c0.13,0.063,0.255,0.125,0.38,0.186c0.248,0.125,0.49,0.24,0.717,0.361
	c0.453,0.246,0.87,0.471,1.225,0.695c0.361,0.213,0.663,0.42,0.916,0.582c0.246,0.172,0.441,0.311,0.566,0.41
	C76.035,65.271,76.1,65.326,76.1,65.326z"/>
<path fill="none" stroke="#050403" stroke-width="0.1483" stroke-miterlimit="10" d="M76.1,59.803"/>
<path fill="#050403" d="M76.1,59.803c0,0-0.079-0.029-0.228-0.084c-0.149-0.053-0.368-0.131-0.647-0.229
	c-0.278-0.102-0.618-0.213-1.008-0.344c-0.393-0.125-0.832-0.271-1.316-0.42c-0.482-0.152-1.008-0.307-1.563-0.471
	c-0.554-0.17-1.146-0.318-1.753-0.492c-0.612-0.156-1.242-0.324-1.887-0.479c-0.646-0.148-1.298-0.314-1.958-0.443
	c-0.329-0.068-0.659-0.139-0.986-0.209c-0.327-0.066-0.657-0.119-0.983-0.18c-0.325-0.063-0.647-0.119-0.966-0.178
	c-0.321-0.051-0.639-0.098-0.949-0.145c-0.311-0.049-0.617-0.096-0.916-0.141c-0.303-0.037-0.596-0.072-0.884-0.107
	c-0.572-0.068-1.114-0.141-1.617-0.174c-0.503-0.043-0.962-0.084-1.372-0.119c-0.409-0.018-0.766-0.033-1.059-0.047
	c-0.59-0.027-0.926-0.045-0.926-0.045s0.337-0.006,0.926-0.014c0.295-0.002,0.652-0.004,1.063-0.008
	c0.412,0.018,0.875,0.039,1.379,0.061c0.253,0.014,0.518,0.016,0.789,0.045c0.271,0.025,0.551,0.049,0.842,0.076
	c0.288,0.027,0.584,0.057,0.889,0.084c0.301,0.041,0.608,0.082,0.922,0.123c0.314,0.043,0.633,0.088,0.955,0.131
	c0.321,0.055,0.646,0.111,0.975,0.168c0.325,0.059,0.657,0.111,0.987,0.178c0.33,0.068,0.66,0.137,0.99,0.205
	c0.664,0.133,1.316,0.303,1.965,0.455c0.324,0.074,0.641,0.164,0.956,0.25c0.314,0.086,0.625,0.172,0.933,0.254
	c0.606,0.184,1.195,0.35,1.748,0.533c0.275,0.09,0.545,0.178,0.806,0.264c0.258,0.09,0.507,0.176,0.747,0.26
	c0.48,0.162,0.913,0.334,1.301,0.477c0.385,0.152,0.719,0.281,0.992,0.396c0.275,0.111,0.488,0.203,0.635,0.268
	C76.023,59.768,76.1,59.803,76.1,59.803z"/>
<path fill="none" stroke="#050403" stroke-width="0.1483" stroke-miterlimit="10" d="M46.068,55.496"/>
<g>
	<path fill="#CB6120" d="M46.627,55.496l6.589,0.129c0,0,1.236,0.15-0.896,2.393c-2.132,2.244-2.397,2.395-2.397,2.395l-2.52-2.457
		C47.402,57.955,44.955,55.748,46.627,55.496z"/>
	<path fill="#050403" d="M49.91,60.506l-2.559-2.496c-0.062-0.055-1.57-1.426-1.361-2.166c0.064-0.227,0.275-0.369,0.626-0.422
		l6.602,0.127c0.02,0.002,0.305,0.039,0.398,0.32c0.146,0.438-0.272,1.18-1.244,2.203c-2.116,2.225-2.405,2.402-2.417,2.406
		L49.91,60.506z M46.626,55.572c-0.278,0.043-0.45,0.148-0.497,0.314c-0.15,0.535,0.901,1.635,1.32,2.01l2.479,2.42
		c0.135-0.111,0.646-0.568,2.341-2.352c1.219-1.281,1.281-1.832,1.211-2.045c-0.063-0.189-0.264-0.221-0.272-0.221L46.626,55.572z"
		/>
</g>
<text transform="matrix(0.6973 0 0 1 76.0996 50.8887)" font-family="'RoundedElegance-Regular'" font-size="21.3744">Resuelve la siguiente operación:</text>
<text transform="matrix(1 0 0 1 44.6494 166.3701)" font-family="'RoundedElegance-Regular'" font-size="84.9548">1+6=?</text>
<text transform="matrix(1 0 0 1 223.2695 219.7324)" font-family="'RoundedElegance-Regular'" font-size="23.0305">¡Éxitos!</text>
</svg>
