<?xml version="1.0" encoding="utf-8"?>
<!-- Generator: Adobe Illustrator 16.0.0, SVG Export Plug-In . SVG Version: 6.00 Build 0)  -->
<!DOCTYPE svg PUBLIC "-//W3C//DTD SVG 1.1//EN" "http://www.w3.org/Graphics/SVG/1.1/DTD/svg11.dtd">
<svg version="1.1" id="Capa_1" xmlns="http://www.w3.org/2000/svg" xmlns:xlink="http://www.w3.org/1999/xlink" x="0px" y="0px"
	 width="332.27px" height="251.649px" viewBox="0 0 332.27 251.649" enable-background="new 0 0 332.27 251.649"
	 xml:space="preserve">
<path fill="#F4722A" d="M323.667-316.297c0,6.627-5.373,12-12,12H21.333c-6.627,0-11.999-5.373-11.999-12v-208.996
	c0-6.627,5.372-12,11.999-12h290.334c6.627,0,12,5.373,12,12V-316.297z"/>
<linearGradient id="SVGID_1_" gradientUnits="userSpaceOnUse" x1="167.1924" y1="-527.7813" x2="166.7531" y2="-473.0686">
	<stop  offset="0.046" style="stop-color:#00CD00"/>
	<stop  offset="1" style="stop-color:#FFFFFF"/>
</linearGradient>
<path fill="url(#SVGID_1_)" d="M314.334-324.824c0,6.643-5.373,12.027-12,12.027h-272c-6.628,0-12.001-5.385-12.001-12.027V-516.6
	c0-6.643,5.373-12.028,12.001-12.028h272c6.627,0,12,5.385,12,12.028V-324.824z"/>
<g>
	<ellipse fill="#FCF9F7" cx="41.964" cy="-508.373" rx="5.171" ry="10.857"/>
	<path fill="#211915" d="M41.965-497.416c-2.904,0-5.267-4.916-5.267-10.957c0-6.042,2.362-10.958,5.267-10.958
		s5.266,4.916,5.266,10.958C47.23-502.332,44.869-497.416,41.965-497.416z M41.965-519.133c-2.8,0-5.076,4.827-5.076,10.76
		c0,5.931,2.276,10.758,5.076,10.758c2.799,0,5.075-4.827,5.075-10.758C47.04-514.306,44.764-519.133,41.965-519.133z"/>
</g>
<g>
	<ellipse cx="41.975" cy="-508.373" rx="2.568" ry="2.772"/>
	<path fill="#211915" d="M41.977-505.489c-1.477,0-2.677-1.295-2.677-2.884c0-1.591,1.2-2.885,2.677-2.885
		c1.475,0,2.673,1.293,2.673,2.885C44.649-506.784,43.451-505.489,41.977-505.489z M41.977-511.034
		c-1.359,0-2.462,1.193-2.462,2.661c0,1.467,1.103,2.66,2.462,2.66c1.355,0,2.46-1.193,2.46-2.66
		C44.437-509.84,43.332-511.034,41.977-511.034z"/>
</g>
<g>
	<ellipse fill="#FCFCFC" cx="58" cy="-508.417" rx="5.171" ry="10.857"/>
	<path fill="#211915" d="M58-497.459c-2.904,0-5.267-4.917-5.267-10.958s2.362-10.958,5.267-10.958
		c2.903,0,5.267,4.917,5.267,10.958S60.903-497.459,58-497.459z M58-519.176c-2.8,0-5.076,4.826-5.076,10.759
		c0,5.932,2.276,10.758,5.076,10.758c2.799,0,5.076-4.826,5.076-10.758C63.076-514.35,60.799-519.176,58-519.176z"/>
</g>
<g>
	<ellipse cx="57.79" cy="-508.463" rx="2.568" ry="2.773"/>
	<path fill="#211915" d="M57.79-505.578c-1.476,0-2.676-1.292-2.676-2.885c0-1.588,1.2-2.883,2.676-2.883
		c1.475,0,2.675,1.294,2.675,2.883C60.465-506.871,59.265-505.578,57.79-505.578z M57.79-511.123c-1.356,0-2.461,1.194-2.461,2.66
		c0,1.469,1.104,2.663,2.461,2.663c1.355,0,2.461-1.194,2.461-2.663C60.251-509.929,59.146-511.123,57.79-511.123z"/>
</g>
<path fill="#050403" d="M23.831-480.97c0,0,0.073-0.039,0.216-0.113c0.14-0.073,0.348-0.181,0.615-0.309
	c0.266-0.132,0.592-0.283,0.968-0.457c0.376-0.17,0.799-0.367,1.269-0.56c0.234-0.098,0.479-0.201,0.732-0.307
	c0.254-0.101,0.518-0.204,0.787-0.312c0.541-0.217,1.119-0.42,1.715-0.639c0.301-0.101,0.605-0.206,0.915-0.311
	c0.31-0.103,0.622-0.215,0.94-0.308c0.638-0.19,1.283-0.4,1.937-0.571c0.327-0.087,0.653-0.175,0.978-0.262
	c0.325-0.085,0.654-0.156,0.977-0.234c0.324-0.075,0.646-0.148,0.963-0.224c0.32-0.062,0.636-0.123,0.947-0.184
	c0.311-0.06,0.616-0.119,0.916-0.176c0.301-0.046,0.595-0.089,0.883-0.131c0.286-0.042,0.564-0.083,0.834-0.124
	c0.271-0.045,0.533-0.059,0.786-0.087c0.502-0.049,0.964-0.092,1.372-0.132c0.41-0.019,0.768-0.033,1.063-0.047
	c0.588-0.021,0.924-0.033,0.924-0.033s-0.334,0.033-0.92,0.093c-0.293,0.027-0.648,0.061-1.057,0.099
	c-0.405,0.058-0.863,0.122-1.362,0.193c-0.501,0.059-1.038,0.162-1.608,0.261c-0.282,0.05-0.574,0.101-0.873,0.154
	c-0.297,0.063-0.602,0.127-0.908,0.192c-0.31,0.065-0.622,0.131-0.939,0.198c-0.316,0.076-0.635,0.154-0.955,0.232
	c-0.322,0.079-0.648,0.151-0.973,0.238c-0.322,0.089-0.647,0.178-0.972,0.267c-0.652,0.166-1.295,0.372-1.93,0.558
	c-0.634,0.193-1.255,0.398-1.856,0.59c-0.299,0.104-0.592,0.204-0.88,0.304c-0.288,0.096-0.569,0.194-0.841,0.296
	c-0.273,0.099-0.539,0.194-0.795,0.288c-0.255,0.097-0.502,0.189-0.738,0.279c-0.475,0.178-0.906,0.354-1.289,0.501
	c-0.381,0.156-0.714,0.291-0.985,0.407c-0.272,0.116-0.487,0.208-0.632,0.271C23.907-481.004,23.831-480.97,23.831-480.97z"/>
<path fill="#050403" d="M23.489-486.489c0,0,0.081-0.031,0.229-0.086c0.149-0.054,0.365-0.136,0.646-0.231
	c0.559-0.195,1.358-0.471,2.326-0.772c0.484-0.15,1.008-0.316,1.567-0.475c0.278-0.08,0.565-0.164,0.858-0.248
	c0.294-0.081,0.594-0.162,0.899-0.244c0.611-0.169,1.247-0.327,1.892-0.489c0.646-0.158,1.307-0.305,1.964-0.457
	c0.662-0.133,1.321-0.277,1.976-0.399c0.328-0.06,0.65-0.117,0.973-0.176c0.32-0.056,0.637-0.113,0.95-0.157
	c0.313-0.046,0.621-0.092,0.921-0.137c0.301-0.047,0.596-0.088,0.884-0.118c0.577-0.064,1.121-0.133,1.626-0.176
	c0.504-0.035,0.967-0.067,1.377-0.095c0.205-0.016,0.398-0.02,0.574-0.024c0.178-0.003,0.342-0.009,0.488-0.012
	c0.59-0.01,0.926-0.016,0.926-0.016s-0.334,0.027-0.922,0.076c-0.146,0.011-0.31,0.022-0.487,0.036
	c-0.177,0.013-0.367,0.025-0.569,0.052c-0.408,0.046-0.868,0.1-1.37,0.156c-0.499,0.062-1.04,0.149-1.612,0.227
	c-0.287,0.037-0.58,0.087-0.879,0.14c-0.3,0.05-0.605,0.102-0.916,0.154c-0.623,0.099-1.26,0.239-1.912,0.356
	c-0.65,0.125-1.308,0.272-1.967,0.408c-0.658,0.15-1.315,0.293-1.96,0.446c-0.644,0.16-1.28,0.301-1.894,0.461
	c-0.306,0.077-0.605,0.153-0.901,0.228c-0.294,0.076-0.581,0.152-0.861,0.226c-0.562,0.148-1.09,0.292-1.579,0.422
	c-0.975,0.269-1.789,0.493-2.355,0.661C23.814-486.585,23.489-486.489,23.489-486.489z"/>
<path fill="#050403" d="M76.1-480.97c0,0-0.068-0.051-0.203-0.139c-0.133-0.093-0.334-0.213-0.588-0.375
	c-0.26-0.151-0.569-0.341-0.938-0.535c-0.363-0.204-0.788-0.406-1.244-0.637c-0.229-0.113-0.476-0.218-0.726-0.332
	c-0.125-0.059-0.253-0.116-0.381-0.176c-0.131-0.059-0.266-0.111-0.4-0.166c-0.271-0.112-0.549-0.226-0.832-0.342
	c-0.289-0.106-0.582-0.216-0.883-0.325c-0.592-0.235-1.227-0.409-1.861-0.621l-0.239-0.078l-0.243-0.065
	c-0.162-0.044-0.324-0.089-0.488-0.131c-0.326-0.09-0.653-0.178-0.98-0.267c-0.663-0.146-1.321-0.304-1.976-0.438
	c-0.656-0.115-1.305-0.229-1.93-0.338c-0.631-0.082-1.24-0.16-1.816-0.234c-0.289-0.045-0.572-0.057-0.846-0.082
	c-0.274-0.022-0.537-0.044-0.791-0.065c-0.507-0.038-0.971-0.091-1.386-0.095c-0.412-0.016-0.772-0.028-1.07-0.041
	c-0.593-0.024-0.933-0.038-0.933-0.038s0.34-0.008,0.934-0.02c0.297-0.004,0.659-0.01,1.074-0.015
	c0.414-0.018,0.881,0.012,1.39,0.035c0.257,0.011,0.522,0.024,0.796,0.036c0.275,0.016,0.561,0.021,0.852,0.059
	c0.582,0.062,1.196,0.127,1.832,0.194c0.631,0.099,1.283,0.205,1.946,0.316c0.658,0.131,1.322,0.288,1.992,0.431
	c0.328,0.091,0.657,0.182,0.986,0.273c0.164,0.044,0.328,0.09,0.491,0.134l0.244,0.069l0.241,0.079
	c0.639,0.215,1.273,0.407,1.869,0.65c0.298,0.118,0.594,0.226,0.881,0.343c0.283,0.125,0.561,0.249,0.83,0.367
	c0.135,0.059,0.268,0.115,0.397,0.178s0.255,0.125,0.38,0.187c0.248,0.125,0.49,0.24,0.717,0.36c0.453,0.248,0.87,0.471,1.225,0.696
	c0.361,0.213,0.663,0.42,0.916,0.583c0.246,0.173,0.441,0.311,0.566,0.41C76.035-481.026,76.1-480.97,76.1-480.97z"/>
<path fill="none" stroke="#050403" stroke-width="0.1483" stroke-miterlimit="10" d="M76.1-486.496"/>
<path fill="#050403" d="M76.1-486.496c0,0-0.079-0.028-0.228-0.083c-0.149-0.053-0.368-0.13-0.647-0.229
	c-0.278-0.1-0.618-0.213-1.008-0.343c-0.393-0.125-0.832-0.271-1.316-0.42c-0.482-0.153-1.008-0.307-1.563-0.471
	c-0.554-0.169-1.146-0.317-1.753-0.492c-0.612-0.156-1.242-0.324-1.887-0.479c-0.646-0.148-1.298-0.314-1.958-0.443
	c-0.329-0.068-0.659-0.139-0.986-0.208c-0.327-0.066-0.657-0.121-0.983-0.181c-0.325-0.061-0.647-0.119-0.966-0.177
	c-0.321-0.05-0.639-0.098-0.949-0.144c-0.311-0.049-0.617-0.096-0.916-0.141c-0.303-0.036-0.596-0.072-0.884-0.106
	c-0.572-0.068-1.114-0.141-1.617-0.174c-0.503-0.044-0.962-0.085-1.372-0.12c-0.409-0.019-0.766-0.033-1.059-0.046
	c-0.59-0.028-0.926-0.045-0.926-0.045s0.337-0.005,0.926-0.013c0.295-0.002,0.652-0.004,1.063-0.008
	c0.412,0.018,0.875,0.038,1.379,0.059c0.253,0.015,0.518,0.016,0.789,0.045c0.271,0.025,0.551,0.05,0.842,0.077
	c0.288,0.027,0.584,0.055,0.889,0.083c0.301,0.041,0.608,0.083,0.922,0.124c0.314,0.042,0.633,0.087,0.955,0.13
	c0.321,0.054,0.646,0.112,0.975,0.168c0.325,0.058,0.657,0.111,0.987,0.177c0.33,0.068,0.66,0.137,0.99,0.205
	c0.664,0.132,1.316,0.302,1.965,0.455c0.324,0.074,0.641,0.165,0.956,0.25c0.314,0.086,0.625,0.171,0.933,0.255
	c0.606,0.182,1.195,0.35,1.748,0.533c0.275,0.09,0.545,0.177,0.806,0.263c0.258,0.09,0.507,0.177,0.747,0.261
	c0.48,0.163,0.913,0.333,1.301,0.477c0.385,0.151,0.719,0.281,0.992,0.396c0.275,0.111,0.488,0.204,0.635,0.268
	C76.023-486.529,76.1-486.496,76.1-486.496z"/>
<path fill="none" stroke="#050403" stroke-width="0.1483" stroke-miterlimit="10" d="M46.068-490.801"/>
<g>
	<path fill="#CB6120" d="M46.627-490.801l6.589,0.128c0,0,1.236,0.15-0.896,2.393c-2.132,2.245-2.397,2.395-2.397,2.395l-2.52-2.458
		C47.402-488.343,44.955-490.549,46.627-490.801z"/>
	<path fill="#050403" d="M49.91-485.792l-2.559-2.495c-0.062-0.055-1.57-1.426-1.361-2.165c0.064-0.228,0.275-0.369,0.626-0.422
		l6.602,0.126c0.02,0.002,0.305,0.04,0.398,0.32c0.146,0.438-0.272,1.18-1.244,2.203c-2.116,2.225-2.405,2.402-2.417,2.407
		L49.91-485.792z M46.626-490.724c-0.278,0.042-0.45,0.147-0.497,0.314c-0.15,0.535,0.901,1.633,1.32,2.009l2.479,2.418
		c0.135-0.11,0.646-0.567,2.341-2.35c1.219-1.283,1.281-1.832,1.211-2.044c-0.063-0.191-0.264-0.221-0.272-0.222L46.626-490.724z"/>
</g>
<text transform="matrix(0.6973 0 0 1 76.0996 -495.4082)" font-family="'RoundedElegance-Regular'" font-size="21.3744">Resuelve la siguiente operación:</text>
<text transform="matrix(1 0 0 1 44.6494 -379.9268)" font-family="'RoundedElegance-Regular'" font-size="84.9548">2+7=?</text>
<text transform="matrix(1 0 0 1 223.2695 -326.5645)" font-family="'RoundedElegance-Regular'" font-size="23.0305">¡Éxitos!</text>
<path fill="#F4722A" d="M683.667-316.298c0,6.627-5.373,12-12,12H381.333c-6.627,0-11.999-5.373-11.999-12v-208.996
	c0-6.627,5.372-11.998,11.999-11.998h290.334c6.627,0,12,5.371,12,11.998V-316.298z"/>
<linearGradient id="SVGID_2_" gradientUnits="userSpaceOnUse" x1="527.1934" y1="-527.7808" x2="526.7542" y2="-473.0686">
	<stop  offset="0.046" style="stop-color:#00CD00"/>
	<stop  offset="1" style="stop-color:#FFFFFF"/>
</linearGradient>
<path fill="url(#SVGID_2_)" d="M674.334-324.825c0,6.643-5.373,12.027-12,12.027h-272c-6.628,0-12.001-5.385-12.001-12.027v-191.775
	c0-6.643,5.373-12.027,12.001-12.027h272c6.627,0,12,5.385,12,12.027V-324.825z"/>
<g>
	<ellipse fill="#FCF9F7" cx="401.964" cy="-508.372" rx="5.171" ry="10.857"/>
	<path fill="#211915" d="M401.965-497.417c-2.904,0-5.267-4.914-5.267-10.955c0-6.043,2.362-10.959,5.267-10.959
		s5.266,4.916,5.266,10.959C407.23-502.331,404.869-497.417,401.965-497.417z M401.965-519.134c-2.8,0-5.076,4.828-5.076,10.762
		c0,5.93,2.276,10.758,5.076,10.758c2.799,0,5.075-4.828,5.075-10.758C407.04-514.306,404.764-519.134,401.965-519.134z"/>
</g>
<g>
	<ellipse cx="401.975" cy="-508.372" rx="2.568" ry="2.771"/>
	<path fill="#211915" d="M401.977-505.489c-1.477,0-2.677-1.295-2.677-2.883c0-1.592,1.2-2.885,2.677-2.885
		c1.475,0,2.673,1.293,2.673,2.885C404.649-506.784,403.451-505.489,401.977-505.489z M401.977-511.034
		c-1.359,0-2.462,1.193-2.462,2.662c0,1.467,1.103,2.66,2.462,2.66c1.355,0,2.46-1.193,2.46-2.66
		C404.437-509.841,403.332-511.034,401.977-511.034z"/>
</g>
<g>
	<ellipse fill="#FCFCFC" cx="418" cy="-508.417" rx="5.171" ry="10.857"/>
	<path fill="#211915" d="M418-497.46c-2.904,0-5.267-4.916-5.267-10.957s2.362-10.957,5.267-10.957
		c2.903,0,5.267,4.916,5.267,10.957S420.903-497.46,418-497.46z M418-519.177c-2.8,0-5.076,4.826-5.076,10.76
		c0,5.932,2.276,10.758,5.076,10.758c2.799,0,5.076-4.826,5.076-10.758C423.076-514.351,420.799-519.177,418-519.177z"/>
</g>
<g>
	<ellipse cx="417.79" cy="-508.464" rx="2.568" ry="2.773"/>
	<path fill="#211915" d="M417.79-505.579c-1.476,0-2.676-1.291-2.676-2.885c0-1.588,1.2-2.883,2.676-2.883
		c1.475,0,2.675,1.295,2.675,2.883C420.465-506.87,419.265-505.579,417.79-505.579z M417.79-511.124
		c-1.356,0-2.461,1.195-2.461,2.66c0,1.469,1.104,2.664,2.461,2.664c1.355,0,2.461-1.195,2.461-2.664
		C420.251-509.929,419.146-511.124,417.79-511.124z"/>
</g>
<path fill="#050403" d="M383.831-480.972c0,0,0.073-0.039,0.216-0.111c0.14-0.074,0.348-0.182,0.615-0.309
	c0.266-0.133,0.592-0.283,0.968-0.457c0.376-0.17,0.799-0.367,1.269-0.561c0.234-0.098,0.479-0.201,0.732-0.307
	c0.254-0.102,0.518-0.203,0.787-0.311c0.541-0.217,1.119-0.42,1.715-0.641c0.301-0.1,0.605-0.205,0.915-0.311
	c0.31-0.102,0.622-0.215,0.94-0.307c0.638-0.191,1.283-0.4,1.937-0.572c0.327-0.086,0.653-0.174,0.978-0.262
	c0.325-0.084,0.654-0.156,0.977-0.234c0.324-0.074,0.646-0.148,0.963-0.223c0.32-0.063,0.636-0.123,0.947-0.184
	c0.311-0.061,0.616-0.119,0.916-0.176c0.301-0.047,0.595-0.09,0.883-0.131c0.286-0.043,0.564-0.084,0.834-0.125
	c0.271-0.045,0.533-0.059,0.786-0.086c0.502-0.049,0.964-0.092,1.372-0.133c0.41-0.018,0.768-0.033,1.063-0.047
	c0.588-0.021,0.924-0.033,0.924-0.033s-0.334,0.033-0.92,0.094c-0.293,0.027-0.648,0.061-1.057,0.098
	c-0.405,0.059-0.863,0.123-1.362,0.193c-0.501,0.059-1.038,0.162-1.608,0.262c-0.282,0.049-0.574,0.1-0.873,0.152
	c-0.297,0.064-0.602,0.129-0.908,0.193c-0.31,0.064-0.622,0.131-0.939,0.197c-0.316,0.076-0.635,0.154-0.955,0.232
	c-0.322,0.078-0.648,0.15-0.973,0.238c-0.322,0.088-0.647,0.178-0.972,0.266c-0.652,0.166-1.295,0.371-1.93,0.559
	c-0.634,0.193-1.255,0.398-1.856,0.59c-0.299,0.104-0.592,0.205-0.88,0.305c-0.288,0.096-0.569,0.193-0.841,0.297
	c-0.273,0.098-0.539,0.193-0.795,0.287c-0.255,0.096-0.502,0.189-0.738,0.277c-0.475,0.18-0.906,0.355-1.289,0.502
	c-0.381,0.156-0.714,0.291-0.985,0.406c-0.272,0.117-0.487,0.209-0.632,0.271C383.907-481.005,383.831-480.972,383.831-480.972z"/>
<path fill="#050403" d="M383.489-486.489c0,0,0.081-0.031,0.229-0.086c0.149-0.055,0.365-0.137,0.646-0.23
	c0.559-0.195,1.358-0.471,2.326-0.773c0.484-0.15,1.008-0.316,1.567-0.475c0.278-0.08,0.565-0.164,0.858-0.248
	c0.294-0.08,0.594-0.162,0.899-0.244c0.611-0.17,1.247-0.326,1.892-0.488c0.646-0.158,1.307-0.305,1.964-0.457
	c0.662-0.133,1.321-0.277,1.976-0.4c0.328-0.059,0.65-0.117,0.973-0.176c0.32-0.057,0.637-0.113,0.95-0.156
	c0.313-0.047,0.621-0.094,0.921-0.137c0.301-0.047,0.596-0.088,0.884-0.119c0.577-0.064,1.121-0.133,1.626-0.176
	c0.504-0.033,0.967-0.066,1.377-0.094c0.205-0.018,0.398-0.02,0.574-0.025c0.178-0.002,0.342-0.008,0.488-0.012
	c0.59-0.01,0.926-0.016,0.926-0.016s-0.334,0.027-0.922,0.076c-0.146,0.01-0.31,0.021-0.487,0.035
	c-0.177,0.014-0.367,0.025-0.569,0.053c-0.408,0.047-0.868,0.1-1.37,0.156c-0.499,0.063-1.04,0.148-1.612,0.227
	c-0.287,0.037-0.58,0.088-0.879,0.141c-0.3,0.049-0.605,0.102-0.916,0.154c-0.623,0.098-1.26,0.238-1.912,0.355
	c-0.65,0.125-1.308,0.273-1.967,0.408c-0.658,0.15-1.315,0.293-1.96,0.445c-0.644,0.16-1.28,0.301-1.894,0.463
	c-0.306,0.076-0.605,0.152-0.901,0.227c-0.294,0.076-0.581,0.152-0.861,0.227c-0.562,0.148-1.09,0.291-1.579,0.422
	c-0.975,0.27-1.789,0.492-2.355,0.662C383.814-486.585,383.489-486.489,383.489-486.489z"/>
<path fill="#050403" d="M436.1-480.972c0,0-0.068-0.051-0.203-0.139c-0.133-0.092-0.334-0.213-0.588-0.373
	c-0.26-0.152-0.569-0.342-0.938-0.535c-0.363-0.205-0.788-0.406-1.244-0.637c-0.229-0.113-0.476-0.219-0.726-0.332
	c-0.125-0.059-0.253-0.117-0.381-0.176c-0.131-0.059-0.266-0.111-0.4-0.166c-0.271-0.113-0.549-0.227-0.832-0.342
	c-0.289-0.107-0.582-0.217-0.883-0.326c-0.592-0.234-1.227-0.408-1.861-0.619l-0.239-0.078l-0.243-0.066
	c-0.162-0.045-0.324-0.088-0.488-0.131c-0.326-0.09-0.653-0.178-0.98-0.268c-0.663-0.145-1.321-0.303-1.976-0.438
	c-0.656-0.115-1.305-0.229-1.93-0.338c-0.631-0.082-1.24-0.16-1.816-0.234c-0.289-0.045-0.572-0.057-0.846-0.082
	c-0.274-0.021-0.537-0.045-0.791-0.064c-0.507-0.039-0.971-0.092-1.386-0.096c-0.412-0.016-0.772-0.027-1.07-0.041
	c-0.593-0.023-0.933-0.037-0.933-0.037s0.34-0.008,0.934-0.02c0.297-0.004,0.659-0.01,1.074-0.016
	c0.414-0.018,0.881,0.012,1.39,0.035c0.257,0.012,0.522,0.025,0.796,0.037c0.275,0.016,0.561,0.021,0.852,0.059
	c0.582,0.063,1.196,0.127,1.832,0.193c0.631,0.1,1.283,0.205,1.946,0.316c0.658,0.131,1.322,0.287,1.992,0.432
	c0.328,0.09,0.657,0.182,0.986,0.273c0.164,0.043,0.328,0.09,0.491,0.133l0.244,0.07l0.241,0.078
	c0.639,0.215,1.273,0.408,1.869,0.65c0.298,0.117,0.594,0.227,0.881,0.344c0.283,0.125,0.561,0.248,0.83,0.365
	c0.135,0.061,0.268,0.115,0.397,0.18c0.13,0.063,0.255,0.125,0.38,0.186c0.248,0.125,0.49,0.24,0.717,0.361
	c0.453,0.246,0.87,0.471,1.225,0.695c0.361,0.213,0.663,0.42,0.916,0.582c0.246,0.172,0.441,0.311,0.566,0.41
	C436.035-481.026,436.1-480.972,436.1-480.972z"/>
<path fill="none" stroke="#050403" stroke-width="0.1483" stroke-miterlimit="10" d="M436.1-486.495"/>
<path fill="#050403" d="M436.1-486.495c0,0-0.079-0.029-0.228-0.084c-0.149-0.053-0.368-0.131-0.647-0.229
	c-0.278-0.102-0.618-0.213-1.008-0.344c-0.393-0.125-0.832-0.271-1.316-0.42c-0.482-0.152-1.008-0.307-1.563-0.471
	c-0.554-0.17-1.146-0.318-1.753-0.492c-0.612-0.156-1.242-0.324-1.887-0.479c-0.646-0.148-1.298-0.314-1.958-0.443
	c-0.329-0.068-0.659-0.139-0.986-0.209c-0.327-0.066-0.657-0.119-0.983-0.18c-0.325-0.063-0.647-0.119-0.966-0.178
	c-0.321-0.051-0.639-0.098-0.949-0.145c-0.311-0.049-0.617-0.096-0.916-0.141c-0.303-0.037-0.596-0.072-0.884-0.107
	c-0.572-0.068-1.114-0.141-1.617-0.174c-0.503-0.043-0.962-0.084-1.372-0.119c-0.409-0.018-0.766-0.033-1.059-0.047
	c-0.59-0.027-0.926-0.045-0.926-0.045s0.337-0.006,0.926-0.014c0.295-0.002,0.652-0.004,1.063-0.008
	c0.412,0.018,0.875,0.039,1.379,0.061c0.253,0.014,0.518,0.016,0.789,0.045c0.271,0.025,0.551,0.049,0.842,0.076
	c0.288,0.027,0.584,0.057,0.889,0.084c0.301,0.041,0.608,0.082,0.922,0.123c0.314,0.043,0.633,0.088,0.955,0.131
	c0.321,0.055,0.646,0.111,0.975,0.168c0.325,0.059,0.657,0.111,0.987,0.178c0.33,0.068,0.66,0.137,0.99,0.205
	c0.664,0.133,1.316,0.303,1.965,0.455c0.324,0.074,0.641,0.164,0.956,0.25c0.314,0.086,0.625,0.172,0.933,0.254
	c0.606,0.184,1.195,0.35,1.748,0.533c0.275,0.09,0.545,0.178,0.806,0.264c0.258,0.09,0.507,0.176,0.747,0.26
	c0.48,0.162,0.913,0.334,1.301,0.477c0.385,0.152,0.719,0.281,0.992,0.396c0.275,0.111,0.488,0.203,0.635,0.268
	C436.023-486.53,436.1-486.495,436.1-486.495z"/>
<path fill="none" stroke="#050403" stroke-width="0.1483" stroke-miterlimit="10" d="M406.068-490.802"/>
<g>
	<path fill="#CB6120" d="M406.627-490.802l6.589,0.129c0,0,1.236,0.15-0.896,2.393c-2.132,2.244-2.397,2.395-2.397,2.395
		l-2.52-2.457C407.402-488.343,404.955-490.55,406.627-490.802z"/>
	<path fill="#050403" d="M409.91-485.792l-2.559-2.496c-0.062-0.055-1.57-1.426-1.361-2.166c0.064-0.227,0.275-0.369,0.626-0.422
		l6.602,0.127c0.02,0.002,0.305,0.039,0.398,0.32c0.146,0.438-0.272,1.18-1.244,2.203c-2.116,2.225-2.405,2.402-2.417,2.406
		L409.91-485.792z M406.626-490.726c-0.278,0.043-0.45,0.148-0.497,0.314c-0.15,0.535,0.901,1.635,1.32,2.01l2.479,2.42
		c0.135-0.111,0.646-0.568,2.341-2.352c1.219-1.281,1.281-1.832,1.211-2.045c-0.063-0.189-0.264-0.221-0.272-0.221L406.626-490.726z
		"/>
</g>
<text transform="matrix(0.6973 0 0 1 436.0996 -495.4082)" font-family="'RoundedElegance-Regular'" font-size="21.3744">Resuelve la siguiente operación:</text>
<text transform="matrix(1 0 0 1 404.6494 -379.9268)" font-family="'RoundedElegance-Regular'" font-size="84.9548">4+4=?</text>
<text transform="matrix(1 0 0 1 583.2695 -326.5645)" font-family="'RoundedElegance-Regular'" font-size="23.0305">¡Éxitos!</text>
<path fill="#F4722A" d="M323.666-53.633c0,6.627-5.373,12-12,12H21.333c-6.627,0-11.999-5.373-11.999-12v-208.996
	c0-6.627,5.372-11.998,11.999-11.998h290.333c6.627,0,12,5.371,12,11.998V-53.633z"/>
<linearGradient id="SVGID_3_" gradientUnits="userSpaceOnUse" x1="167.1934" y1="-265.1152" x2="166.7541" y2="-210.4029">
	<stop  offset="0.046" style="stop-color:#00CD00"/>
	<stop  offset="1" style="stop-color:#FFFFFF"/>
</linearGradient>
<path fill="url(#SVGID_3_)" d="M314.334-62.16c0,6.643-5.373,12.027-12,12.027h-272c-6.628,0-12.001-5.385-12.001-12.027v-191.775
	c0-6.643,5.373-12.027,12.001-12.027h272c6.627,0,12,5.385,12,12.027V-62.16z"/>
<g>
	<ellipse fill="#FCF9F7" cx="41.964" cy="-245.707" rx="5.171" ry="10.857"/>
	<path fill="#211915" d="M41.965-234.752c-2.904,0-5.267-4.914-5.267-10.955c0-6.043,2.362-10.959,5.267-10.959
		s5.266,4.916,5.266,10.959C47.23-239.666,44.869-234.752,41.965-234.752z M41.965-256.469c-2.8,0-5.076,4.828-5.076,10.762
		c0,5.93,2.276,10.758,5.076,10.758c2.799,0,5.075-4.828,5.075-10.758C47.04-251.641,44.764-256.469,41.965-256.469z"/>
</g>
<g>
	<ellipse cx="41.975" cy="-245.707" rx="2.568" ry="2.771"/>
	<path fill="#211915" d="M41.977-242.824c-1.477,0-2.677-1.295-2.677-2.883c0-1.592,1.2-2.885,2.677-2.885
		c1.475,0,2.673,1.293,2.673,2.885C44.649-244.119,43.451-242.824,41.977-242.824z M41.977-248.369
		c-1.359,0-2.462,1.193-2.462,2.662c0,1.467,1.103,2.66,2.462,2.66c1.355,0,2.46-1.193,2.46-2.66
		C44.437-247.176,43.332-248.369,41.977-248.369z"/>
</g>
<g>
	<ellipse fill="#FCFCFC" cx="57.999" cy="-245.752" rx="5.171" ry="10.857"/>
	<path fill="#211915" d="M58-234.795c-2.904,0-5.268-4.916-5.268-10.957s2.363-10.957,5.268-10.957
		c2.902,0,5.266,4.916,5.266,10.957S60.902-234.795,58-234.795z M58-256.512c-2.801,0-5.076,4.826-5.076,10.76
		c0,5.932,2.275,10.758,5.076,10.758c2.799,0,5.076-4.826,5.076-10.758C63.076-251.686,60.799-256.512,58-256.512z"/>
</g>
<g>
	<ellipse cx="57.789" cy="-245.799" rx="2.568" ry="2.773"/>
	<path fill="#211915" d="M57.789-242.914c-1.475,0-2.676-1.291-2.676-2.885c0-1.588,1.201-2.883,2.676-2.883
		s2.676,1.295,2.676,2.883C60.465-244.205,59.264-242.914,57.789-242.914z M57.789-248.459c-1.355,0-2.461,1.195-2.461,2.66
		c0,1.469,1.105,2.664,2.461,2.664s2.461-1.195,2.461-2.664C60.25-247.264,59.145-248.459,57.789-248.459z"/>
</g>
<path fill="#050403" d="M23.831-218.307c0,0,0.073-0.039,0.216-0.111c0.14-0.074,0.348-0.182,0.615-0.309
	c0.266-0.133,0.592-0.283,0.968-0.457c0.376-0.17,0.799-0.367,1.269-0.561c0.234-0.098,0.479-0.201,0.732-0.307
	c0.254-0.102,0.518-0.203,0.787-0.311c0.541-0.217,1.119-0.42,1.715-0.641c0.301-0.1,0.605-0.205,0.915-0.311
	c0.31-0.102,0.622-0.215,0.94-0.307c0.638-0.191,1.283-0.4,1.937-0.572c0.327-0.086,0.653-0.174,0.978-0.262
	c0.325-0.084,0.654-0.156,0.977-0.234c0.324-0.074,0.646-0.148,0.963-0.223c0.32-0.063,0.636-0.123,0.947-0.184
	c0.311-0.061,0.616-0.119,0.916-0.176c0.301-0.047,0.595-0.09,0.883-0.131c0.286-0.043,0.564-0.084,0.834-0.125
	c0.271-0.045,0.533-0.059,0.786-0.086c0.502-0.049,0.964-0.092,1.372-0.133c0.41-0.018,0.768-0.033,1.063-0.047
	c0.588-0.021,0.924-0.033,0.924-0.033s-0.334,0.033-0.92,0.094c-0.293,0.027-0.648,0.061-1.057,0.098
	c-0.405,0.059-0.863,0.123-1.362,0.193c-0.501,0.059-1.038,0.162-1.608,0.262c-0.282,0.049-0.574,0.1-0.873,0.152
	c-0.297,0.064-0.602,0.129-0.908,0.193c-0.31,0.064-0.622,0.131-0.939,0.197c-0.316,0.076-0.635,0.154-0.955,0.232
	c-0.322,0.078-0.648,0.15-0.973,0.238c-0.322,0.088-0.647,0.178-0.972,0.266c-0.652,0.166-1.295,0.371-1.93,0.559
	c-0.634,0.193-1.255,0.398-1.856,0.59c-0.299,0.104-0.592,0.205-0.88,0.305c-0.288,0.096-0.569,0.193-0.841,0.297
	c-0.273,0.098-0.539,0.193-0.795,0.287c-0.255,0.096-0.502,0.189-0.738,0.277c-0.475,0.18-0.906,0.355-1.289,0.502
	c-0.381,0.156-0.714,0.291-0.985,0.406c-0.272,0.117-0.487,0.209-0.632,0.271C23.907-218.34,23.831-218.307,23.831-218.307z"/>
<path fill="#050403" d="M23.489-223.824c0,0,0.081-0.031,0.229-0.086c0.149-0.055,0.365-0.137,0.646-0.23
	c0.559-0.195,1.358-0.471,2.326-0.773c0.484-0.15,1.008-0.316,1.567-0.475c0.278-0.08,0.565-0.164,0.858-0.248
	c0.294-0.08,0.594-0.162,0.899-0.244c0.611-0.17,1.247-0.326,1.892-0.488c0.646-0.158,1.307-0.305,1.964-0.457
	c0.662-0.133,1.321-0.277,1.976-0.4c0.328-0.059,0.65-0.117,0.973-0.176c0.32-0.057,0.637-0.113,0.95-0.156
	c0.313-0.047,0.621-0.094,0.921-0.137c0.301-0.047,0.596-0.088,0.884-0.119c0.577-0.064,1.121-0.133,1.626-0.176
	c0.504-0.033,0.967-0.066,1.377-0.094c0.205-0.018,0.398-0.02,0.574-0.025c0.178-0.002,0.342-0.008,0.488-0.012
	c0.59-0.01,0.926-0.016,0.926-0.016s-0.334,0.027-0.922,0.076c-0.146,0.01-0.31,0.021-0.487,0.035
	c-0.177,0.014-0.367,0.025-0.569,0.053c-0.408,0.047-0.868,0.1-1.37,0.156c-0.499,0.063-1.04,0.148-1.612,0.227
	c-0.287,0.037-0.58,0.088-0.879,0.141c-0.3,0.049-0.605,0.102-0.916,0.154c-0.623,0.098-1.26,0.238-1.912,0.355
	c-0.65,0.125-1.308,0.273-1.967,0.408c-0.658,0.15-1.315,0.293-1.96,0.445c-0.644,0.16-1.28,0.301-1.894,0.463
	c-0.306,0.076-0.605,0.152-0.901,0.227c-0.294,0.076-0.581,0.152-0.861,0.227c-0.562,0.148-1.09,0.291-1.579,0.422
	c-0.975,0.27-1.789,0.492-2.355,0.662C23.814-223.92,23.489-223.824,23.489-223.824z"/>
<path fill="#050403" d="M76.1-218.307c0,0-0.068-0.051-0.203-0.139c-0.133-0.092-0.334-0.213-0.588-0.373
	c-0.26-0.152-0.57-0.342-0.939-0.535c-0.363-0.205-0.787-0.406-1.244-0.637c-0.229-0.113-0.475-0.219-0.725-0.332
	c-0.125-0.059-0.254-0.117-0.381-0.176c-0.131-0.059-0.266-0.111-0.4-0.166c-0.271-0.113-0.549-0.227-0.832-0.342
	c-0.289-0.107-0.582-0.217-0.883-0.326c-0.592-0.234-1.227-0.408-1.861-0.619l-0.24-0.078l-0.242-0.066
	c-0.162-0.045-0.324-0.088-0.488-0.131c-0.326-0.09-0.654-0.178-0.98-0.268c-0.664-0.145-1.322-0.303-1.977-0.438
	c-0.656-0.115-1.305-0.229-1.93-0.338c-0.631-0.082-1.24-0.16-1.816-0.234c-0.289-0.045-0.572-0.057-0.846-0.082
	c-0.273-0.021-0.537-0.045-0.791-0.064c-0.506-0.039-0.971-0.092-1.385-0.096c-0.412-0.016-0.773-0.027-1.07-0.041
	c-0.594-0.023-0.934-0.037-0.934-0.037s0.34-0.008,0.934-0.02c0.297-0.004,0.66-0.01,1.074-0.016
	c0.414-0.018,0.881,0.012,1.391,0.035c0.256,0.012,0.521,0.025,0.795,0.037c0.275,0.016,0.561,0.021,0.852,0.059
	c0.582,0.063,1.197,0.127,1.832,0.193c0.631,0.1,1.283,0.205,1.947,0.316c0.658,0.131,1.322,0.287,1.992,0.432
	c0.328,0.09,0.656,0.182,0.986,0.273c0.164,0.043,0.328,0.09,0.49,0.133l0.244,0.07l0.242,0.078c0.639,0.215,1.273,0.408,1.869,0.65
	c0.297,0.117,0.594,0.227,0.881,0.344c0.283,0.125,0.561,0.248,0.83,0.365c0.135,0.061,0.268,0.115,0.396,0.18
	c0.131,0.063,0.256,0.125,0.381,0.186c0.248,0.125,0.49,0.24,0.717,0.361c0.453,0.246,0.869,0.471,1.225,0.695
	c0.361,0.213,0.662,0.42,0.916,0.582c0.246,0.172,0.441,0.311,0.566,0.41C76.035-218.361,76.1-218.307,76.1-218.307z"/>
<path fill="none" stroke="#050403" stroke-width="0.1483" stroke-miterlimit="10" d="M76.1-223.83"/>
<path fill="#050403" d="M76.1-223.83c0,0-0.08-0.029-0.229-0.084c-0.148-0.053-0.367-0.131-0.646-0.229
	c-0.279-0.102-0.619-0.213-1.008-0.344c-0.393-0.125-0.832-0.271-1.316-0.42c-0.482-0.152-1.008-0.307-1.564-0.471
	c-0.553-0.17-1.146-0.318-1.752-0.492c-0.613-0.156-1.242-0.324-1.887-0.479c-0.646-0.148-1.299-0.314-1.959-0.443
	c-0.328-0.068-0.658-0.139-0.986-0.209c-0.326-0.066-0.656-0.119-0.982-0.18c-0.326-0.063-0.648-0.119-0.967-0.178
	c-0.32-0.051-0.639-0.098-0.949-0.145c-0.311-0.049-0.617-0.096-0.916-0.141c-0.303-0.037-0.596-0.072-0.883-0.107
	c-0.572-0.068-1.115-0.141-1.617-0.174c-0.504-0.043-0.963-0.084-1.373-0.119c-0.408-0.018-0.766-0.033-1.059-0.047
	c-0.59-0.027-0.926-0.045-0.926-0.045s0.338-0.006,0.926-0.014c0.295-0.002,0.652-0.004,1.063-0.008
	c0.412,0.018,0.875,0.039,1.379,0.061c0.254,0.014,0.518,0.016,0.789,0.045c0.271,0.025,0.551,0.049,0.842,0.076
	c0.289,0.027,0.584,0.057,0.889,0.084c0.301,0.041,0.609,0.082,0.922,0.123c0.314,0.043,0.633,0.088,0.955,0.131
	c0.322,0.055,0.646,0.111,0.975,0.168c0.326,0.059,0.658,0.111,0.988,0.178c0.33,0.068,0.66,0.137,0.99,0.205
	c0.664,0.133,1.316,0.303,1.965,0.455c0.324,0.074,0.641,0.164,0.955,0.25s0.625,0.172,0.934,0.254
	c0.605,0.184,1.195,0.35,1.748,0.533c0.275,0.09,0.545,0.178,0.805,0.264c0.258,0.09,0.508,0.176,0.748,0.26
	c0.48,0.162,0.912,0.334,1.301,0.477c0.385,0.152,0.719,0.281,0.992,0.396c0.275,0.111,0.488,0.203,0.635,0.268
	C76.023-223.865,76.1-223.83,76.1-223.83z"/>
<path fill="none" stroke="#050403" stroke-width="0.1483" stroke-miterlimit="10" d="M46.068-228.137"/>
<g>
	<path fill="#CB6120" d="M46.627-228.137l6.588,0.129c0,0,1.236,0.15-0.896,2.393c-2.131,2.244-2.396,2.395-2.396,2.395l-2.52-2.457
		C47.402-225.678,44.955-227.885,46.627-228.137z"/>
	<path fill="#050403" d="M49.91-223.127l-2.559-2.496c-0.062-0.055-1.57-1.426-1.361-2.166c0.064-0.227,0.275-0.369,0.626-0.422
		l6.601,0.127c0.02,0.002,0.305,0.039,0.398,0.32c0.146,0.438-0.271,1.18-1.244,2.203c-2.115,2.225-2.404,2.402-2.416,2.406
		L49.91-223.127z M46.626-228.061c-0.278,0.043-0.45,0.148-0.497,0.314c-0.15,0.535,0.901,1.635,1.32,2.01l2.479,2.42
		c0.135-0.111,0.645-0.568,2.34-2.352c1.219-1.281,1.281-1.832,1.211-2.045c-0.063-0.189-0.264-0.221-0.271-0.221L46.626-228.061z"
		/>
</g>
<text transform="matrix(0.6973 0 0 1 76.0996 -232.7422)" font-family="'RoundedElegance-Regular'" font-size="21.3744">Resuelve la siguiente operación:</text>
<text transform="matrix(1 0 0 1 44.6494 -117.2607)" font-family="'RoundedElegance-Regular'" font-size="84.9548">3+0=?</text>
<text transform="matrix(1 0 0 1 223.2695 -63.8984)" font-family="'RoundedElegance-Regular'" font-size="23.0305">¡Éxitos!</text>
<path fill="#F4722A" d="M323.666,229.998c0,6.627-5.373,12-12,12H21.333c-6.627,0-11.999-5.373-11.999-12V21.002
	c0-6.627,5.372-11.998,11.999-11.998h290.333c6.627,0,12,5.371,12,11.998V229.998z"/>
<linearGradient id="SVGID_4_" gradientUnits="userSpaceOnUse" x1="167.1924" y1="18.5156" x2="166.7532" y2="73.2277">
	<stop  offset="0.046" style="stop-color:#00CD00"/>
	<stop  offset="1" style="stop-color:#FFFFFF"/>
</linearGradient>
<path fill="url(#SVGID_4_)" d="M314.334,221.471c0,6.643-5.373,12.027-12,12.027h-272c-6.628,0-12.001-5.385-12.001-12.027V29.695
	c0-6.643,5.373-12.027,12.001-12.027h272c6.627,0,12,5.385,12,12.027V221.471z"/>
<g>
	<ellipse fill="#FCF9F7" cx="41.964" cy="37.924" rx="5.171" ry="10.857"/>
	<path fill="#211915" d="M41.965,48.879c-2.904,0-5.267-4.914-5.267-10.955c0-6.043,2.362-10.959,5.267-10.959
		s5.266,4.916,5.266,10.959C47.23,43.965,44.869,48.879,41.965,48.879z M41.965,27.162c-2.8,0-5.076,4.828-5.076,10.762
		c0,5.93,2.276,10.758,5.076,10.758c2.799,0,5.075-4.828,5.075-10.758C47.04,31.99,44.764,27.162,41.965,27.162z"/>
</g>
<g>
	<ellipse cx="41.975" cy="37.924" rx="2.568" ry="2.771"/>
	<path fill="#211915" d="M41.977,40.807c-1.477,0-2.677-1.295-2.677-2.883c0-1.592,1.2-2.885,2.677-2.885
		c1.475,0,2.673,1.293,2.673,2.885C44.649,39.512,43.451,40.807,41.977,40.807z M41.977,35.262c-1.359,0-2.462,1.193-2.462,2.662
		c0,1.467,1.103,2.66,2.462,2.66c1.355,0,2.46-1.193,2.46-2.66C44.437,36.455,43.332,35.262,41.977,35.262z"/>
</g>
<g>
	<ellipse fill="#FCFCFC" cx="57.999" cy="37.879" rx="5.171" ry="10.857"/>
	<path fill="#211915" d="M58,48.836c-2.904,0-5.268-4.916-5.268-10.957S55.096,26.922,58,26.922c2.902,0,5.266,4.916,5.266,10.957
		S60.902,48.836,58,48.836z M58,27.119c-2.801,0-5.076,4.826-5.076,10.76c0,5.932,2.275,10.758,5.076,10.758
		c2.799,0,5.076-4.826,5.076-10.758C63.076,31.945,60.799,27.119,58,27.119z"/>
</g>
<g>
	<ellipse cx="57.789" cy="37.832" rx="2.568" ry="2.773"/>
	<path fill="#211915" d="M57.789,40.717c-1.475,0-2.676-1.291-2.676-2.885c0-1.588,1.201-2.883,2.676-2.883s2.676,1.295,2.676,2.883
		C60.465,39.426,59.264,40.717,57.789,40.717z M57.789,35.172c-1.355,0-2.461,1.195-2.461,2.66c0,1.469,1.105,2.664,2.461,2.664
		s2.461-1.195,2.461-2.664C60.25,36.367,59.145,35.172,57.789,35.172z"/>
</g>
<path fill="#050403" d="M23.831,65.324c0,0,0.073-0.039,0.216-0.111c0.14-0.074,0.348-0.182,0.615-0.309
	c0.266-0.133,0.592-0.283,0.968-0.457c0.376-0.17,0.799-0.367,1.269-0.561c0.234-0.098,0.479-0.201,0.732-0.307
	c0.254-0.102,0.518-0.203,0.787-0.311c0.541-0.217,1.119-0.42,1.715-0.641c0.301-0.1,0.605-0.205,0.915-0.311
	c0.31-0.102,0.622-0.215,0.94-0.307c0.638-0.191,1.283-0.4,1.937-0.572c0.327-0.086,0.653-0.174,0.978-0.262
	c0.325-0.084,0.654-0.156,0.977-0.234c0.324-0.074,0.646-0.148,0.963-0.223c0.32-0.063,0.636-0.123,0.947-0.184
	c0.311-0.061,0.616-0.119,0.916-0.176c0.301-0.047,0.595-0.09,0.883-0.131c0.286-0.043,0.564-0.084,0.834-0.125
	c0.271-0.045,0.533-0.059,0.786-0.086c0.502-0.049,0.964-0.092,1.372-0.133c0.41-0.018,0.768-0.033,1.063-0.047
	c0.588-0.021,0.924-0.033,0.924-0.033s-0.334,0.033-0.92,0.094c-0.293,0.027-0.648,0.061-1.057,0.098
	c-0.405,0.059-0.863,0.123-1.362,0.193c-0.501,0.059-1.038,0.162-1.608,0.262c-0.282,0.049-0.574,0.1-0.873,0.152
	c-0.297,0.064-0.602,0.129-0.908,0.193c-0.31,0.064-0.622,0.131-0.939,0.197c-0.316,0.076-0.635,0.154-0.955,0.232
	c-0.322,0.078-0.648,0.15-0.973,0.238c-0.322,0.088-0.647,0.178-0.972,0.266c-0.652,0.166-1.295,0.371-1.93,0.559
	c-0.634,0.193-1.255,0.398-1.856,0.59c-0.299,0.104-0.592,0.205-0.88,0.305c-0.288,0.096-0.569,0.193-0.841,0.297
	c-0.273,0.098-0.539,0.193-0.795,0.287c-0.255,0.096-0.502,0.189-0.738,0.277c-0.475,0.18-0.906,0.355-1.289,0.502
	c-0.381,0.156-0.714,0.291-0.985,0.406c-0.272,0.117-0.487,0.209-0.632,0.271C23.907,65.291,23.831,65.324,23.831,65.324z"/>
<path fill="#050403" d="M23.489,59.807c0,0,0.081-0.031,0.229-0.086c0.149-0.055,0.365-0.137,0.646-0.23
	c0.559-0.195,1.358-0.471,2.326-0.773c0.484-0.15,1.008-0.316,1.567-0.475c0.278-0.08,0.565-0.164,0.858-0.248
	c0.294-0.08,0.594-0.162,0.899-0.244c0.611-0.17,1.247-0.326,1.892-0.488c0.646-0.158,1.307-0.305,1.964-0.457
	c0.662-0.133,1.321-0.277,1.976-0.4c0.328-0.059,0.65-0.117,0.973-0.176c0.32-0.057,0.637-0.113,0.95-0.156
	c0.313-0.047,0.621-0.094,0.921-0.137c0.301-0.047,0.596-0.088,0.884-0.119c0.577-0.064,1.121-0.133,1.626-0.176
	c0.504-0.033,0.967-0.066,1.377-0.094c0.205-0.018,0.398-0.02,0.574-0.025c0.178-0.002,0.342-0.008,0.488-0.012
	c0.59-0.01,0.926-0.016,0.926-0.016s-0.334,0.027-0.922,0.076c-0.146,0.01-0.31,0.021-0.487,0.035
	c-0.177,0.014-0.367,0.025-0.569,0.053c-0.408,0.047-0.868,0.1-1.37,0.156c-0.499,0.063-1.04,0.148-1.612,0.227
	c-0.287,0.037-0.58,0.088-0.879,0.141c-0.3,0.049-0.605,0.102-0.916,0.154c-0.623,0.098-1.26,0.238-1.912,0.355
	c-0.65,0.125-1.308,0.273-1.967,0.408c-0.658,0.15-1.315,0.293-1.96,0.445c-0.644,0.16-1.28,0.301-1.894,0.463
	c-0.306,0.076-0.605,0.152-0.901,0.227c-0.294,0.076-0.581,0.152-0.861,0.227c-0.562,0.148-1.09,0.291-1.579,0.422
	c-0.975,0.27-1.789,0.492-2.355,0.662C23.814,59.711,23.489,59.807,23.489,59.807z"/>
<path fill="#050403" d="M76.1,65.324c0,0-0.068-0.051-0.203-0.139c-0.133-0.092-0.334-0.213-0.588-0.373
	c-0.26-0.152-0.57-0.342-0.939-0.535c-0.363-0.205-0.787-0.406-1.244-0.637c-0.229-0.113-0.475-0.219-0.725-0.332
	c-0.125-0.059-0.254-0.117-0.381-0.176c-0.131-0.059-0.266-0.111-0.4-0.166c-0.271-0.113-0.549-0.227-0.832-0.342
	c-0.289-0.107-0.582-0.217-0.883-0.326c-0.592-0.234-1.227-0.408-1.861-0.619l-0.24-0.078l-0.242-0.066
	c-0.162-0.045-0.324-0.088-0.488-0.131c-0.326-0.09-0.654-0.178-0.98-0.268c-0.664-0.145-1.322-0.303-1.977-0.438
	c-0.656-0.115-1.305-0.229-1.93-0.338c-0.631-0.082-1.24-0.16-1.816-0.234c-0.289-0.045-0.572-0.057-0.846-0.082
	C59.25,60.023,58.986,60,58.732,59.98c-0.506-0.039-0.971-0.092-1.385-0.096c-0.412-0.016-0.773-0.027-1.07-0.041
	c-0.594-0.023-0.934-0.037-0.934-0.037s0.34-0.008,0.934-0.02c0.297-0.004,0.66-0.01,1.074-0.016
	c0.414-0.018,0.881,0.012,1.391,0.035c0.256,0.012,0.521,0.025,0.795,0.037c0.275,0.016,0.561,0.021,0.852,0.059
	c0.582,0.063,1.197,0.127,1.832,0.193c0.631,0.1,1.283,0.205,1.947,0.316c0.658,0.131,1.322,0.287,1.992,0.432
	c0.328,0.09,0.656,0.182,0.986,0.273c0.164,0.043,0.328,0.09,0.49,0.133l0.244,0.07l0.242,0.078c0.639,0.215,1.273,0.408,1.869,0.65
	c0.297,0.117,0.594,0.227,0.881,0.344c0.283,0.125,0.561,0.248,0.83,0.365c0.135,0.061,0.268,0.115,0.396,0.18
	c0.131,0.063,0.256,0.125,0.381,0.186c0.248,0.125,0.49,0.24,0.717,0.361c0.453,0.246,0.869,0.471,1.225,0.695
	c0.361,0.213,0.662,0.42,0.916,0.582c0.246,0.172,0.441,0.311,0.566,0.41C76.035,65.27,76.1,65.324,76.1,65.324z"/>
<path fill="none" stroke="#050403" stroke-width="0.1483" stroke-miterlimit="10" d="M76.1,59.801"/>
<path fill="#050403" d="M76.1,59.801c0,0-0.08-0.029-0.229-0.084c-0.148-0.053-0.367-0.131-0.646-0.229
	c-0.279-0.102-0.619-0.213-1.008-0.344c-0.393-0.125-0.832-0.271-1.316-0.42c-0.482-0.152-1.008-0.307-1.564-0.471
	c-0.553-0.17-1.146-0.318-1.752-0.492c-0.613-0.156-1.242-0.324-1.887-0.479c-0.646-0.148-1.299-0.314-1.959-0.443
	c-0.328-0.068-0.658-0.139-0.986-0.209c-0.326-0.066-0.656-0.119-0.982-0.18c-0.326-0.063-0.648-0.119-0.967-0.178
	c-0.32-0.051-0.639-0.098-0.949-0.145c-0.311-0.049-0.617-0.096-0.916-0.141c-0.303-0.037-0.596-0.072-0.883-0.107
	c-0.572-0.068-1.115-0.141-1.617-0.174c-0.504-0.043-0.963-0.084-1.373-0.119c-0.408-0.018-0.766-0.033-1.059-0.047
	c-0.59-0.027-0.926-0.045-0.926-0.045s0.338-0.006,0.926-0.014c0.295-0.002,0.652-0.004,1.063-0.008
	c0.412,0.018,0.875,0.039,1.379,0.061c0.254,0.014,0.518,0.016,0.789,0.045c0.271,0.025,0.551,0.049,0.842,0.076
	c0.289,0.027,0.584,0.057,0.889,0.084c0.301,0.041,0.609,0.082,0.922,0.123c0.314,0.043,0.633,0.088,0.955,0.131
	c0.322,0.055,0.646,0.111,0.975,0.168c0.326,0.059,0.658,0.111,0.988,0.178c0.33,0.068,0.66,0.137,0.99,0.205
	c0.664,0.133,1.316,0.303,1.965,0.455c0.324,0.074,0.641,0.164,0.955,0.25s0.625,0.172,0.934,0.254
	c0.605,0.184,1.195,0.35,1.748,0.533c0.275,0.09,0.545,0.178,0.805,0.264c0.258,0.09,0.508,0.176,0.748,0.26
	c0.48,0.162,0.912,0.334,1.301,0.477c0.385,0.152,0.719,0.281,0.992,0.396c0.275,0.111,0.488,0.203,0.635,0.268
	C76.023,59.766,76.1,59.801,76.1,59.801z"/>
<path fill="none" stroke="#050403" stroke-width="0.1483" stroke-miterlimit="10" d="M46.068,55.494"/>
<g>
	<path fill="#CB6120" d="M46.627,55.494l6.588,0.129c0,0,1.236,0.15-0.896,2.393c-2.131,2.244-2.396,2.395-2.396,2.395l-2.52-2.457
		C47.402,57.953,44.955,55.746,46.627,55.494z"/>
	<path fill="#050403" d="M49.91,60.504l-2.559-2.496c-0.062-0.055-1.57-1.426-1.361-2.166c0.064-0.227,0.275-0.369,0.626-0.422
		l6.601,0.127c0.02,0.002,0.305,0.039,0.398,0.32c0.146,0.438-0.271,1.18-1.244,2.203c-2.115,2.225-2.404,2.402-2.416,2.406
		L49.91,60.504z M46.626,55.57c-0.278,0.043-0.45,0.148-0.497,0.314c-0.15,0.535,0.901,1.635,1.32,2.01l2.479,2.42
		c0.135-0.111,0.645-0.568,2.34-2.352c1.219-1.281,1.281-1.832,1.211-2.045c-0.063-0.189-0.264-0.221-0.271-0.221L46.626,55.57z"/>
</g>
<text transform="matrix(0.6973 0 0 1 76.0996 50.8887)" font-family="'RoundedElegance-Regular'" font-size="21.3744">Resuelve la siguiente operación:</text>
<text transform="matrix(1 0 0 1 44.6494 166.3701)" font-family="'RoundedElegance-Regular'" font-size="84.9548">3+3=?</text>
<text transform="matrix(1 0 0 1 223.2695 219.7324)" font-family="'RoundedElegance-Regular'" font-size="23.0305">¡Éxitos!</text>
<path fill="#F4722A" d="M683.666-46.299c0,6.627-5.373,12-12,12H381.333c-6.627,0-11.999-5.373-11.999-12v-208.996
	c0-6.627,5.372-11.998,11.999-11.998h290.333c6.627,0,12,5.371,12,11.998V-46.299z"/>
<linearGradient id="SVGID_5_" gradientUnits="userSpaceOnUse" x1="527.1934" y1="-257.7822" x2="526.7542" y2="-203.0699">
	<stop  offset="0.046" style="stop-color:#00CD00"/>
	<stop  offset="1" style="stop-color:#FFFFFF"/>
</linearGradient>
<path fill="url(#SVGID_5_)" d="M674.334-54.826c0,6.643-5.373,12.027-12,12.027h-272c-6.628,0-12.001-5.385-12.001-12.027v-191.775
	c0-6.643,5.373-12.027,12.001-12.027h272c6.627,0,12,5.385,12,12.027V-54.826z"/>
<g>
	<ellipse fill="#FCF9F7" cx="401.964" cy="-238.373" rx="5.171" ry="10.857"/>
	<path fill="#211915" d="M401.965-227.418c-2.904,0-5.267-4.914-5.267-10.955c0-6.043,2.362-10.959,5.267-10.959
		s5.266,4.916,5.266,10.959C407.23-232.332,404.869-227.418,401.965-227.418z M401.965-249.135c-2.8,0-5.076,4.828-5.076,10.762
		c0,5.93,2.276,10.758,5.076,10.758c2.799,0,5.075-4.828,5.075-10.758C407.04-244.307,404.764-249.135,401.965-249.135z"/>
</g>
<g>
	<ellipse cx="401.975" cy="-238.373" rx="2.568" ry="2.771"/>
	<path fill="#211915" d="M401.977-235.49c-1.477,0-2.677-1.295-2.677-2.883c0-1.592,1.2-2.885,2.677-2.885
		c1.475,0,2.673,1.293,2.673,2.885C404.649-236.785,403.451-235.49,401.977-235.49z M401.977-241.035
		c-1.359,0-2.462,1.193-2.462,2.662c0,1.467,1.103,2.66,2.462,2.66c1.355,0,2.46-1.193,2.46-2.66
		C404.437-239.842,403.332-241.035,401.977-241.035z"/>
</g>
<g>
	<ellipse fill="#FCFCFC" cx="417.999" cy="-238.418" rx="5.171" ry="10.857"/>
	<path fill="#211915" d="M418-227.461c-2.904,0-5.268-4.916-5.268-10.957s2.363-10.957,5.268-10.957
		c2.902,0,5.266,4.916,5.266,10.957S420.902-227.461,418-227.461z M418-249.178c-2.801,0-5.076,4.826-5.076,10.76
		c0,5.932,2.275,10.758,5.076,10.758c2.799,0,5.076-4.826,5.076-10.758C423.076-244.352,420.799-249.178,418-249.178z"/>
</g>
<g>
	<ellipse cx="417.789" cy="-238.465" rx="2.568" ry="2.773"/>
	<path fill="#211915" d="M417.789-235.58c-1.475,0-2.676-1.291-2.676-2.885c0-1.588,1.201-2.883,2.676-2.883
		s2.676,1.295,2.676,2.883C420.465-236.871,419.264-235.58,417.789-235.58z M417.789-241.125c-1.355,0-2.461,1.195-2.461,2.66
		c0,1.469,1.105,2.664,2.461,2.664s2.461-1.195,2.461-2.664C420.25-239.93,419.145-241.125,417.789-241.125z"/>
</g>
<path fill="#050403" d="M383.831-210.973c0,0,0.073-0.039,0.216-0.111c0.14-0.074,0.348-0.182,0.615-0.309
	c0.266-0.133,0.592-0.283,0.968-0.457c0.376-0.17,0.799-0.367,1.269-0.561c0.234-0.098,0.479-0.201,0.732-0.307
	c0.254-0.102,0.518-0.203,0.787-0.311c0.541-0.217,1.119-0.42,1.715-0.641c0.301-0.1,0.605-0.205,0.915-0.311
	c0.31-0.102,0.622-0.215,0.94-0.307c0.638-0.191,1.283-0.4,1.937-0.572c0.327-0.086,0.653-0.174,0.978-0.262
	c0.325-0.084,0.654-0.156,0.977-0.234c0.324-0.074,0.646-0.148,0.963-0.223c0.32-0.063,0.636-0.123,0.947-0.184
	c0.311-0.061,0.616-0.119,0.916-0.176c0.301-0.047,0.595-0.09,0.883-0.131c0.286-0.043,0.564-0.084,0.834-0.125
	c0.271-0.045,0.533-0.059,0.786-0.086c0.502-0.049,0.964-0.092,1.372-0.133c0.41-0.018,0.768-0.033,1.063-0.047
	c0.588-0.021,0.924-0.033,0.924-0.033s-0.334,0.033-0.92,0.094c-0.293,0.027-0.648,0.061-1.057,0.098
	c-0.405,0.059-0.863,0.123-1.362,0.193c-0.501,0.059-1.038,0.162-1.608,0.262c-0.282,0.049-0.574,0.1-0.873,0.152
	c-0.297,0.064-0.602,0.129-0.908,0.193c-0.31,0.064-0.622,0.131-0.939,0.197c-0.316,0.076-0.635,0.154-0.955,0.232
	c-0.322,0.078-0.648,0.15-0.973,0.238c-0.322,0.088-0.647,0.178-0.972,0.266c-0.652,0.166-1.295,0.371-1.93,0.559
	c-0.634,0.193-1.255,0.398-1.856,0.59c-0.299,0.104-0.592,0.205-0.88,0.305c-0.288,0.096-0.569,0.193-0.841,0.297
	c-0.273,0.098-0.539,0.193-0.795,0.287c-0.255,0.096-0.502,0.189-0.738,0.277c-0.475,0.18-0.906,0.355-1.289,0.502
	c-0.381,0.156-0.714,0.291-0.985,0.406c-0.272,0.117-0.487,0.209-0.632,0.271C383.907-211.006,383.831-210.973,383.831-210.973z"/>
<path fill="#050403" d="M383.489-216.49c0,0,0.081-0.031,0.229-0.086c0.149-0.055,0.365-0.137,0.646-0.23
	c0.559-0.195,1.358-0.471,2.326-0.773c0.484-0.15,1.008-0.316,1.567-0.475c0.278-0.08,0.565-0.164,0.858-0.248
	c0.294-0.08,0.594-0.162,0.899-0.244c0.611-0.17,1.247-0.326,1.892-0.488c0.646-0.158,1.307-0.305,1.964-0.457
	c0.662-0.133,1.321-0.277,1.976-0.4c0.328-0.059,0.65-0.117,0.973-0.176c0.32-0.057,0.637-0.113,0.95-0.156
	c0.313-0.047,0.621-0.094,0.921-0.137c0.301-0.047,0.596-0.088,0.884-0.119c0.577-0.064,1.121-0.133,1.626-0.176
	c0.504-0.033,0.967-0.066,1.377-0.094c0.205-0.018,0.398-0.02,0.574-0.025c0.178-0.002,0.342-0.008,0.488-0.012
	c0.59-0.01,0.926-0.016,0.926-0.016s-0.334,0.027-0.922,0.076c-0.146,0.01-0.31,0.021-0.487,0.035
	c-0.177,0.014-0.367,0.025-0.569,0.053c-0.408,0.047-0.868,0.1-1.37,0.156c-0.499,0.063-1.04,0.148-1.612,0.227
	c-0.287,0.037-0.58,0.088-0.879,0.141c-0.3,0.049-0.605,0.102-0.916,0.154c-0.623,0.098-1.26,0.238-1.912,0.355
	c-0.65,0.125-1.308,0.273-1.967,0.408c-0.658,0.15-1.315,0.293-1.96,0.445c-0.644,0.16-1.28,0.301-1.894,0.463
	c-0.306,0.076-0.605,0.152-0.901,0.227c-0.294,0.076-0.581,0.152-0.861,0.227c-0.562,0.148-1.09,0.291-1.579,0.422
	c-0.975,0.27-1.789,0.492-2.355,0.662C383.814-216.586,383.489-216.49,383.489-216.49z"/>
<path fill="#050403" d="M436.1-210.973c0,0-0.068-0.051-0.203-0.139c-0.133-0.092-0.334-0.213-0.588-0.373
	c-0.26-0.152-0.57-0.342-0.939-0.535c-0.363-0.205-0.787-0.406-1.244-0.637c-0.229-0.113-0.475-0.219-0.725-0.332
	c-0.125-0.059-0.254-0.117-0.381-0.176c-0.131-0.059-0.266-0.111-0.4-0.166c-0.271-0.113-0.549-0.227-0.832-0.342
	c-0.289-0.107-0.582-0.217-0.883-0.326c-0.592-0.234-1.227-0.408-1.861-0.619l-0.24-0.078l-0.242-0.066
	c-0.162-0.045-0.324-0.088-0.488-0.131c-0.326-0.09-0.654-0.178-0.98-0.268c-0.664-0.145-1.322-0.303-1.977-0.438
	c-0.656-0.115-1.305-0.229-1.93-0.338c-0.631-0.082-1.24-0.16-1.816-0.234c-0.289-0.045-0.572-0.057-0.846-0.082
	c-0.273-0.021-0.537-0.045-0.791-0.064c-0.506-0.039-0.971-0.092-1.385-0.096c-0.412-0.016-0.773-0.027-1.07-0.041
	c-0.594-0.023-0.934-0.037-0.934-0.037s0.34-0.008,0.934-0.02c0.297-0.004,0.66-0.01,1.074-0.016
	c0.414-0.018,0.881,0.012,1.391,0.035c0.256,0.012,0.521,0.025,0.795,0.037c0.275,0.016,0.561,0.021,0.852,0.059
	c0.582,0.063,1.197,0.127,1.832,0.193c0.631,0.1,1.283,0.205,1.947,0.316c0.658,0.131,1.322,0.287,1.992,0.432
	c0.328,0.09,0.656,0.182,0.986,0.273c0.164,0.043,0.328,0.09,0.49,0.133l0.244,0.07l0.242,0.078c0.639,0.215,1.273,0.408,1.869,0.65
	c0.297,0.117,0.594,0.227,0.881,0.344c0.283,0.125,0.561,0.248,0.83,0.365c0.135,0.061,0.268,0.115,0.396,0.18
	c0.131,0.063,0.256,0.125,0.381,0.186c0.248,0.125,0.49,0.24,0.717,0.361c0.453,0.246,0.869,0.471,1.225,0.695
	c0.361,0.213,0.662,0.42,0.916,0.582c0.246,0.172,0.441,0.311,0.566,0.41C436.035-211.027,436.1-210.973,436.1-210.973z"/>
<path fill="none" stroke="#050403" stroke-width="0.1483" stroke-miterlimit="10" d="M436.1-216.496"/>
<path fill="#050403" d="M436.1-216.496c0,0-0.08-0.029-0.229-0.084c-0.148-0.053-0.367-0.131-0.646-0.229
	c-0.279-0.102-0.619-0.213-1.008-0.344c-0.393-0.125-0.832-0.271-1.316-0.42c-0.482-0.152-1.008-0.307-1.564-0.471
	c-0.553-0.17-1.146-0.318-1.752-0.492c-0.613-0.156-1.242-0.324-1.887-0.479c-0.646-0.148-1.299-0.314-1.959-0.443
	c-0.328-0.068-0.658-0.139-0.986-0.209c-0.326-0.066-0.656-0.119-0.982-0.18c-0.326-0.063-0.648-0.119-0.967-0.178
	c-0.32-0.051-0.639-0.098-0.949-0.145c-0.311-0.049-0.617-0.096-0.916-0.141c-0.303-0.037-0.596-0.072-0.883-0.107
	c-0.572-0.068-1.115-0.141-1.617-0.174c-0.504-0.043-0.963-0.084-1.373-0.119c-0.408-0.018-0.766-0.033-1.059-0.047
	c-0.59-0.027-0.926-0.045-0.926-0.045s0.338-0.006,0.926-0.014c0.295-0.002,0.652-0.004,1.063-0.008
	c0.412,0.018,0.875,0.039,1.379,0.061c0.254,0.014,0.518,0.016,0.789,0.045c0.271,0.025,0.551,0.049,0.842,0.076
	c0.289,0.027,0.584,0.057,0.889,0.084c0.301,0.041,0.609,0.082,0.922,0.123c0.314,0.043,0.633,0.088,0.955,0.131
	c0.322,0.055,0.646,0.111,0.975,0.168c0.326,0.059,0.658,0.111,0.988,0.178c0.33,0.068,0.66,0.137,0.99,0.205
	c0.664,0.133,1.316,0.303,1.965,0.455c0.324,0.074,0.641,0.164,0.955,0.25s0.625,0.172,0.934,0.254
	c0.605,0.184,1.195,0.35,1.748,0.533c0.275,0.09,0.545,0.178,0.805,0.264c0.258,0.09,0.508,0.176,0.748,0.26
	c0.48,0.162,0.912,0.334,1.301,0.477c0.385,0.152,0.719,0.281,0.992,0.396c0.275,0.111,0.488,0.203,0.635,0.268
	C436.023-216.531,436.1-216.496,436.1-216.496z"/>
<path fill="none" stroke="#050403" stroke-width="0.1483" stroke-miterlimit="10" d="M406.068-220.803"/>
<g>
	<path fill="#CB6120" d="M406.627-220.803l6.588,0.129c0,0,1.236,0.15-0.896,2.393c-2.131,2.244-2.396,2.395-2.396,2.395
		l-2.52-2.457C407.402-218.344,404.955-220.551,406.627-220.803z"/>
	<path fill="#050403" d="M409.91-215.793l-2.559-2.496c-0.062-0.055-1.57-1.426-1.361-2.166c0.064-0.227,0.275-0.369,0.626-0.422
		l6.601,0.127c0.02,0.002,0.305,0.039,0.398,0.32c0.146,0.438-0.271,1.18-1.244,2.203c-2.115,2.225-2.404,2.402-2.416,2.406
		L409.91-215.793z M406.626-220.727c-0.278,0.043-0.45,0.148-0.497,0.314c-0.15,0.535,0.901,1.635,1.32,2.01l2.479,2.42
		c0.135-0.111,0.645-0.568,2.34-2.352c1.219-1.281,1.281-1.832,1.211-2.045c-0.063-0.189-0.264-0.221-0.271-0.221L406.626-220.727z"
		/>
</g>
<text transform="matrix(0.6973 0 0 1 436.0996 -225.4092)" font-family="'RoundedElegance-Regular'" font-size="21.3744">Resuelve la siguiente operación:</text>
<text transform="matrix(1 0 0 1 404.6494 -109.9277)" font-family="'RoundedElegance-Regular'" font-size="84.9548">6+3=?</text>
<text transform="matrix(1 0 0 1 583.2695 -56.5645)" font-family="'RoundedElegance-Regular'" font-size="23.0305">¡Éxitos!</text>
</svg>
