<?xml version="1.0" encoding="utf-8"?>
<!-- Generator: Adobe Illustrator 22.0.0, SVG Export Plug-In . SVG Version: 6.00 Build 0)  -->
<svg version="1.1" xmlns="http://www.w3.org/2000/svg" xmlns:xlink="http://www.w3.org/1999/xlink" x="0px" y="0px" width="415.8px"
	 height="314.9px" viewBox="0 0 415.8 314.9" style="enable-background:new 0 0 415.8 314.9;" xml:space="preserve">
<style type="text/css">
	.st0{fill:#F4722A;}
	.st1{fill:#FFFFFF;}
	.st2{fill:none;stroke:#050403;stroke-width:0.1483;stroke-miterlimit:10;}
	.st3{font-family:'RoundedElegance-Regular';}
	.st4{font-size:29.4292px;}
	.st5{opacity:0.5;}
	.st6{fill:none;stroke:#0278C1;stroke-width:0.2835;stroke-miterlimit:10;}
	.st7{fill:none;stroke:#000000;stroke-width:0.8504;stroke-miterlimit:10;}
	.st8{stroke:#000000;stroke-width:0.8504;stroke-miterlimit:10;}
	.st9{font-family:'MyriadPro-Regular';}
	.st10{font-size:7.8939px;}
	.st11{fill:#D80927;}
	.st12{font-size:7.4356px;}
	.st13{font-size:9.2435px;}
	.st14{font-size:6.4728px;}
</style>
<g id="Capa_1">
	<path class="st0" d="M411,291.4c0,8.5-6.9,15.3-15.3,15.3h-371c-8.5,0-15.3-6.9-15.3-15.3V24.3C9.3,15.9,16.2,9,24.7,9h371
		c8.5,0,15.3,6.9,15.3,15.3L411,291.4L411,291.4z"/>
	<path class="st1" d="M399.1,280.5c0,8.5-6.9,15.4-15.3,15.4H36.2c-8.5,0-15.3-6.9-15.3-15.4V35.4c0-8.5,6.9-15.4,15.3-15.4h347.6
		c8.5,0,15.3,6.9,15.3,15.4V280.5z"/>
	<path class="st2" d="M94.6,73.9"/>
	<path class="st2" d="M56.3,68.4"/>
	<text transform="matrix(1 0 0 1 282.709 278.2814)" class="st3 st4">¡Éxitos!</text>
</g>
<g id="Capa_2">
	<g class="st5">
		<rect x="41.3" y="32.9" class="st6" width="245.3" height="245.3"/>
		<line class="st6" x1="41.3" y1="237.3" x2="286.7" y2="237.3"/>
		<line class="st6" x1="41.3" y1="196.5" x2="286.7" y2="196.5"/>
		<line class="st6" x1="286.7" y1="155.6" x2="41.3" y2="155.6"/>
		<line class="st6" x1="41.3" y1="114.6" x2="286.7" y2="114.6"/>
		<line class="st6" x1="41.3" y1="73.9" x2="286.7" y2="73.9"/>
		<line class="st6" x1="245.7" y1="32.9" x2="245.7" y2="278.3"/>
		<line class="st6" x1="204.9" y1="32.9" x2="204.9" y2="278.3"/>
		<line class="st6" x1="164" y1="32.9" x2="164" y2="278.3"/>
		<line class="st6" x1="123.1" y1="32.9" x2="123.1" y2="278.3"/>
		<line class="st6" x1="82.3" y1="32.9" x2="82.3" y2="278.3"/>
	</g>
	<line class="st7" x1="41.6" y1="155.3" x2="286.4" y2="155.3"/>
	<line class="st7" x1="164.4" y1="33.3" x2="164.4" y2="278.3"/>
	<path class="st8" d="M164.4,27.9l-5.1,5.1h10.4C169.6,33.1,164.4,27.9,164.4,27.9z"/>
	<path class="st8" d="M291.8,155.4l-5.1-5.1v10.4C286.5,160.7,291.8,155.4,291.8,155.4z"/>
	<path class="st8" d="M36.6,155.3l5.1,5.1V150C41.9,150,36.6,155.3,36.6,155.3z"/>
	<path class="st8" d="M164.6,283.8l5.1-5.1h-10.4C159.3,278.5,164.6,283.8,164.6,283.8z"/>
	<line class="st7" x1="161.4" y1="114.6" x2="167.4" y2="114.6"/>
	<line class="st7" x1="161.4" y1="93.4" x2="167.4" y2="93.4"/>
	<line class="st7" x1="161.4" y1="73.9" x2="167.4" y2="73.9"/>
	<line class="st7" x1="161.4" y1="52.9" x2="167.4" y2="52.9"/>
	<line class="st7" x1="161.4" y1="136.6" x2="167.4" y2="136.6"/>
	<line class="st7" x1="204.9" y1="152.6" x2="204.9" y2="158.7"/>
	<line class="st7" x1="226.2" y1="152.6" x2="226.2" y2="158.7"/>
	<line class="st7" x1="245.9" y1="152.6" x2="245.9" y2="158.7"/>
	<line class="st7" x1="266.7" y1="152.6" x2="266.7" y2="158.7"/>
	<line class="st7" x1="183" y1="152.6" x2="183" y2="158.7"/>
	<line class="st7" x1="123.1" y1="158.7" x2="123.1" y2="152.6"/>
	<line class="st7" x1="101.8" y1="158.7" x2="101.8" y2="152.6"/>
	<line class="st7" x1="82.3" y1="158.7" x2="82.3" y2="152.6"/>
	<line class="st7" x1="61.3" y1="158.7" x2="61.3" y2="152.6"/>
	<line class="st7" x1="145" y1="158.7" x2="145" y2="152.6"/>
	<line class="st7" x1="167.4" y1="196.8" x2="161.4" y2="196.8"/>
	<line class="st7" x1="167.4" y1="218.1" x2="161.4" y2="218.1"/>
	<line class="st7" x1="167.4" y1="237.7" x2="161.4" y2="237.7"/>
	<line class="st7" x1="167.4" y1="258.6" x2="161.4" y2="258.6"/>
	<line class="st7" x1="167.4" y1="174.8" x2="161.4" y2="174.8"/>
	<text transform="matrix(1 0 0 1 155.0246 139.1112)" class="st9 st10">1</text>
	<text transform="matrix(1 0 0 1 153.2917 177.453)" class="st11 st9 st12">-1</text>
	<text transform="matrix(1 0 0 1 152.2917 220.5321)" class="st11 st9 st12">-3</text>
	<text transform="matrix(1 0 0 1 153.2917 261.1854)" class="st11 st9 st12">-5</text>
	<text transform="matrix(1 0 0 1 154.36 97.1703)" class="st9 st13">3</text>
	<text transform="matrix(1 0 0 1 155.36 55.993)" class="st9 st13">5</text>
	<text transform="matrix(1 0 0 1 154.4924 118.5663)" class="st9 st13">2</text>
	<text transform="matrix(1 0 0 1 151.6393 199.159)" class="st11 st9 st13">-2</text>
	<text transform="matrix(1 0 0 1 151.6393 240.8817)" class="st11 st9 st13">-4</text>
	<text transform="matrix(1 0 0 1 141.3766 167.7547)" class="st11 st9 st12">-1</text>
	<text transform="matrix(1 0 0 1 120.1003 167.7547)" class="st11 st9 st12">-2</text>
	<text transform="matrix(1 0 0 1 99.1188 167.7547)" class="st11 st9 st12">-3</text>
	<text transform="matrix(1 0 0 1 79.2394 167.6952)" class="st11 st9 st12">-4</text>
	<text transform="matrix(1 0 0 1 56.1095 167.6952)" class="st11 st9 st12">-5</text>
	<text transform="matrix(1 0 0 1 154.4924 76.4383)" class="st9 st13">4</text>
	<line class="st7" x1="41.6" y1="155.3" x2="286.4" y2="155.3"/>
	<line class="st7" x1="164.4" y1="33.3" x2="164.4" y2="278.3"/>
	<path class="st8" d="M164.4,27.9l-5.1,5.1h10.4C169.6,33.1,164.4,27.9,164.4,27.9z"/>
	<path class="st8" d="M291.8,155.4l-5.1-5.1v10.4C286.5,160.7,291.8,155.4,291.8,155.4z"/>
	<path class="st8" d="M36.6,155.3l5.1,5.1V150C41.9,150,36.6,155.3,36.6,155.3z"/>
	<path class="st8" d="M164.6,283.8l5.1-5.1h-10.4C159.3,278.5,164.6,283.8,164.6,283.8z"/>
	<line class="st7" x1="161.4" y1="114.6" x2="167.4" y2="114.6"/>
	<line class="st7" x1="161.4" y1="93.4" x2="167.4" y2="93.4"/>
	<line class="st7" x1="161.4" y1="73.9" x2="167.4" y2="73.9"/>
	<line class="st7" x1="161.4" y1="52.9" x2="167.4" y2="52.9"/>
	<line class="st7" x1="161.4" y1="136.6" x2="167.4" y2="136.6"/>
	<line class="st7" x1="204.9" y1="152.6" x2="204.9" y2="158.7"/>
	<line class="st7" x1="226.2" y1="152.6" x2="226.2" y2="158.7"/>
	<line class="st7" x1="245.9" y1="152.6" x2="245.9" y2="158.7"/>
	<line class="st7" x1="266.7" y1="152.6" x2="266.7" y2="158.7"/>
	<line class="st7" x1="183" y1="152.6" x2="183" y2="158.7"/>
	<line class="st7" x1="123.1" y1="158.7" x2="123.1" y2="152.6"/>
	<line class="st7" x1="101.8" y1="158.7" x2="101.8" y2="152.6"/>
	<line class="st7" x1="82.3" y1="158.7" x2="82.3" y2="152.6"/>
	<line class="st7" x1="61.3" y1="158.7" x2="61.3" y2="152.6"/>
	<line class="st7" x1="145" y1="158.7" x2="145" y2="152.6"/>
	<line class="st7" x1="167.4" y1="196.8" x2="161.4" y2="196.8"/>
	<line class="st7" x1="167.4" y1="218.1" x2="161.4" y2="218.1"/>
	<line class="st7" x1="167.4" y1="237.7" x2="161.4" y2="237.7"/>
	<line class="st7" x1="167.4" y1="258.6" x2="161.4" y2="258.6"/>
	<line class="st7" x1="167.4" y1="174.8" x2="161.4" y2="174.8"/>
	<text transform="matrix(1 0 0 1 181.1579 165.9149)" class="st9 st14">1</text>
	<text transform="matrix(1 0 0 1 203.1833 165.9149)" class="st9 st14">2</text>
	<text transform="matrix(1 0 0 1 224.6784 165.9149)" class="st9 st14">3</text>
	<text transform="matrix(1 0 0 1 244.193 165.9149)" class="st9 st14">4</text>
	<text transform="matrix(1 0 0 1 265.737 165.9149)" class="st9 st14">5</text>
</g>
</svg>
