<?xml version="1.0" encoding="utf-8"?>
<!-- Generator: Adobe Illustrator 22.0.0, SVG Export Plug-In . SVG Version: 6.00 Build 0)  -->
<svg version="1.1" id="Capa_1" xmlns="http://www.w3.org/2000/svg" xmlns:xlink="http://www.w3.org/1999/xlink" x="0px" y="0px"
	 width="364.3px" height="323.6px" viewBox="0 0 364.3 323.6" style="enable-background:new 0 0 364.3 323.6;" xml:space="preserve"
	>
<style type="text/css">
	.st0{fill:#F4722A;}
	.st1{fill:url(#SVGID_1_);}
	.st2{fill:#FCF9F7;}
	.st3{fill:#211915;}
	.st4{fill:#FCFCFC;}
	.st5{fill:#050403;}
	.st6{fill:none;stroke:#050403;stroke-width:0.1483;stroke-miterlimit:10;}
	.st7{fill:#CB6120;}
	.st8{fill:url(#SVGID_2_);}
	.st9{fill:none;stroke:#000000;stroke-miterlimit:10;}
	.st10{fill:url(#SVGID_3_);}
	.st11{fill:url(#SVGID_4_);}
	.st12{fill:url(#SVGID_5_);}
	.st13{fill:url(#SVGID_6_);}
	.st14{enable-background:new    ;}
	.st15{font-family:'RoundedElegance-Regular';}
	.st16{font-size:25.3714px;}
	.st17{font-size:15.4293px;}
	.st18{fill:url(#SVGID_7_);}
	.st19{fill:url(#SVGID_8_);}
	.st20{fill:url(#SVGID_9_);}
	.st21{fill:none;stroke:#B72749;stroke-miterlimit:10;}
	.st22{fill:url(#SVGID_10_);}
	.st23{fill:url(#SVGID_11_);}
	.st24{fill:url(#SVGID_12_);}
	.st25{font-family:'MyriadPro-Regular';}
	.st26{font-size:12.5854px;}
</style>
<path class="st0" d="M789-101.5C789-93,783-86,775.7-86H454.6c-7.3,0-13.3-6.9-13.3-15.5v-270c0-8.6,5.9-15.5,13.3-15.5h321.1
	c7.3,0,13.3,6.9,13.3,15.5L789-101.5L789-101.5z"/>
<linearGradient id="SVGID_1_" gradientUnits="userSpaceOnUse" x1="615.049" y1="-2632.4099" x2="614.4823" y2="-2702.9888" gradientTransform="matrix(1 0 0 -1 0 -3006.9612)">
	<stop  offset="4.600000e-02" style="stop-color:#00CD00"/>
	<stop  offset="1" style="stop-color:#FFFFFF"/>
</linearGradient>
<path class="st1" d="M777.6-112.6c0,8.6-5.9,15.5-13.3,15.5H463.5c-7.3,0-13.3-7-13.3-15.5v-247.7c0-8.6,5.9-15.5,13.3-15.5h300.8
	c7.3,0,13.3,7,13.3,15.5V-112.6z"/>
<g>
	<ellipse class="st2" cx="473.9" cy="-358.1" rx="5.2" ry="10.9"/>
	<path class="st3" d="M473.9-347.2c-2.9,0-5.3-4.9-5.3-11c0-6,2.4-11,5.3-11s5.3,4.9,5.3,11C479.2-352.1,476.8-347.2,473.9-347.2z
		 M473.9-368.9c-2.8,0-5.1,4.8-5.1,10.8c0,5.9,2.3,10.8,5.1,10.8c2.8,0,5.1-4.8,5.1-10.8C479-364.1,476.7-368.9,473.9-368.9z"/>
</g>
<g>
	<ellipse cx="473.9" cy="-358.1" rx="2.6" ry="2.8"/>
	<path class="st3" d="M473.9-355.2c-1.5,0-2.7-1.3-2.7-2.9c0-1.6,1.2-2.9,2.7-2.9c1.5,0,2.7,1.3,2.7,2.9
		C476.6-356.5,475.4-355.2,473.9-355.2z M473.9-360.8c-1.4,0-2.5,1.2-2.5,2.7c0,1.5,1.1,2.7,2.5,2.7c1.4,0,2.5-1.2,2.5-2.7
		C476.4-359.6,475.3-360.8,473.9-360.8z"/>
</g>
<g>
	<ellipse class="st4" cx="490" cy="-358.2" rx="5.2" ry="10.9"/>
	<path class="st3" d="M490-347.2c-2.9,0-5.3-4.9-5.3-11c0-6,2.4-11,5.3-11c2.9,0,5.3,4.9,5.3,11C495.2-352.1,492.9-347.2,490-347.2z
		 M490-368.9c-2.8,0-5.1,4.8-5.1,10.8c0,5.9,2.3,10.8,5.1,10.8c2.8,0,5.1-4.8,5.1-10.8C495-364.1,492.8-368.9,490-368.9z"/>
</g>
<g>
	<ellipse cx="489.7" cy="-358.2" rx="2.6" ry="2.8"/>
	<path class="st3" d="M489.7-355.3c-1.5,0-2.7-1.3-2.7-2.9c0-1.6,1.2-2.9,2.7-2.9c1.5,0,2.7,1.3,2.7,2.9
		C492.4-356.6,491.2-355.3,489.7-355.3z M489.7-360.9c-1.4,0-2.5,1.2-2.5,2.7c0,1.5,1.1,2.7,2.5,2.7c1.4,0,2.5-1.2,2.5-2.7
		C492.2-359.7,491.1-360.9,489.7-360.9z"/>
</g>
<path class="st5" d="M455.8-330.7c0,0,0.1,0,0.2-0.1c0.1-0.1,0.3-0.2,0.6-0.3c0.3-0.1,0.6-0.3,1-0.5c0.4-0.2,0.8-0.4,1.3-0.6
	c0.2-0.1,0.5-0.2,0.7-0.3c0.3-0.1,0.5-0.2,0.8-0.3c0.5-0.2,1.1-0.4,1.7-0.6c0.3-0.1,0.6-0.2,0.9-0.3c0.3-0.1,0.6-0.2,0.9-0.3
	c0.6-0.2,1.3-0.4,1.9-0.6c0.3-0.1,0.7-0.2,1-0.3c0.3-0.1,0.7-0.2,1-0.2c0.3-0.1,0.6-0.1,1-0.2c0.3-0.1,0.6-0.1,0.9-0.2
	c0.3-0.1,0.6-0.1,0.9-0.2c0.3,0,0.6-0.1,0.9-0.1c0.3,0,0.6-0.1,0.8-0.1c0.3,0,0.5-0.1,0.8-0.1c0.5,0,1-0.1,1.4-0.1
	c0.4,0,0.8,0,1.1,0c0.6,0,0.9,0,0.9,0s-0.3,0-0.9,0.1c-0.3,0-0.6,0.1-1.1,0.1c-0.4,0.1-0.9,0.1-1.4,0.2c-0.5,0.1-1,0.2-1.6,0.3
	c-0.3,0.1-0.6,0.1-0.9,0.2c-0.3,0.1-0.6,0.1-0.9,0.2c-0.3,0.1-0.6,0.1-0.9,0.2c-0.3,0.1-0.6,0.2-1,0.2c-0.3,0.1-0.6,0.2-1,0.2
	c-0.3,0.1-0.6,0.2-1,0.3c-0.7,0.2-1.3,0.4-1.9,0.6c-0.6,0.2-1.3,0.4-1.9,0.6c-0.3,0.1-0.6,0.2-0.9,0.3c-0.3,0.1-0.6,0.2-0.8,0.3
	c-0.3,0.1-0.5,0.2-0.8,0.3c-0.3,0.1-0.5,0.2-0.7,0.3c-0.5,0.2-0.9,0.4-1.3,0.5c-0.4,0.2-0.7,0.3-1,0.4c-0.3,0.1-0.5,0.2-0.6,0.3
	C455.9-330.7,455.8-330.7,455.8-330.7z"/>
<path class="st5" d="M455.4-336.2c0,0,0.1,0,0.2-0.1c0.1-0.1,0.4-0.1,0.6-0.2c0.6-0.2,1.4-0.5,2.3-0.8c0.5-0.1,1-0.3,1.6-0.5
	c0.3-0.1,0.6-0.2,0.9-0.2c0.3-0.1,0.6-0.2,0.9-0.2c0.6-0.2,1.2-0.3,1.9-0.5c0.6-0.2,1.3-0.3,2-0.5c0.7-0.1,1.3-0.3,2-0.4
	c0.3-0.1,0.6-0.1,1-0.2c0.3-0.1,0.6-0.1,1-0.2c0.3,0,0.6-0.1,0.9-0.1c0.3,0,0.6-0.1,0.9-0.1c0.6-0.1,1.1-0.1,1.6-0.2
	c0.5,0,1-0.1,1.4-0.1c0.2,0,0.4,0,0.6,0c0.2,0,0.3,0,0.5,0c0.6,0,0.9,0,0.9,0s-0.3,0-0.9,0.1c-0.1,0-0.3,0-0.5,0
	c-0.2,0-0.4,0-0.6,0.1c-0.4,0-0.9,0.1-1.4,0.2c-0.5,0.1-1,0.1-1.6,0.2c-0.3,0-0.6,0.1-0.9,0.1c-0.3,0-0.6,0.1-0.9,0.2
	c-0.6,0.1-1.3,0.2-1.9,0.4c-0.7,0.1-1.3,0.3-2,0.4c-0.7,0.1-1.3,0.3-2,0.4c-0.6,0.2-1.3,0.3-1.9,0.5c-0.3,0.1-0.6,0.2-0.9,0.2
	c-0.3,0.1-0.6,0.2-0.9,0.2c-0.6,0.1-1.1,0.3-1.6,0.4c-1,0.3-1.8,0.5-2.4,0.7C455.8-336.3,455.4-336.2,455.4-336.2z"/>
<path class="st5" d="M508.1-330.7c0,0-0.1-0.1-0.2-0.1c-0.1-0.1-0.3-0.2-0.6-0.4c-0.3-0.2-0.6-0.3-0.9-0.5c-0.4-0.2-0.8-0.4-1.2-0.6
	c-0.2-0.1-0.5-0.2-0.7-0.3c-0.1-0.1-0.3-0.1-0.4-0.2c-0.1-0.1-0.3-0.1-0.4-0.2c-0.3-0.1-0.5-0.2-0.8-0.3c-0.3-0.1-0.6-0.2-0.9-0.3
	c-0.6-0.2-1.2-0.4-1.9-0.6l-0.2-0.1l-0.2-0.1c-0.2,0-0.3-0.1-0.5-0.1c-0.3-0.1-0.7-0.2-1-0.3c-0.7-0.1-1.3-0.3-2-0.4
	c-0.7-0.1-1.3-0.2-1.9-0.3c-0.6-0.1-1.2-0.2-1.8-0.2c-0.3,0-0.6-0.1-0.8-0.1c-0.3,0-0.5,0-0.8-0.1c-0.5,0-1-0.1-1.4-0.1
	c-0.4,0-0.8,0-1.1,0c-0.6,0-0.9,0-0.9,0s0.3,0,0.9,0c0.3,0,0.7,0,1.1,0c0.4,0,0.9,0,1.4,0c0.3,0,0.5,0,0.8,0c0.3,0,0.6,0,0.9,0.1
	c0.6,0.1,1.2,0.1,1.8,0.2c0.6,0.1,1.3,0.2,1.9,0.3c0.7,0.1,1.3,0.3,2,0.4c0.3,0.1,0.7,0.2,1,0.3c0.2,0,0.3,0.1,0.5,0.1l0.2,0.1
	l0.2,0.1c0.6,0.2,1.3,0.4,1.9,0.6c0.3,0.1,0.6,0.2,0.9,0.3c0.3,0.1,0.6,0.2,0.8,0.4c0.1,0.1,0.3,0.1,0.4,0.2
	c0.1,0.1,0.3,0.1,0.4,0.2c0.2,0.1,0.5,0.2,0.7,0.4c0.5,0.2,0.9,0.5,1.2,0.7c0.4,0.2,0.7,0.4,0.9,0.6c0.2,0.2,0.4,0.3,0.6,0.4
	C508-330.8,508.1-330.7,508.1-330.7z"/>
<path class="st6" d="M508.1-336.2"/>
<path class="st5" d="M508.1-336.2c0,0-0.1,0-0.2-0.1c-0.1-0.1-0.4-0.1-0.6-0.2c-0.3-0.1-0.6-0.2-1-0.3c-0.4-0.1-0.8-0.3-1.3-0.4
	c-0.5-0.2-1-0.3-1.6-0.5c-0.6-0.2-1.1-0.3-1.8-0.5c-0.6-0.2-1.2-0.3-1.9-0.5c-0.6-0.1-1.3-0.3-2-0.4c-0.3-0.1-0.7-0.1-1-0.2
	c-0.3-0.1-0.7-0.1-1-0.2c-0.3-0.1-0.6-0.1-1-0.2c-0.3,0-0.6-0.1-0.9-0.1c-0.3,0-0.6-0.1-0.9-0.1c-0.3,0-0.6-0.1-0.9-0.1
	c-0.6-0.1-1.1-0.1-1.6-0.2c-0.5,0-1-0.1-1.4-0.1c-0.4,0-0.8,0-1.1,0c-0.6,0-0.9,0-0.9,0s0.3,0,0.9,0c0.3,0,0.7,0,1.1,0
	c0.4,0,0.9,0,1.4,0.1c0.3,0,0.5,0,0.8,0c0.3,0,0.6,0,0.8,0.1c0.3,0,0.6,0.1,0.9,0.1c0.3,0,0.6,0.1,0.9,0.1c0.3,0,0.6,0.1,1,0.1
	c0.3,0.1,0.6,0.1,1,0.2c0.3,0.1,0.7,0.1,1,0.2c0.3,0.1,0.7,0.1,1,0.2c0.7,0.1,1.3,0.3,2,0.5c0.3,0.1,0.6,0.2,1,0.3
	c0.3,0.1,0.6,0.2,0.9,0.3c0.6,0.2,1.2,0.3,1.7,0.5c0.3,0.1,0.5,0.2,0.8,0.3c0.3,0.1,0.5,0.2,0.7,0.3c0.5,0.2,0.9,0.3,1.3,0.5
	c0.4,0.2,0.7,0.3,1,0.4c0.3,0.1,0.5,0.2,0.6,0.3C508-336.3,508.1-336.2,508.1-336.2z"/>
<path class="st6" d="M478-340.5"/>
<g>
	<path class="st7" d="M478.6-340.5l6.6,0.1c0,0,1.2,0.1-0.9,2.4c-2.1,2.2-2.4,2.4-2.4,2.4l-2.5-2.5
		C479.4-338.1,476.9-340.3,478.6-340.5z"/>
	<path class="st5" d="M481.9-335.5l-2.6-2.5c-0.1-0.1-1.6-1.4-1.4-2.2c0.1-0.2,0.3-0.4,0.6-0.4l6.6,0.1c0,0,0.3,0,0.4,0.3
		c0.1,0.4-0.3,1.2-1.2,2.2C482.2-335.7,481.9-335.6,481.9-335.5L481.9-335.5z M478.6-340.5c-0.3,0-0.5,0.1-0.5,0.3
		c-0.1,0.5,0.9,1.6,1.3,2l2.5,2.4c0.1-0.1,0.6-0.6,2.3-2.4c1.2-1.3,1.3-1.8,1.2-2c-0.1-0.2-0.3-0.2-0.3-0.2L478.6-340.5z"/>
</g>
<text transform="matrix(0.6973 0 0 1 527.059 -349.6274)" class="st14"><tspan x="0" y="0" class="st15 st16">Calcula el perimetro de la </tspan><tspan x="0" y="30.4" class="st15 st16">siguiente figura:</tspan></text>
<text transform="matrix(1 0 0 1 693.2262 -105.3098)" class="st15" style="font-size:23.0305px;">¡Éxitos!</text>
<path class="st0" d="M-57-1336c0,8.6-5.9,15.5-13.3,15.5h-321.1c-7.3,0-13.3-6.9-13.3-15.5v-270c0-8.6,5.9-15.5,13.3-15.5h321.1
	c7.3,0,13.3,6.9,13.3,15.5L-57-1336L-57-1336z"/>
<linearGradient id="SVGID_2_" gradientUnits="userSpaceOnUse" x1="-229.9087" y1="-1397.9716" x2="-230.4754" y2="-1468.5504" gradientTransform="matrix(1 0 0 -1 0 -3006.9612)">
	<stop  offset="4.600000e-02" style="stop-color:#00CD00"/>
	<stop  offset="1" style="stop-color:#FFFFFF"/>
</linearGradient>
<path class="st8" d="M-67.3-1347c0,8.6-5.9,15.5-13.3,15.5h-300.8c-7.3,0-13.3-7-13.3-15.5v-247.7c0-8.6,5.9-15.5,13.3-15.5h300.8
	c7.3,0,13.3,7,13.3,15.5V-1347z"/>
<g>
	<ellipse class="st2" cx="-372" cy="-1592.6" rx="5.2" ry="10.9"/>
	<path class="st3" d="M-372-1581.6c-2.9,0-5.3-4.9-5.3-11c0-6,2.4-11,5.3-11s5.3,4.9,5.3,11C-366.8-1586.5-369.1-1581.6-372-1581.6z
		 M-372-1603.3c-2.8,0-5.1,4.8-5.1,10.8c0,5.9,2.3,10.8,5.1,10.8c2.8,0,5.1-4.8,5.1-10.8C-367-1598.5-369.2-1603.3-372-1603.3z"/>
</g>
<g>
	<ellipse cx="-372" cy="-1592.6" rx="2.6" ry="2.8"/>
	<path class="st3" d="M-372-1589.7c-1.5,0-2.7-1.3-2.7-2.9c0-1.6,1.2-2.9,2.7-2.9c1.5,0,2.7,1.3,2.7,2.9
		C-369.4-1591-370.5-1589.7-372-1589.7z M-372-1595.2c-1.4,0-2.5,1.2-2.5,2.7c0,1.5,1.1,2.7,2.5,2.7c1.4,0,2.5-1.2,2.5-2.7
		C-369.6-1594-370.7-1595.2-372-1595.2z"/>
</g>
<g>
	<ellipse class="st4" cx="-356" cy="-1592.6" rx="5.2" ry="10.9"/>
	<path class="st3" d="M-356-1581.6c-2.9,0-5.3-4.9-5.3-11s2.4-11,5.3-11c2.9,0,5.3,4.9,5.3,11S-353.1-1581.6-356-1581.6z
		 M-356-1603.4c-2.8,0-5.1,4.8-5.1,10.8c0,5.9,2.3,10.8,5.1,10.8c2.8,0,5.1-4.8,5.1-10.8C-350.9-1598.5-353.2-1603.4-356-1603.4z"/>
</g>
<g>
	<ellipse cx="-356.2" cy="-1592.6" rx="2.6" ry="2.8"/>
	<path class="st3" d="M-356.2-1589.8c-1.5,0-2.7-1.3-2.7-2.9c0-1.6,1.2-2.9,2.7-2.9c1.5,0,2.7,1.3,2.7,2.9
		C-353.5-1591.1-354.7-1589.8-356.2-1589.8z M-356.2-1595.3c-1.4,0-2.5,1.2-2.5,2.7c0,1.5,1.1,2.7,2.5,2.7c1.4,0,2.5-1.2,2.5-2.7
		C-353.7-1594.1-354.9-1595.3-356.2-1595.3z"/>
</g>
<path class="st5" d="M-390.2-1565.2c0,0,0.1,0,0.2-0.1c0.1-0.1,0.3-0.2,0.6-0.3c0.3-0.1,0.6-0.3,1-0.5c0.4-0.2,0.8-0.4,1.3-0.6
	c0.2-0.1,0.5-0.2,0.7-0.3c0.3-0.1,0.5-0.2,0.8-0.3c0.5-0.2,1.1-0.4,1.7-0.6c0.3-0.1,0.6-0.2,0.9-0.3c0.3-0.1,0.6-0.2,0.9-0.3
	c0.6-0.2,1.3-0.4,1.9-0.6c0.3-0.1,0.7-0.2,1-0.3c0.3-0.1,0.7-0.2,1-0.2c0.3-0.1,0.6-0.1,1-0.2c0.3-0.1,0.6-0.1,0.9-0.2
	c0.3-0.1,0.6-0.1,0.9-0.2c0.3,0,0.6-0.1,0.9-0.1c0.3,0,0.6-0.1,0.8-0.1c0.3,0,0.5-0.1,0.8-0.1c0.5,0,1-0.1,1.4-0.1
	c0.4,0,0.8,0,1.1,0c0.6,0,0.9,0,0.9,0s-0.3,0-0.9,0.1c-0.3,0-0.6,0.1-1.1,0.1c-0.4,0.1-0.9,0.1-1.4,0.2c-0.5,0.1-1,0.2-1.6,0.3
	c-0.3,0.1-0.6,0.1-0.9,0.2c-0.3,0.1-0.6,0.1-0.9,0.2c-0.3,0.1-0.6,0.1-0.9,0.2c-0.3,0.1-0.6,0.2-1,0.2c-0.3,0.1-0.6,0.2-1,0.2
	c-0.3,0.1-0.6,0.2-1,0.3c-0.7,0.2-1.3,0.4-1.9,0.6c-0.6,0.2-1.3,0.4-1.9,0.6c-0.3,0.1-0.6,0.2-0.9,0.3c-0.3,0.1-0.6,0.2-0.8,0.3
	c-0.3,0.1-0.5,0.2-0.8,0.3c-0.3,0.1-0.5,0.2-0.7,0.3c-0.5,0.2-0.9,0.4-1.3,0.5c-0.4,0.2-0.7,0.3-1,0.4c-0.3,0.1-0.5,0.2-0.6,0.3
	C-390.1-1565.2-390.2-1565.2-390.2-1565.2z"/>
<path class="st5" d="M-390.5-1570.7c0,0,0.1,0,0.2-0.1c0.1-0.1,0.4-0.1,0.6-0.2c0.6-0.2,1.4-0.5,2.3-0.8c0.5-0.2,1-0.3,1.6-0.5
	c0.3-0.1,0.6-0.2,0.9-0.2c0.3-0.1,0.6-0.2,0.9-0.2c0.6-0.2,1.2-0.3,1.9-0.5c0.6-0.2,1.3-0.3,2-0.5c0.7-0.1,1.3-0.3,2-0.4
	c0.3-0.1,0.6-0.1,1-0.2c0.3-0.1,0.6-0.1,1-0.2c0.3,0,0.6-0.1,0.9-0.1c0.3,0,0.6-0.1,0.9-0.1c0.6-0.1,1.1-0.1,1.6-0.2
	c0.5,0,1-0.1,1.4-0.1c0.2,0,0.4,0,0.6,0c0.2,0,0.3,0,0.5,0c0.6,0,0.9,0,0.9,0s-0.3,0-0.9,0.1c-0.1,0-0.3,0-0.5,0
	c-0.2,0-0.4,0-0.6,0.1c-0.4,0-0.9,0.1-1.4,0.2c-0.5,0.1-1,0.1-1.6,0.2c-0.3,0-0.6,0.1-0.9,0.1c-0.3,0.1-0.6,0.1-0.9,0.2
	c-0.6,0.1-1.3,0.2-1.9,0.4c-0.7,0.1-1.3,0.3-2,0.4c-0.7,0.1-1.3,0.3-2,0.4c-0.6,0.2-1.3,0.3-1.9,0.5c-0.3,0.1-0.6,0.2-0.9,0.2
	c-0.3,0.1-0.6,0.2-0.9,0.2c-0.6,0.1-1.1,0.3-1.6,0.4c-1,0.3-1.8,0.5-2.4,0.7C-390.2-1570.8-390.5-1570.7-390.5-1570.7z"/>
<path class="st5" d="M-337.9-1565.2c0,0-0.1-0.1-0.2-0.1c-0.1-0.1-0.3-0.2-0.6-0.4c-0.3-0.2-0.6-0.3-0.9-0.5
	c-0.4-0.2-0.8-0.4-1.2-0.6c-0.2-0.1-0.5-0.2-0.7-0.3c-0.1-0.1-0.3-0.1-0.4-0.2c-0.1-0.1-0.3-0.1-0.4-0.2c-0.3-0.1-0.5-0.2-0.8-0.3
	c-0.3-0.1-0.6-0.2-0.9-0.3c-0.6-0.2-1.2-0.4-1.9-0.6l-0.2-0.1l-0.2-0.1c-0.2,0-0.3-0.1-0.5-0.1c-0.3-0.1-0.7-0.2-1-0.3
	c-0.7-0.1-1.3-0.3-2-0.4c-0.7-0.1-1.3-0.2-1.9-0.3c-0.6-0.1-1.2-0.2-1.8-0.2c-0.3,0-0.6-0.1-0.8-0.1c-0.3,0-0.5,0-0.8-0.1
	c-0.5,0-1-0.1-1.4-0.1c-0.4,0-0.8,0-1.1,0c-0.6,0-0.9,0-0.9,0s0.3,0,0.9,0c0.3,0,0.7,0,1.1,0c0.4,0,0.9,0,1.4,0c0.3,0,0.5,0,0.8,0
	c0.3,0,0.6,0,0.9,0.1c0.6,0.1,1.2,0.1,1.8,0.2c0.6,0.1,1.3,0.2,1.9,0.3c0.7,0.1,1.3,0.3,2,0.4c0.3,0.1,0.7,0.2,1,0.3
	c0.2,0,0.3,0.1,0.5,0.1l0.2,0.1l0.2,0.1c0.6,0.2,1.3,0.4,1.9,0.6c0.3,0.1,0.6,0.2,0.9,0.3c0.3,0.1,0.6,0.2,0.8,0.4
	c0.1,0.1,0.3,0.1,0.4,0.2c0.1,0.1,0.3,0.1,0.4,0.2c0.2,0.1,0.5,0.2,0.7,0.4c0.5,0.2,0.9,0.5,1.2,0.7c0.4,0.2,0.7,0.4,0.9,0.6
	c0.2,0.2,0.4,0.3,0.6,0.4C-338-1565.2-337.9-1565.2-337.9-1565.2z"/>
<path class="st6" d="M-337.9-1570.7"/>
<path class="st5" d="M-337.9-1570.7c0,0-0.1,0-0.2-0.1c-0.1-0.1-0.4-0.1-0.6-0.2c-0.3-0.1-0.6-0.2-1-0.3c-0.4-0.1-0.8-0.3-1.3-0.4
	c-0.5-0.2-1-0.3-1.6-0.5c-0.6-0.2-1.1-0.3-1.8-0.5c-0.6-0.2-1.2-0.3-1.9-0.5c-0.6-0.1-1.3-0.3-2-0.4c-0.3-0.1-0.7-0.1-1-0.2
	c-0.3-0.1-0.7-0.1-1-0.2c-0.3-0.1-0.6-0.1-1-0.2c-0.3-0.1-0.6-0.1-0.9-0.1c-0.3,0-0.6-0.1-0.9-0.1c-0.3,0-0.6-0.1-0.9-0.1
	c-0.6-0.1-1.1-0.1-1.6-0.2c-0.5,0-1-0.1-1.4-0.1c-0.4,0-0.8,0-1.1,0c-0.6,0-0.9,0-0.9,0s0.3,0,0.9,0c0.3,0,0.7,0,1.1,0
	c0.4,0,0.9,0,1.4,0.1c0.3,0,0.5,0,0.8,0c0.3,0,0.6,0,0.8,0.1c0.3,0,0.6,0.1,0.9,0.1c0.3,0,0.6,0.1,0.9,0.1c0.3,0,0.6,0.1,1,0.1
	c0.3,0.1,0.6,0.1,1,0.2c0.3,0.1,0.7,0.1,1,0.2c0.3,0.1,0.7,0.1,1,0.2c0.7,0.1,1.3,0.3,2,0.5c0.3,0.1,0.6,0.2,1,0.3
	c0.3,0.1,0.6,0.2,0.9,0.3c0.6,0.2,1.2,0.3,1.7,0.5c0.3,0.1,0.5,0.2,0.8,0.3c0.3,0.1,0.5,0.2,0.7,0.3c0.5,0.2,0.9,0.3,1.3,0.5
	c0.4,0.2,0.7,0.3,1,0.4c0.3,0.1,0.5,0.2,0.6,0.3C-338-1570.7-337.9-1570.7-337.9-1570.7z"/>
<path class="st6" d="M-367.9-1575"/>
<g>
	<path class="st7" d="M-367.4-1575l6.6,0.1c0,0,1.2,0.2-0.9,2.4c-2.1,2.2-2.4,2.4-2.4,2.4l-2.5-2.5
		C-366.6-1572.5-369-1574.7-367.4-1575z"/>
	<path class="st5" d="M-364.1-1570l-2.6-2.5c-0.1-0.1-1.6-1.4-1.4-2.2c0.1-0.2,0.3-0.4,0.6-0.4l6.6,0.1c0,0,0.3,0,0.4,0.3
		c0.1,0.4-0.3,1.2-1.2,2.2C-363.7-1570.2-364-1570-364.1-1570L-364.1-1570z M-367.4-1574.9c-0.3,0-0.5,0.1-0.5,0.3
		c-0.1,0.5,0.9,1.6,1.3,2l2.5,2.4c0.1-0.1,0.6-0.6,2.3-2.3c1.2-1.3,1.3-1.8,1.2-2c-0.1-0.2-0.3-0.2-0.3-0.2L-367.4-1574.9z"/>
</g>
<text transform="matrix(0.6973 0 0 1 -318.8998 -1584.0651)" class="st14"><tspan x="0" y="0" class="st15 st16">Calcula el perimetro de la </tspan><tspan x="0" y="30.4" class="st15 st16">siguiente figura:</tspan></text>
<text transform="matrix(1 0 0 1 -152.7307 -1339.7477)" class="st15" style="font-size:23.0305px;">¡Éxitos!</text>
<rect x="-296.1" y="-1515.5" class="st9" width="128.4" height="128.4"/>
<text transform="matrix(1 0 0 1 -244 -1367.1476)" class="st25" style="font-size:12px;">3 cm</text>
<line class="st9" x1="-246.7" y1="-1371.1" x2="-296.1" y2="-1371.1"/>
<line class="st9" x1="-167.6" y1="-1371.1" x2="-214.1" y2="-1371.1"/>
<text transform="matrix(1 0 0 1 -244 -1523.8142)" class="st25" style="font-size:12px;">3 cm</text>
<line class="st9" x1="-246.7" y1="-1527.8" x2="-296.1" y2="-1527.8"/>
<line class="st9" x1="-167.6" y1="-1527.8" x2="-214.1" y2="-1527.8"/>
<line class="st9" x1="-152.7" y1="-1515.5" x2="-152.7" y2="-1463.8"/>
<line class="st9" x1="-152.7" y1="-1445.8" x2="-152.7" y2="-1387"/>
<text transform="matrix(1 0 0 1 -160.3329 -1451.2643)" class="st25" style="font-size:12px;">3 cm</text>
<line class="st9" x1="-315.1" y1="-1514.1" x2="-315.1" y2="-1462.5"/>
<line class="st9" x1="-315.1" y1="-1444.5" x2="-315.1" y2="-1385.7"/>
<text transform="matrix(1 0 0 1 -322.7012 -1449.931)" class="st25" style="font-size:12px;">3 cm</text>
<path class="st0" d="M357-1336c0,8.6-5.9,15.5-13.3,15.5H22.6c-7.3,0-13.3-6.9-13.3-15.5v-270c0-8.6,5.9-15.5,13.3-15.5h321.1
	c7.3,0,13.3,6.9,13.3,15.5L357-1336L357-1336z"/>
<linearGradient id="SVGID_3_" gradientUnits="userSpaceOnUse" x1="184.0913" y1="-1397.9716" x2="183.5246" y2="-1468.5504" gradientTransform="matrix(1 0 0 -1 0 -3006.9612)">
	<stop  offset="4.600000e-02" style="stop-color:#00CD00"/>
	<stop  offset="1" style="stop-color:#FFFFFF"/>
</linearGradient>
<path class="st10" d="M346.7-1347c0,8.6-5.9,15.5-13.3,15.5H32.6c-7.3,0-13.3-7-13.3-15.5v-247.7c0-8.6,5.9-15.5,13.3-15.5h300.8
	c7.3,0,13.3,7,13.3,15.5V-1347z"/>
<g>
	<ellipse class="st2" cx="42" cy="-1592.6" rx="5.2" ry="10.9"/>
	<path class="st3" d="M42-1581.6c-2.9,0-5.3-4.9-5.3-11c0-6,2.4-11,5.3-11s5.3,4.9,5.3,11C47.2-1586.5,44.9-1581.6,42-1581.6z
		 M42-1603.3c-2.8,0-5.1,4.8-5.1,10.8c0,5.9,2.3,10.8,5.1,10.8c2.8,0,5.1-4.8,5.1-10.8C47-1598.5,44.8-1603.3,42-1603.3z"/>
</g>
<g>
	<ellipse cx="42" cy="-1592.6" rx="2.6" ry="2.8"/>
	<path class="st3" d="M42-1589.7c-1.5,0-2.7-1.3-2.7-2.9c0-1.6,1.2-2.9,2.7-2.9c1.5,0,2.7,1.3,2.7,2.9
		C44.6-1591,43.5-1589.7,42-1589.7z M42-1595.2c-1.4,0-2.5,1.2-2.5,2.7c0,1.5,1.1,2.7,2.5,2.7c1.4,0,2.5-1.2,2.5-2.7
		C44.4-1594,43.3-1595.2,42-1595.2z"/>
</g>
<g>
	<ellipse class="st4" cx="58" cy="-1592.6" rx="5.2" ry="10.9"/>
	<path class="st3" d="M58-1581.6c-2.9,0-5.3-4.9-5.3-11s2.4-11,5.3-11c2.9,0,5.3,4.9,5.3,11S60.9-1581.6,58-1581.6z M58-1603.4
		c-2.8,0-5.1,4.8-5.1,10.8c0,5.9,2.3,10.8,5.1,10.8c2.8,0,5.1-4.8,5.1-10.8C63.1-1598.5,60.8-1603.4,58-1603.4z"/>
</g>
<g>
	<ellipse cx="57.8" cy="-1592.6" rx="2.6" ry="2.8"/>
	<path class="st3" d="M57.8-1589.8c-1.5,0-2.7-1.3-2.7-2.9c0-1.6,1.2-2.9,2.7-2.9c1.5,0,2.7,1.3,2.7,2.9
		C60.5-1591.1,59.3-1589.8,57.8-1589.8z M57.8-1595.3c-1.4,0-2.5,1.2-2.5,2.7c0,1.5,1.1,2.7,2.5,2.7c1.4,0,2.5-1.2,2.5-2.7
		C60.3-1594.1,59.1-1595.3,57.8-1595.3z"/>
</g>
<path class="st5" d="M23.8-1565.2c0,0,0.1,0,0.2-0.1c0.1-0.1,0.3-0.2,0.6-0.3c0.3-0.1,0.6-0.3,1-0.5c0.4-0.2,0.8-0.4,1.3-0.6
	c0.2-0.1,0.5-0.2,0.7-0.3c0.3-0.1,0.5-0.2,0.8-0.3c0.5-0.2,1.1-0.4,1.7-0.6c0.3-0.1,0.6-0.2,0.9-0.3c0.3-0.1,0.6-0.2,0.9-0.3
	c0.6-0.2,1.3-0.4,1.9-0.6c0.3-0.1,0.7-0.2,1-0.3c0.3-0.1,0.7-0.2,1-0.2c0.3-0.1,0.6-0.1,1-0.2c0.3-0.1,0.6-0.1,0.9-0.2
	c0.3-0.1,0.6-0.1,0.9-0.2c0.3,0,0.6-0.1,0.9-0.1c0.3,0,0.6-0.1,0.8-0.1c0.3,0,0.5-0.1,0.8-0.1c0.5,0,1-0.1,1.4-0.1
	c0.4,0,0.8,0,1.1,0c0.6,0,0.9,0,0.9,0s-0.3,0-0.9,0.1c-0.3,0-0.6,0.1-1.1,0.1c-0.4,0.1-0.9,0.1-1.4,0.2c-0.5,0.1-1,0.2-1.6,0.3
	c-0.3,0.1-0.6,0.1-0.9,0.2c-0.3,0.1-0.6,0.1-0.9,0.2c-0.3,0.1-0.6,0.1-0.9,0.2c-0.3,0.1-0.6,0.2-1,0.2c-0.3,0.1-0.6,0.2-1,0.2
	c-0.3,0.1-0.6,0.2-1,0.3c-0.7,0.2-1.3,0.4-1.9,0.6c-0.6,0.2-1.3,0.4-1.9,0.6c-0.3,0.1-0.6,0.2-0.9,0.3c-0.3,0.1-0.6,0.2-0.8,0.3
	c-0.3,0.1-0.5,0.2-0.8,0.3c-0.3,0.1-0.5,0.2-0.7,0.3c-0.5,0.2-0.9,0.4-1.3,0.5c-0.4,0.2-0.7,0.3-1,0.4c-0.3,0.1-0.5,0.2-0.6,0.3
	C23.9-1565.2,23.8-1565.2,23.8-1565.2z"/>
<path class="st5" d="M23.5-1570.7c0,0,0.1,0,0.2-0.1c0.1-0.1,0.4-0.1,0.6-0.2c0.6-0.2,1.4-0.5,2.3-0.8c0.5-0.2,1-0.3,1.6-0.5
	c0.3-0.1,0.6-0.2,0.9-0.2c0.3-0.1,0.6-0.2,0.9-0.2c0.6-0.2,1.2-0.3,1.9-0.5c0.6-0.2,1.3-0.3,2-0.5c0.7-0.1,1.3-0.3,2-0.4
	c0.3-0.1,0.7-0.1,1-0.2c0.3-0.1,0.6-0.1,1-0.2c0.3,0,0.6-0.1,0.9-0.1c0.3,0,0.6-0.1,0.9-0.1c0.6-0.1,1.1-0.1,1.6-0.2
	c0.5,0,1-0.1,1.4-0.1c0.2,0,0.4,0,0.6,0c0.2,0,0.3,0,0.5,0c0.6,0,0.9,0,0.9,0s-0.3,0-0.9,0.1c-0.1,0-0.3,0-0.5,0
	c-0.2,0-0.4,0-0.6,0.1c-0.4,0-0.9,0.1-1.4,0.2c-0.5,0.1-1,0.1-1.6,0.2c-0.3,0-0.6,0.1-0.9,0.1c-0.3,0.1-0.6,0.1-0.9,0.2
	c-0.6,0.1-1.3,0.2-1.9,0.4c-0.7,0.1-1.3,0.3-2,0.4c-0.7,0.1-1.3,0.3-2,0.4c-0.6,0.2-1.3,0.3-1.9,0.5c-0.3,0.1-0.6,0.2-0.9,0.2
	c-0.3,0.1-0.6,0.2-0.9,0.2c-0.6,0.1-1.1,0.3-1.6,0.4c-1,0.3-1.8,0.5-2.4,0.7C23.8-1570.8,23.5-1570.7,23.5-1570.7z"/>
<path class="st5" d="M76.1-1565.2c0,0-0.1-0.1-0.2-0.1c-0.1-0.1-0.3-0.2-0.6-0.4c-0.3-0.2-0.6-0.3-0.9-0.5c-0.4-0.2-0.8-0.4-1.2-0.6
	c-0.2-0.1-0.5-0.2-0.7-0.3c-0.1-0.1-0.3-0.1-0.4-0.2c-0.1-0.1-0.3-0.1-0.4-0.2c-0.3-0.1-0.5-0.2-0.8-0.3c-0.3-0.1-0.6-0.2-0.9-0.3
	c-0.6-0.2-1.2-0.4-1.9-0.6l-0.2-0.1l-0.2-0.1c-0.2,0-0.3-0.1-0.5-0.1c-0.3-0.1-0.7-0.2-1-0.3c-0.7-0.1-1.3-0.3-2-0.4
	c-0.7-0.1-1.3-0.2-1.9-0.3c-0.6-0.1-1.2-0.2-1.8-0.2c-0.3,0-0.6-0.1-0.8-0.1c-0.3,0-0.5,0-0.8-0.1c-0.5,0-1-0.1-1.4-0.1
	c-0.4,0-0.8,0-1.1,0c-0.6,0-0.9,0-0.9,0s0.3,0,0.9,0c0.3,0,0.7,0,1.1,0c0.4,0,0.9,0,1.4,0c0.3,0,0.5,0,0.8,0c0.3,0,0.6,0,0.9,0.1
	c0.6,0.1,1.2,0.1,1.8,0.2c0.6,0.1,1.3,0.2,1.9,0.3c0.7,0.1,1.3,0.3,2,0.4c0.3,0.1,0.7,0.2,1,0.3c0.2,0,0.3,0.1,0.5,0.1l0.2,0.1
	l0.2,0.1c0.6,0.2,1.3,0.4,1.9,0.6c0.3,0.1,0.6,0.2,0.9,0.3c0.3,0.1,0.6,0.2,0.8,0.4c0.1,0.1,0.3,0.1,0.4,0.2s0.3,0.1,0.4,0.2
	c0.2,0.1,0.5,0.2,0.7,0.4c0.5,0.2,0.9,0.5,1.2,0.7c0.4,0.2,0.7,0.4,0.9,0.6c0.2,0.2,0.4,0.3,0.6,0.4
	C76-1565.2,76.1-1565.2,76.1-1565.2z"/>
<path class="st6" d="M76.1-1570.7"/>
<path class="st5" d="M76.1-1570.7c0,0-0.1,0-0.2-0.1c-0.1-0.1-0.4-0.1-0.6-0.2c-0.3-0.1-0.6-0.2-1-0.3c-0.4-0.1-0.8-0.3-1.3-0.4
	c-0.5-0.2-1-0.3-1.6-0.5c-0.6-0.2-1.1-0.3-1.8-0.5c-0.6-0.2-1.2-0.3-1.9-0.5c-0.6-0.1-1.3-0.3-2-0.4c-0.3-0.1-0.7-0.1-1-0.2
	c-0.3-0.1-0.7-0.1-1-0.2c-0.3-0.1-0.6-0.1-1-0.2c-0.3-0.1-0.6-0.1-0.9-0.1c-0.3,0-0.6-0.1-0.9-0.1c-0.3,0-0.6-0.1-0.9-0.1
	c-0.6-0.1-1.1-0.1-1.6-0.2c-0.5,0-1-0.1-1.4-0.1c-0.4,0-0.8,0-1.1,0c-0.6,0-0.9,0-0.9,0s0.3,0,0.9,0c0.3,0,0.7,0,1.1,0
	c0.4,0,0.9,0,1.4,0.1c0.3,0,0.5,0,0.8,0c0.3,0,0.6,0,0.8,0.1c0.3,0,0.6,0.1,0.9,0.1c0.3,0,0.6,0.1,0.9,0.1c0.3,0,0.6,0.1,1,0.1
	c0.3,0.1,0.6,0.1,1,0.2c0.3,0.1,0.7,0.1,1,0.2c0.3,0.1,0.7,0.1,1,0.2c0.7,0.1,1.3,0.3,2,0.5c0.3,0.1,0.6,0.2,1,0.3
	c0.3,0.1,0.6,0.2,0.9,0.3c0.6,0.2,1.2,0.3,1.7,0.5c0.3,0.1,0.5,0.2,0.8,0.3c0.3,0.1,0.5,0.2,0.7,0.3c0.5,0.2,0.9,0.3,1.3,0.5
	c0.4,0.2,0.7,0.3,1,0.4c0.3,0.1,0.5,0.2,0.6,0.3C76-1570.7,76.1-1570.7,76.1-1570.7z"/>
<path class="st6" d="M46.1-1575"/>
<g>
	<path class="st7" d="M46.6-1575l6.6,0.1c0,0,1.2,0.2-0.9,2.4c-2.1,2.2-2.4,2.4-2.4,2.4l-2.5-2.5C47.4-1572.5,45-1574.7,46.6-1575z"
		/>
	<path class="st5" d="M49.9-1570l-2.6-2.5c-0.1-0.1-1.6-1.4-1.4-2.2c0.1-0.2,0.3-0.4,0.6-0.4l6.6,0.1c0,0,0.3,0,0.4,0.3
		c0.1,0.4-0.3,1.2-1.2,2.2C50.3-1570.2,50-1570,49.9-1570L49.9-1570z M46.6-1574.9c-0.3,0-0.5,0.1-0.5,0.3c-0.2,0.5,0.9,1.6,1.3,2
		l2.5,2.4c0.1-0.1,0.6-0.6,2.3-2.3c1.2-1.3,1.3-1.8,1.2-2c-0.1-0.2-0.3-0.2-0.3-0.2L46.6-1574.9z"/>
</g>
<text transform="matrix(0.6973 0 0 1 95.1007 -1584.0651)" class="st14"><tspan x="0" y="0" class="st15 st16">Calcula el perimetro de la </tspan><tspan x="0" y="30.4" class="st15 st16">siguiente figura:</tspan></text>
<text transform="matrix(1 0 0 1 261.2688 -1339.7477)" class="st15" style="font-size:23.0305px;">¡Éxitos!</text>
<rect x="52.4" y="-1515.5" class="st9" width="259.4" height="128.4"/>
<text transform="matrix(1 0 0 1 170.0005 -1367.1476)" class="st25" style="font-size:12px;">8 cm</text>
<text transform="matrix(1 0 0 1 23.8315 -1445.814)" class="st25" style="font-size:12px;">4 cm</text>
<line class="st9" x1="167.3" y1="-1371.1" x2="53.6" y2="-1371.1"/>
<line class="st9" x1="309" y1="-1371.1" x2="199.9" y2="-1371.1"/>
<text transform="matrix(1 0 0 1 170.0005 -1523.8142)" class="st25" style="font-size:12px;">8 cm</text>
<line class="st9" x1="167.3" y1="-1527.8" x2="55.3" y2="-1527.8"/>
<line class="st9" x1="309" y1="-1527.8" x2="199.9" y2="-1527.8"/>
<line class="st9" x1="34" y1="-1515.5" x2="34" y2="-1460.1"/>
<line class="st9" x1="34" y1="-1438.1" x2="34" y2="-1387"/>
<text transform="matrix(1 0 0 1 317.8314 -1445.814)" class="st25" style="font-size:12px;">4 cm</text>
<line class="st9" x1="328" y1="-1515.5" x2="328" y2="-1460.1"/>
<line class="st9" x1="328" y1="-1438.1" x2="328" y2="-1387"/>
<path class="st0" d="M781.5-1336c0,8.6-5.9,15.5-13.3,15.5H447.1c-7.3,0-13.3-6.9-13.3-15.5v-270c0-8.6,5.9-15.5,13.3-15.5h321.1
	c7.3,0,13.3,6.9,13.3,15.5V-1336L781.5-1336z"/>
<linearGradient id="SVGID_4_" gradientUnits="userSpaceOnUse" x1="608.5701" y1="-1397.9716" x2="608.0034" y2="-1468.5504" gradientTransform="matrix(1 0 0 -1 0 -3006.9612)">
	<stop  offset="4.600000e-02" style="stop-color:#00CD00"/>
	<stop  offset="1" style="stop-color:#FFFFFF"/>
</linearGradient>
<path class="st11" d="M771.2-1347c0,8.6-5.9,15.5-13.3,15.5H457c-7.3,0-13.3-7-13.3-15.5v-247.7c0-8.6,5.9-15.5,13.3-15.5h300.8
	c7.3,0,13.3,7,13.3,15.5V-1347z"/>
<g>
	<ellipse class="st2" cx="466.4" cy="-1592.6" rx="5.2" ry="10.9"/>
	<path class="st3" d="M466.4-1581.6c-2.9,0-5.3-4.9-5.3-11c0-6,2.4-11,5.3-11s5.3,4.9,5.3,11
		C471.7-1586.5,469.3-1581.6,466.4-1581.6z M466.4-1603.3c-2.8,0-5.1,4.8-5.1,10.8c0,5.9,2.3,10.8,5.1,10.8c2.8,0,5.1-4.8,5.1-10.8
		C471.5-1598.5,469.2-1603.3,466.4-1603.3z"/>
</g>
<g>
	<ellipse cx="466.5" cy="-1592.6" rx="2.6" ry="2.8"/>
	<path class="st3" d="M466.5-1589.7c-1.5,0-2.7-1.3-2.7-2.9c0-1.6,1.2-2.9,2.7-2.9c1.5,0,2.7,1.3,2.7,2.9
		C469.1-1591,467.9-1589.7,466.5-1589.7z M466.5-1595.2c-1.4,0-2.5,1.2-2.5,2.7c0,1.5,1.1,2.7,2.5,2.7c1.4,0,2.5-1.2,2.5-2.7
		C468.9-1594,467.8-1595.2,466.5-1595.2z"/>
</g>
<g>
	<ellipse class="st4" cx="482.5" cy="-1592.6" rx="5.2" ry="10.9"/>
	<path class="st3" d="M482.5-1581.6c-2.9,0-5.3-4.9-5.3-11s2.4-11,5.3-11c2.9,0,5.3,4.9,5.3,11S485.4-1581.6,482.5-1581.6z
		 M482.5-1603.4c-2.8,0-5.1,4.8-5.1,10.8c0,5.9,2.3,10.8,5.1,10.8c2.8,0,5.1-4.8,5.1-10.8C487.6-1598.5,485.3-1603.4,482.5-1603.4z"
		/>
</g>
<g>
	<ellipse cx="482.3" cy="-1592.6" rx="2.6" ry="2.8"/>
	<path class="st3" d="M482.3-1589.8c-1.5,0-2.7-1.3-2.7-2.9c0-1.6,1.2-2.9,2.7-2.9c1.5,0,2.7,1.3,2.7,2.9
		C484.9-1591.1,483.7-1589.8,482.3-1589.8z M482.3-1595.3c-1.4,0-2.5,1.2-2.5,2.7c0,1.5,1.1,2.7,2.5,2.7c1.4,0,2.5-1.2,2.5-2.7
		C484.7-1594.1,483.6-1595.3,482.3-1595.3z"/>
</g>
<path class="st5" d="M448.3-1565.2c0,0,0.1,0,0.2-0.1c0.1-0.1,0.3-0.2,0.6-0.3c0.3-0.1,0.6-0.3,1-0.5c0.4-0.2,0.8-0.4,1.3-0.6
	c0.2-0.1,0.5-0.2,0.7-0.3c0.3-0.1,0.5-0.2,0.8-0.3c0.5-0.2,1.1-0.4,1.7-0.6c0.3-0.1,0.6-0.2,0.9-0.3c0.3-0.1,0.6-0.2,0.9-0.3
	c0.6-0.2,1.3-0.4,1.9-0.6c0.3-0.1,0.7-0.2,1-0.3c0.3-0.1,0.7-0.2,1-0.2c0.3-0.1,0.6-0.1,1-0.2c0.3-0.1,0.6-0.1,0.9-0.2
	c0.3-0.1,0.6-0.1,0.9-0.2c0.3,0,0.6-0.1,0.9-0.1c0.3,0,0.6-0.1,0.8-0.1c0.3,0,0.5-0.1,0.8-0.1c0.5,0,1-0.1,1.4-0.1
	c0.4,0,0.8,0,1.1,0c0.6,0,0.9,0,0.9,0s-0.3,0-0.9,0.1c-0.3,0-0.6,0.1-1.1,0.1c-0.4,0.1-0.9,0.1-1.4,0.2c-0.5,0.1-1,0.2-1.6,0.3
	c-0.3,0.1-0.6,0.1-0.9,0.2c-0.3,0.1-0.6,0.1-0.9,0.2c-0.3,0.1-0.6,0.1-0.9,0.2c-0.3,0.1-0.6,0.2-1,0.2c-0.3,0.1-0.6,0.2-1,0.2
	c-0.3,0.1-0.6,0.2-1,0.3c-0.7,0.2-1.3,0.4-1.9,0.6c-0.6,0.2-1.3,0.4-1.9,0.6c-0.3,0.1-0.6,0.2-0.9,0.3c-0.3,0.1-0.6,0.2-0.8,0.3
	c-0.3,0.1-0.5,0.2-0.8,0.3c-0.3,0.1-0.5,0.2-0.7,0.3c-0.5,0.2-0.9,0.4-1.3,0.5c-0.4,0.2-0.7,0.3-1,0.4c-0.3,0.1-0.5,0.2-0.6,0.3
	C448.4-1565.2,448.3-1565.2,448.3-1565.2z"/>
<path class="st5" d="M448-1570.7c0,0,0.1,0,0.2-0.1c0.1-0.1,0.4-0.1,0.6-0.2c0.6-0.2,1.4-0.5,2.3-0.8c0.5-0.2,1-0.3,1.6-0.5
	c0.3-0.1,0.6-0.2,0.9-0.2c0.3-0.1,0.6-0.2,0.9-0.2c0.6-0.2,1.2-0.3,1.9-0.5c0.6-0.2,1.3-0.3,2-0.5c0.7-0.1,1.3-0.3,2-0.4
	c0.3-0.1,0.7-0.1,1-0.2c0.3-0.1,0.6-0.1,0.9-0.2c0.3,0,0.6-0.1,0.9-0.1c0.3,0,0.6-0.1,0.9-0.1c0.6-0.1,1.1-0.1,1.6-0.2
	c0.5,0,1-0.1,1.4-0.1c0.2,0,0.4,0,0.6,0c0.2,0,0.3,0,0.5,0c0.6,0,0.9,0,0.9,0s-0.3,0-0.9,0.1c-0.1,0-0.3,0-0.5,0
	c-0.2,0-0.4,0-0.6,0.1c-0.4,0-0.9,0.1-1.4,0.2c-0.5,0.1-1,0.1-1.6,0.2c-0.3,0-0.6,0.1-0.9,0.1c-0.3,0.1-0.6,0.1-0.9,0.2
	c-0.6,0.1-1.3,0.2-1.9,0.4c-0.6,0.1-1.3,0.3-2,0.4c-0.7,0.1-1.3,0.3-2,0.4c-0.6,0.2-1.3,0.3-1.9,0.5c-0.3,0.1-0.6,0.2-0.9,0.2
	c-0.3,0.1-0.6,0.2-0.9,0.2c-0.6,0.1-1.1,0.3-1.6,0.4c-1,0.3-1.8,0.5-2.4,0.7C448.3-1570.8,448-1570.7,448-1570.7z"/>
<path class="st5" d="M500.6-1565.2c0,0-0.1-0.1-0.2-0.1c-0.1-0.1-0.3-0.2-0.6-0.4c-0.3-0.2-0.6-0.3-0.9-0.5
	c-0.4-0.2-0.8-0.4-1.2-0.6c-0.2-0.1-0.5-0.2-0.7-0.3c-0.1-0.1-0.3-0.1-0.4-0.2c-0.1-0.1-0.3-0.1-0.4-0.2c-0.3-0.1-0.5-0.2-0.8-0.3
	c-0.3-0.1-0.6-0.2-0.9-0.3c-0.6-0.2-1.2-0.4-1.9-0.6l-0.2-0.1l-0.2-0.1c-0.2,0-0.3-0.1-0.5-0.1c-0.3-0.1-0.7-0.2-1-0.3
	c-0.7-0.1-1.3-0.3-2-0.4c-0.7-0.1-1.3-0.2-1.9-0.3c-0.6-0.1-1.2-0.2-1.8-0.2c-0.3,0-0.6-0.1-0.8-0.1c-0.3,0-0.5,0-0.8-0.1
	c-0.5,0-1-0.1-1.4-0.1c-0.4,0-0.8,0-1.1,0c-0.6,0-0.9,0-0.9,0s0.3,0,0.9,0c0.3,0,0.7,0,1.1,0c0.4,0,0.9,0,1.4,0c0.3,0,0.5,0,0.8,0
	c0.3,0,0.6,0,0.9,0.1c0.6,0.1,1.2,0.1,1.8,0.2c0.6,0.1,1.3,0.2,1.9,0.3c0.7,0.1,1.3,0.3,2,0.4c0.3,0.1,0.7,0.2,1,0.3
	c0.2,0,0.3,0.1,0.5,0.1l0.2,0.1l0.2,0.1c0.6,0.2,1.3,0.4,1.9,0.6c0.3,0.1,0.6,0.2,0.9,0.3c0.3,0.1,0.6,0.2,0.8,0.4
	c0.1,0.1,0.3,0.1,0.4,0.2s0.3,0.1,0.4,0.2c0.2,0.1,0.5,0.2,0.7,0.4c0.5,0.2,0.9,0.5,1.2,0.7c0.4,0.2,0.7,0.4,0.9,0.6
	c0.2,0.2,0.4,0.3,0.6,0.4C500.5-1565.2,500.6-1565.2,500.6-1565.2z"/>
<path class="st6" d="M500.6-1570.7"/>
<path class="st5" d="M500.6-1570.7c0,0-0.1,0-0.2-0.1c-0.1-0.1-0.4-0.1-0.6-0.2c-0.3-0.1-0.6-0.2-1-0.3c-0.4-0.1-0.8-0.3-1.3-0.4
	c-0.5-0.2-1-0.3-1.6-0.5c-0.6-0.2-1.1-0.3-1.8-0.5c-0.6-0.2-1.2-0.3-1.9-0.5c-0.6-0.1-1.3-0.3-2-0.4c-0.3-0.1-0.7-0.1-1-0.2
	c-0.3-0.1-0.7-0.1-1-0.2c-0.3-0.1-0.6-0.1-1-0.2c-0.3-0.1-0.6-0.1-0.9-0.1c-0.3,0-0.6-0.1-0.9-0.1c-0.3,0-0.6-0.1-0.9-0.1
	c-0.6-0.1-1.1-0.1-1.6-0.2c-0.5,0-1-0.1-1.4-0.1c-0.4,0-0.8,0-1.1,0c-0.6,0-0.9,0-0.9,0s0.3,0,0.9,0c0.3,0,0.7,0,1.1,0
	c0.4,0,0.9,0,1.4,0.1c0.3,0,0.5,0,0.8,0c0.3,0,0.6,0,0.8,0.1c0.3,0,0.6,0.1,0.9,0.1c0.3,0,0.6,0.1,0.9,0.1c0.3,0,0.6,0.1,1,0.1
	c0.3,0.1,0.6,0.1,1,0.2c0.3,0.1,0.7,0.1,1,0.2c0.3,0.1,0.7,0.1,1,0.2c0.7,0.1,1.3,0.3,2,0.5c0.3,0.1,0.6,0.2,1,0.3
	c0.3,0.1,0.6,0.2,0.9,0.3c0.6,0.2,1.2,0.3,1.7,0.5c0.3,0.1,0.5,0.2,0.8,0.3c0.3,0.1,0.5,0.2,0.7,0.3c0.5,0.2,0.9,0.3,1.3,0.5
	c0.4,0.2,0.7,0.3,1,0.4c0.3,0.1,0.5,0.2,0.6,0.3C500.5-1570.7,500.6-1570.7,500.6-1570.7z"/>
<path class="st6" d="M470.5-1575"/>
<g>
	<path class="st7" d="M471.1-1575l6.6,0.1c0,0,1.2,0.2-0.9,2.4c-2.1,2.2-2.4,2.4-2.4,2.4l-2.5-2.5
		C471.9-1572.5,469.4-1574.7,471.1-1575z"/>
	<path class="st5" d="M474.4-1570l-2.6-2.5c-0.1-0.1-1.6-1.4-1.4-2.2c0.1-0.2,0.3-0.4,0.6-0.4l6.6,0.1c0,0,0.3,0,0.4,0.3
		c0.1,0.4-0.3,1.2-1.2,2.2C474.7-1570.2,474.4-1570,474.4-1570L474.4-1570z M471.1-1574.9c-0.3,0-0.4,0.1-0.5,0.3
		c-0.2,0.5,0.9,1.6,1.3,2l2.5,2.4c0.1-0.1,0.6-0.6,2.3-2.3c1.2-1.3,1.3-1.8,1.2-2c-0.1-0.2-0.3-0.2-0.3-0.2L471.1-1574.9z"/>
</g>
<text transform="matrix(0.6973 0 0 1 519.5794 -1584.0648)" class="st14"><tspan x="0" y="0" class="st15 st16">Calcula el perimetro de la </tspan><tspan x="0" y="30.4" class="st15 st16">siguiente figura:</tspan></text>
<text transform="matrix(1 0 0 1 685.7474 -1339.7476)" class="st15" style="font-size:23.0305px;">¡Éxitos!</text>
<polygon class="st9" points="612.7,-1514.5 497.3,-1399.1 726.3,-1399.1 "/>
<text transform="matrix(0.7071 -0.7071 0.7071 0.7071 539.4041 -1455.4336)" class="st25" style="font-size:12px;">5 CM</text>
<line class="st9" x1="558" y1="-1480" x2="602.3" y2="-1524.2"/>
<line class="st9" x1="532.1" y1="-1454.3" x2="483.5" y2="-1405.7"/>
<line class="st9" x1="670.6" y1="-1480" x2="626.4" y2="-1524.2"/>
<line class="st9" x1="696.5" y1="-1454.3" x2="745.1" y2="-1405.7"/>
<text transform="matrix(0.7071 0.7071 -0.7071 0.7071 672.2139 -1473.9597)" class="st25" style="font-size:12px;">5 CM</text>
<text transform="matrix(1 0 0 1 598.9997 -1384.9803)" class="st25" style="font-size:12px;">5 CM</text>
<line class="st9" x1="497.3" y1="-1389.5" x2="594.5" y2="-1389.5"/>
<line class="st9" x1="629.2" y1="-1389.5" x2="726.3" y2="-1389.5"/>
<path class="st0" d="M789-947.5c0,8.6-5.9,15.5-13.3,15.5H454.6c-7.3,0-13.3-6.9-13.3-15.5v-270c0-8.6,5.9-15.5,13.3-15.5h321.1
	c7.3,0,13.3,6.9,13.3,15.5L789-947.5L789-947.5z"/>
<linearGradient id="SVGID_5_" gradientUnits="userSpaceOnUse" x1="612.079" y1="-1782.4822" x2="611.5123" y2="-1853.061" gradientTransform="matrix(1 0 0 -1 0 -3006.9612)">
	<stop  offset="4.600000e-02" style="stop-color:#00CD00"/>
	<stop  offset="1" style="stop-color:#FFFFFF"/>
</linearGradient>
<path class="st12" d="M774.7-962.5c0,8.6-5.9,15.5-13.3,15.5H460.5c-7.3,0-13.3-7-13.3-15.5v-247.7c0-8.6,5.9-15.5,13.3-15.5h300.8
	c7.3,0,13.3,7,13.3,15.5V-962.5z"/>
<g>
	<ellipse class="st2" cx="473.9" cy="-1204.1" rx="5.2" ry="10.9"/>
	<path class="st3" d="M473.9-1193.1c-2.9,0-5.3-4.9-5.3-11c0-6,2.4-11,5.3-11s5.3,4.9,5.3,11C479.2-1198,476.8-1193.1,473.9-1193.1z
		 M473.9-1214.8c-2.8,0-5.1,4.8-5.1,10.8c0,5.9,2.3,10.8,5.1,10.8c2.8,0,5.1-4.8,5.1-10.8C479-1210,476.7-1214.8,473.9-1214.8z"/>
</g>
<g>
	<ellipse cx="473.9" cy="-1204.1" rx="2.6" ry="2.8"/>
	<path class="st3" d="M473.9-1201.2c-1.5,0-2.7-1.3-2.7-2.9c0-1.6,1.2-2.9,2.7-2.9c1.5,0,2.7,1.3,2.7,2.9
		C476.6-1202.5,475.4-1201.2,473.9-1201.2z M473.9-1206.7c-1.4,0-2.5,1.2-2.5,2.7c0,1.5,1.1,2.7,2.5,2.7c1.4,0,2.5-1.2,2.5-2.7
		C476.4-1205.5,475.3-1206.7,473.9-1206.7z"/>
</g>
<g>
	<ellipse class="st4" cx="490" cy="-1204.1" rx="5.2" ry="10.9"/>
	<path class="st3" d="M490-1193.2c-2.9,0-5.3-4.9-5.3-11s2.4-11,5.3-11c2.9,0,5.3,4.9,5.3,11S492.9-1193.2,490-1193.2z M490-1214.9
		c-2.8,0-5.1,4.8-5.1,10.8c0,5.9,2.3,10.8,5.1,10.8c2.8,0,5.1-4.8,5.1-10.8C495-1210.1,492.8-1214.9,490-1214.9z"/>
</g>
<g>
	<ellipse cx="489.7" cy="-1204.2" rx="2.6" ry="2.8"/>
	<path class="st3" d="M489.7-1201.3c-1.5,0-2.7-1.3-2.7-2.9c0-1.6,1.2-2.9,2.7-2.9c1.5,0,2.7,1.3,2.7,2.9
		C492.4-1202.6,491.2-1201.3,489.7-1201.3z M489.7-1206.8c-1.4,0-2.5,1.2-2.5,2.7c0,1.5,1.1,2.7,2.5,2.7c1.4,0,2.5-1.2,2.5-2.7
		C492.2-1205.6,491.1-1206.8,489.7-1206.8z"/>
</g>
<path class="st5" d="M455.8-1176.7c0,0,0.1,0,0.2-0.1c0.1-0.1,0.3-0.2,0.6-0.3c0.3-0.1,0.6-0.3,1-0.5c0.4-0.2,0.8-0.4,1.3-0.6
	c0.2-0.1,0.5-0.2,0.7-0.3c0.3-0.1,0.5-0.2,0.8-0.3c0.5-0.2,1.1-0.4,1.7-0.6c0.3-0.1,0.6-0.2,0.9-0.3c0.3-0.1,0.6-0.2,0.9-0.3
	c0.6-0.2,1.3-0.4,1.9-0.6c0.3-0.1,0.7-0.2,1-0.3c0.3-0.1,0.7-0.2,1-0.2c0.3-0.1,0.6-0.1,1-0.2c0.3-0.1,0.6-0.1,0.9-0.2
	c0.3-0.1,0.6-0.1,0.9-0.2c0.3,0,0.6-0.1,0.9-0.1c0.3,0,0.6-0.1,0.8-0.1c0.3,0,0.5-0.1,0.8-0.1c0.5,0,1-0.1,1.4-0.1
	c0.4,0,0.8,0,1.1,0c0.6,0,0.9,0,0.9,0s-0.3,0-0.9,0.1c-0.3,0-0.6,0.1-1.1,0.1c-0.4,0.1-0.9,0.1-1.4,0.2c-0.5,0.1-1,0.2-1.6,0.3
	c-0.3,0-0.6,0.1-0.9,0.2c-0.3,0.1-0.6,0.1-0.9,0.2c-0.3,0.1-0.6,0.1-0.9,0.2c-0.3,0.1-0.6,0.2-1,0.2c-0.3,0.1-0.6,0.2-1,0.2
	c-0.3,0.1-0.6,0.2-1,0.3c-0.7,0.2-1.3,0.4-1.9,0.6c-0.6,0.2-1.3,0.4-1.9,0.6c-0.3,0.1-0.6,0.2-0.9,0.3c-0.3,0.1-0.6,0.2-0.8,0.3
	c-0.3,0.1-0.5,0.2-0.8,0.3c-0.3,0.1-0.5,0.2-0.7,0.3c-0.5,0.2-0.9,0.4-1.3,0.5c-0.4,0.2-0.7,0.3-1,0.4c-0.3,0.1-0.5,0.2-0.6,0.3
	C455.9-1176.7,455.8-1176.7,455.8-1176.7z"/>
<path class="st5" d="M455.4-1182.2c0,0,0.1,0,0.2-0.1c0.1-0.1,0.4-0.1,0.6-0.2c0.6-0.2,1.4-0.5,2.3-0.8c0.5-0.2,1-0.3,1.6-0.5
	c0.3-0.1,0.6-0.2,0.9-0.2c0.3-0.1,0.6-0.2,0.9-0.2c0.6-0.2,1.2-0.3,1.9-0.5c0.6-0.2,1.3-0.3,2-0.5c0.7-0.1,1.3-0.3,2-0.4
	c0.3-0.1,0.6-0.1,1-0.2c0.3-0.1,0.6-0.1,1-0.2c0.3,0,0.6-0.1,0.9-0.1c0.3,0,0.6-0.1,0.9-0.1c0.6-0.1,1.1-0.1,1.6-0.2
	c0.5,0,1-0.1,1.4-0.1c0.2,0,0.4,0,0.6,0c0.2,0,0.3,0,0.5,0c0.6,0,0.9,0,0.9,0s-0.3,0-0.9,0.1c-0.1,0-0.3,0-0.5,0
	c-0.2,0-0.4,0-0.6,0.1c-0.4,0-0.9,0.1-1.4,0.2c-0.5,0.1-1,0.1-1.6,0.2c-0.3,0-0.6,0.1-0.9,0.1c-0.3,0.1-0.6,0.1-0.9,0.2
	c-0.6,0.1-1.3,0.2-1.9,0.4c-0.7,0.1-1.3,0.3-2,0.4c-0.7,0.2-1.3,0.3-2,0.4c-0.6,0.2-1.3,0.3-1.9,0.5c-0.3,0.1-0.6,0.2-0.9,0.2
	c-0.3,0.1-0.6,0.2-0.9,0.2c-0.6,0.1-1.1,0.3-1.6,0.4c-1,0.3-1.8,0.5-2.4,0.7C455.8-1182.3,455.4-1182.2,455.4-1182.2z"/>
<path class="st5" d="M508.1-1176.7c0,0-0.1-0.1-0.2-0.1c-0.1-0.1-0.3-0.2-0.6-0.4c-0.3-0.2-0.6-0.3-0.9-0.5
	c-0.4-0.2-0.8-0.4-1.2-0.6c-0.2-0.1-0.5-0.2-0.7-0.3c-0.1-0.1-0.3-0.1-0.4-0.2c-0.1-0.1-0.3-0.1-0.4-0.2c-0.3-0.1-0.5-0.2-0.8-0.3
	c-0.3-0.1-0.6-0.2-0.9-0.3c-0.6-0.2-1.2-0.4-1.9-0.6l-0.2-0.1l-0.2-0.1c-0.2,0-0.3-0.1-0.5-0.1c-0.3-0.1-0.7-0.2-1-0.3
	c-0.7-0.1-1.3-0.3-2-0.4c-0.7-0.1-1.3-0.2-1.9-0.3c-0.6-0.1-1.2-0.2-1.8-0.2c-0.3,0-0.6-0.1-0.8-0.1c-0.3,0-0.5,0-0.8-0.1
	c-0.5,0-1-0.1-1.4-0.1c-0.4,0-0.8,0-1.1,0c-0.6,0-0.9,0-0.9,0s0.3,0,0.9,0c0.3,0,0.7,0,1.1,0c0.4,0,0.9,0,1.4,0c0.3,0,0.5,0,0.8,0
	c0.3,0,0.6,0,0.9,0.1c0.6,0.1,1.2,0.1,1.8,0.2c0.6,0.1,1.3,0.2,1.9,0.3c0.7,0.1,1.3,0.3,2,0.4c0.3,0.1,0.7,0.2,1,0.3
	c0.2,0,0.3,0.1,0.5,0.1l0.2,0.1l0.2,0.1c0.6,0.2,1.3,0.4,1.9,0.7c0.3,0.1,0.6,0.2,0.9,0.3c0.3,0.1,0.6,0.2,0.8,0.4
	c0.1,0.1,0.3,0.1,0.4,0.2c0.1,0.1,0.3,0.1,0.4,0.2c0.2,0.1,0.5,0.2,0.7,0.4c0.5,0.2,0.9,0.5,1.2,0.7c0.4,0.2,0.7,0.4,0.9,0.6
	c0.2,0.2,0.4,0.3,0.6,0.4C508-1176.7,508.1-1176.7,508.1-1176.7z"/>
<path class="st6" d="M508.1-1182.2"/>
<path class="st5" d="M508.1-1182.2c0,0-0.1,0-0.2-0.1c-0.1-0.1-0.4-0.1-0.6-0.2c-0.3-0.1-0.6-0.2-1-0.3c-0.4-0.1-0.8-0.3-1.3-0.4
	c-0.5-0.2-1-0.3-1.6-0.5c-0.6-0.2-1.1-0.3-1.8-0.5c-0.6-0.2-1.2-0.3-1.9-0.5c-0.6-0.1-1.3-0.3-2-0.4c-0.3-0.1-0.7-0.1-1-0.2
	c-0.3-0.1-0.7-0.1-1-0.2c-0.3-0.1-0.6-0.1-1-0.2c-0.3-0.1-0.6-0.1-0.9-0.1c-0.3,0-0.6-0.1-0.9-0.1c-0.3,0-0.6-0.1-0.9-0.1
	c-0.6-0.1-1.1-0.1-1.6-0.2c-0.5,0-1-0.1-1.4-0.1c-0.4,0-0.8,0-1.1,0c-0.6,0-0.9,0-0.9,0s0.3,0,0.9,0c0.3,0,0.7,0,1.1,0
	c0.4,0,0.9,0,1.4,0.1c0.3,0,0.5,0,0.8,0c0.3,0,0.6,0,0.8,0.1c0.3,0,0.6,0.1,0.9,0.1c0.3,0,0.6,0.1,0.9,0.1c0.3,0,0.6,0.1,1,0.1
	c0.3,0.1,0.6,0.1,1,0.2c0.3,0.1,0.7,0.1,1,0.2c0.3,0.1,0.7,0.1,1,0.2c0.7,0.1,1.3,0.3,2,0.5c0.3,0.1,0.6,0.2,1,0.3
	c0.3,0.1,0.6,0.2,0.9,0.3c0.6,0.2,1.2,0.3,1.7,0.5c0.3,0.1,0.5,0.2,0.8,0.3c0.3,0.1,0.5,0.2,0.7,0.3c0.5,0.2,0.9,0.3,1.3,0.5
	c0.4,0.2,0.7,0.3,1,0.4c0.3,0.1,0.5,0.2,0.6,0.3C508-1182.2,508.1-1182.2,508.1-1182.2z"/>
<path class="st6" d="M478-1186.5"/>
<g>
	<path class="st7" d="M478.6-1186.5l6.6,0.1c0,0,1.2,0.2-0.9,2.4c-2.1,2.2-2.4,2.4-2.4,2.4l-2.5-2.5
		C479.4-1184,476.9-1186.3,478.6-1186.5z"/>
	<path class="st5" d="M481.9-1181.5l-2.6-2.5c-0.1-0.1-1.6-1.4-1.4-2.2c0.1-0.2,0.3-0.4,0.6-0.4l6.6,0.1c0,0,0.3,0,0.4,0.3
		c0.1,0.4-0.3,1.2-1.2,2.2C482.2-1181.7,481.9-1181.5,481.9-1181.5L481.9-1181.5z M478.6-1186.4c-0.3,0-0.5,0.1-0.5,0.3
		c-0.1,0.5,0.9,1.6,1.3,2l2.5,2.4c0.1-0.1,0.6-0.6,2.3-2.3c1.2-1.3,1.3-1.8,1.2-2c-0.1-0.2-0.3-0.2-0.3-0.2L478.6-1186.4z"/>
</g>
<text transform="matrix(0.6973 0 0 1 527.0583 -1195.5842)" class="st14"><tspan x="0" y="0" class="st15 st16">Calcula el perimetro de la </tspan><tspan x="0" y="30.4" class="st15 st16">siguiente figura:</tspan></text>
<text transform="matrix(1 0 0 1 693.2264 -951.267)" class="st15" style="font-size:23.0305px;">¡Éxitos!</text>
<path class="st0" d="M357,294.5c0,8.6-5.9,15.5-13.3,15.5H22.6c-7.3,0-13.3-6.9-13.3-15.5v-270C9.3,15.9,15.3,9,22.6,9h321.1
	c7.3,0,13.3,6.9,13.3,15.5L357,294.5L357,294.5z"/>
<linearGradient id="SVGID_6_" gradientUnits="userSpaceOnUse" x1="184.0913" y1="-3028.4521" x2="183.5246" y2="-3099.031" gradientTransform="matrix(1 0 0 -1 0 -3006.9612)">
	<stop  offset="4.600000e-02" style="stop-color:#00CD00"/>
	<stop  offset="1" style="stop-color:#FFFFFF"/>
</linearGradient>
<path class="st13" d="M346.7,283.5c0,8.6-5.9,15.5-13.3,15.5H32.6c-7.3,0-13.3-7-13.3-15.5V35.7c0-8.6,5.9-15.5,13.3-15.5h300.8
	c7.3,0,13.3,7,13.3,15.5V283.5z"/>
<g>
	<ellipse class="st2" cx="42" cy="37.9" rx="5.2" ry="10.9"/>
	<path class="st3" d="M42,48.9c-2.9,0-5.3-4.9-5.3-11c0-6,2.4-11,5.3-11s5.3,4.9,5.3,11C47.2,44,44.9,48.9,42,48.9z M42,27.2
		c-2.8,0-5.1,4.8-5.1,10.8c0,5.9,2.3,10.8,5.1,10.8c2.8,0,5.1-4.8,5.1-10.8C47,32,44.8,27.2,42,27.2z"/>
</g>
<g>
	<ellipse cx="42" cy="37.9" rx="2.6" ry="2.8"/>
	<path class="st3" d="M42,40.8c-1.5,0-2.7-1.3-2.7-2.9c0-1.6,1.2-2.9,2.7-2.9c1.5,0,2.7,1.3,2.7,2.9C44.6,39.5,43.5,40.8,42,40.8z
		 M42,35.3c-1.4,0-2.5,1.2-2.5,2.7c0,1.5,1.1,2.7,2.5,2.7c1.4,0,2.5-1.2,2.5-2.7C44.4,36.5,43.3,35.3,42,35.3z"/>
</g>
<g>
	<ellipse class="st4" cx="58" cy="37.9" rx="5.2" ry="10.9"/>
	<path class="st3" d="M58,48.8c-2.9,0-5.3-4.9-5.3-11s2.4-11,5.3-11c2.9,0,5.3,4.9,5.3,11S60.9,48.8,58,48.8z M58,27.1
		c-2.8,0-5.1,4.8-5.1,10.8c0,5.9,2.3,10.8,5.1,10.8c2.8,0,5.1-4.8,5.1-10.8C63.1,31.9,60.8,27.1,58,27.1z"/>
</g>
<g>
	<ellipse cx="57.8" cy="37.8" rx="2.6" ry="2.8"/>
	<path class="st3" d="M57.8,40.7c-1.5,0-2.7-1.3-2.7-2.9c0-1.6,1.2-2.9,2.7-2.9c1.5,0,2.7,1.3,2.7,2.9
		C60.5,39.4,59.3,40.7,57.8,40.7z M57.8,35.2c-1.4,0-2.5,1.2-2.5,2.7c0,1.5,1.1,2.7,2.5,2.7c1.4,0,2.5-1.2,2.5-2.7
		C60.3,36.4,59.1,35.2,57.8,35.2z"/>
</g>
<path class="st5" d="M23.8,65.3c0,0,0.1,0,0.2-0.1c0.1-0.1,0.3-0.2,0.6-0.3c0.3-0.1,0.6-0.3,1-0.5c0.4-0.2,0.8-0.4,1.3-0.6
	c0.2-0.1,0.5-0.2,0.7-0.3c0.3-0.1,0.5-0.2,0.8-0.3c0.5-0.2,1.1-0.4,1.7-0.6c0.3-0.1,0.6-0.2,0.9-0.3c0.3-0.1,0.6-0.2,0.9-0.3
	c0.6-0.2,1.3-0.4,1.9-0.6c0.3-0.1,0.7-0.2,1-0.3c0.3-0.1,0.7-0.2,1-0.2c0.3-0.1,0.6-0.1,1-0.2c0.3-0.1,0.6-0.1,0.9-0.2
	c0.3-0.1,0.6-0.1,0.9-0.2c0.3,0,0.6-0.1,0.9-0.1c0.3,0,0.6-0.1,0.8-0.1c0.3,0,0.5-0.1,0.8-0.1c0.5,0,1-0.1,1.4-0.1
	c0.4,0,0.8,0,1.1,0c0.6,0,0.9,0,0.9,0s-0.3,0-0.9,0.1c-0.3,0-0.6,0.1-1.1,0.1c-0.4,0.1-0.9,0.1-1.4,0.2c-0.5,0.1-1,0.2-1.6,0.3
	c-0.3,0-0.6,0.1-0.9,0.2c-0.3,0.1-0.6,0.1-0.9,0.2c-0.3,0.1-0.6,0.1-0.9,0.2c-0.3,0.1-0.6,0.2-1,0.2c-0.3,0.1-0.6,0.2-1,0.2
	c-0.3,0.1-0.6,0.2-1,0.3c-0.7,0.2-1.3,0.4-1.9,0.6c-0.6,0.2-1.3,0.4-1.9,0.6c-0.3,0.1-0.6,0.2-0.9,0.3c-0.3,0.1-0.6,0.2-0.8,0.3
	c-0.3,0.1-0.5,0.2-0.8,0.3C27.4,63.9,27.2,64,27,64c-0.5,0.2-0.9,0.4-1.3,0.5c-0.4,0.2-0.7,0.3-1,0.4c-0.3,0.1-0.5,0.2-0.6,0.3
	C23.9,65.3,23.8,65.3,23.8,65.3z"/>
<path class="st5" d="M23.5,59.8c0,0,0.1,0,0.2-0.1c0.1-0.1,0.4-0.1,0.6-0.2c0.6-0.2,1.4-0.5,2.3-0.8c0.5-0.2,1-0.3,1.6-0.5
	c0.3-0.1,0.6-0.2,0.9-0.2c0.3-0.1,0.6-0.2,0.9-0.2c0.6-0.2,1.2-0.3,1.9-0.5c0.6-0.2,1.3-0.3,2-0.5c0.7-0.1,1.3-0.3,2-0.4
	c0.3-0.1,0.7-0.1,1-0.2c0.3-0.1,0.6-0.1,1-0.2c0.3,0,0.6-0.1,0.9-0.1c0.3,0,0.6-0.1,0.9-0.1c0.6-0.1,1.1-0.1,1.6-0.2
	c0.5,0,1-0.1,1.4-0.1c0.2,0,0.4,0,0.6,0c0.2,0,0.3,0,0.5,0c0.6,0,0.9,0,0.9,0s-0.3,0-0.9,0.1c-0.1,0-0.3,0-0.5,0
	c-0.2,0-0.4,0-0.6,0.1c-0.4,0-0.9,0.1-1.4,0.2c-0.5,0.1-1,0.1-1.6,0.2c-0.3,0-0.6,0.1-0.9,0.1c-0.3,0-0.6,0.1-0.9,0.2
	c-0.6,0.1-1.3,0.2-1.9,0.4c-0.7,0.1-1.3,0.3-2,0.4c-0.7,0.2-1.3,0.3-2,0.4c-0.6,0.2-1.3,0.3-1.9,0.5c-0.3,0.1-0.6,0.2-0.9,0.2
	c-0.3,0.1-0.6,0.2-0.9,0.2c-0.6,0.1-1.1,0.3-1.6,0.4c-1,0.3-1.8,0.5-2.4,0.7C23.8,59.7,23.5,59.8,23.5,59.8z"/>
<path class="st5" d="M76.1,65.3c0,0-0.1-0.1-0.2-0.1c-0.1-0.1-0.3-0.2-0.6-0.4c-0.3-0.2-0.6-0.3-0.9-0.5c-0.4-0.2-0.8-0.4-1.2-0.6
	c-0.2-0.1-0.5-0.2-0.7-0.3c-0.1-0.1-0.3-0.1-0.4-0.2c-0.1-0.1-0.3-0.1-0.4-0.2c-0.3-0.1-0.5-0.2-0.8-0.3c-0.3-0.1-0.6-0.2-0.9-0.3
	c-0.6-0.2-1.2-0.4-1.9-0.6l-0.2-0.1l-0.2-0.1c-0.2,0-0.3-0.1-0.5-0.1c-0.3-0.1-0.7-0.2-1-0.3c-0.7-0.1-1.3-0.3-2-0.4
	c-0.7-0.1-1.3-0.2-1.9-0.3c-0.6-0.1-1.2-0.2-1.8-0.2c-0.3,0-0.6-0.1-0.8-0.1c-0.3,0-0.5,0-0.8-0.1c-0.5,0-1-0.1-1.4-0.1
	c-0.4,0-0.8,0-1.1,0c-0.6,0-0.9,0-0.9,0s0.3,0,0.9,0c0.3,0,0.7,0,1.1,0c0.4,0,0.9,0,1.4,0c0.3,0,0.5,0,0.8,0c0.3,0,0.6,0,0.9,0.1
	c0.6,0.1,1.2,0.1,1.8,0.2c0.6,0.1,1.3,0.2,1.9,0.3c0.7,0.1,1.3,0.3,2,0.4c0.3,0.1,0.7,0.2,1,0.3c0.2,0,0.3,0.1,0.5,0.1l0.2,0.1
	l0.2,0.1c0.6,0.2,1.3,0.4,1.9,0.7c0.3,0.1,0.6,0.2,0.9,0.3c0.3,0.1,0.6,0.2,0.8,0.4c0.1,0.1,0.3,0.1,0.4,0.2s0.3,0.1,0.4,0.2
	c0.2,0.1,0.5,0.2,0.7,0.4c0.5,0.2,0.9,0.5,1.2,0.7c0.4,0.2,0.7,0.4,0.9,0.6c0.2,0.2,0.4,0.3,0.6,0.4C76,65.3,76.1,65.3,76.1,65.3z"
	/>
<path class="st6" d="M76.1,59.8"/>
<path class="st5" d="M76.1,59.8c0,0-0.1,0-0.2-0.1c-0.1-0.1-0.4-0.1-0.6-0.2c-0.3-0.1-0.6-0.2-1-0.3c-0.4-0.1-0.8-0.3-1.3-0.4
	c-0.5-0.2-1-0.3-1.6-0.5c-0.6-0.2-1.1-0.3-1.8-0.5c-0.6-0.2-1.2-0.3-1.9-0.5c-0.6-0.1-1.3-0.3-2-0.4c-0.3-0.1-0.7-0.1-1-0.2
	c-0.3-0.1-0.7-0.1-1-0.2c-0.3-0.1-0.6-0.1-1-0.2c-0.3,0-0.6-0.1-0.9-0.1c-0.3,0-0.6-0.1-0.9-0.1c-0.3,0-0.6-0.1-0.9-0.1
	c-0.6-0.1-1.1-0.1-1.6-0.2c-0.5,0-1-0.1-1.4-0.1c-0.4,0-0.8,0-1.1,0c-0.6,0-0.9,0-0.9,0s0.3,0,0.9,0c0.3,0,0.7,0,1.1,0
	c0.4,0,0.9,0,1.4,0.1c0.3,0,0.5,0,0.8,0c0.3,0,0.6,0,0.8,0.1c0.3,0,0.6,0.1,0.9,0.1c0.3,0,0.6,0.1,0.9,0.1c0.3,0,0.6,0.1,1,0.1
	c0.3,0.1,0.6,0.1,1,0.2c0.3,0.1,0.7,0.1,1,0.2c0.3,0.1,0.7,0.1,1,0.2c0.7,0.1,1.3,0.3,2,0.5c0.3,0.1,0.6,0.2,1,0.3
	c0.3,0.1,0.6,0.2,0.9,0.3c0.6,0.2,1.2,0.3,1.7,0.5c0.3,0.1,0.5,0.2,0.8,0.3c0.3,0.1,0.5,0.2,0.7,0.3c0.5,0.2,0.9,0.3,1.3,0.5
	c0.4,0.2,0.7,0.3,1,0.4c0.3,0.1,0.5,0.2,0.6,0.3C76,59.8,76.1,59.8,76.1,59.8z"/>
<path class="st6" d="M46.1,55.5"/>
<g>
	<path class="st7" d="M46.6,55.5l6.6,0.1c0,0,1.2,0.2-0.9,2.4c-2.1,2.2-2.4,2.4-2.4,2.4L47.4,58C47.4,58,45,55.7,46.6,55.5z"/>
	<path class="st5" d="M49.9,60.5L47.4,58c-0.1-0.1-1.6-1.4-1.4-2.2c0.1-0.2,0.3-0.4,0.6-0.4l6.6,0.1c0,0,0.3,0,0.4,0.3
		c0.1,0.4-0.3,1.2-1.2,2.2C50.3,60.3,50,60.5,49.9,60.5L49.9,60.5z M46.6,55.6c-0.3,0-0.5,0.1-0.5,0.3c-0.2,0.5,0.9,1.6,1.3,2
		l2.5,2.4c0.1-0.1,0.6-0.6,2.3-2.3c1.2-1.3,1.3-1.8,1.2-2c-0.1-0.2-0.3-0.2-0.3-0.2L46.6,55.6z"/>
</g>
<text transform="matrix(0.6973 0 0 1 95.1006 46.4157)" class="st14"><tspan x="0" y="0" class="st15 st16">Calcula el perimetro de la </tspan><tspan x="0" y="30.4" class="st15 st16">siguiente figura:</tspan></text>
<text transform="matrix(1 0 0 1 285.6602 294.1327)" class="st15 st17">¡Éxitos!</text>
<path class="st0" d="M-57,294.5c0,8.6-5.9,15.5-13.3,15.5h-321.1c-7.3,0-13.3-6.9-13.3-15.5v-270c0-8.6,5.9-15.5,13.3-15.5h321.1
	C-62.9,9-57,15.9-57,24.5L-57,294.5L-57,294.5z"/>
<linearGradient id="SVGID_7_" gradientUnits="userSpaceOnUse" x1="-229.9087" y1="-3028.4521" x2="-230.4754" y2="-3099.031" gradientTransform="matrix(1 0 0 -1 0 -3006.9612)">
	<stop  offset="4.600000e-02" style="stop-color:#00CD00"/>
	<stop  offset="1" style="stop-color:#FFFFFF"/>
</linearGradient>
<path class="st18" d="M-67.3,283.5c0,8.6-5.9,15.5-13.3,15.5h-300.8c-7.3,0-13.3-7-13.3-15.5V35.7c0-8.6,5.9-15.5,13.3-15.5h300.8
	c7.3,0,13.3,7,13.3,15.5V283.5z"/>
<g>
	<ellipse class="st2" cx="-372" cy="37.9" rx="5.2" ry="10.9"/>
	<path class="st3" d="M-372,48.9c-2.9,0-5.3-4.9-5.3-11c0-6,2.4-11,5.3-11s5.3,4.9,5.3,11C-366.8,44-369.1,48.9-372,48.9z
		 M-372,27.2c-2.8,0-5.1,4.8-5.1,10.8c0,5.9,2.3,10.8,5.1,10.8c2.8,0,5.1-4.8,5.1-10.8C-367,32-369.2,27.2-372,27.2z"/>
</g>
<g>
	<ellipse cx="-372" cy="37.9" rx="2.6" ry="2.8"/>
	<path class="st3" d="M-372,40.8c-1.5,0-2.7-1.3-2.7-2.9c0-1.6,1.2-2.9,2.7-2.9c1.5,0,2.7,1.3,2.7,2.9
		C-369.4,39.5-370.5,40.8-372,40.8z M-372,35.3c-1.4,0-2.5,1.2-2.5,2.7c0,1.5,1.1,2.7,2.5,2.7c1.4,0,2.5-1.2,2.5-2.7
		S-370.7,35.3-372,35.3z"/>
</g>
<g>
	<ellipse class="st4" cx="-356" cy="37.9" rx="5.2" ry="10.9"/>
	<path class="st3" d="M-356,48.8c-2.9,0-5.3-4.9-5.3-11s2.4-11,5.3-11c2.9,0,5.3,4.9,5.3,11S-353.1,48.8-356,48.8z M-356,27.1
		c-2.8,0-5.1,4.8-5.1,10.8c0,5.9,2.3,10.8,5.1,10.8c2.8,0,5.1-4.8,5.1-10.8C-350.9,31.9-353.2,27.1-356,27.1z"/>
</g>
<g>
	<ellipse cx="-356.2" cy="37.8" rx="2.6" ry="2.8"/>
	<path class="st3" d="M-356.2,40.7c-1.5,0-2.7-1.3-2.7-2.9c0-1.6,1.2-2.9,2.7-2.9c1.5,0,2.7,1.3,2.7,2.9
		C-353.5,39.4-354.7,40.7-356.2,40.7z M-356.2,35.2c-1.4,0-2.5,1.2-2.5,2.7c0,1.5,1.1,2.7,2.5,2.7c1.4,0,2.5-1.2,2.5-2.7
		C-353.7,36.4-354.9,35.2-356.2,35.2z"/>
</g>
<path class="st5" d="M-390.2,65.3c0,0,0.1,0,0.2-0.1c0.1-0.1,0.3-0.2,0.6-0.3c0.3-0.1,0.6-0.3,1-0.5c0.4-0.2,0.8-0.4,1.3-0.6
	c0.2-0.1,0.5-0.2,0.7-0.3c0.3-0.1,0.5-0.2,0.8-0.3c0.5-0.2,1.1-0.4,1.7-0.6c0.3-0.1,0.6-0.2,0.9-0.3c0.3-0.1,0.6-0.2,0.9-0.3
	c0.6-0.2,1.3-0.4,1.9-0.6c0.3-0.1,0.7-0.2,1-0.3c0.3-0.1,0.7-0.2,1-0.2c0.3-0.1,0.6-0.1,1-0.2c0.3-0.1,0.6-0.1,0.9-0.2
	c0.3-0.1,0.6-0.1,0.9-0.2c0.3,0,0.6-0.1,0.9-0.1c0.3,0,0.6-0.1,0.8-0.1c0.3,0,0.5-0.1,0.8-0.1c0.5,0,1-0.1,1.4-0.1
	c0.4,0,0.8,0,1.1,0c0.6,0,0.9,0,0.9,0s-0.3,0-0.9,0.1c-0.3,0-0.6,0.1-1.1,0.1c-0.4,0.1-0.9,0.1-1.4,0.2c-0.5,0.1-1,0.2-1.6,0.3
	c-0.3,0-0.6,0.1-0.9,0.2c-0.3,0.1-0.6,0.1-0.9,0.2c-0.3,0.1-0.6,0.1-0.9,0.2c-0.3,0.1-0.6,0.2-1,0.2c-0.3,0.1-0.6,0.2-1,0.2
	c-0.3,0.1-0.6,0.2-1,0.3c-0.7,0.2-1.3,0.4-1.9,0.6c-0.6,0.2-1.3,0.4-1.9,0.6c-0.3,0.1-0.6,0.2-0.9,0.3c-0.3,0.1-0.6,0.2-0.8,0.3
	c-0.3,0.1-0.5,0.2-0.8,0.3c-0.3,0.1-0.5,0.2-0.7,0.3c-0.5,0.2-0.9,0.4-1.3,0.5c-0.4,0.2-0.7,0.3-1,0.4c-0.3,0.1-0.5,0.2-0.6,0.3
	C-390.1,65.3-390.2,65.3-390.2,65.3z"/>
<path class="st5" d="M-390.5,59.8c0,0,0.1,0,0.2-0.1c0.1-0.1,0.4-0.1,0.6-0.2c0.6-0.2,1.4-0.5,2.3-0.8c0.5-0.2,1-0.3,1.6-0.5
	c0.3-0.1,0.6-0.2,0.9-0.2c0.3-0.1,0.6-0.2,0.9-0.2c0.6-0.2,1.2-0.3,1.9-0.5c0.6-0.2,1.3-0.3,2-0.5c0.7-0.1,1.3-0.3,2-0.4
	c0.3-0.1,0.6-0.1,1-0.2c0.3-0.1,0.6-0.1,1-0.2c0.3,0,0.6-0.1,0.9-0.1c0.3,0,0.6-0.1,0.9-0.1c0.6-0.1,1.1-0.1,1.6-0.2
	c0.5,0,1-0.1,1.4-0.1c0.2,0,0.4,0,0.6,0c0.2,0,0.3,0,0.5,0c0.6,0,0.9,0,0.9,0s-0.3,0-0.9,0.1c-0.1,0-0.3,0-0.5,0
	c-0.2,0-0.4,0-0.6,0.1c-0.4,0-0.9,0.1-1.4,0.2c-0.5,0.1-1,0.1-1.6,0.2c-0.3,0-0.6,0.1-0.9,0.1c-0.3,0-0.6,0.1-0.9,0.2
	c-0.6,0.1-1.3,0.2-1.9,0.4c-0.7,0.1-1.3,0.3-2,0.4c-0.7,0.2-1.3,0.3-2,0.4c-0.6,0.2-1.3,0.3-1.9,0.5c-0.3,0.1-0.6,0.2-0.9,0.2
	c-0.3,0.1-0.6,0.2-0.9,0.2c-0.6,0.1-1.1,0.3-1.6,0.4c-1,0.3-1.8,0.5-2.4,0.7C-390.2,59.7-390.5,59.8-390.5,59.8z"/>
<path class="st5" d="M-337.9,65.3c0,0-0.1-0.1-0.2-0.1c-0.1-0.1-0.3-0.2-0.6-0.4c-0.3-0.2-0.6-0.3-0.9-0.5c-0.4-0.2-0.8-0.4-1.2-0.6
	c-0.2-0.1-0.5-0.2-0.7-0.3c-0.1-0.1-0.3-0.1-0.4-0.2c-0.1-0.1-0.3-0.1-0.4-0.2c-0.3-0.1-0.5-0.2-0.8-0.3c-0.3-0.1-0.6-0.2-0.9-0.3
	c-0.6-0.2-1.2-0.4-1.9-0.6l-0.2-0.1l-0.2-0.1c-0.2,0-0.3-0.1-0.5-0.1c-0.3-0.1-0.7-0.2-1-0.3c-0.7-0.1-1.3-0.3-2-0.4
	c-0.7-0.1-1.3-0.2-1.9-0.3c-0.6-0.1-1.2-0.2-1.8-0.2c-0.3,0-0.6-0.1-0.8-0.1c-0.3,0-0.5,0-0.8-0.1c-0.5,0-1-0.1-1.4-0.1
	c-0.4,0-0.8,0-1.1,0c-0.6,0-0.9,0-0.9,0s0.3,0,0.9,0c0.3,0,0.7,0,1.1,0c0.4,0,0.9,0,1.4,0c0.3,0,0.5,0,0.8,0c0.3,0,0.6,0,0.9,0.1
	c0.6,0.1,1.2,0.1,1.8,0.2c0.6,0.1,1.3,0.2,1.9,0.3c0.7,0.1,1.3,0.3,2,0.4c0.3,0.1,0.7,0.2,1,0.3c0.2,0,0.3,0.1,0.5,0.1l0.2,0.1
	l0.2,0.1c0.6,0.2,1.3,0.4,1.9,0.7c0.3,0.1,0.6,0.2,0.9,0.3c0.3,0.1,0.6,0.2,0.8,0.4c0.1,0.1,0.3,0.1,0.4,0.2
	c0.1,0.1,0.3,0.1,0.4,0.2c0.2,0.1,0.5,0.2,0.7,0.4c0.5,0.2,0.9,0.5,1.2,0.7c0.4,0.2,0.7,0.4,0.9,0.6c0.2,0.2,0.4,0.3,0.6,0.4
	C-338,65.3-337.9,65.3-337.9,65.3z"/>
<path class="st6" d="M-337.9,59.8"/>
<path class="st5" d="M-337.9,59.8c0,0-0.1,0-0.2-0.1c-0.1-0.1-0.4-0.1-0.6-0.2c-0.3-0.1-0.6-0.2-1-0.3c-0.4-0.1-0.8-0.3-1.3-0.4
	c-0.5-0.2-1-0.3-1.6-0.5c-0.6-0.2-1.1-0.3-1.8-0.5c-0.6-0.2-1.2-0.3-1.9-0.5c-0.6-0.1-1.3-0.3-2-0.4c-0.3-0.1-0.7-0.1-1-0.2
	c-0.3-0.1-0.7-0.1-1-0.2c-0.3-0.1-0.6-0.1-1-0.2c-0.3,0-0.6-0.1-0.9-0.1c-0.3,0-0.6-0.1-0.9-0.1c-0.3,0-0.6-0.1-0.9-0.1
	c-0.6-0.1-1.1-0.1-1.6-0.2c-0.5,0-1-0.1-1.4-0.1c-0.4,0-0.8,0-1.1,0c-0.6,0-0.9,0-0.9,0s0.3,0,0.9,0c0.3,0,0.7,0,1.1,0
	c0.4,0,0.9,0,1.4,0.1c0.3,0,0.5,0,0.8,0c0.3,0,0.6,0,0.8,0.1c0.3,0,0.6,0.1,0.9,0.1c0.3,0,0.6,0.1,0.9,0.1c0.3,0,0.6,0.1,1,0.1
	c0.3,0.1,0.6,0.1,1,0.2c0.3,0.1,0.7,0.1,1,0.2c0.3,0.1,0.7,0.1,1,0.2c0.7,0.1,1.3,0.3,2,0.5c0.3,0.1,0.6,0.2,1,0.3
	c0.3,0.1,0.6,0.2,0.9,0.3c0.6,0.2,1.2,0.3,1.7,0.5c0.3,0.1,0.5,0.2,0.8,0.3c0.3,0.1,0.5,0.2,0.7,0.3c0.5,0.2,0.9,0.3,1.3,0.5
	c0.4,0.2,0.7,0.3,1,0.4c0.3,0.1,0.5,0.2,0.6,0.3C-338,59.8-337.9,59.8-337.9,59.8z"/>
<path class="st6" d="M-367.9,55.5"/>
<g>
	<path class="st7" d="M-367.4,55.5l6.6,0.1c0,0,1.2,0.2-0.9,2.4c-2.1,2.2-2.4,2.4-2.4,2.4l-2.5-2.5C-366.6,58-369,55.7-367.4,55.5z"
		/>
	<path class="st5" d="M-364.1,60.5l-2.6-2.5c-0.1-0.1-1.6-1.4-1.4-2.2c0.1-0.2,0.3-0.4,0.6-0.4l6.6,0.1c0,0,0.3,0,0.4,0.3
		c0.1,0.4-0.3,1.2-1.2,2.2C-363.7,60.3-364,60.5-364.1,60.5L-364.1,60.5z M-367.4,55.6c-0.3,0-0.5,0.1-0.5,0.3
		c-0.1,0.5,0.9,1.6,1.3,2l2.5,2.4c0.1-0.1,0.6-0.6,2.3-2.3c1.2-1.3,1.3-1.8,1.2-2c-0.1-0.2-0.3-0.2-0.3-0.2L-367.4,55.6z"/>
</g>
<text transform="matrix(0.6973 0 0 1 -318.8994 46.4157)" class="st14"><tspan x="0" y="0" class="st15 st16">Calcula el perimetro de la </tspan><tspan x="0" y="30.4" class="st15 st16">siguiente figura:</tspan></text>
<text transform="matrix(1 0 0 1 -152.7313 290.733)" class="st15" style="font-size:23.0305px;">¡Éxitos!</text>
<polygon class="st9" points="-320.5,146 -280.7,120.7 -173.4,120.7 -133.5,161.3 -132.3,192.6 -266.2,227.7 -302.6,196.1 "/>
<text transform="matrix(0.966 -0.2586 0.2586 0.966 -206.6797 227.1795)" class="st25" style="font-size:12px;">8 cm</text>
<text transform="matrix(1 0 0 1 -127.6671 180.5194)" class="st25" style="font-size:12px;">1 cm</text>
<text transform="matrix(0.6878 -0.7259 0.7259 0.6878 -304.7407 234.2207)" class="st25" style="font-size:9.1532px;">1.5 cm</text>
<text transform="matrix(0.9055 -0.4243 0.4243 0.9055 -339.9878 190.6829)" class="st25" style="font-size:10.2717px;">1.5 cm</text>
<text transform="matrix(0.8267 -0.5627 0.5627 0.8267 -318.8996 140.3134)" class="st25" style="font-size:12px;">2 cm</text>
<text transform="matrix(0.7626 -0.6468 0.6468 0.7626 -147.8324 141.1008)" class="st25" style="font-size:12px;">2 cm</text>
<text transform="matrix(1 0 0 1 -236.3331 116.8524)" class="st25" style="font-size:12px;">5 cm</text>
<line class="st9" x1="-331.8" y1="149" x2="-324.2" y2="174.7"/>
<line class="st9" x1="-321" y1="185.7" x2="-316.7" y2="200.4"/>
<line class="st9" x1="-314" y1="208.2" x2="-302.7" y2="220.5"/>
<line class="st9" x1="-296.7" y1="227" x2="-285.4" y2="239.3"/>
<line class="st9" x1="-210.1" y1="223.5" x2="-262.6" y2="237.8"/>
<line class="st9" x1="-128.7" y1="202" x2="-181.2" y2="216.3"/>
<line class="st9" x1="-117.3" y1="159.6" x2="-116.2" y2="173"/>
<line class="st9" x1="-115.2" y1="183" x2="-114.5" y2="192.5"/>
<line class="st9" x1="-162.6" y1="111" x2="-145.5" y2="127.4"/>
<line class="st9" x1="-137.5" y1="135.5" x2="-123.6" y2="150"/>
<line class="st9" x1="-324.4" y1="140.3" x2="-321.3" y2="138"/>
<line class="st9" x1="-300.1" y1="124.1" x2="-285" y2="114.9"/>
<line class="st9" x1="-236.3" y1="112.8" x2="-281" y2="112.8"/>
<line class="st9" x1="-211.6" y1="112.8" x2="-175" y2="112.8"/>
<path class="st0" d="M-57-947.5c0,8.6-5.9,15.5-13.3,15.5h-321.1c-7.3,0-13.3-6.9-13.3-15.5v-270c0-8.6,5.9-15.5,13.3-15.5h321.1
	c7.3,0,13.3,6.9,13.3,15.5L-57-947.5L-57-947.5z"/>
<linearGradient id="SVGID_8_" gradientUnits="userSpaceOnUse" x1="-229.9087" y1="-1786.4521" x2="-230.4754" y2="-1857.031" gradientTransform="matrix(1 0 0 -1 0 -3006.9612)">
	<stop  offset="4.600000e-02" style="stop-color:#00CD00"/>
	<stop  offset="1" style="stop-color:#FFFFFF"/>
</linearGradient>
<path class="st19" d="M-67.3-958.5c0,8.6-5.9,15.5-13.3,15.5h-300.8c-7.3,0-13.3-7-13.3-15.5v-247.7c0-8.6,5.9-15.5,13.3-15.5h300.8
	c7.3,0,13.3,7,13.3,15.5V-958.5z"/>
<g>
	<ellipse class="st2" cx="-372" cy="-1204.1" rx="5.2" ry="10.9"/>
	<path class="st3" d="M-372-1193.1c-2.9,0-5.3-4.9-5.3-11c0-6,2.4-11,5.3-11s5.3,4.9,5.3,11C-366.8-1198-369.1-1193.1-372-1193.1z
		 M-372-1214.8c-2.8,0-5.1,4.8-5.1,10.8c0,5.9,2.3,10.8,5.1,10.8c2.8,0,5.1-4.8,5.1-10.8C-367-1210-369.2-1214.8-372-1214.8z"/>
</g>
<g>
	<ellipse cx="-372" cy="-1204.1" rx="2.6" ry="2.8"/>
	<path class="st3" d="M-372-1201.2c-1.5,0-2.7-1.3-2.7-2.9c0-1.6,1.2-2.9,2.7-2.9c1.5,0,2.7,1.3,2.7,2.9
		C-369.4-1202.5-370.5-1201.2-372-1201.2z M-372-1206.7c-1.4,0-2.5,1.2-2.5,2.7c0,1.5,1.1,2.7,2.5,2.7c1.4,0,2.5-1.2,2.5-2.7
		C-369.6-1205.5-370.7-1206.7-372-1206.7z"/>
</g>
<g>
	<ellipse class="st4" cx="-356" cy="-1204.1" rx="5.2" ry="10.9"/>
	<path class="st3" d="M-356-1193.2c-2.9,0-5.3-4.9-5.3-11s2.4-11,5.3-11c2.9,0,5.3,4.9,5.3,11S-353.1-1193.2-356-1193.2z
		 M-356-1214.9c-2.8,0-5.1,4.8-5.1,10.8c0,5.9,2.3,10.8,5.1,10.8c2.8,0,5.1-4.8,5.1-10.8C-350.9-1210.1-353.2-1214.9-356-1214.9z"/>
</g>
<g>
	<ellipse cx="-356.2" cy="-1204.2" rx="2.6" ry="2.8"/>
	<path class="st3" d="M-356.2-1201.3c-1.5,0-2.7-1.3-2.7-2.9c0-1.6,1.2-2.9,2.7-2.9c1.5,0,2.7,1.3,2.7,2.9
		C-353.5-1202.6-354.7-1201.3-356.2-1201.3z M-356.2-1206.8c-1.4,0-2.5,1.2-2.5,2.7c0,1.5,1.1,2.7,2.5,2.7c1.4,0,2.5-1.2,2.5-2.7
		C-353.7-1205.6-354.9-1206.8-356.2-1206.8z"/>
</g>
<path class="st5" d="M-390.2-1176.7c0,0,0.1,0,0.2-0.1c0.1-0.1,0.3-0.2,0.6-0.3c0.3-0.1,0.6-0.3,1-0.5c0.4-0.2,0.8-0.4,1.3-0.6
	c0.2-0.1,0.5-0.2,0.7-0.3c0.3-0.1,0.5-0.2,0.8-0.3c0.5-0.2,1.1-0.4,1.7-0.6c0.3-0.1,0.6-0.2,0.9-0.3c0.3-0.1,0.6-0.2,0.9-0.3
	c0.6-0.2,1.3-0.4,1.9-0.6c0.3-0.1,0.7-0.2,1-0.3c0.3-0.1,0.7-0.2,1-0.2c0.3-0.1,0.6-0.1,1-0.2c0.3-0.1,0.6-0.1,0.9-0.2
	c0.3-0.1,0.6-0.1,0.9-0.2c0.3,0,0.6-0.1,0.9-0.1c0.3,0,0.6-0.1,0.8-0.1c0.3,0,0.5-0.1,0.8-0.1c0.5,0,1-0.1,1.4-0.1
	c0.4,0,0.8,0,1.1,0c0.6,0,0.9,0,0.9,0s-0.3,0-0.9,0.1c-0.3,0-0.6,0.1-1.1,0.1c-0.4,0.1-0.9,0.1-1.4,0.2c-0.5,0.1-1,0.2-1.6,0.3
	c-0.3,0-0.6,0.1-0.9,0.2c-0.3,0.1-0.6,0.1-0.9,0.2c-0.3,0.1-0.6,0.1-0.9,0.2c-0.3,0.1-0.6,0.2-1,0.2c-0.3,0.1-0.6,0.2-1,0.2
	c-0.3,0.1-0.6,0.2-1,0.3c-0.7,0.2-1.3,0.4-1.9,0.6c-0.6,0.2-1.3,0.4-1.9,0.6c-0.3,0.1-0.6,0.2-0.9,0.3c-0.3,0.1-0.6,0.2-0.8,0.3
	c-0.3,0.1-0.5,0.2-0.8,0.3c-0.3,0.1-0.5,0.2-0.7,0.3c-0.5,0.2-0.9,0.4-1.3,0.5c-0.4,0.2-0.7,0.3-1,0.4c-0.3,0.1-0.5,0.2-0.6,0.3
	C-390.1-1176.7-390.2-1176.7-390.2-1176.7z"/>
<path class="st5" d="M-390.5-1182.2c0,0,0.1,0,0.2-0.1c0.1-0.1,0.4-0.1,0.6-0.2c0.6-0.2,1.4-0.5,2.3-0.8c0.5-0.2,1-0.3,1.6-0.5
	c0.3-0.1,0.6-0.2,0.9-0.2c0.3-0.1,0.6-0.2,0.9-0.2c0.6-0.2,1.2-0.3,1.9-0.5c0.6-0.2,1.3-0.3,2-0.5c0.7-0.1,1.3-0.3,2-0.4
	c0.3-0.1,0.6-0.1,1-0.2c0.3-0.1,0.6-0.1,1-0.2c0.3,0,0.6-0.1,0.9-0.1c0.3,0,0.6-0.1,0.9-0.1c0.6-0.1,1.1-0.1,1.6-0.2
	c0.5,0,1-0.1,1.4-0.1c0.2,0,0.4,0,0.6,0c0.2,0,0.3,0,0.5,0c0.6,0,0.9,0,0.9,0s-0.3,0-0.9,0.1c-0.1,0-0.3,0-0.5,0
	c-0.2,0-0.4,0-0.6,0.1c-0.4,0-0.9,0.1-1.4,0.2c-0.5,0.1-1,0.1-1.6,0.2c-0.3,0-0.6,0.1-0.9,0.1c-0.3,0.1-0.6,0.1-0.9,0.2
	c-0.6,0.1-1.3,0.2-1.9,0.4c-0.7,0.1-1.3,0.3-2,0.4c-0.7,0.2-1.3,0.3-2,0.4c-0.6,0.2-1.3,0.3-1.9,0.5c-0.3,0.1-0.6,0.2-0.9,0.2
	c-0.3,0.1-0.6,0.2-0.9,0.2c-0.6,0.1-1.1,0.3-1.6,0.4c-1,0.3-1.8,0.5-2.4,0.7C-390.2-1182.3-390.5-1182.2-390.5-1182.2z"/>
<path class="st5" d="M-337.9-1176.7c0,0-0.1-0.1-0.2-0.1c-0.1-0.1-0.3-0.2-0.6-0.4c-0.3-0.2-0.6-0.3-0.9-0.5
	c-0.4-0.2-0.8-0.4-1.2-0.6c-0.2-0.1-0.5-0.2-0.7-0.3c-0.1-0.1-0.3-0.1-0.4-0.2c-0.1-0.1-0.3-0.1-0.4-0.2c-0.3-0.1-0.5-0.2-0.8-0.3
	c-0.3-0.1-0.6-0.2-0.9-0.3c-0.6-0.2-1.2-0.4-1.9-0.6l-0.2-0.1l-0.2-0.1c-0.2,0-0.3-0.1-0.5-0.1c-0.3-0.1-0.7-0.2-1-0.3
	c-0.7-0.1-1.3-0.3-2-0.4c-0.7-0.1-1.3-0.2-1.9-0.3c-0.6-0.1-1.2-0.2-1.8-0.2c-0.3,0-0.6-0.1-0.8-0.1c-0.3,0-0.5,0-0.8-0.1
	c-0.5,0-1-0.1-1.4-0.1c-0.4,0-0.8,0-1.1,0c-0.6,0-0.9,0-0.9,0s0.3,0,0.9,0c0.3,0,0.7,0,1.1,0c0.4,0,0.9,0,1.4,0c0.3,0,0.5,0,0.8,0
	c0.3,0,0.6,0,0.9,0.1c0.6,0.1,1.2,0.1,1.8,0.2c0.6,0.1,1.3,0.2,1.9,0.3c0.7,0.1,1.3,0.3,2,0.4c0.3,0.1,0.7,0.2,1,0.3
	c0.2,0,0.3,0.1,0.5,0.1l0.2,0.1l0.2,0.1c0.6,0.2,1.3,0.4,1.9,0.7c0.3,0.1,0.6,0.2,0.9,0.3c0.3,0.1,0.6,0.2,0.8,0.4
	c0.1,0.1,0.3,0.1,0.4,0.2c0.1,0.1,0.3,0.1,0.4,0.2c0.2,0.1,0.5,0.2,0.7,0.4c0.5,0.2,0.9,0.5,1.2,0.7c0.4,0.2,0.7,0.4,0.9,0.6
	c0.2,0.2,0.4,0.3,0.6,0.4C-338-1176.7-337.9-1176.7-337.9-1176.7z"/>
<path class="st6" d="M-337.9-1182.2"/>
<path class="st5" d="M-337.9-1182.2c0,0-0.1,0-0.2-0.1c-0.1-0.1-0.4-0.1-0.6-0.2c-0.3-0.1-0.6-0.2-1-0.3c-0.4-0.1-0.8-0.3-1.3-0.4
	c-0.5-0.2-1-0.3-1.6-0.5c-0.6-0.2-1.1-0.3-1.8-0.5c-0.6-0.2-1.2-0.3-1.9-0.5c-0.6-0.1-1.3-0.3-2-0.4c-0.3-0.1-0.7-0.1-1-0.2
	c-0.3-0.1-0.7-0.1-1-0.2c-0.3-0.1-0.6-0.1-1-0.2c-0.3-0.1-0.6-0.1-0.9-0.1c-0.3,0-0.6-0.1-0.9-0.1c-0.3,0-0.6-0.1-0.9-0.1
	c-0.6-0.1-1.1-0.1-1.6-0.2c-0.5,0-1-0.1-1.4-0.1c-0.4,0-0.8,0-1.1,0c-0.6,0-0.9,0-0.9,0s0.3,0,0.9,0c0.3,0,0.7,0,1.1,0
	c0.4,0,0.9,0,1.4,0.1c0.3,0,0.5,0,0.8,0c0.3,0,0.6,0,0.8,0.1c0.3,0,0.6,0.1,0.9,0.1c0.3,0,0.6,0.1,0.9,0.1c0.3,0,0.6,0.1,1,0.1
	c0.3,0.1,0.6,0.1,1,0.2c0.3,0.1,0.7,0.1,1,0.2c0.3,0.1,0.7,0.1,1,0.2c0.7,0.1,1.3,0.3,2,0.5c0.3,0.1,0.6,0.2,1,0.3
	c0.3,0.1,0.6,0.2,0.9,0.3c0.6,0.2,1.2,0.3,1.7,0.5c0.3,0.1,0.5,0.2,0.8,0.3c0.3,0.1,0.5,0.2,0.7,0.3c0.5,0.2,0.9,0.3,1.3,0.5
	c0.4,0.2,0.7,0.3,1,0.4c0.3,0.1,0.5,0.2,0.6,0.3C-338-1182.2-337.9-1182.2-337.9-1182.2z"/>
<path class="st6" d="M-367.9-1186.5"/>
<g>
	<path class="st7" d="M-367.4-1186.5l6.6,0.1c0,0,1.2,0.2-0.9,2.4c-2.1,2.2-2.4,2.4-2.4,2.4l-2.5-2.5
		C-366.6-1184-369-1186.3-367.4-1186.5z"/>
	<path class="st5" d="M-364.1-1181.5l-2.6-2.5c-0.1-0.1-1.6-1.4-1.4-2.2c0.1-0.2,0.3-0.4,0.6-0.4l6.6,0.1c0,0,0.3,0,0.4,0.3
		c0.1,0.4-0.3,1.2-1.2,2.2C-363.7-1181.7-364-1181.5-364.1-1181.5L-364.1-1181.5z M-367.4-1186.4c-0.3,0-0.5,0.1-0.5,0.3
		c-0.1,0.5,0.9,1.6,1.3,2l2.5,2.4c0.1-0.1,0.6-0.6,2.3-2.3c1.2-1.3,1.3-1.8,1.2-2c-0.1-0.2-0.3-0.2-0.3-0.2L-367.4-1186.4z"/>
</g>
<text transform="matrix(0.6973 0 0 1 -318.8994 -1195.5844)" class="st14"><tspan x="0" y="0" class="st15 st16">Calcula el perimetro de la </tspan><tspan x="0" y="30.4" class="st15 st16">siguiente figura:</tspan></text>
<text transform="matrix(1 0 0 1 -152.7313 -951.267)" class="st15" style="font-size:23.0305px;">¡Éxitos!</text>
<polygon class="st9" points="-320.5,-1096 -280.7,-1121.3 -173.4,-1121.3 -133.5,-1080.7 -132.3,-1049.4 -266.2,-1014.3 
	-302.6,-1045.9 "/>
<text transform="matrix(0.966 -0.2586 0.2586 0.966 -206.6799 -1014.8205)" class="st25" style="font-size:12px;">8 cm</text>
<text transform="matrix(1 0 0 1 -127.6671 -1061.4806)" class="st25" style="font-size:12px;">1 cm</text>
<text transform="matrix(0.6878 -0.7259 0.7259 0.6878 -304.7407 -1007.7792)" class="st25" style="font-size:9.1532px;">1.5 cm</text>
<text transform="matrix(0.9055 -0.4243 0.4243 0.9055 -339.9878 -1051.317)" class="st25" style="font-size:10.2717px;">1.5 cm</text>
<text transform="matrix(0.8267 -0.5627 0.5627 0.8267 -318.8999 -1101.6865)" class="st25" style="font-size:12px;">2 cm</text>
<text transform="matrix(0.7626 -0.6468 0.6468 0.7626 -147.8326 -1100.8992)" class="st25" style="font-size:12px;">2 cm</text>
<text transform="matrix(1 0 0 1 -236.3331 -1125.1476)" class="st25" style="font-size:12px;">5 cm</text>
<line class="st9" x1="-331.8" y1="-1093" x2="-324.2" y2="-1067.3"/>
<line class="st9" x1="-321" y1="-1056.3" x2="-316.7" y2="-1041.6"/>
<line class="st9" x1="-314" y1="-1033.8" x2="-302.7" y2="-1021.5"/>
<line class="st9" x1="-296.7" y1="-1015" x2="-285.4" y2="-1002.7"/>
<line class="st9" x1="-207.9" y1="-1018.5" x2="-260.4" y2="-1004.2"/>
<line class="st9" x1="-128.7" y1="-1040" x2="-181.2" y2="-1025.7"/>
<line class="st9" x1="-117.3" y1="-1082.4" x2="-116.2" y2="-1069"/>
<line class="st9" x1="-115.2" y1="-1059" x2="-114.5" y2="-1049.5"/>
<line class="st9" x1="-162.6" y1="-1131" x2="-145.5" y2="-1114.6"/>
<line class="st9" x1="-137.5" y1="-1106.5" x2="-123.6" y2="-1092"/>
<line class="st9" x1="-324.4" y1="-1101.7" x2="-321.3" y2="-1104"/>
<line class="st9" x1="-300.1" y1="-1117.9" x2="-285" y2="-1127.1"/>
<line class="st9" x1="-236.3" y1="-1129.2" x2="-281" y2="-1129.2"/>
<line class="st9" x1="-211.6" y1="-1129.2" x2="-175" y2="-1129.2"/>
<path class="st0" d="M357-101.5c0,8.6-5.9,15.5-13.3,15.5H22.6C15.3-86,9.3-93,9.3-101.5v-270c0-8.6,5.9-15.5,13.3-15.5h321.1
	c7.3,0,13.3,6.9,13.3,15.5L357-101.5L357-101.5z"/>
<linearGradient id="SVGID_9_" gradientUnits="userSpaceOnUse" x1="184.0913" y1="-2632.4099" x2="183.5246" y2="-2702.9888" gradientTransform="matrix(1 0 0 -1 0 -3006.9612)">
	<stop  offset="4.600000e-02" style="stop-color:#00CD00"/>
	<stop  offset="1" style="stop-color:#FFFFFF"/>
</linearGradient>
<path class="st20" d="M346.7-112.6c0,8.6-5.9,15.5-13.3,15.5H32.6c-7.3,0-13.3-7-13.3-15.5v-247.7c0-8.6,5.9-15.5,13.3-15.5h300.8
	c7.3,0,13.3,7,13.3,15.5V-112.6z"/>
<g>
	<ellipse class="st2" cx="42" cy="-358.1" rx="5.2" ry="10.9"/>
	<path class="st3" d="M42-347.2c-2.9,0-5.3-4.9-5.3-11c0-6,2.4-11,5.3-11s5.3,4.9,5.3,11C47.2-352.1,44.9-347.2,42-347.2z M42-368.9
		c-2.8,0-5.1,4.8-5.1,10.8c0,5.9,2.3,10.8,5.1,10.8c2.8,0,5.1-4.8,5.1-10.8C47-364.1,44.8-368.9,42-368.9z"/>
</g>
<g>
	<ellipse cx="42" cy="-358.1" rx="2.6" ry="2.8"/>
	<path class="st3" d="M42-355.2c-1.5,0-2.7-1.3-2.7-2.9c0-1.6,1.2-2.9,2.7-2.9c1.5,0,2.7,1.3,2.7,2.9
		C44.6-356.5,43.5-355.2,42-355.2z M42-360.8c-1.4,0-2.5,1.2-2.5,2.7c0,1.5,1.1,2.7,2.5,2.7c1.4,0,2.5-1.2,2.5-2.7
		C44.4-359.6,43.3-360.8,42-360.8z"/>
</g>
<g>
	<ellipse class="st4" cx="58" cy="-358.2" rx="5.2" ry="10.9"/>
	<path class="st3" d="M58-347.2c-2.9,0-5.3-4.9-5.3-11c0-6,2.4-11,5.3-11c2.9,0,5.3,4.9,5.3,11C63.3-352.1,60.9-347.2,58-347.2z
		 M58-368.9c-2.8,0-5.1,4.8-5.1,10.8c0,5.9,2.3,10.8,5.1,10.8c2.8,0,5.1-4.8,5.1-10.8C63.1-364.1,60.8-368.9,58-368.9z"/>
</g>
<g>
	<ellipse cx="57.8" cy="-358.2" rx="2.6" ry="2.8"/>
	<path class="st3" d="M57.8-355.3c-1.5,0-2.7-1.3-2.7-2.9c0-1.6,1.2-2.9,2.7-2.9c1.5,0,2.7,1.3,2.7,2.9
		C60.5-356.6,59.3-355.3,57.8-355.3z M57.8-360.9c-1.4,0-2.5,1.2-2.5,2.7c0,1.5,1.1,2.7,2.5,2.7c1.4,0,2.5-1.2,2.5-2.7
		C60.3-359.7,59.1-360.9,57.8-360.9z"/>
</g>
<path class="st5" d="M23.8-330.7c0,0,0.1,0,0.2-0.1c0.1-0.1,0.3-0.2,0.6-0.3c0.3-0.1,0.6-0.3,1-0.5c0.4-0.2,0.8-0.4,1.3-0.6
	c0.2-0.1,0.5-0.2,0.7-0.3c0.3-0.1,0.5-0.2,0.8-0.3c0.5-0.2,1.1-0.4,1.7-0.6c0.3-0.1,0.6-0.2,0.9-0.3c0.3-0.1,0.6-0.2,0.9-0.3
	c0.6-0.2,1.3-0.4,1.9-0.6c0.3-0.1,0.7-0.2,1-0.3c0.3-0.1,0.7-0.2,1-0.2c0.3-0.1,0.6-0.1,1-0.2c0.3-0.1,0.6-0.1,0.9-0.2
	c0.3-0.1,0.6-0.1,0.9-0.2c0.3,0,0.6-0.1,0.9-0.1c0.3,0,0.6-0.1,0.8-0.1c0.3,0,0.5-0.1,0.8-0.1c0.5,0,1-0.1,1.4-0.1
	c0.4,0,0.8,0,1.1,0c0.6,0,0.9,0,0.9,0s-0.3,0-0.9,0.1c-0.3,0-0.6,0.1-1.1,0.1c-0.4,0.1-0.9,0.1-1.4,0.2c-0.5,0.1-1,0.2-1.6,0.3
	c-0.3,0.1-0.6,0.1-0.9,0.2c-0.3,0.1-0.6,0.1-0.9,0.2c-0.3,0.1-0.6,0.1-0.9,0.2c-0.3,0.1-0.6,0.2-1,0.2c-0.3,0.1-0.6,0.2-1,0.2
	c-0.3,0.1-0.6,0.2-1,0.3c-0.7,0.2-1.3,0.4-1.9,0.6c-0.6,0.2-1.3,0.4-1.9,0.6c-0.3,0.1-0.6,0.2-0.9,0.3c-0.3,0.1-0.6,0.2-0.8,0.3
	c-0.3,0.1-0.5,0.2-0.8,0.3c-0.3,0.1-0.5,0.2-0.7,0.3c-0.5,0.2-0.9,0.4-1.3,0.5c-0.4,0.2-0.7,0.3-1,0.4c-0.3,0.1-0.5,0.2-0.6,0.3
	C23.9-330.7,23.8-330.7,23.8-330.7z"/>
<path class="st5" d="M23.5-336.2c0,0,0.1,0,0.2-0.1c0.1-0.1,0.4-0.1,0.6-0.2c0.6-0.2,1.4-0.5,2.3-0.8c0.5-0.1,1-0.3,1.6-0.5
	c0.3-0.1,0.6-0.2,0.9-0.2c0.3-0.1,0.6-0.2,0.9-0.2c0.6-0.2,1.2-0.3,1.9-0.5c0.6-0.2,1.3-0.3,2-0.5c0.7-0.1,1.3-0.3,2-0.4
	c0.3-0.1,0.7-0.1,1-0.2c0.3-0.1,0.6-0.1,1-0.2c0.3,0,0.6-0.1,0.9-0.1c0.3,0,0.6-0.1,0.9-0.1c0.6-0.1,1.1-0.1,1.6-0.2
	c0.5,0,1-0.1,1.4-0.1c0.2,0,0.4,0,0.6,0c0.2,0,0.3,0,0.5,0c0.6,0,0.9,0,0.9,0s-0.3,0-0.9,0.1c-0.1,0-0.3,0-0.5,0
	c-0.2,0-0.4,0-0.6,0.1c-0.4,0-0.9,0.1-1.4,0.2c-0.5,0.1-1,0.1-1.6,0.2c-0.3,0-0.6,0.1-0.9,0.1c-0.3,0-0.6,0.1-0.9,0.2
	c-0.6,0.1-1.3,0.2-1.9,0.4c-0.7,0.1-1.3,0.3-2,0.4c-0.7,0.1-1.3,0.3-2,0.4c-0.6,0.2-1.3,0.3-1.9,0.5c-0.3,0.1-0.6,0.2-0.9,0.2
	c-0.3,0.1-0.6,0.2-0.9,0.2c-0.6,0.1-1.1,0.3-1.6,0.4c-1,0.3-1.8,0.5-2.4,0.7C23.8-336.3,23.5-336.2,23.5-336.2z"/>
<path class="st5" d="M76.1-330.7c0,0-0.1-0.1-0.2-0.1c-0.1-0.1-0.3-0.2-0.6-0.4c-0.3-0.2-0.6-0.3-0.9-0.5c-0.4-0.2-0.8-0.4-1.2-0.6
	c-0.2-0.1-0.5-0.2-0.7-0.3c-0.1-0.1-0.3-0.1-0.4-0.2c-0.1-0.1-0.3-0.1-0.4-0.2c-0.3-0.1-0.5-0.2-0.8-0.3c-0.3-0.1-0.6-0.2-0.9-0.3
	c-0.6-0.2-1.2-0.4-1.9-0.6l-0.2-0.1l-0.2-0.1c-0.2,0-0.3-0.1-0.5-0.1c-0.3-0.1-0.7-0.2-1-0.3c-0.7-0.1-1.3-0.3-2-0.4
	c-0.7-0.1-1.3-0.2-1.9-0.3c-0.6-0.1-1.2-0.2-1.8-0.2c-0.3,0-0.6-0.1-0.8-0.1c-0.3,0-0.5,0-0.8-0.1c-0.5,0-1-0.1-1.4-0.1
	c-0.4,0-0.8,0-1.1,0c-0.6,0-0.9,0-0.9,0s0.3,0,0.9,0c0.3,0,0.7,0,1.1,0c0.4,0,0.9,0,1.4,0c0.3,0,0.5,0,0.8,0c0.3,0,0.6,0,0.9,0.1
	c0.6,0.1,1.2,0.1,1.8,0.2c0.6,0.1,1.3,0.2,1.9,0.3c0.7,0.1,1.3,0.3,2,0.4c0.3,0.1,0.7,0.2,1,0.3c0.2,0,0.3,0.1,0.5,0.1l0.2,0.1
	l0.2,0.1c0.6,0.2,1.3,0.4,1.9,0.6c0.3,0.1,0.6,0.2,0.9,0.3c0.3,0.1,0.6,0.2,0.8,0.4c0.1,0.1,0.3,0.1,0.4,0.2
	c0.1,0.1,0.3,0.1,0.4,0.2c0.2,0.1,0.5,0.2,0.7,0.4c0.5,0.2,0.9,0.5,1.2,0.7c0.4,0.2,0.7,0.4,0.9,0.6c0.2,0.2,0.4,0.3,0.6,0.4
	C76-330.8,76.1-330.7,76.1-330.7z"/>
<path class="st6" d="M76.1-336.2"/>
<path class="st5" d="M76.1-336.2c0,0-0.1,0-0.2-0.1c-0.1-0.1-0.4-0.1-0.6-0.2c-0.3-0.1-0.6-0.2-1-0.3c-0.4-0.1-0.8-0.3-1.3-0.4
	c-0.5-0.2-1-0.3-1.6-0.5c-0.6-0.2-1.1-0.3-1.8-0.5c-0.6-0.2-1.2-0.3-1.9-0.5c-0.6-0.1-1.3-0.3-2-0.4c-0.3-0.1-0.7-0.1-1-0.2
	c-0.3-0.1-0.7-0.1-1-0.2c-0.3-0.1-0.6-0.1-1-0.2c-0.3,0-0.6-0.1-0.9-0.1c-0.3,0-0.6-0.1-0.9-0.1c-0.3,0-0.6-0.1-0.9-0.1
	c-0.6-0.1-1.1-0.1-1.6-0.2c-0.5,0-1-0.1-1.4-0.1c-0.4,0-0.8,0-1.1,0c-0.6,0-0.9,0-0.9,0s0.3,0,0.9,0c0.3,0,0.7,0,1.1,0
	c0.4,0,0.9,0,1.4,0.1c0.3,0,0.5,0,0.8,0c0.3,0,0.6,0,0.8,0.1c0.3,0,0.6,0.1,0.9,0.1c0.3,0,0.6,0.1,0.9,0.1c0.3,0,0.6,0.1,1,0.1
	c0.3,0.1,0.6,0.1,1,0.2c0.3,0.1,0.7,0.1,1,0.2c0.3,0.1,0.7,0.1,1,0.2c0.7,0.1,1.3,0.3,2,0.5c0.3,0.1,0.6,0.2,1,0.3
	c0.3,0.1,0.6,0.2,0.9,0.3c0.6,0.2,1.2,0.3,1.7,0.5c0.3,0.1,0.5,0.2,0.8,0.3c0.3,0.1,0.5,0.2,0.7,0.3c0.5,0.2,0.9,0.3,1.3,0.5
	c0.4,0.2,0.7,0.3,1,0.4c0.3,0.1,0.5,0.2,0.6,0.3C76-336.3,76.1-336.2,76.1-336.2z"/>
<path class="st6" d="M46.1-340.5"/>
<g>
	<path class="st7" d="M46.6-340.5l6.6,0.1c0,0,1.2,0.1-0.9,2.4c-2.1,2.2-2.4,2.4-2.4,2.4l-2.5-2.5C47.4-338.1,45-340.3,46.6-340.5z"
		/>
	<path class="st5" d="M49.9-335.5l-2.6-2.5c-0.1-0.1-1.6-1.4-1.4-2.2c0.1-0.2,0.3-0.4,0.6-0.4l6.6,0.1c0,0,0.3,0,0.4,0.3
		c0.1,0.4-0.3,1.2-1.2,2.2C50.3-335.7,50-335.6,49.9-335.5L49.9-335.5z M46.6-340.5c-0.3,0-0.5,0.1-0.5,0.3c-0.2,0.5,0.9,1.6,1.3,2
		l2.5,2.4c0.1-0.1,0.6-0.6,2.3-2.4c1.2-1.3,1.3-1.8,1.2-2c-0.1-0.2-0.3-0.2-0.3-0.2L46.6-340.5z"/>
</g>
<text transform="matrix(0.6973 0 0 1 95.1013 -349.6274)" class="st14"><tspan x="0" y="0" class="st15 st16">Calcula el perimetro de la </tspan><tspan x="0" y="30.4" class="st15 st16">siguiente figura:</tspan></text>
<text transform="matrix(1 0 0 1 261.2685 -105.3098)" class="st15" style="font-size:23.0305px;">¡Éxitos!</text>
<g>
	<line class="st21" x1="182.1" y1="-163" x2="182.1" y2="-252.5"/>
	<g>
		<path class="st9" d="M271.6-163c0-49.4-40.1-89.5-89.5-89.5S92.6-212.5,92.6-163H271.6z"/>
		<text transform="matrix(6.123234e-17 -1 1 6.123234e-17 176.8494 -172.3585)" class="st25" style="font-size:20.4784px;"> 8 cm</text>
	</g>
</g>
<path class="st0" d="M-56.2-571c0,8.6-5.9,15.5-13.3,15.5h-321.1c-7.3,0-13.3-6.9-13.3-15.5v-270c0-8.6,5.9-15.5,13.3-15.5h321.1
	c7.3,0,13.3,6.9,13.3,15.5L-56.2-571L-56.2-571z"/>
<linearGradient id="SVGID_10_" gradientUnits="userSpaceOnUse" x1="-229.0614" y1="-2162.9333" x2="-229.6281" y2="-2233.5122" gradientTransform="matrix(1 0 0 -1 0 -3006.9612)">
	<stop  offset="4.600000e-02" style="stop-color:#00CD00"/>
	<stop  offset="1" style="stop-color:#FFFFFF"/>
</linearGradient>
<path class="st22" d="M-66.5-582c0,8.6-5.9,15.5-13.3,15.5h-300.8c-7.3,0-13.3-7-13.3-15.5v-247.7c0-8.6,5.9-15.5,13.3-15.5h300.8
	c7.3,0,13.3,7,13.3,15.5V-582z"/>
<g>
	<ellipse class="st2" cx="-371.2" cy="-827.6" rx="5.2" ry="10.9"/>
	<path class="st3" d="M-371.2-816.6c-2.9,0-5.3-4.9-5.3-11c0-6,2.4-11,5.3-11s5.3,4.9,5.3,11C-365.9-821.6-368.3-816.6-371.2-816.6z
		 M-371.2-838.4c-2.8,0-5.1,4.8-5.1,10.8c0,5.9,2.3,10.8,5.1,10.8c2.8,0,5.1-4.8,5.1-10.8C-366.1-833.5-368.4-838.4-371.2-838.4z"/>
</g>
<g>
	<ellipse cx="-371.2" cy="-827.6" rx="2.6" ry="2.8"/>
	<path class="st3" d="M-371.2-824.7c-1.5,0-2.7-1.3-2.7-2.9c0-1.6,1.2-2.9,2.7-2.9c1.5,0,2.7,1.3,2.7,2.9
		C-368.5-826-369.7-824.7-371.2-824.7z M-371.2-830.3c-1.4,0-2.5,1.2-2.5,2.7c0,1.5,1.1,2.7,2.5,2.7c1.4,0,2.5-1.2,2.5-2.7
		C-368.7-829.1-369.8-830.3-371.2-830.3z"/>
</g>
<g>
	<ellipse class="st4" cx="-355.2" cy="-827.6" rx="5.2" ry="10.9"/>
	<path class="st3" d="M-355.2-816.7c-2.9,0-5.3-4.9-5.3-11s2.4-11,5.3-11c2.9,0,5.3,4.9,5.3,11
		C-349.9-821.6-352.2-816.7-355.2-816.7z M-355.2-838.4c-2.8,0-5.1,4.8-5.1,10.8c0,5.9,2.3,10.8,5.1,10.8c2.8,0,5.1-4.8,5.1-10.8
		C-350.1-833.6-352.4-838.4-355.2-838.4z"/>
</g>
<g>
	<ellipse cx="-355.4" cy="-827.7" rx="2.6" ry="2.8"/>
	<path class="st3" d="M-355.4-824.8c-1.5,0-2.7-1.3-2.7-2.9c0-1.6,1.2-2.9,2.7-2.9c1.5,0,2.7,1.3,2.7,2.9
		C-352.7-826.1-353.9-824.8-355.4-824.8z M-355.4-830.3c-1.4,0-2.5,1.2-2.5,2.7c0,1.5,1.1,2.7,2.5,2.7c1.4,0,2.5-1.2,2.5-2.7
		C-352.9-829.2-354-830.3-355.4-830.3z"/>
</g>
<path class="st5" d="M-389.3-800.2c0,0,0.1,0,0.2-0.1c0.1-0.1,0.3-0.2,0.6-0.3c0.3-0.1,0.6-0.3,1-0.5c0.4-0.2,0.8-0.4,1.3-0.6
	c0.2-0.1,0.5-0.2,0.7-0.3c0.3-0.1,0.5-0.2,0.8-0.3c0.5-0.2,1.1-0.4,1.7-0.6c0.3-0.1,0.6-0.2,0.9-0.3c0.3-0.1,0.6-0.2,0.9-0.3
	c0.6-0.2,1.3-0.4,1.9-0.6c0.3-0.1,0.7-0.2,1-0.3c0.3-0.1,0.7-0.2,1-0.2c0.3-0.1,0.6-0.1,1-0.2c0.3-0.1,0.6-0.1,0.9-0.2
	c0.3-0.1,0.6-0.1,0.9-0.2c0.3,0,0.6-0.1,0.9-0.1c0.3,0,0.6-0.1,0.8-0.1c0.3,0,0.5-0.1,0.8-0.1c0.5,0,1-0.1,1.4-0.1
	c0.4,0,0.8,0,1.1,0c0.6,0,0.9,0,0.9,0s-0.3,0-0.9,0.1c-0.3,0-0.6,0.1-1.1,0.1c-0.4,0.1-0.9,0.1-1.4,0.2c-0.5,0.1-1,0.2-1.6,0.3
	c-0.3,0-0.6,0.1-0.9,0.2c-0.3,0.1-0.6,0.1-0.9,0.2c-0.3,0.1-0.6,0.1-0.9,0.2c-0.3,0.1-0.6,0.2-1,0.2c-0.3,0.1-0.6,0.2-1,0.2
	c-0.3,0.1-0.6,0.2-1,0.3c-0.7,0.2-1.3,0.4-1.9,0.6c-0.6,0.2-1.3,0.4-1.9,0.6c-0.3,0.1-0.6,0.2-0.9,0.3c-0.3,0.1-0.6,0.2-0.8,0.3
	c-0.3,0.1-0.5,0.2-0.8,0.3c-0.3,0.1-0.5,0.2-0.7,0.3c-0.5,0.2-0.9,0.4-1.3,0.5c-0.4,0.2-0.7,0.3-1,0.4c-0.3,0.1-0.5,0.2-0.6,0.3
	C-389.2-800.2-389.3-800.2-389.3-800.2z"/>
<path class="st5" d="M-389.7-805.7c0,0,0.1,0,0.2-0.1c0.1-0.1,0.4-0.1,0.6-0.2c0.6-0.2,1.4-0.5,2.3-0.8c0.5-0.2,1-0.3,1.6-0.5
	c0.3-0.1,0.6-0.2,0.9-0.2c0.3-0.1,0.6-0.2,0.9-0.2c0.6-0.2,1.2-0.3,1.9-0.5c0.6-0.2,1.3-0.3,2-0.5c0.7-0.1,1.3-0.3,2-0.4
	c0.3-0.1,0.6-0.1,1-0.2c0.3-0.1,0.6-0.1,1-0.2c0.3,0,0.6-0.1,0.9-0.1c0.3,0,0.6-0.1,0.9-0.1c0.6-0.1,1.1-0.1,1.6-0.2
	c0.5,0,1-0.1,1.4-0.1c0.2,0,0.4,0,0.6,0c0.2,0,0.3,0,0.5,0c0.6,0,0.9,0,0.9,0s-0.3,0-0.9,0.1c-0.1,0-0.3,0-0.5,0
	c-0.2,0-0.4,0-0.6,0.1c-0.4,0-0.9,0.1-1.4,0.2c-0.5,0.1-1,0.1-1.6,0.2c-0.3,0-0.6,0.1-0.9,0.1c-0.3,0-0.6,0.1-0.9,0.2
	c-0.6,0.1-1.3,0.2-1.9,0.4c-0.6,0.1-1.3,0.3-2,0.4c-0.7,0.2-1.3,0.3-2,0.4c-0.6,0.2-1.3,0.3-1.9,0.5c-0.3,0.1-0.6,0.2-0.9,0.2
	c-0.3,0.1-0.6,0.2-0.9,0.2c-0.6,0.1-1.1,0.3-1.6,0.4c-1,0.3-1.8,0.5-2.4,0.7C-389.3-805.8-389.7-805.7-389.7-805.7z"/>
<path class="st5" d="M-337.1-800.2c0,0-0.1-0.1-0.2-0.1c-0.1-0.1-0.3-0.2-0.6-0.4c-0.3-0.2-0.6-0.3-0.9-0.5
	c-0.4-0.2-0.8-0.4-1.2-0.6c-0.2-0.1-0.5-0.2-0.7-0.3c-0.1-0.1-0.3-0.1-0.4-0.2c-0.1-0.1-0.3-0.1-0.4-0.2c-0.3-0.1-0.5-0.2-0.8-0.3
	c-0.3-0.1-0.6-0.2-0.9-0.3c-0.6-0.2-1.2-0.4-1.9-0.6l-0.2-0.1l-0.2-0.1c-0.2,0-0.3-0.1-0.5-0.1c-0.3-0.1-0.7-0.2-1-0.3
	c-0.7-0.1-1.3-0.3-2-0.4c-0.7-0.1-1.3-0.2-1.9-0.3c-0.6-0.1-1.2-0.2-1.8-0.2c-0.3,0-0.6-0.1-0.8-0.1c-0.3,0-0.5,0-0.8-0.1
	c-0.5,0-1-0.1-1.4-0.1c-0.4,0-0.8,0-1.1,0c-0.6,0-0.9,0-0.9,0s0.3,0,0.9,0c0.3,0,0.7,0,1.1,0c0.4,0,0.9,0,1.4,0c0.3,0,0.5,0,0.8,0
	c0.3,0,0.6,0,0.9,0.1c0.6,0.1,1.2,0.1,1.8,0.2c0.6,0.1,1.3,0.2,1.9,0.3c0.7,0.1,1.3,0.3,2,0.4c0.3,0.1,0.7,0.2,1,0.3
	c0.2,0,0.3,0.1,0.5,0.1l0.2,0.1l0.2,0.1c0.6,0.2,1.3,0.4,1.9,0.7c0.3,0.1,0.6,0.2,0.9,0.3c0.3,0.1,0.6,0.2,0.8,0.4
	c0.1,0.1,0.3,0.1,0.4,0.2s0.3,0.1,0.4,0.2c0.2,0.1,0.5,0.2,0.7,0.4c0.5,0.2,0.9,0.5,1.2,0.7c0.4,0.2,0.7,0.4,0.9,0.6
	c0.2,0.2,0.4,0.3,0.6,0.4C-337.1-800.2-337.1-800.2-337.1-800.2z"/>
<path class="st6" d="M-337.1-805.7"/>
<path class="st5" d="M-337.1-805.7c0,0-0.1,0-0.2-0.1c-0.1-0.1-0.4-0.1-0.6-0.2c-0.3-0.1-0.6-0.2-1-0.3c-0.4-0.1-0.8-0.3-1.3-0.4
	c-0.5-0.2-1-0.3-1.6-0.5c-0.6-0.2-1.1-0.3-1.8-0.5c-0.6-0.2-1.2-0.3-1.9-0.5c-0.6-0.1-1.3-0.3-2-0.4c-0.3-0.1-0.7-0.1-1-0.2
	c-0.3-0.1-0.7-0.1-1-0.2c-0.3-0.1-0.6-0.1-1-0.2c-0.3,0-0.6-0.1-0.9-0.1c-0.3,0-0.6-0.1-0.9-0.1c-0.3,0-0.6-0.1-0.9-0.1
	c-0.6-0.1-1.1-0.1-1.6-0.2c-0.5,0-1-0.1-1.4-0.1c-0.4,0-0.8,0-1.1,0c-0.6,0-0.9,0-0.9,0s0.3,0,0.9,0c0.3,0,0.7,0,1.1,0
	c0.4,0,0.9,0,1.4,0.1c0.3,0,0.5,0,0.8,0c0.3,0,0.6,0,0.8,0.1c0.3,0,0.6,0.1,0.9,0.1c0.3,0,0.6,0.1,0.9,0.1c0.3,0,0.6,0.1,1,0.1
	c0.3,0.1,0.6,0.1,1,0.2c0.3,0.1,0.7,0.1,1,0.2c0.3,0.1,0.7,0.1,1,0.2c0.7,0.1,1.3,0.3,2,0.5c0.3,0.1,0.6,0.2,1,0.3
	c0.3,0.1,0.6,0.2,0.9,0.3c0.6,0.2,1.2,0.3,1.7,0.5c0.3,0.1,0.5,0.2,0.8,0.3c0.3,0.1,0.5,0.2,0.7,0.3c0.5,0.2,0.9,0.3,1.3,0.5
	c0.4,0.2,0.7,0.3,1,0.4c0.3,0.1,0.5,0.2,0.6,0.3C-337.1-805.8-337.1-805.7-337.1-805.7z"/>
<path class="st6" d="M-367.1-810"/>
<g>
	<path class="st7" d="M-366.5-810l6.6,0.1c0,0,1.2,0.2-0.9,2.4c-2.1,2.2-2.4,2.4-2.4,2.4l-2.5-2.5
		C-365.8-807.6-368.2-809.8-366.5-810z"/>
	<path class="st5" d="M-363.2-805l-2.6-2.5c-0.1-0.1-1.6-1.4-1.4-2.2c0.1-0.2,0.3-0.4,0.6-0.4l6.6,0.1c0,0,0.3,0,0.4,0.3
		c0.1,0.4-0.3,1.2-1.2,2.2C-362.9-805.2-363.2-805-363.2-805L-363.2-805z M-366.5-809.9c-0.3,0-0.5,0.1-0.5,0.3
		c-0.1,0.5,0.9,1.6,1.3,2l2.5,2.4c0.1-0.1,0.6-0.6,2.3-2.3c1.2-1.3,1.3-1.8,1.2-2c-0.1-0.2-0.3-0.2-0.3-0.2L-366.5-809.9z"/>
</g>
<text transform="matrix(0.6973 0 0 1 -318.0519 -819.1027)" class="st14"><tspan x="0" y="0" class="st15 st16">Calcula el perimetro de la </tspan><tspan x="0" y="30.4" class="st15 st16">siguiente figura:</tspan></text>
<text transform="matrix(1 0 0 1 -151.8843 -574.7855)" class="st15" style="font-size:23.0305px;">¡Éxitos!</text>
<circle class="st9" cx="-231" cy="-677.5" r="89.5"/>
<line class="st9" x1="-231" y1="-677.5" x2="-141.5" y2="-677.5"/>
<text transform="matrix(1 0 0 1 -231.017 -686.1184)" class="st25" style="font-size:20.4784px;">3.3 cm</text>
<path class="st0" d="M357-947.5c0,8.6-5.9,15.5-13.3,15.5H22.6c-7.3,0-13.3-6.9-13.3-15.5v-270c0-8.6,5.9-15.5,13.3-15.5h321.1
	c7.3,0,13.3,6.9,13.3,15.5L357-947.5L357-947.5z"/>
<linearGradient id="SVGID_11_" gradientUnits="userSpaceOnUse" x1="184.0913" y1="-1786.4521" x2="183.5246" y2="-1857.031" gradientTransform="matrix(1 0 0 -1 0 -3006.9612)">
	<stop  offset="4.600000e-02" style="stop-color:#00CD00"/>
	<stop  offset="1" style="stop-color:#FFFFFF"/>
</linearGradient>
<path class="st23" d="M346.7-958.5c0,8.6-5.9,15.5-13.3,15.5H32.6c-7.3,0-13.3-7-13.3-15.5v-247.7c0-8.6,5.9-15.5,13.3-15.5h300.8
	c7.3,0,13.3,7,13.3,15.5V-958.5z"/>
<g>
	<ellipse class="st2" cx="42" cy="-1204.1" rx="5.2" ry="10.9"/>
	<path class="st3" d="M42-1193.1c-2.9,0-5.3-4.9-5.3-11c0-6,2.4-11,5.3-11s5.3,4.9,5.3,11C47.2-1198,44.9-1193.1,42-1193.1z
		 M42-1214.8c-2.8,0-5.1,4.8-5.1,10.8c0,5.9,2.3,10.8,5.1,10.8c2.8,0,5.1-4.8,5.1-10.8C47-1210,44.8-1214.8,42-1214.8z"/>
</g>
<g>
	<ellipse cx="42" cy="-1204.1" rx="2.6" ry="2.8"/>
	<path class="st3" d="M42-1201.2c-1.5,0-2.7-1.3-2.7-2.9c0-1.6,1.2-2.9,2.7-2.9c1.5,0,2.7,1.3,2.7,2.9
		C44.6-1202.5,43.5-1201.2,42-1201.2z M42-1206.7c-1.4,0-2.5,1.2-2.5,2.7c0,1.5,1.1,2.7,2.5,2.7c1.4,0,2.5-1.2,2.5-2.7
		C44.4-1205.5,43.3-1206.7,42-1206.7z"/>
</g>
<g>
	<ellipse class="st4" cx="58" cy="-1204.1" rx="5.2" ry="10.9"/>
	<path class="st3" d="M58-1193.2c-2.9,0-5.3-4.9-5.3-11s2.4-11,5.3-11c2.9,0,5.3,4.9,5.3,11S60.9-1193.2,58-1193.2z M58-1214.9
		c-2.8,0-5.1,4.8-5.1,10.8c0,5.9,2.3,10.8,5.1,10.8c2.8,0,5.1-4.8,5.1-10.8C63.1-1210.1,60.8-1214.9,58-1214.9z"/>
</g>
<g>
	<ellipse cx="57.8" cy="-1204.2" rx="2.6" ry="2.8"/>
	<path class="st3" d="M57.8-1201.3c-1.5,0-2.7-1.3-2.7-2.9c0-1.6,1.2-2.9,2.7-2.9c1.5,0,2.7,1.3,2.7,2.9
		C60.5-1202.6,59.3-1201.3,57.8-1201.3z M57.8-1206.8c-1.4,0-2.5,1.2-2.5,2.7c0,1.5,1.1,2.7,2.5,2.7c1.4,0,2.5-1.2,2.5-2.7
		C60.3-1205.6,59.1-1206.8,57.8-1206.8z"/>
</g>
<path class="st5" d="M23.8-1176.7c0,0,0.1,0,0.2-0.1c0.1-0.1,0.3-0.2,0.6-0.3c0.3-0.1,0.6-0.3,1-0.5c0.4-0.2,0.8-0.4,1.3-0.6
	c0.2-0.1,0.5-0.2,0.7-0.3c0.3-0.1,0.5-0.2,0.8-0.3c0.5-0.2,1.1-0.4,1.7-0.6c0.3-0.1,0.6-0.2,0.9-0.3c0.3-0.1,0.6-0.2,0.9-0.3
	c0.6-0.2,1.3-0.4,1.9-0.6c0.3-0.1,0.7-0.2,1-0.3c0.3-0.1,0.7-0.2,1-0.2c0.3-0.1,0.6-0.1,1-0.2c0.3-0.1,0.6-0.1,0.9-0.2
	c0.3-0.1,0.6-0.1,0.9-0.2c0.3,0,0.6-0.1,0.9-0.1c0.3,0,0.6-0.1,0.8-0.1c0.3,0,0.5-0.1,0.8-0.1c0.5,0,1-0.1,1.4-0.1
	c0.4,0,0.8,0,1.1,0c0.6,0,0.9,0,0.9,0s-0.3,0-0.9,0.1c-0.3,0-0.6,0.1-1.1,0.1c-0.4,0.1-0.9,0.1-1.4,0.2c-0.5,0.1-1,0.2-1.6,0.3
	c-0.3,0-0.6,0.1-0.9,0.2c-0.3,0.1-0.6,0.1-0.9,0.2c-0.3,0.1-0.6,0.1-0.9,0.2c-0.3,0.1-0.6,0.2-1,0.2c-0.3,0.1-0.6,0.2-1,0.2
	c-0.3,0.1-0.6,0.2-1,0.3c-0.7,0.2-1.3,0.4-1.9,0.6c-0.6,0.2-1.3,0.4-1.9,0.6c-0.3,0.1-0.6,0.2-0.9,0.3c-0.3,0.1-0.6,0.2-0.8,0.3
	c-0.3,0.1-0.5,0.2-0.8,0.3c-0.3,0.1-0.5,0.2-0.7,0.3c-0.5,0.2-0.9,0.4-1.3,0.5c-0.4,0.2-0.7,0.3-1,0.4c-0.3,0.1-0.5,0.2-0.6,0.3
	C23.9-1176.7,23.8-1176.7,23.8-1176.7z"/>
<path class="st5" d="M23.5-1182.2c0,0,0.1,0,0.2-0.1c0.1-0.1,0.4-0.1,0.6-0.2c0.6-0.2,1.4-0.5,2.3-0.8c0.5-0.2,1-0.3,1.6-0.5
	c0.3-0.1,0.6-0.2,0.9-0.2c0.3-0.1,0.6-0.2,0.9-0.2c0.6-0.2,1.2-0.3,1.9-0.5c0.6-0.2,1.3-0.3,2-0.5c0.7-0.1,1.3-0.3,2-0.4
	c0.3-0.1,0.7-0.1,1-0.2c0.3-0.1,0.6-0.1,1-0.2c0.3,0,0.6-0.1,0.9-0.1c0.3,0,0.6-0.1,0.9-0.1c0.6-0.1,1.1-0.1,1.6-0.2
	c0.5,0,1-0.1,1.4-0.1c0.2,0,0.4,0,0.6,0c0.2,0,0.3,0,0.5,0c0.6,0,0.9,0,0.9,0s-0.3,0-0.9,0.1c-0.1,0-0.3,0-0.5,0
	c-0.2,0-0.4,0-0.6,0.1c-0.4,0-0.9,0.1-1.4,0.2c-0.5,0.1-1,0.1-1.6,0.2c-0.3,0-0.6,0.1-0.9,0.1c-0.3,0.1-0.6,0.1-0.9,0.2
	c-0.6,0.1-1.3,0.2-1.9,0.4c-0.7,0.1-1.3,0.3-2,0.4c-0.7,0.2-1.3,0.3-2,0.4c-0.6,0.2-1.3,0.3-1.9,0.5c-0.3,0.1-0.6,0.2-0.9,0.2
	c-0.3,0.1-0.6,0.2-0.9,0.2c-0.6,0.1-1.1,0.3-1.6,0.4c-1,0.3-1.8,0.5-2.4,0.7C23.8-1182.3,23.5-1182.2,23.5-1182.2z"/>
<path class="st5" d="M76.1-1176.7c0,0-0.1-0.1-0.2-0.1c-0.1-0.1-0.3-0.2-0.6-0.4c-0.3-0.2-0.6-0.3-0.9-0.5c-0.4-0.2-0.8-0.4-1.2-0.6
	c-0.2-0.1-0.5-0.2-0.7-0.3c-0.1-0.1-0.3-0.1-0.4-0.2c-0.1-0.1-0.3-0.1-0.4-0.2c-0.3-0.1-0.5-0.2-0.8-0.3c-0.3-0.1-0.6-0.2-0.9-0.3
	c-0.6-0.2-1.2-0.4-1.9-0.6l-0.2-0.1l-0.2-0.1c-0.2,0-0.3-0.1-0.5-0.1c-0.3-0.1-0.7-0.2-1-0.3c-0.7-0.1-1.3-0.3-2-0.4
	c-0.7-0.1-1.3-0.2-1.9-0.3c-0.6-0.1-1.2-0.2-1.8-0.2c-0.3,0-0.6-0.1-0.8-0.1c-0.3,0-0.5,0-0.8-0.1c-0.5,0-1-0.1-1.4-0.1
	c-0.4,0-0.8,0-1.1,0c-0.6,0-0.9,0-0.9,0s0.3,0,0.9,0c0.3,0,0.7,0,1.1,0c0.4,0,0.9,0,1.4,0c0.3,0,0.5,0,0.8,0c0.3,0,0.6,0,0.9,0.1
	c0.6,0.1,1.2,0.1,1.8,0.2c0.6,0.1,1.3,0.2,1.9,0.3c0.7,0.1,1.3,0.3,2,0.4c0.3,0.1,0.7,0.2,1,0.3c0.2,0,0.3,0.1,0.5,0.1l0.2,0.1
	l0.2,0.1c0.6,0.2,1.3,0.4,1.9,0.7c0.3,0.1,0.6,0.2,0.9,0.3c0.3,0.1,0.6,0.2,0.8,0.4c0.1,0.1,0.3,0.1,0.4,0.2s0.3,0.1,0.4,0.2
	c0.2,0.1,0.5,0.2,0.7,0.4c0.5,0.2,0.9,0.5,1.2,0.7c0.4,0.2,0.7,0.4,0.9,0.6c0.2,0.2,0.4,0.3,0.6,0.4
	C76-1176.7,76.1-1176.7,76.1-1176.7z"/>
<path class="st6" d="M76.1-1182.2"/>
<path class="st5" d="M76.1-1182.2c0,0-0.1,0-0.2-0.1c-0.1-0.1-0.4-0.1-0.6-0.2c-0.3-0.1-0.6-0.2-1-0.3c-0.4-0.1-0.8-0.3-1.3-0.4
	c-0.5-0.2-1-0.3-1.6-0.5c-0.6-0.2-1.1-0.3-1.8-0.5c-0.6-0.2-1.2-0.3-1.9-0.5c-0.6-0.1-1.3-0.3-2-0.4c-0.3-0.1-0.7-0.1-1-0.2
	c-0.3-0.1-0.7-0.1-1-0.2c-0.3-0.1-0.6-0.1-1-0.2c-0.3-0.1-0.6-0.1-0.9-0.1c-0.3,0-0.6-0.1-0.9-0.1c-0.3,0-0.6-0.1-0.9-0.1
	c-0.6-0.1-1.1-0.1-1.6-0.2c-0.5,0-1-0.1-1.4-0.1c-0.4,0-0.8,0-1.1,0c-0.6,0-0.9,0-0.9,0s0.3,0,0.9,0c0.3,0,0.7,0,1.1,0
	c0.4,0,0.9,0,1.4,0.1c0.3,0,0.5,0,0.8,0c0.3,0,0.6,0,0.8,0.1c0.3,0,0.6,0.1,0.9,0.1c0.3,0,0.6,0.1,0.9,0.1c0.3,0,0.6,0.1,1,0.1
	c0.3,0.1,0.6,0.1,1,0.2c0.3,0.1,0.7,0.1,1,0.2c0.3,0.1,0.7,0.1,1,0.2c0.7,0.1,1.3,0.3,2,0.5c0.3,0.1,0.6,0.2,1,0.3
	c0.3,0.1,0.6,0.2,0.9,0.3c0.6,0.2,1.2,0.3,1.7,0.5c0.3,0.1,0.5,0.2,0.8,0.3c0.3,0.1,0.5,0.2,0.7,0.3c0.5,0.2,0.9,0.3,1.3,0.5
	c0.4,0.2,0.7,0.3,1,0.4c0.3,0.1,0.5,0.2,0.6,0.3C76-1182.2,76.1-1182.2,76.1-1182.2z"/>
<path class="st6" d="M46.1-1186.5"/>
<g>
	<path class="st7" d="M46.6-1186.5l6.6,0.1c0,0,1.2,0.2-0.9,2.4c-2.1,2.2-2.4,2.4-2.4,2.4l-2.5-2.5C47.4-1184,45-1186.3,46.6-1186.5
		z"/>
	<path class="st5" d="M49.9-1181.5l-2.6-2.5c-0.1-0.1-1.6-1.4-1.4-2.2c0.1-0.2,0.3-0.4,0.6-0.4l6.6,0.1c0,0,0.3,0,0.4,0.3
		c0.1,0.4-0.3,1.2-1.2,2.2C50.3-1181.7,50-1181.5,49.9-1181.5L49.9-1181.5z M46.6-1186.4c-0.3,0-0.5,0.1-0.5,0.3
		c-0.2,0.5,0.9,1.6,1.3,2l2.5,2.4c0.1-0.1,0.6-0.6,2.3-2.3c1.2-1.3,1.3-1.8,1.2-2c-0.1-0.2-0.3-0.2-0.3-0.2L46.6-1186.4z"/>
</g>
<text transform="matrix(0.6973 0 0 1 95.1007 -1195.5839)" class="st14"><tspan x="0" y="0" class="st15 st16">Calcula el perimetro de la </tspan><tspan x="0" y="30.4" class="st15 st16">siguiente figura:</tspan></text>
<text transform="matrix(1 0 0 1 261.2684 -951.2666)" class="st15" style="font-size:23.0305px;">¡Éxitos!</text>
<circle class="st9" cx="182.1" cy="-1054" r="89.5"/>
<line class="st9" x1="182.1" y1="-1054" x2="271.6" y2="-1054"/>
<text transform="matrix(1 0 0 1 182.1357 -1062.5996)" class="st25" style="font-size:20.4784px;">20 cm</text>
<polygon class="st9" points="495.8,-1079.9 538.9,-1123.1 637.1,-1123.1 681.9,-1078.3 732.4,-1078.3 732.4,-1037.3 497.2,-1037.3 
	"/>
<text transform="matrix(1 0 0 1 590.25 -1025.2306)" class="st25" style="font-size:12px;">90 km</text>
<line class="st9" x1="587.8" y1="-1028.7" x2="497" y2="-1028.7"/>
<line class="st9" x1="623.8" y1="-1028.7" x2="732.4" y2="-1028.7"/>
<text transform="matrix(1 0 0 1 577.75 -1128.4806)" class="st25" style="font-size:12px;">40 km</text>
<line class="st9" x1="576.4" y1="-1131.5" x2="539.4" y2="-1131.5"/>
<line class="st9" x1="611.3" y1="-1131.5" x2="637.3" y2="-1131.5"/>
<text transform="matrix(0.7071 -0.7071 0.7071 0.7071 501.5154 -1095.1295)" class="st25" style="font-size:12px;"> 8 km</text>
<line class="st9" x1="531.8" y1="-1129.1" x2="522.5" y2="-1119.8"/>
<line class="st9" x1="499.5" y1="-1098.5" x2="490.5" y2="-1089.4"/>
<text transform="matrix(1 0 0 1 466.75 -1059.2306)" class="st25" style="font-size:12px;">7 km</text>
<line class="st9" x1="481" y1="-1080.2" x2="481" y2="-1068.7"/>
<line class="st9" x1="481" y1="-1055.7" x2="481" y2="-1037.3"/>
<text transform="matrix(1 0 0 1 736.8885 -1059.7363)" class="st25" style="font-size:12px;">6 km</text>
<line class="st9" x1="751.1" y1="-1080.7" x2="751.1" y2="-1069.2"/>
<line class="st9" x1="751.1" y1="-1056.2" x2="751.1" y2="-1037.8"/>
<text transform="matrix(0.7071 0.7071 -0.7071 0.7071 657.6716 -1113.6981)" class="st25" style="font-size:12px;">10 km</text>
<line class="st9" x1="646.5" y1="-1128.7" x2="659.9" y2="-1115.3"/>
<line class="st9" x1="682.1" y1="-1093.1" x2="684.9" y2="-1090.3"/>
<text transform="matrix(1 0 0 1 700.25 -1085.9806)" class="st25" style="font-size:12px;">3 km</text>
<line class="st9" x1="700.3" y1="-1089.7" x2="689" y2="-1089.7"/>
<line class="st9" x1="726.8" y1="-1089.7" x2="732.4" y2="-1089.7"/>
<path class="st0" d="M-56.2-101.5c0,8.6-5.9,15.5-13.3,15.5h-321.1c-7.3,0-13.3-6.9-13.3-15.5v-270c0-8.6,5.9-15.5,13.3-15.5h321.1
	c7.3,0,13.3,6.9,13.3,15.5L-56.2-101.5L-56.2-101.5z"/>
<linearGradient id="SVGID_12_" gradientUnits="userSpaceOnUse" x1="-229.0614" y1="-2632.4099" x2="-229.6281" y2="-2702.9888" gradientTransform="matrix(1 0 0 -1 0 -3006.9612)">
	<stop  offset="4.600000e-02" style="stop-color:#00CD00"/>
	<stop  offset="1" style="stop-color:#FFFFFF"/>
</linearGradient>
<path class="st24" d="M-66.5-112.6c0,8.6-5.9,15.5-13.3,15.5h-300.8c-7.3,0-13.3-7-13.3-15.5v-247.7c0-8.6,5.9-15.5,13.3-15.5h300.8
	c7.3,0,13.3,7,13.3,15.5V-112.6z"/>
<g>
	<ellipse class="st2" cx="-371.2" cy="-358.1" rx="5.2" ry="10.9"/>
	<path class="st3" d="M-371.2-347.2c-2.9,0-5.3-4.9-5.3-11c0-6,2.4-11,5.3-11s5.3,4.9,5.3,11C-365.9-352.1-368.3-347.2-371.2-347.2z
		 M-371.2-368.9c-2.8,0-5.1,4.8-5.1,10.8c0,5.9,2.3,10.8,5.1,10.8c2.8,0,5.1-4.8,5.1-10.8C-366.1-364.1-368.4-368.9-371.2-368.9z"/>
</g>
<g>
	<ellipse cx="-371.2" cy="-358.1" rx="2.6" ry="2.8"/>
	<path class="st3" d="M-371.2-355.2c-1.5,0-2.7-1.3-2.7-2.9c0-1.6,1.2-2.9,2.7-2.9c1.5,0,2.7,1.3,2.7,2.9
		C-368.5-356.5-369.7-355.2-371.2-355.2z M-371.2-360.8c-1.4,0-2.5,1.2-2.5,2.7c0,1.5,1.1,2.7,2.5,2.7c1.4,0,2.5-1.2,2.5-2.7
		C-368.7-359.6-369.8-360.8-371.2-360.8z"/>
</g>
<g>
	<ellipse class="st4" cx="-355.2" cy="-358.2" rx="5.2" ry="10.9"/>
	<path class="st3" d="M-355.2-347.2c-2.9,0-5.3-4.9-5.3-11c0-6,2.4-11,5.3-11c2.9,0,5.3,4.9,5.3,11
		C-349.9-352.1-352.2-347.2-355.2-347.2z M-355.2-368.9c-2.8,0-5.1,4.8-5.1,10.8c0,5.9,2.3,10.8,5.1,10.8c2.8,0,5.1-4.8,5.1-10.8
		C-350.1-364.1-352.4-368.9-355.2-368.9z"/>
</g>
<g>
	<ellipse cx="-355.4" cy="-358.2" rx="2.6" ry="2.8"/>
	<path class="st3" d="M-355.4-355.3c-1.5,0-2.7-1.3-2.7-2.9c0-1.6,1.2-2.9,2.7-2.9c1.5,0,2.7,1.3,2.7,2.9
		C-352.7-356.6-353.9-355.3-355.4-355.3z M-355.4-360.9c-1.4,0-2.5,1.2-2.5,2.7c0,1.5,1.1,2.7,2.5,2.7c1.4,0,2.5-1.2,2.5-2.7
		C-352.9-359.7-354-360.9-355.4-360.9z"/>
</g>
<path class="st5" d="M-389.3-330.7c0,0,0.1,0,0.2-0.1c0.1-0.1,0.3-0.2,0.6-0.3c0.3-0.1,0.6-0.3,1-0.5c0.4-0.2,0.8-0.4,1.3-0.6
	c0.2-0.1,0.5-0.2,0.7-0.3c0.3-0.1,0.5-0.2,0.8-0.3c0.5-0.2,1.1-0.4,1.7-0.6c0.3-0.1,0.6-0.2,0.9-0.3c0.3-0.1,0.6-0.2,0.9-0.3
	c0.6-0.2,1.3-0.4,1.9-0.6c0.3-0.1,0.7-0.2,1-0.3c0.3-0.1,0.7-0.2,1-0.2c0.3-0.1,0.6-0.1,1-0.2c0.3-0.1,0.6-0.1,0.9-0.2
	c0.3-0.1,0.6-0.1,0.9-0.2c0.3,0,0.6-0.1,0.9-0.1c0.3,0,0.6-0.1,0.8-0.1c0.3,0,0.5-0.1,0.8-0.1c0.5,0,1-0.1,1.4-0.1
	c0.4,0,0.8,0,1.1,0c0.6,0,0.9,0,0.9,0s-0.3,0-0.9,0.1c-0.3,0-0.6,0.1-1.1,0.1c-0.4,0.1-0.9,0.1-1.4,0.2c-0.5,0.1-1,0.2-1.6,0.3
	c-0.3,0.1-0.6,0.1-0.9,0.2c-0.3,0.1-0.6,0.1-0.9,0.2c-0.3,0.1-0.6,0.1-0.9,0.2c-0.3,0.1-0.6,0.2-1,0.2c-0.3,0.1-0.6,0.2-1,0.2
	c-0.3,0.1-0.6,0.2-1,0.3c-0.7,0.2-1.3,0.4-1.9,0.6c-0.6,0.2-1.3,0.4-1.9,0.6c-0.3,0.1-0.6,0.2-0.9,0.3c-0.3,0.1-0.6,0.2-0.8,0.3
	c-0.3,0.1-0.5,0.2-0.8,0.3c-0.3,0.1-0.5,0.2-0.7,0.3c-0.5,0.2-0.9,0.4-1.3,0.5c-0.4,0.2-0.7,0.3-1,0.4c-0.3,0.1-0.5,0.2-0.6,0.3
	C-389.2-330.7-389.3-330.7-389.3-330.7z"/>
<path class="st5" d="M-389.7-336.2c0,0,0.1,0,0.2-0.1c0.1-0.1,0.4-0.1,0.6-0.2c0.6-0.2,1.4-0.5,2.3-0.8c0.5-0.1,1-0.3,1.6-0.5
	c0.3-0.1,0.6-0.2,0.9-0.2c0.3-0.1,0.6-0.2,0.9-0.2c0.6-0.2,1.2-0.3,1.9-0.5c0.6-0.2,1.3-0.3,2-0.5c0.7-0.1,1.3-0.3,2-0.4
	c0.3-0.1,0.6-0.1,1-0.2c0.3-0.1,0.6-0.1,1-0.2c0.3,0,0.6-0.1,0.9-0.1c0.3,0,0.6-0.1,0.9-0.1c0.6-0.1,1.1-0.1,1.6-0.2
	c0.5,0,1-0.1,1.4-0.1c0.2,0,0.4,0,0.6,0c0.2,0,0.3,0,0.5,0c0.6,0,0.9,0,0.9,0s-0.3,0-0.9,0.1c-0.1,0-0.3,0-0.5,0
	c-0.2,0-0.4,0-0.6,0.1c-0.4,0-0.9,0.1-1.4,0.2c-0.5,0.1-1,0.1-1.6,0.2c-0.3,0-0.6,0.1-0.9,0.1c-0.3,0-0.6,0.1-0.9,0.2
	c-0.6,0.1-1.3,0.2-1.9,0.4c-0.6,0.1-1.3,0.3-2,0.4c-0.7,0.1-1.3,0.3-2,0.4c-0.6,0.2-1.3,0.3-1.9,0.5c-0.3,0.1-0.6,0.2-0.9,0.2
	c-0.3,0.1-0.6,0.2-0.9,0.2c-0.6,0.1-1.1,0.3-1.6,0.4c-1,0.3-1.8,0.5-2.4,0.7C-389.3-336.3-389.7-336.2-389.7-336.2z"/>
<path class="st5" d="M-337.1-330.7c0,0-0.1-0.1-0.2-0.1c-0.1-0.1-0.3-0.2-0.6-0.4c-0.3-0.2-0.6-0.3-0.9-0.5
	c-0.4-0.2-0.8-0.4-1.2-0.6c-0.2-0.1-0.5-0.2-0.7-0.3c-0.1-0.1-0.3-0.1-0.4-0.2c-0.1-0.1-0.3-0.1-0.4-0.2c-0.3-0.1-0.5-0.2-0.8-0.3
	c-0.3-0.1-0.6-0.2-0.9-0.3c-0.6-0.2-1.2-0.4-1.9-0.6l-0.2-0.1l-0.2-0.1c-0.2,0-0.3-0.1-0.5-0.1c-0.3-0.1-0.7-0.2-1-0.3
	c-0.7-0.1-1.3-0.3-2-0.4c-0.7-0.1-1.3-0.2-1.9-0.3c-0.6-0.1-1.2-0.2-1.8-0.2c-0.3,0-0.6-0.1-0.8-0.1c-0.3,0-0.5,0-0.8-0.1
	c-0.5,0-1-0.1-1.4-0.1c-0.4,0-0.8,0-1.1,0c-0.6,0-0.9,0-0.9,0s0.3,0,0.9,0c0.3,0,0.7,0,1.1,0c0.4,0,0.9,0,1.4,0c0.3,0,0.5,0,0.8,0
	c0.3,0,0.6,0,0.9,0.1c0.6,0.1,1.2,0.1,1.8,0.2c0.6,0.1,1.3,0.2,1.9,0.3c0.7,0.1,1.3,0.3,2,0.4c0.3,0.1,0.7,0.2,1,0.3
	c0.2,0,0.3,0.1,0.5,0.1l0.2,0.1l0.2,0.1c0.6,0.2,1.3,0.4,1.9,0.6c0.3,0.1,0.6,0.2,0.9,0.3c0.3,0.1,0.6,0.2,0.8,0.4
	c0.1,0.1,0.3,0.1,0.4,0.2c0.1,0.1,0.3,0.1,0.4,0.2c0.2,0.1,0.5,0.2,0.7,0.4c0.5,0.2,0.9,0.5,1.2,0.7c0.4,0.2,0.7,0.4,0.9,0.6
	c0.2,0.2,0.4,0.3,0.6,0.4C-337.1-330.8-337.1-330.7-337.1-330.7z"/>
<path class="st6" d="M-337.1-336.2"/>
<path class="st5" d="M-337.1-336.2c0,0-0.1,0-0.2-0.1c-0.1-0.1-0.4-0.1-0.6-0.2c-0.3-0.1-0.6-0.2-1-0.3c-0.4-0.1-0.8-0.3-1.3-0.4
	c-0.5-0.2-1-0.3-1.6-0.5c-0.6-0.2-1.1-0.3-1.8-0.5c-0.6-0.2-1.2-0.3-1.9-0.5c-0.6-0.1-1.3-0.3-2-0.4c-0.3-0.1-0.7-0.1-1-0.2
	c-0.3-0.1-0.7-0.1-1-0.2c-0.3-0.1-0.6-0.1-1-0.2c-0.3,0-0.6-0.1-0.9-0.1c-0.3,0-0.6-0.1-0.9-0.1c-0.3,0-0.6-0.1-0.9-0.1
	c-0.6-0.1-1.1-0.1-1.6-0.2c-0.5,0-1-0.1-1.4-0.1c-0.4,0-0.8,0-1.1,0c-0.6,0-0.9,0-0.9,0s0.3,0,0.9,0c0.3,0,0.7,0,1.1,0
	c0.4,0,0.9,0,1.4,0.1c0.3,0,0.5,0,0.8,0c0.3,0,0.6,0,0.8,0.1c0.3,0,0.6,0.1,0.9,0.1c0.3,0,0.6,0.1,0.9,0.1c0.3,0,0.6,0.1,1,0.1
	c0.3,0.1,0.6,0.1,1,0.2c0.3,0.1,0.7,0.1,1,0.2c0.3,0.1,0.7,0.1,1,0.2c0.7,0.1,1.3,0.3,2,0.5c0.3,0.1,0.6,0.2,1,0.3
	c0.3,0.1,0.6,0.2,0.9,0.3c0.6,0.2,1.2,0.3,1.7,0.5c0.3,0.1,0.5,0.2,0.8,0.3c0.3,0.1,0.5,0.2,0.7,0.3c0.5,0.2,0.9,0.3,1.3,0.5
	c0.4,0.2,0.7,0.3,1,0.4c0.3,0.1,0.5,0.2,0.6,0.3C-337.1-336.3-337.1-336.2-337.1-336.2z"/>
<path class="st6" d="M-367.1-340.5"/>
<g>
	<path class="st7" d="M-366.5-340.5l6.6,0.1c0,0,1.2,0.1-0.9,2.4c-2.1,2.2-2.4,2.4-2.4,2.4l-2.5-2.5
		C-365.8-338.1-368.2-340.3-366.5-340.5z"/>
	<path class="st5" d="M-363.2-335.5l-2.6-2.5c-0.1-0.1-1.6-1.4-1.4-2.2c0.1-0.2,0.3-0.4,0.6-0.4l6.6,0.1c0,0,0.3,0,0.4,0.3
		c0.1,0.4-0.3,1.2-1.2,2.2C-362.9-335.7-363.2-335.6-363.2-335.5L-363.2-335.5z M-366.5-340.5c-0.3,0-0.5,0.1-0.5,0.3
		c-0.1,0.5,0.9,1.6,1.3,2l2.5,2.4c0.1-0.1,0.6-0.6,2.3-2.4c1.2-1.3,1.3-1.8,1.2-2c-0.1-0.2-0.3-0.2-0.3-0.2L-366.5-340.5z"/>
</g>
<text transform="matrix(0.6973 0 0 1 -318.0515 -349.6263)" class="st14"><tspan x="0" y="0" class="st15 st16">Calcula el perimetro de la </tspan><tspan x="0" y="30.4" class="st15 st16">siguiente figura:</tspan></text>
<text transform="matrix(1 0 0 1 -151.884 -105.3091)" class="st15" style="font-size:23.0305px;">¡Éxitos!</text>
<path class="st9" d="M-231-118.5c49.4,0,89.5-40.1,89.5-89.5s-40.1-89.5-89.5-89.5l-88.3,88.3L-231-118.5z"/>
<line class="st21" x1="-231" y1="-208" x2="-141.5" y2="-208"/>
<text transform="matrix(1 0 0 1 -231.0172 -216.6418)" class="st25" style="font-size:20.4784px;"> 8 cm</text>
<text transform="matrix(0.7071 -0.7071 0.7071 0.7071 -295.7596 -243.5356)" class="st25" style="font-size:16.8571px;">10 cm</text>
<text transform="matrix(0.7071 0.7071 -0.7071 0.7071 -300.8822 -161.0602)" class="st25" style="font-size:13.4084px;">10 cm</text>
<line class="st9" x1="-267.5" y1="-278.7" x2="-242.5" y2="-303.7"/>
<line class="st9" x1="-302" y1="-244.8" x2="-325.7" y2="-221.2"/>
<line class="st9" x1="-300" y1="-165.7" x2="-331.6" y2="-197.2"/>
<line class="st9" x1="-273.2" y1="-138.8" x2="-243.2" y2="-108.8"/>
<g>
	<g>
		<line class="st21" x1="643.5" y1="-210.8" x2="700.5" y2="-210.8"/>
		<path class="st9" d="M643.5-153.8c31.5,0,57-25.5,57-57s-25.5-57-57-57"/>
		<text transform="matrix(1 0 0 1 649.4073 -214.1527)" class="st25" style="font-size:13.0488px;"> 8 cm</text>
	</g>
	<polyline class="st9" points="643.8,-153.8 529.8,-153.8 529.8,-267.8 643.8,-267.8 	"/>
</g>
<text transform="matrix(1 0 0 1 567 -274.8136)" class="st25" style="font-size:12px;">15 cm</text>
<text transform="matrix(1 0 0 1 495.2248 -208.2303)" class="st25" style="font-size:12px;">15 cm</text>
<line class="st9" x1="643.8" y1="-278.1" x2="599" y2="-278.1"/>
<line class="st9" x1="565.3" y1="-278.1" x2="529.8" y2="-278.1"/>
<text transform="matrix(1 0 0 1 567 -140.1469)" class="st25" style="font-size:12px;">15 cm</text>
<line class="st9" x1="643.8" y1="-143.5" x2="599" y2="-143.5"/>
<line class="st9" x1="565.3" y1="-143.5" x2="529.8" y2="-143.5"/>
<line class="st9" x1="510.3" y1="-267.8" x2="510.3" y2="-218.7"/>
<line class="st9" x1="510.3" y1="-204.2" x2="510.3" y2="-153.8"/>
<rect x="114.8" y="107.5" class="st9" width="134.7" height="153.1"/>
<text transform="matrix(0.9535 0 0 1 167.5 275.8719)" class="st25 st26">2 cm</text>
<text transform="matrix(0.9535 0 0 1 256.5 184.1111)" class="st25 st26">6 cm</text>
<line class="st9" x1="196.5" y1="273.5" x2="249.5" y2="273.5"/>
<line class="st9" x1="164.5" y1="273.5" x2="114.8" y2="273.5"/>
<line class="st9" x1="267.5" y1="174.5" x2="267.5" y2="107.5"/>
<line class="st9" x1="267.5" y1="190.7" x2="267.5" y2="260.7"/>
</svg>
