<?xml version="1.0" encoding="utf-8"?>
<!-- Generator: Adobe Illustrator 22.0.0, SVG Export Plug-In . SVG Version: 6.00 Build 0)  -->
<svg version="1.1" id="Capa_1" xmlns="http://www.w3.org/2000/svg" xmlns:xlink="http://www.w3.org/1999/xlink" x="0px" y="0px"
	 width="528px" height="413px" viewBox="0 0 528 413" style="enable-background:new 0 0 528 413;" xml:space="preserve">
<style type="text/css">
	.st0{fill:#E85100;}
	.st1{font-family:'RoundedElegance-Regular';}
	.st2{font-size:41.9266px;}
	.st3{font-size:28.2996px;}
	.st4{fill:#FBF7F5;}
	.st5{fill:#1E120D;}
	.st6{fill:#FAFAFA;}
	.st7{fill:#020201;}
	.st8{fill:none;stroke:#020201;stroke-width:0.8348;stroke-miterlimit:10;}
	.st9{fill:#E56111;}
</style>
<g>
	<text transform="matrix(0.961 0 0 1 127.5737 323.41)" class="st0 st1 st2">Matemágicas</text>
	<text transform="matrix(0.961 0 0 1 108.1348 374.9017)" class="st0 st1 st3">Comparte lo que sabes</text>
	<g>
		<g>
			<ellipse class="st4" cx="219.9" cy="122" rx="29.1" ry="61.1"/>
			<path class="st5" d="M219.9,183.7c-16.4,0-29.7-27.7-29.7-61.7c0-34,13.3-61.7,29.7-61.7c16.4,0,29.7,27.7,29.7,61.7
				C249.6,156,236.3,183.7,219.9,183.7z M219.9,61.4c-15.8,0-28.6,27.2-28.6,60.6c0,33.4,12.8,60.6,28.6,60.6
				c15.8,0,28.6-27.2,28.6-60.6C248.5,88.6,235.7,61.4,219.9,61.4z"/>
		</g>
		<g>
			<path d="M234.4,122c0,8.6-6.5,15.6-14.5,15.6c-8,0-14.5-7-14.5-15.6c0-8.6,6.5-15.6,14.5-15.6C228,106.4,234.4,113.4,234.4,122z"
				/>
			<path class="st5" d="M220,138.2c-8.3,0-15.1-7.3-15.1-16.2c0-9,6.8-16.2,15.1-16.2S235,113.1,235,122
				C235,131,228.3,138.2,220,138.2z M220,107c-7.6,0-13.9,6.7-13.9,15c0,8.3,6.2,15,13.9,15c7.6,0,13.9-6.7,13.9-15
				C233.8,113.7,227.6,107,220,107z"/>
		</g>
		<g>
			<path class="st6" d="M339.3,121.8c0,33.8-13,61.1-29.1,61.1s-29.1-27.4-29.1-61.1c0-33.8,13-61.1,29.1-61.1S339.3,88,339.3,121.8
				z"/>
			<path class="st5" d="M310.2,183.4c-16.4,0-29.7-27.7-29.7-61.7s13.3-61.7,29.7-61.7s29.7,27.7,29.7,61.7
				C339.8,155.8,326.5,183.4,310.2,183.4z M310.2,61.2c-15.8,0-28.6,27.2-28.6,60.6s12.8,60.6,28.6,60.6c15.8,0,28.6-27.2,28.6-60.6
				S326,61.2,310.2,61.2z"/>
		</g>
		<g>
			<path d="M323.5,121.5c0,8.6-6.5,15.6-14.5,15.6s-14.5-7-14.5-15.6c0-8.6,6.5-15.6,14.5-15.6S323.5,112.9,323.5,121.5z"/>
			<path class="st5" d="M309,137.7c-8.3,0-15.1-7.3-15.1-16.2c0-8.9,6.8-16.2,15.1-16.2c8.3,0,15.1,7.3,15.1,16.2
				C324.1,130.5,317.3,137.7,309,137.7z M309,106.5c-7.6,0-13.9,6.7-13.9,15c0,8.3,6.2,15,13.9,15s13.9-6.7,13.9-15
				C322.9,113.2,316.7,106.5,309,106.5z"/>
		</g>
		<path class="st7" d="M117.8,276.3c0,0,0.4-0.2,1.2-0.6c0.8-0.4,2-1,3.5-1.7c1.5-0.7,3.3-1.6,5.4-2.6c2.1-1,4.5-2.1,7.1-3.1
			c1.3-0.6,2.7-1.1,4.1-1.7c1.4-0.6,2.9-1.2,4.4-1.8c3-1.2,6.3-2.4,9.7-3.6c1.7-0.6,3.4-1.2,5.1-1.7c1.7-0.6,3.5-1.2,5.3-1.7
			c3.6-1.1,7.2-2.2,10.9-3.2c1.8-0.5,3.7-1,5.5-1.5c1.8-0.5,3.7-0.9,5.5-1.3c1.8-0.4,3.6-0.8,5.4-1.3c1.8-0.3,3.6-0.7,5.3-1
			c1.7-0.3,3.5-0.7,5.2-1c1.7-0.3,3.4-0.5,5-0.7c1.6-0.2,3.2-0.5,4.7-0.7c1.5-0.3,3-0.3,4.4-0.5c2.8-0.3,5.4-0.5,7.7-0.7
			c2.3-0.1,4.3-0.2,6-0.3c3.3-0.1,5.2-0.2,5.2-0.2s-1.9,0.2-5.2,0.5c-1.6,0.2-3.7,0.3-5.9,0.6c-2.3,0.3-4.9,0.7-7.7,1.1
			c-2.8,0.3-5.8,0.9-9,1.5c-1.6,0.3-3.2,0.6-4.9,0.9c-1.7,0.4-3.4,0.7-5.1,1.1c-1.7,0.4-3.5,0.7-5.3,1.1c-1.8,0.4-3.6,0.9-5.4,1.3
			c-1.8,0.4-3.6,0.8-5.5,1.3c-1.8,0.5-3.6,1-5.5,1.5c-3.7,0.9-7.3,2.1-10.9,3.1c-3.6,1.1-7.1,2.2-10.4,3.3c-1.7,0.6-3.3,1.2-5,1.7
			c-1.6,0.5-3.2,1.1-4.7,1.7c-1.5,0.6-3,1.1-4.5,1.6c-1.4,0.5-2.8,1.1-4.2,1.6c-2.7,1-5.1,2-7.3,2.8c-2.1,0.9-4,1.6-5.6,2.3
			c-1.5,0.7-2.7,1.2-3.6,1.5C118.2,276.1,117.8,276.3,117.8,276.3z"/>
		<path class="st7" d="M115.9,245.2c0,0,0.4-0.2,1.3-0.5c0.8-0.3,2.1-0.8,3.6-1.3c3.1-1.1,7.6-2.7,13.1-4.4c2.7-0.8,5.7-1.8,8.8-2.7
			c1.6-0.5,3.2-0.9,4.8-1.4c1.7-0.4,3.3-0.9,5.1-1.4c3.4-1,7-1.8,10.6-2.7c3.6-0.9,7.3-1.7,11.1-2.6c3.7-0.8,7.4-1.6,11.1-2.3
			c1.8-0.3,3.7-0.7,5.5-1c1.8-0.3,3.6-0.6,5.4-0.9c1.8-0.3,3.5-0.5,5.2-0.8c1.7-0.3,3.4-0.5,5-0.7c3.3-0.4,6.3-0.7,9.2-1
			c2.8-0.2,5.4-0.4,7.8-0.5c1.2-0.1,2.2-0.1,3.2-0.1c1,0,1.9,0,2.7-0.1c3.3-0.1,5.2-0.1,5.2-0.1s-1.9,0.2-5.2,0.4
			c-0.8,0.1-1.7,0.1-2.7,0.2c-1,0.1-2.1,0.1-3.2,0.3c-2.3,0.3-4.9,0.6-7.7,0.9c-2.8,0.4-5.9,0.8-9.1,1.3c-1.6,0.2-3.3,0.5-4.9,0.8
			c-1.7,0.3-3.4,0.6-5.2,0.9c-3.5,0.6-7.1,1.4-10.8,2c-3.7,0.7-7.4,1.5-11.1,2.3c-3.7,0.8-7.4,1.6-11,2.5c-3.6,0.9-7.2,1.7-10.7,2.6
			c-1.7,0.4-3.4,0.9-5.1,1.3c-1.7,0.4-3.3,0.9-4.9,1.3c-3.2,0.8-6.1,1.6-8.9,2.4c-5.5,1.5-10.1,2.8-13.3,3.7
			C117.7,244.7,115.9,245.2,115.9,245.2z"/>
		<path class="st7" d="M412.1,276.3c0,0-0.4-0.3-1.1-0.8c-0.7-0.5-1.9-1.2-3.3-2.1c-1.5-0.9-3.2-1.9-5.3-3c-2-1.1-4.4-2.3-7-3.6
			c-1.3-0.6-2.7-1.2-4.1-1.9c-0.7-0.3-1.4-0.7-2.1-1c-0.7-0.3-1.5-0.6-2.3-0.9c-1.5-0.6-3.1-1.3-4.7-1.9c-1.6-0.6-3.3-1.2-5-1.8
			c-3.3-1.3-6.9-2.3-10.5-3.5l-1.3-0.4L364,255c-0.9-0.2-1.8-0.5-2.7-0.7c-1.8-0.5-3.7-1-5.5-1.5c-3.7-0.8-7.4-1.7-11.1-2.5
			c-3.7-0.6-7.3-1.3-10.9-1.9c-3.5-0.5-7-0.9-10.2-1.3c-1.6-0.3-3.2-0.3-4.8-0.5c-1.5-0.1-3-0.2-4.5-0.4c-2.9-0.2-5.5-0.5-7.8-0.5
			c-2.3-0.1-4.4-0.2-6-0.2c-3.3-0.1-5.3-0.2-5.3-0.2s1.9,0,5.3-0.1c1.7,0,3.7-0.1,6-0.1c2.3-0.1,5,0.1,7.8,0.2
			c1.4,0.1,2.9,0.1,4.5,0.2c1.5,0.1,3.2,0.1,4.8,0.3c3.3,0.4,6.7,0.7,10.3,1.1c3.6,0.6,7.2,1.1,11,1.8c3.7,0.7,7.5,1.6,11.2,2.4
			c1.9,0.5,3.7,1,5.6,1.5c0.9,0.3,1.8,0.5,2.8,0.8l1.4,0.4l1.4,0.4c3.6,1.2,7.2,2.3,10.5,3.7c1.7,0.7,3.4,1.3,5,1.9
			c1.6,0.7,3.2,1.4,4.7,2.1c0.8,0.3,1.5,0.7,2.2,1c0.7,0.4,1.4,0.7,2.1,1.1c1.4,0.7,2.8,1.4,4,2c2.5,1.4,4.9,2.7,6.9,3.9
			c2,1.2,3.7,2.4,5.2,3.3c1.4,1,2.5,1.7,3.2,2.3C411.7,276,412.1,276.3,412.1,276.3z"/>
		<path class="st8" d="M412.1,245.2"/>
		<path class="st7" d="M412.1,245.2c0,0-0.4-0.2-1.3-0.5c-0.8-0.3-2.1-0.7-3.6-1.3c-1.6-0.6-3.5-1.2-5.7-1.9
			c-2.2-0.7-4.7-1.5-7.4-2.4c-2.7-0.9-5.7-1.7-8.8-2.7c-3.1-0.9-6.5-1.8-9.9-2.8c-3.4-0.9-7-1.8-10.6-2.7c-3.6-0.8-7.3-1.8-11-2.5
			c-1.9-0.4-3.7-0.8-5.6-1.2c-1.8-0.4-3.7-0.7-5.5-1c-1.8-0.3-3.6-0.7-5.4-1c-1.8-0.3-3.6-0.6-5.3-0.8c-1.8-0.3-3.5-0.5-5.2-0.8
			c-1.7-0.2-3.4-0.4-5-0.6c-3.2-0.4-6.3-0.8-9.1-1c-2.8-0.3-5.4-0.5-7.7-0.7c-2.3-0.1-4.3-0.2-6-0.3c-3.3-0.2-5.2-0.3-5.2-0.3
			s1.9,0,5.2-0.1c1.7,0,3.7,0,6,0c2.3,0.1,4.9,0.2,7.8,0.3c1.4,0.1,2.9,0.1,4.4,0.3c1.5,0.1,3.1,0.3,4.7,0.4c1.6,0.2,3.3,0.3,5,0.5
			c1.7,0.2,3.4,0.5,5.2,0.7c1.8,0.2,3.6,0.5,5.4,0.7c1.8,0.3,3.6,0.6,5.5,0.9c1.8,0.3,3.7,0.6,5.6,1c1.9,0.4,3.7,0.8,5.6,1.2
			c3.7,0.7,7.4,1.7,11.1,2.6c1.8,0.4,3.6,0.9,5.4,1.4c1.8,0.5,3.5,1,5.2,1.4c3.4,1,6.7,2,9.8,3c1.6,0.5,3.1,1,4.5,1.5
			c1.5,0.5,2.9,1,4.2,1.5c2.7,0.9,5.1,1.9,7.3,2.7c2.2,0.9,4.1,1.6,5.6,2.2c1.5,0.6,2.7,1.2,3.6,1.5
			C411.7,245,412.1,245.2,412.1,245.2z"/>
		<path class="st8" d="M243,220.9"/>
		<g>
			<path class="st9" d="M246.2,220.9l37.1,0.7c0,0,7,0.9-5,13.5c-12,12.6-13.5,13.5-13.5,13.5l-14.2-13.8
				C250.5,234.8,236.7,222.4,246.2,220.9z"/>
			<path class="st7" d="M264.6,249.1l-14.4-14.1c-0.3-0.3-8.8-8-7.7-12.2c0.4-1.3,1.5-2.1,3.5-2.4l37.2,0.7c0.1,0,1.7,0.2,2.2,1.8
				c0.8,2.5-1.5,6.6-7,12.4C266.6,248,265,249,264.9,249L264.6,249.1z M246.2,221.4c-1.6,0.2-2.5,0.8-2.8,1.8
				c-0.9,3,5.1,9.2,7.4,11.3l14,13.6c0.8-0.6,3.6-3.2,13.2-13.2c6.9-7.2,7.2-10.3,6.8-11.5c-0.4-1.1-1.5-1.2-1.5-1.2L246.2,221.4z"
				/>
		</g>
	</g>
</g>
</svg>
