<?xml version="1.0" encoding="utf-8"?>
<!-- Generator: Adobe Illustrator 22.0.0, SVG Export Plug-In . SVG Version: 6.00 Build 0)  -->
<svg version="1.1" id="Capa_1" xmlns="http://www.w3.org/2000/svg" xmlns:xlink="http://www.w3.org/1999/xlink" x="0px" y="0px"
	 width="200px" height="200px" viewBox="0 0 200 200" style="enable-background:new 0 0 200 200;" xml:space="preserve">
<style type="text/css">
	.st0{fill:#E0A92E;}
	.st1{fill:#49494B;}
	.st2{fill:#BA4C2E;}
	.st3{fill:#000020;}
	.st4{fill:#FFFFFF;}
	.st5{fill:#253B4B;}
	.st6{fill:#E4C195;}
	.st7{fill:#68441F;}
	.st8{fill:#BFCD5F;}
	.st9{fill:#466440;}
	.st10{fill:#688F5D;}
	.st11{fill:#A6C960;}
	.st12{fill:none;stroke:#D11515;stroke-width:1.7008;stroke-miterlimit:10;}
</style>
<g>
	<g>
		<g>
			<g>
				<g>
					
						<rect x="70.4" y="96.1" transform="matrix(-1 -1.224647e-16 1.224647e-16 -1 189.1729 210.7141)" class="st0" width="48.5" height="18.6"/>
				</g>
				<g>
					<path class="st1" d="M119.3,115.1H69.9V95.6h49.4V115.1z M70.8,114.2h47.5V96.5H70.8V114.2z"/>
				</g>
			</g>
			<g>
				<g>
					
						<rect x="67.4" y="114.7" transform="matrix(-1 -1.224647e-16 1.224647e-16 -1 189.1729 289.3536)" class="st2" width="54.4" height="60"/>
				</g>
				<g>
					<path class="st3" d="M122.2,175.1H67v-60.8h55.2V175.1z M67.8,174.3h53.7v-59.2H67.8V174.3z"/>
				</g>
			</g>
			<g>
				<g>
					<g>
						<path class="st4" d="M111.8,102c-1.9,0-3.5,1.5-3.5,3.4c0,1.9,1.6,3.4,3.5,3.4c1.9,0,3.5-1.5,3.5-3.4
							C115.3,103.5,113.8,102,111.8,102z"/>
					</g>
					<g>
						<path class="st5" d="M111.8,109c-2.1,0-3.8-1.6-3.8-3.7c0-2,1.7-3.7,3.8-3.7c2.1,0,3.8,1.6,3.8,3.7
							C115.6,107.4,113.9,109,111.8,109z M111.8,102.3c-1.8,0-3.2,1.4-3.2,3.1c0,1.7,1.4,3.1,3.2,3.1c1.8,0,3.2-1.4,3.2-3.1
							C115,103.7,113.6,102.3,111.8,102.3z"/>
					</g>
				</g>
			</g>
		</g>
	</g>
	<g>
		<g>
			<g>
				<path class="st6" d="M123.3,52H65.3c-3.6,0-6.6,3-6.6,6.6V83c0,3.6,3,6.6,6.6,6.6h6.8v6l44.3,0.5v-6.5h6.8c3.6,0,6.6-3,6.6-6.6
					V58.6C129.9,55,126.9,52,123.3,52z"/>
			</g>
			<g>
				<path class="st7" d="M116.7,96.3l-44.8-0.5v-6h-6.6c-3.8,0-6.8-3.1-6.8-6.8V58.6c0-3.8,3.1-6.8,6.8-6.8h57.9
					c3.8,0,6.8,3.1,6.8,6.8V83c0,3.8-3.1,6.8-6.8,6.8h-6.6V96.3z M72.4,95.3l43.8,0.5v-6.5h7.1c3.5,0,6.3-2.8,6.3-6.3V58.6
					c0-3.5-2.8-6.3-6.3-6.3H65.3c-3.5,0-6.3,2.8-6.3,6.3V83c0,3.5,2.8,6.3,6.3,6.3h7.1V95.3z"/>
			</g>
		</g>
		<g>
			<g>
				<path class="st6" d="M82.2,55.9c6.7,0,12.1,5.4,12.1,12.1v9.4c0,6.7-5.4,12.1-12.1,12.1"/>
			</g>
			<g>
				<path class="st7" d="M82.2,89.7v-0.5c6.5,0,11.8-5.3,11.8-11.8v-9.4c0-6.5-5.3-11.8-11.8-11.8v-0.5c6.8,0,12.3,5.5,12.3,12.3
					v9.4C94.6,84.1,89,89.7,82.2,89.7z"/>
			</g>
		</g>
		<g>
			<g>
				<path class="st6" d="M103,89.4c-4.4,0-8.3-2.4-10.4-5.9"/>
			</g>
			<g>
				<path class="st7" d="M103,89.7c-4.3,0-8.4-2.3-10.6-6l0.4-0.3c2.1,3.6,6,5.8,10.2,5.8V89.7z"/>
			</g>
		</g>
		<g>
			<g>
				<g>
					<g>
						<path class="st8" d="M170.9,67.4c-11.5,2.4-23.5,1-35.8-2.3c-4.8-1.2-9-2.1-13.5-3.4c-3.8-0.9-7.5-1.4-11.3-1.9
							c-3.3-0.3-6.5-0.5-10-0.6c-4,0-8,0.1-11.8,0.1c0-0.5,0-1,0-1.5c-0.8-3,1-6.2,0-9.1c5.3-1.9,10.8-3.5,16.3-5.1
							c4.3-1.2,8.5-2.3,12.8-3.2c2.3-0.4,4.5-0.7,6.8-1c7.8-1.1,15-1,22.8-1.7c8.3-0.6,16.3-3.5,23.8-8.1c1,11.1-0.8,22.7,0,33.9
							C170.9,64.6,170.9,66.1,170.9,67.4L170.9,67.4z"/>
					</g>
				</g>
				<g>
					<g>
						<path class="st9" d="M171.1,67.6c-12.5,2.5-26,0.6-39.3-3.2c-7.5-2-14.5-3.7-22-4.7c-2.5-0.3-5.3-0.5-7.8-0.5
							c-4.8-0.2-9.3,0-13.8,0c0-0.6,0-1,0-1.6c-0.5-2,0-4,0.5-6.1c0-1.1,0.3-2.1-0.5-3c2-0.7,4-1.3,6-1.9c0.5-0.1,0.8-0.3,1.3-0.5
							c3.5-1.2,6.8-2.1,10.3-3.1c6.5-1.8,12.8-3.2,19.5-4.2c8.5-0.9,16-0.7,24.5-1.8c7.3-1,14.5-3.7,21.3-7.8
							c1.3,11.6-0.8,23.7-0.3,35.4C171.1,65.6,171.1,66.6,171.1,67.6L171.1,67.6z M88.8,59.2c4-0.2,8.3-0.3,12.8-0.1
							c3.8,0.1,7.3,0.4,11,0.9c8.3,1.1,15.5,3.6,23.8,5.5c11.8,3,23,4,34.3,2.2c-1-11.2,1-22.4,0.5-33.6c-0.3-1.4-0.3-2.7-0.3-4.2
							c-3,2.1-6.3,3.8-9.5,4.9c-1,0.2-2.3,0.9-3.3,1.1c-3.8,0.7-7.3,1.7-11,2c-3,0.2-6,0.7-9,0.6c-4-0.1-8,0.5-12.3,0.7
							c-5.5,0.7-11,1.8-16.5,3.2c-6.8,1.9-13.8,3.8-20.3,6.2c0,0.3,0,0.6,0.3,0.8C89.5,52.5,88,55.9,88.8,59.2L88.8,59.2z"/>
					</g>
				</g>
			</g>
			<g>
				<g>
					<path class="st10" d="M160.4,64.1c-2.8,0.9-5.8,0.4-8.5,0.4c-3.8,0.1-7.5-0.3-11.3-1c-8.8-1.6-16.8-4-25.5-5.2
						c-6-0.7-11.8-0.5-17.3-0.1c-0.3-0.5-0.3-1.3-1.8-1.5c-0.8-0.2-1.8-0.2-2.8,0c0-2.2,0.5-4.4,0.5-6.6c2-0.6,4-1.3,5-2.2
						c0.3-0.3,1-0.6,0.3-0.8c10-3.4,20.5-5.3,30.5-5.8c10.8-0.2,21.5,0.2,32.3-4.7c0,1.4,0.3,3.2,1.8,3.4c0.8,0.4,1.8,0.2,2.8-0.4
						c0,6.5-0.5,12.9-0.5,19.4C163.4,59.9,160.4,61.3,160.4,64.1L160.4,64.1z M98.8,57.6c5.8-0.5,11.5-0.5,17.5,0.1
						c7,0.9,13.3,2.9,20.3,4.2c7.8,1.5,15,2.1,22.5,1.4c0.5-2.2,3-4.2,5.5-4.8c-0.3-5.6,0.5-11.3,0.5-17c-2.5,0.8-4.3-1-4.3-3.1
						c-5.8,2.5-11.5,3.6-17.5,3.7c-7,0.3-13.3-0.4-20.3,0.2c-7.8,1-15,2.5-22.5,4.7c0.3,0.3-0.5,0.7-0.8,1c-0.3,0.1-0.8,0.4-1.3,0.7
						c-1,0.4-2,1-3.5,1.3c0.3,2-0.5,4.1-0.5,6C97,55.9,98.5,56.7,98.8,57.6L98.8,57.6z"/>
				</g>
			</g>
			<g>
				<g>
					<g>
						<path class="st10" d="M141.8,51.5c-0.3,3.2-3.3,5.9-7,7c-2.5,0.6-5,0.6-7.5,0.2c-4.8-0.8-8.5-2.8-9.5-5.3
							c-1.8-4.1,4.8-9.3,12.8-10.2c3.8-0.3,7,0.2,9.3,2C141.3,47.1,142.8,49,141.8,51.5L141.8,51.5z"/>
					</g>
				</g>
				<g>
					<g>
						<path class="st9" d="M128.3,58.9c-4.3-0.3-7.8-2.1-9.8-4c-2-2.2-1.8-4.8,1.3-7.2c1.5-1.2,3-2.1,5-3c6.3-3,13.8-1.9,16.5,2.2
							c1.5,2.3,1.3,5.1-0.3,7.6C138.6,57.7,133.6,60,128.3,58.9L128.3,58.9z M131.6,43.4c-4,0.1-8.3,1.8-11,4.1
							c-2.3,1.8-3.3,3.6-2.8,5.4c1,3.3,6.5,6,12.8,6c3.3,0,6.3-1,8.5-2.7c2.3-2.2,3.3-4.9,2.5-7.6C140.6,45,136.6,42.9,131.6,43.4
							L131.6,43.4z"/>
					</g>
				</g>
			</g>
			<g>
				<g>
					<path class="st11" d="M127.5,55.4c0.3-1.4,0.5-2.7,1.5-4c-2.8-0.9-4.8-2.4-4.3-4.5c0.5-1.6,3-3,5.5-3.3
						c-0.3-0.3-0.3-0.6-0.5-0.9c0.8-0.1,1.5-0.4,2.3-0.2c0.3,0.1,0.3,0.6,0.3,0.9c3-0.3,5.3,1.2,5.5,3.3c-1,0.3-2.3,0.4-3.3,0.5
						c-0.3-0.8-0.5-1.6-1.8-1.8c0,1.3,0.3,2.6-0.8,4c0.5,0.1,1,0.4,1.5,0.5c3,1.2,3.8,3.4,2.5,5.3c-1.3,1.7-3.8,2.5-6.3,2.4
						c0.3,0.6,0.5,1.1,0.8,1.8c-0.8-0.2-1.5-0.1-1.8-0.4c-0.8-0.3-0.8-1-1-1.6c-3.5-0.5-5.5-2.6-5.5-4.6c1.3-0.1,2.5-0.1,3.8-0.2
						C125.7,53.9,126.2,54.8,127.5,55.4L127.5,55.4z M134.2,46.2c-1,0.3-1.8,1-2,1.7c0,0.7-0.3,1.5,1.3,1.9
						C134,48.6,134.2,47.4,134.2,46.2L134.2,46.2z M133.5,56.7c1,0.2,1.8-0.3,2.5-0.7c1-1.1,0-2.6-2-2.7
						C133.7,54.5,133.5,55.5,133.5,56.7L133.5,56.7z"/>
				</g>
			</g>
			<g>
				<g>
					<path class="st10" d="M164.6,36.1c0-0.2,0.3-0.5,0.3-0.8c-0.3-0.2-0.5-0.4-0.8-0.8c-0.3-0.7,0.8-0.6,0.8-1.1
						c0.5,0.1,1.3,0,1.3,0.9c0,0-0.5,0.3-0.8-0.3c0,0.5,0,0.7,0.5,1.1c-0.8,0.4,1.5,0.9-1,1.4c0,0.2,0.3,0.2,0.3,0.4
						c-0.3,0-0.3,0-0.5,0.1c0-0.2,0.3-0.5-0.5-0.6c-0.3-0.2-0.3-0.4-0.3-0.7C164.4,35.3,164.4,36.2,164.6,36.1L164.6,36.1z
						 M165.1,34.2c-0.5,0.1,0,0.2-0.3,0.5l0.3,0.2C165.1,34.6,165.1,34.4,165.1,34.2L165.1,34.2z M164.9,36.3
						c0.3-0.3,0.3-0.3,0.5-0.6c0-0.2,0-0.2-0.3-0.2C164.9,35.9,164.9,36.1,164.9,36.3L164.9,36.3z"/>
				</g>
			</g>
			<g>
				<g>
					<path class="st10" d="M164.6,63.2c0.3-0.7-0.3-1.2-0.5-1.7c-0.3-0.7,0.8-0.4,0.8-0.9c0.5,0.3,1,0.5,1,1.2c-0.3,0-0.5,0-0.5,0
						s0-0.2,0-0.5c-0.8,0.9,0.3,1.2,0.5,1.9c0,0.7-0.8,0.7-1.3,0.9c0-0.7-1.3-1-0.8-1.5C164.6,62,163.9,63.2,164.6,63.2L164.6,63.2z
						 M164.9,61.3c-0.3,0-0.3,0.2-0.3,0.5l0.3,0.2C164.9,61.8,164.9,61.6,164.9,61.3L164.9,61.3z M164.9,63.5c0.5,0,0-0.2,0.3-0.5
						l-0.3-0.3C164.9,63,164.9,63.2,164.9,63.5L164.9,63.5z"/>
				</g>
			</g>
			<g>
				<g>
					<path class="st10" d="M97.4,48.8c0-0.1,0.3-0.3,0.3-0.4c-0.5,0.1-0.8,0.1-0.8-0.2c0-0.2,0.8-0.4,1-0.5c0.3,0,1,0,1,0.2
						c-0.3,0-0.5,0.1-0.8,0.1c0,0.2,0,0.3,0.5,0.4c0.3,0.1,0.3,0.3-1,0.6c0,0.1,0.3,0,0.3,0.1c-0.3,0-0.3,0-0.5,0.1
						c0-0.1,0.3-0.2-0.5-0.2c-0.3,0-0.3-0.1-0.3-0.2C97.2,48.5,97.2,48.8,97.4,48.8L97.4,48.8z M97.9,47.9c-0.3,0-0.3,0.1-0.3,0.2
						l0.3,0C97.9,48.1,97.9,48,97.9,47.9L97.9,47.9z M97.7,48.8c0.3,0,0.5-0.1,0.5-0.2s0-0.2-0.3-0.1C97.9,48.5,97.7,48.7,97.7,48.8
						L97.7,48.8z"/>
				</g>
			</g>
			<g>
				<g>
					<path class="st10" d="M97.4,59.1c0-0.1,0.3-0.2,0.3-0.3c-0.3-0.1-0.5-0.2-0.8-0.4c-0.3-0.3,0.8-0.1,0.8-0.3
						c0.5,0.1,1.3,0.2,1.3,0.5c0,0-0.5,0.1-0.8-0.2c0,0.2,0,0.3,0.5,0.6c0.3,0.2,0.3,0.4-1,0.4l0.3,0.1c-0.3,0-0.3,0-0.5,0
						c0-0.3-1.3-0.4-0.8-0.6C97.4,58.6,96.7,59,97.4,59.1L97.4,59.1z M97.9,58.4c-0.5,0,0,0.1-0.3,0.2l0.3,0.1
						C97.9,58.6,97.9,58.5,97.9,58.4L97.9,58.4z M97.7,59.2c0.3,0,0.5,0,0.5-0.1s0-0.2-0.3-0.2C97.9,59,97.7,59.1,97.7,59.2
						L97.7,59.2z"/>
				</g>
			</g>
		</g>
		<g>
			<g>
				<g>
					<g>
						<path class="st8" d="M167.6,62.2c-16.3,4.9-33.8,2.3-51.3-0.8c-10.5-1.7-21-1.9-30.5-1.2c-2.3-3.6-1.8-6.8-3.3-10
							c-0.3-0.4-0.3-0.7-0.8-1.1c6.3-2,13-4,19.8-6c7.3-2.1,14.5-3.8,21.8-4.9c2-0.3,4.3-0.6,6.3-0.9c0.8-0.2,1.5,0,2.3-0.2
							c5.5-1,10.5-1.7,16-3.5c1.5-0.5,2.8-1,4.3-1.8c4.3-1.7,8-3.7,11.5-6.5c1,4.1,1.3,8.5,1.8,12.8
							C165.9,46.1,166.4,54.2,167.6,62.2L167.6,62.2z"/>
					</g>
				</g>
				<g>
					<g>
						<path class="st9" d="M167.9,62.4c-11.8,3.6-24.5,3.5-37.3,1.4c-8.8-1.5-17.3-3.1-26-3.6c-6.8-0.4-13-0.2-19,0
							c-0.8-1.2-0.8-2.3-1.5-3.5c0-0.2,0-0.5,0-0.7c-0.3-0.4-0.3-0.8-0.5-1.2c-0.5-2-1-4-2-5.7c3.5-1.1,7.3-2.2,11-3.4
							c3.8-1.2,7.5-2.2,11.3-3.3c8-2.3,15.8-3.7,23.8-4.8c12.5-1.5,25-4.6,36.3-12.6c0.8,2.5,0.8,5.2,1.3,7.7
							C166.1,42.6,166.4,52.4,167.9,62.4L167.9,62.4z M85.8,60c8.8-0.7,18.5-0.5,28.3,0.8c10,1.3,19.5,3.4,29.5,4.1
							c8.3,0.4,16.3-0.4,23.8-2.8c-0.8-2-0.8-4.3-1-6.2c-0.8-10.3-1.3-20.6-2.8-30.2c-9.8,6.7-20.8,10.1-31.8,11.5
							c-0.8,0-1.5,0-2.3,0.2c-2,0.3-4.3,0.6-6.3,0.9c-6.8,1.1-13.5,2.4-20.3,4.4c-7.3,2-14.3,4.2-21,6.3c0.3,0.2,0.5,0.3,0.5,0.5
							C84,52.8,84,56.3,85.8,60L85.8,60z"/>
					</g>
				</g>
			</g>
			<g>
				<g>
					<path class="st10" d="M157.1,59.7c-13.5,3.6-28,1.2-42.1-1c-7-0.5-14-0.5-20.5,0.2c-0.5-0.6-0.8-1.3-2.3-1.6
						c-1-0.1-1.8-0.1-2.8,0c-0.8-2.3-1.3-4.5-2-6.7c2.8-0.6,5.3-1.8,4.8-2.9c8-2.6,16.3-4.7,24.8-6.2c12.8-1.7,26-1.9,38.1-8.8
						c0,1.3,0.5,3,2,3.2c1,0.1,2-0.4,2.8-1c0.8,6.2,1.3,12.5,2,18.9C159.4,55.2,156.6,57,157.1,59.7L157.1,59.7z M95.3,58.3
						c7.3-1,15.3-1,23.3,0c10.8,1.8,20.8,3.2,31.5,2c1-0.2,1.8-0.3,2.8-0.5c0.5,0,0.8-0.2,1.3-0.4c0.5,0,1.3,0,1.3-0.2
						c0.8-2.2,2.8-4.5,5-5.7c-0.5-5.6-1-10.9-1.5-16.4c-2.3,0.8-4.5-0.4-4.8-2.3c-6,2.8-12.3,4.9-18.5,5.6c-5,0.5-9.5,0.8-14.5,1.3
						c-5,0.7-9.8,1.4-14.8,2.7c-4.3,1-8.3,2.2-12.5,3.3c0,1-2.3,2.2-4.8,2.9c0.5,2,1,4,1.5,6.1C92.8,56.5,95,57.4,95.3,58.3
						L95.3,58.3z"/>
				</g>
			</g>
			<g>
				<g>
					<g>
						<path class="st10" d="M136.8,49.3c0.5,4.2-3.8,7.9-9.3,8.8c-3.8,0.5-7.3-0.4-10.5-1.7c-0.3-0.1-0.3-0.3-0.5-0.4
							c-5.3-2.3-5.5-6.6-1-9.7c2.3-1.6,5-2.8,8-3.6c2.3-0.5,4.5-0.6,6.5-0.2C134.1,43.2,137.1,45.9,136.8,49.3L136.8,49.3z"/>
					</g>
				</g>
				<g>
					<g>
						<path class="st9" d="M124.8,58.3c-4.8-0.2-9-1.8-11.3-4.1c-1.3-1.4-1.8-3-1-4.7c0.8-1.6,2.3-3,4.3-4.3c1-0.6,2.3-1.2,3.5-1.7
							c1.3-0.5,2.8-0.8,4.3-1.2c2.5-0.6,4.8-0.3,7,0.2c4.3,1.4,6.3,4.8,5.5,8.6C136.1,55.4,130.8,58.5,124.8,58.3L124.8,58.3z
							 M124.6,42.6c-3.5,0.6-7,2.2-9.3,4.1c-3,2.4-3.5,5.2-1.3,7.4c2.5,2.5,7.3,4.1,12.5,3.9c2.8-0.2,5-1,7-2.4
							c3-2.2,3.8-5.6,2.8-8.5C134.8,43.4,130.1,41.7,124.6,42.6L124.6,42.6z"/>
					</g>
				</g>
			</g>
			<g>
				<g>
					<path class="st11" d="M123.3,54.6c0-1.3,0-2.7,0.5-3.9c-1.3-0.4-2.3-0.8-3.3-1.2c-1.8-0.9-2.3-2.3-1.8-3.7
						c0.8-1.3,2.5-2.2,4.5-2.6c-0.3-0.3-0.3-0.6-0.5-0.9c0.8-0.1,1.5-0.4,2.3-0.4c0.3,0,0.3,0.6,0.5,0.6c3,0,5.5,0.8,6.3,2.8
						c-1,0.3-2.3,0.6-3.3,0.9c0-0.8-1-1.4-2-1.6c0.3,1.3,0.5,2.6,0,3.9c1.8,0.5,3.8,0.9,4.8,2c1,1.2,1,2.8,0.3,4
						c-1,1.4-3,2.2-5.3,2.5c0.3,0.5,0.3,1.2,1,1.7c-0.8,0-1.5-0.1-2.3,0.1c0-0.5-0.3-0.8-0.8-1.1c-0.3-0.2-0.3-0.5-0.3-0.6
						c-3.5-0.4-6-2-6.5-4c1.3-0.2,2.3-0.5,3.5-0.4C121.6,53.2,122.1,54.1,123.3,54.6L123.3,54.6z M124.3,44.9
						c-1.5,0.4-1.8,1.3-1.5,2.1c0.3,0.4,1.3,0.7,1.8,1.1C125.1,46.9,124.6,46,124.3,44.9L124.3,44.9z M125.6,54.9
						c1.3-0.2,2.3-0.8,2.5-1.7c0-1-1-1.6-2.3-2C125.6,52.5,125.1,53.6,125.6,54.9L125.6,54.9z"/>
				</g>
			</g>
			<g>
				<g>
					<path class="st10" d="M157.1,31.5c0-0.5,0-0.7-0.5-1.2c-0.3-0.4,0-1.1,0.5-1.3c0.5-0.4,1.3-0.3,1.3,0.4c0,0-0.3,0.3-0.5,0.3
						c0,0-0.3-0.2-0.3-0.4c-0.3,0.7,0.8,0.7,0.8,1.4c0,0.5-0.5,1-1,1.4c0-0.7-1.5,0.1-1-0.9C156.9,30.6,156.9,31.5,157.1,31.5
						L157.1,31.5z M157.4,29.4c-0.3,0.1-0.3,0.3-0.3,0.5l0.3,0.2C157.4,29.8,157.4,29.6,157.4,29.4L157.4,29.4z M157.4,31.4
						c0.3-0.3,0.5-0.3,0.5-0.6l-0.3-0.2C157.6,30.9,157.4,31.2,157.4,31.4L157.4,31.4z"/>
				</g>
			</g>
			<g>
				<g>
					<path class="st10" d="M161.4,57.5c0.5-0.9-0.5-1.2-0.8-1.9c0-0.2,0.3-0.5,0.8-0.7l-0.3-0.2c0.5,0,1,0.2,1.3,0.9l-0.3,0.2
						c-0.3,0-0.3-0.2-0.5-0.5c0,0.7,1,1,1,1.7c0,0.5-0.8,0.7-1,1.2c-0.5-0.5-1.3-0.5-1-1.2C160.6,56.8,161.1,57.3,161.4,57.5
						L161.4,57.5z M161.4,55.4c0,0.2,0,0.2-0.3,0.2c0.3,0,0.3,0.2,0.3,0.5C161.4,55.9,161.4,55.6,161.4,55.4L161.4,55.4z
						 M161.6,57.5c0.3,0,0.3-0.2,0.3-0.5l-0.3-0.2C161.6,57.1,161.6,57.3,161.6,57.5L161.6,57.5z"/>
				</g>
			</g>
			<g>
				<g>
					<path class="st10" d="M87,50.2c0-0.2,0-0.2-0.5-0.4c-0.3-0.1,0-0.4,0.5-0.5c0.5-0.2,1-0.2,1.3,0.1c-0.3,0-0.5,0.1-0.8,0
						c-0.3,0.3,0.8,0.2,0.8,0.5c0,0.2-0.5,0.4-1,0.5c0-0.2-1.5,0.1-1-0.3C86.8,49.9,86.8,50.2,87,50.2L87,50.2z M87.3,49.4
						c-0.5,0.1,0,0.1-0.3,0.2l0.3,0C87.3,49.6,87.3,49.5,87.3,49.4L87.3,49.4z M87.3,50.2c0.3-0.1,0.3-0.1,0.5-0.2
						c0-0.1,0-0.1-0.3,0C87.3,50,87.3,50.1,87.3,50.2L87.3,50.2z"/>
				</g>
			</g>
			<g>
				<g>
					<path class="st10" d="M91.3,59.8c0-0.1,0-0.3,0-0.4c-0.3-0.1-0.8-0.2-0.8-0.3c0.3-0.2,1-0.4,1.8-0.1c0,0.1,0.3,0.1,0.3,0.2
						c0,0-0.3,0.1-0.5,0c0,0-0.3-0.1-0.3-0.2c0,0.1,0,0.3,0,0.4c0.3,0.1,0.8,0.2,0.8,0.3c0,0.3-0.8,0.3-1,0.4c0-0.1,0-0.2,0-0.2
						c-0.5-0.1-1.3-0.2-0.8-0.4C90.8,59.4,91,59.8,91.3,59.8L91.3,59.8z M91.5,59c-0.3,0-0.3,0.1-0.3,0.2l0.3,0.1
						C91.5,59.2,91.5,59.1,91.5,59L91.5,59z M91.5,59.8c0.3,0,0.5,0.1,0.5,0c0-0.1-0.3-0.1-0.5-0.2C91.5,59.7,91.5,59.8,91.5,59.8
						L91.5,59.8z"/>
				</g>
			</g>
		</g>
		<g>
			<g>
				<g>
					<g>
						<path class="st8" d="M113.8,56.5c-10,2.2-21.1,4.3-32.1,5.1c-10.2,0.6-20.1-0.4-30.2,1c-4.8,0.8-9.6,2-14.2,4.5
							c-0.5,0.3-0.8,0.1-1.3,0.4c-1,0.6-2,1.2-3,1.8c-0.5-3.4-0.8-6.8-1.3-10.2c0-1,0.3-1.7,0-2.7c-0.3-1.2-0.3-2.2-0.5-3.5
							c-0.5-5-0.5-9.9-1.5-14.8c1-0.1,1.8-0.5,2.8-0.9c9.3-1.6,19-1.4,29.1,1c5.5,1.3,10.8,2.7,16.6,4.3c11.1,2.6,22.1,3.7,31.5,3.5
							c1.4,2.2,1.6,4.1,2.3,6.1c0.3,0.4,0.3,0.7,0.6,1.1c0,0.2,0,0.5,0.1,0.7C113.1,55,113.2,55.7,113.8,56.5L113.8,56.5z"/>
					</g>
				</g>
				<g>
					<g>
						<path class="st9" d="M114,56.5c-11.8,2.8-24.7,4.9-37.6,5.5c-9.9,0-19.6-0.6-29.7,1.6c-5.1,1.4-9.6,3.2-13.9,5.9
							c-0.5-3.4-0.8-6.8-1.3-10.4c0-0.7,0-1.7,0-2.5c-0.3-1.2-0.3-2.5-0.3-3.7c-0.5-5-1.3-10-1.5-15c7.5-2,15.5-2.3,23.6-1.2
							c9.5,1.4,18.8,4.4,28.4,6.7c9.8,2,19.8,2.8,28.2,2.7c0.6,0.8,0.6,1.6,1.2,2.4C112.3,51.3,112.5,54,114,56.5L114,56.5z
							 M33.3,69c5.3-3.5,11.4-5.6,17.5-6.6c8.9-1.1,17.5-0.6,26.4-0.7c12.7-0.6,24.9-2.7,36.4-5.3c-0.9-1.8-1.6-3.5-2-5.3
							c-0.3-0.4-0.3-0.8-0.6-1.3c-0.4-1.2-0.7-2.4-1.3-3.6c-1,0-2,0-3.2-0.1c-7.7-0.2-15.9-0.7-24.2-2.5C71.6,41.1,61.5,38,51,36.9
							c-7.3-0.8-14.3-0.8-20.8,1.3c1,9,1.5,17.9,2.3,26.7C32.7,66.4,33,67.6,33.3,69L33.3,69z"/>
					</g>
				</g>
			</g>
			<g>
				<g>
					<path class="st10" d="M103.4,56.7c-4.5,0.9-9.1,1.7-13.9,2.3c-9.4,1.2-18.3,0.5-27.6,0.5c-6.8-0.2-13.9,0.8-20.2,3.9
						c0-0.9-0.3-2-1.3-2.6c-1.3-0.6-2.3-0.1-3.3,0.7c-0.8-5.4-1-10.6-1.8-16.1c2.5-0.5,5-2.4,4.8-4.9c5-0.7,10.3-0.8,15.5-0.4
						c3.5,0.3,7.3,1.1,10.8,1.8c3.5,0.9,6.8,1.6,10.3,2.6c8.6,1.9,16.8,2.6,24.5,2.3c0.3,0.5,0.6,1.2,2.1,1.5c1,0.2,1.8,0.2,2.7,0.2
						c0.7,2,1.3,4.1,2,6.1C105.8,54.8,103.3,55.6,103.4,56.7L103.4,56.7z M42.6,61.8c10.4-4,21-3.5,32.2-2.6
						c3.3,0.1,6.3-0.1,9.4-0.2c3.3-0.2,6.3-0.7,9.6-1.1c2.8-0.3,5.5-1,8.3-1.4c0.2-1,2.4-1.8,4.7-2.2c-0.5-0.5-0.3-0.8-0.6-1.3
						c0-0.3,0-0.6-0.1-0.9c-0.6-1.1-0.7-2.2-1-3.4c-2,0.1-4.3-0.6-4.6-1.6c-9.7,0.6-20-1.1-30.6-3.7c-6-1.7-11.6-2.7-17.6-2.9
						c-3.8-0.1-7.3,0.1-10.8,0.5c-0.7,2.2-2.5,3.9-4.8,4.6c0.3,3.5,0.5,6.8,0.8,10.4c0.3,1.2,0,2.6,0.5,3.7
						C40.1,58.8,42.4,59.8,42.6,61.8L42.6,61.8z"/>
				</g>
			</g>
			<g>
				<g>
					<g>
						<path class="st10" d="M83.7,51.7c0.1,1.7-1.2,3.2-3.6,4.4c-2.2,1.1-4.8,1.7-7.5,2c-5.6,0.5-11.4-1.5-12.7-5.6
							c-0.5-1.7,0-3.2,0.9-4.6c0.7-1.1,2-1.9,3.2-2.5c1.5-0.6,3.2-0.9,5-0.8c1,0.1,1.8,0,2.8,0.3C77.2,45.5,83.3,48.2,83.7,51.7
							L83.7,51.7z"/>
					</g>
				</g>
				<g>
					<g>
						<path class="st9" d="M71.7,58.2c-3,0-5.8-0.4-8.4-1.5c-1.5-1.1-3.1-2.2-3.6-3.7c-0.5-1.9-0.3-3.6,0.7-5.2
							c1.5-1.9,4-2.9,6.7-3.3c6.7-0.6,15.3,2.3,16.7,6.6c0.3,1.4-0.4,2.8-1.9,3.9c-1.5,0.9-3,1.7-5,2.4
							C75.2,57.9,73.5,57.8,71.7,58.2L71.7,58.2z M71.7,44.9c-4.3-0.5-8.5,0.3-10.7,3c-1.5,2-1.4,4.4,0.1,6.5
							c3.1,3.2,8.9,4.5,14,3.1c0.3,0,0.8,0,1,0c1.3-0.5,2.8-0.7,3.8-1.3c0.5-0.5,1.2-0.6,1.7-1c1.7-1.4,2.4-3.1,1.6-4.6
							C82.3,49.2,81,48,79,47.1C76.7,46.1,74.4,45.2,71.7,44.9L71.7,44.9z"/>
					</g>
				</g>
			</g>
			<g>
				<g>
					<path class="st11" d="M70.4,55c0-1.2-0.1-2.3,0.4-3.5c-2.8-0.8-6.4-2.9-5.1-5.1c1-1.1,3-1.6,5-1.5c-0.3-0.2-0.3-0.5-0.5-0.7
						c0.7-0.1,1.5-0.1,2,0.1c0.3,0.2,0.3,0.7,0.5,0.7c2.8,0.8,5.1,1.8,5.9,3.5c-1,0.1-2,0.1-3.3,0.1c-0.3-0.6-1.3-1-1.8-1.6
						c0,1.1,0.1,2.1,0.1,3.2c2.5,0.9,5.8,1.9,5.4,4c-0.5,1.8-3.5,2.5-6,2.9c0.3,0.5,0.8,0.8,1,1.2c-0.8,0.2-1.8,0.4-2.3,0.3
						c-0.3-0.3-0.3-1.1-0.8-1.3c-2.8-0.6-5.6-1.7-6.1-3.8c1.3-0.2,2.3-0.5,3.5-0.5C68.6,53.8,69.1,54.7,70.4,55L70.4,55z M71.2,46.8
						c-1-0.1-1.8,0.3-1.7,1s1,1.2,2,1.6C71.5,48.6,71.7,47.6,71.2,46.8L71.2,46.8z M72.4,55.3c1,0.1,1.8-0.5,2.3-0.8
						c0.5-0.3,0.5-1.1,0-1.4c-0.5-0.3-1.3-0.5-1.8-0.8C72.4,53.2,72.4,54.3,72.4,55.3L72.4,55.3z"/>
				</g>
			</g>
			<g>
				<g>
					<path class="st10" d="M103.7,46.6c0.2-0.2-0.5-0.5-0.8-0.7c-0.3-0.2,0.7-0.1,0.7-0.2c0.5,0.2,0.8,0.3,1,0.5c-0.3,0-0.2,0-0.5,0
						c0,0-0.3-0.1-0.3-0.2c-0.2,0.1-0.2,0.2,0.8,0.6c-0.2,0.1,0.8,0.3-0.7,0.3c0,0,0.3,0.2-0.2,0.2c0.2-0.2-1-0.5-1-0.6
						C102.9,46.1,103.4,46.4,103.7,46.6L103.7,46.6z M103.6,45.8c-0.3,0-0.2,0.1-0.2,0.1l0.3,0.1C103.6,46,103.6,45.9,103.6,45.8
						L103.6,45.8z M103.9,46.6c0.3,0,0.2-0.1,0.2-0.1l-0.3-0.1C103.9,46.4,103.9,46.5,103.9,46.6L103.9,46.6z"/>
				</g>
			</g>
			<g>
				<g>
					<path class="st10" d="M107.3,55.5c0.2-0.3-0.5-0.3-0.5-0.5c0-0.4,1-0.4,1.8-0.1c-0.3,0-0.2,0.1-0.5,0.1c0,0-0.3-0.1-0.3-0.2
						c-0.2,0.3,0.5,0.3,0.8,0.5c0,0.1-0.2,0.2-0.7,0.3c0,0,0.3,0.3-0.2,0.2c-0.3-0.1-0.3-0.2-0.8-0.2l-0.3-0.2
						C107.1,55.2,107.1,55.6,107.3,55.5L107.3,55.5z M107.5,54.8c-0.3,0-0.2,0.1-0.2,0.2l0.3,0.1C107.5,55,107.5,54.9,107.5,54.8
						L107.5,54.8z M107.6,55.5c0-0.1,0.2-0.1,0.5-0.1c-0.3-0.1-0.3-0.1-0.5-0.2C107.6,55.4,107.6,55.5,107.6,55.5L107.6,55.5z"/>
				</g>
			</g>
			<g>
				<g>
					<path class="st10" d="M35,43.9c0-0.2,0.3-0.5,0.3-0.7c-0.8-0.1-0.8-0.6-0.8-1c0.5,0.1,0.5-0.2,0.8-0.4c0.3,0.5,1-0.1,1,0.8
						c0,0-0.5-0.1-0.8-0.3c0,0.2-0.5,0.2,0.8,1.3c0.5,0.3-0.5,0.7-0.8,1.1c-0.5-0.3-1-0.3-1.3-1.1C34.5,43.6,34.7,43.6,35,43.9
						L35,43.9z M35.2,42.2c-0.5-0.1,0,0.2-0.3,0.5C35.5,42.7,35.2,42.5,35.2,42.2L35.2,42.2z M35.5,43.9c0.3,0,0.3,0,0.3-0.2
						l-0.3-0.3C35.5,43.7,35.5,43.7,35.5,43.9L35.5,43.9z"/>
				</g>
			</g>
			<g>
				<g>
					<path class="st10" d="M38.3,66.5c0-0.2,0.3-0.5,0.3-0.7c-0.3-0.2-0.5-0.2-0.8-0.4c-0.3-0.4,0-0.9,0.5-1.2
						c0.5,0,0.8,0.4,1.3,0.6c-0.3,0-0.3,0.3-0.5,0.3c0,0-0.3-0.2-0.3-0.4c-0.3,0.7,0.5,0.9,0.8,1.3c0,0.5-0.8,0.8-1,1.3
						c0-0.2,0-0.5,0-0.5c-0.3-0.2-1-0.1-0.8-0.6C37.8,65.6,38.1,66.5,38.3,66.5L38.3,66.5z M38.6,64.6c-0.3,0-0.3,0.3-0.3,0.5
						l0.3,0.2C38.6,65.1,38.6,64.8,38.6,64.6L38.6,64.6z M38.6,66.5c0-0.2,0.3-0.3,0.5-0.3c0-0.2,0-0.5-0.3-0.4
						C38.8,66,38.6,66.2,38.6,66.5L38.6,66.5z"/>
				</g>
			</g>
		</g>
		<g>
			<g>
				<g>
					<g>
						<path class="st8" d="M109.7,56.2c-15.9,3.6-32.5,4.1-47.5,1.3c-10.7-2.9-22.3-3.3-33.4,0.2c0.5-10.5,3-20.6,3.5-30.8
							c7,0.1,14.3,1.5,21.5,3.6c11.3,3.3,21.1,8.4,32,11.9c8.8,2.3,17.9,3.3,26.6,3.5c-0.7,2.8-2,5.8-2.8,9.1
							C109.6,55.4,109.6,55.9,109.7,56.2L109.7,56.2z"/>
					</g>
				</g>
				<g>
					<g>
						<path class="st9" d="M109.7,56.2c-12.9,3-26.9,4.3-39.4,2.8c-13.2-2.7-27.9-6.1-41.8-1c0-2.3,0.3-4.8,0.5-7
							c1-8.4,2.5-16.1,3-24.3c17.3,0.5,34.6,7.7,50.5,14.8c9.9,2.8,20.4,4.6,30.2,4.6c-0.2,0.6-0.1,1.1-0.3,1.7
							C111.5,50.4,110.2,53.2,109.7,56.2L109.7,56.2z M29,57.2c6.3-2,12.6-2.7,19.2-2c3.8,0.4,7.6,0.9,11.2,1.6
							c4.8,0.9,9.4,1.9,14.3,2.6c11.7,0.7,23.7-0.6,35.6-3c0.6-2.7,1.6-5.2,2.4-7.7c0.2-0.8,0.6-1.6,0.5-2.4
							c-4.7-0.2-9.5-0.5-14.5-1.1c-3-0.5-6-0.9-9.1-1.7c-3.5-1-6.8-2-10.1-3.2C63.8,33.6,48,27.4,32.5,27c0,1,0,1.9,0,2.9
							C31.2,38.9,29.5,47.7,29,57.2L29,57.2z"/>
					</g>
				</g>
			</g>
			<g>
				<g>
					<path class="st10" d="M99.7,56.1c-8.1,1.3-16.2,1.8-24.4,1.3c-5.9-0.7-10.9-2.1-16.8-3.3c-6.6-1.4-13.4-1.5-20.2-0.4
						c0-0.7,0.2-1.4,0-1.8c-0.8-1.4-2.5-1.9-4-1.2c0.5-5.5,1.5-10.6,2-15.9c2.5,0.1,5.5-0.8,5.8-3.2c6.5,0.8,13,2,19.8,4.3
						c7.3,2.4,13.6,5.4,20.7,7.6c6.8,1.8,13.6,2.6,20.4,2.8c-0.2,0.5,0.1,1.1,1.3,1.4c1,0.2,1.8,0.2,2.8,0.1c-0.6,2-1.2,4-1.6,6.1
						c-1.5,0.1-3,0.5-4.3,1C100.4,55.2,99.4,55.6,99.7,56.1L99.7,56.1z M39.6,52.5c7.1-1.2,14.4-0.6,21.2,1.3
						c12,2.6,24.4,4.1,37.3,2.1c1-1,3.5-1.8,5.7-2.3c0.9-1.9,1.3-3.7,1.7-5.5c-2,0.1-4.1-0.7-3.9-1.6c-7.8,0-16.1-1.5-23.4-3.9
						c-3.8-1.4-7.6-2.8-11.6-4.4c-4-1.5-8.1-2.7-12.1-3.8c-3.8-1.1-7.5-1.5-11.3-2c-0.7,2.1-3.2,2.8-5.8,3.2c-0.5,4.6-1.2,9-2,13.6
						C37.8,48.8,39.8,50.5,39.6,52.5L39.6,52.5z"/>
				</g>
			</g>
			<g>
				<g>
					<g>
						<path class="st10" d="M82.4,49.7c-0.9,2.8-6.2,4.7-11.2,5c-3.8,0-7.4-0.9-10.2-3c-2.3-2-3.1-4.7-1.9-7.1
							c2-3.5,7.5-4.3,12.8-3.1c3.8,0.8,7.1,2.3,9.1,4.4C82.4,47,83.2,48.3,82.4,49.7L82.4,49.7z"/>
					</g>
				</g>
				<g>
					<g>
						<path class="st9" d="M68.2,54.6c-1.8-0.3-3.1-0.7-4.6-1.4c-0.3-0.2-0.5,0-0.8-0.2c-2-1.4-3.8-2.9-4.4-5.2
							c-0.3-1.1,0-2.3,0.5-3.4c1-1.2,2.2-2.4,4-3.1c3.2-0.8,6.5-0.8,10,0.2c5,1.4,9.4,4.1,10,6.8C83.3,52.6,75,55.4,68.2,54.6
							L68.2,54.6z M72.9,41.9c-2-0.6-4-1-6-0.7c-0.3,0-0.8-0.1-1-0.1c-3,0.4-5.7,1.7-6.7,4.1c-0.7,1.8-0.2,3.7,1.1,5.4
							c1.3,1.5,3.3,2.5,5.4,3.3c3.8,1,8.4,1,12.1-0.6c5-1.7,6.4-5.5,2.3-8.1C78,43.8,75.7,42.5,72.9,41.9L72.9,41.9z"/>
					</g>
				</g>
			</g>
			<g>
				<g>
					<path class="st11" d="M68.1,51.4c0.2-1.2,0.5-2.3,1.7-3.3C68,46.9,66,45.7,65.7,44c0-2.1,3.2-2.7,6-2.2c0-0.3-0.3-0.5-0.3-0.8
						c0.8,0.3,1.5,0.4,2.3,0.4c0,0.3,0,0.8,0,0.8c2.8,0.9,4.6,2.3,4.9,3.9c-1-0.1-2.3,0-3.3-0.4c-0.5-0.5-0.5-1.1-1.3-1.6
						c-0.5,1.1-0.5,2.2-1.2,3.1c1.8,0.7,3.8,1.7,4.4,2.9c0.8,2.4-3.4,3.9-7,3.7c0,0.5,0,1,0.3,1.5c-0.8-0.1-1.5-0.1-2-0.2
						c-0.5-0.3-0.3-1-0.3-1.5c-3-0.4-5.3-2.3-4.9-4.7c1.3,0,2.3-0.1,3.5,0.3C66.6,49.9,67.3,50.8,68.1,51.4L68.1,51.4z M72,43.6
						c-0.8-0.1-1.5-0.1-2,0.3c-0.7,0.8,0.3,1.7,1.3,2.2C71.8,45.3,71.7,44.3,72,43.6L72,43.6z M70.1,51.9c1.3,0.1,2.5-0.2,3-1
						c0.2-0.8-0.5-1.6-1.8-1.9C70.6,49.9,70.4,50.9,70.1,51.9L70.1,51.9z"/>
				</g>
			</g>
			<g>
				<g>
					<path class="st10" d="M105.4,46.3c0.2-0.1,0.5-0.1-0.3-0.5c-0.3-0.2,0.5-0.4,1-0.2c0.3,0.1,0.8,0.3,0.8,0.4
						c-0.3,0-0.5-0.1-0.5-0.1s0-0.1,0-0.2c-0.2,0.1-0.5,0.1,0.3,0.5c0.3,0.2-0.5,0.3-1,0.3l0.3,0.1c-0.3,0-0.3,0-0.5-0.1
						c0-0.2-1-0.4-0.5-0.5l0.5,0.1C105.4,46.1,105.4,46.2,105.4,46.3L105.4,46.3z M105.9,45.7c-0.3,0-0.5,0-0.2,0.2
						C106.1,46,105.9,45.8,105.9,45.7L105.9,45.7z M105.7,46.3c0.3,0,0.5,0.1,0.5,0l-0.3-0.1C105.9,46.3,105.6,46.2,105.7,46.3
						L105.7,46.3z"/>
				</g>
			</g>
			<g>
				<g>
					<path class="st10" d="M104,55.1c0-0.1,0.2-0.2,0.2-0.3c-0.3,0-0.8,0-0.8-0.2c0-0.1,0.2-0.2,0.2-0.2c0.8-0.2,1-0.3,1.5,0
						c0,0.1,0.3,0.2-0.2,0.2l-0.3-0.1c0,0.1-0.2,0.2-0.2,0.3c0.3,0,0.8,0,0.8,0.2c0,0.1-0.5,0.2-1,0.3c0,0.1,0,0.1,0,0.2
						c-0.3,0-0.3-0.1-0.3-0.2c-0.3,0-1,0.2-0.5-0.3C103.4,54.8,103.7,55.1,104,55.1L104,55.1z M104.4,54.4c-0.2,0.1-0.2,0.2-0.2,0.3
						C104.2,54.6,104.4,54.5,104.4,54.4L104.4,54.4z M104.2,55.2c0.5,0,0-0.1,0.2-0.2l-0.3-0.1C104.2,55,104.2,55.1,104.2,55.2
						L104.2,55.2z"/>
				</g>
			</g>
			<g>
				<g>
					<path class="st10" d="M36.5,33.4c0-0.2,0.2-0.4,0.2-0.7c-0.3-0.3-0.8-0.6-0.8-1.1c0-0.5,1,0.2,1-0.5c0.3,0.5,1,0.6,1,1.1
						c-0.3,0-0.5-0.1-0.8-0.4c0,0.2-0.2,0.4-0.2,0.7c0.3,0.3,0.8,0.6,0.8,0.8c0,0.2-0.5,0.4-1,0.3c0,0.2,0.3,0.5-0.2,0.4
						c0-0.2,0.2-0.4-0.5-0.8c-0.3-0.3-0.3-0.5-0.3-0.7C36.2,32.7,36.2,33.1,36.5,33.4L36.5,33.4z M37,31.9c-0.5-0.1,0,0.2-0.2,0.4
						C36.7,32,37,32.1,37,31.9L37,31.9z M36.7,33.4c0.5,0.1,0-0.2,0.2-0.4l-0.3-0.3C36.7,33,36.7,33.2,36.7,33.4L36.7,33.4z"/>
				</g>
			</g>
			<g>
				<g>
					<path class="st10" d="M34.3,55.7c0-0.2,1.5-0.1-0.3-0.9c-0.3-0.2,0-0.7,0.3-1c0.5,0.5,0.5-0.5,0.8-0.3c0.3,0.2,0.8,0.5,0.8,0.9
						c-0.3,0-0.5,0.3-0.5-0.2c0,0.2-0.3,0.2-0.3,0.5c0.5,0.2,0.8,0.9,0.3,1.4c-0.3,0-0.5,0-0.8,0c0,0.2,0.3,0.2,0.3,0.5
						c-0.3-0.5-1.3-0.2-1-1.4l0.5,0C34.3,55.2,34.3,55.5,34.3,55.7L34.3,55.7z M34.8,54c0,0.2,0,0.2-0.3,0.2c-0.3,0.2,0,0.5,0.3,0.5
						C34.8,54.5,34.8,54.3,34.8,54L34.8,54z M34.5,55.9c0.3,0,0.5,0,0.5-0.3c0-0.2,0-0.5-0.3-0.5C34.8,55.4,34.5,55.7,34.5,55.9
						L34.5,55.9z"/>
				</g>
			</g>
		</g>
		<g>
			<g>
				<path class="st6" d="M73.8,63.5L73.8,63.5c-4.5,0-8.1-3.6-8.1-8.1V42.7c0-4.5,3.6-8.1,8.1-8.1h0c4.5,0,8.1,3.6,8.1,8.1v12.7
					C81.9,59.8,78.3,63.5,73.8,63.5z"/>
			</g>
			<g>
				<path class="st7" d="M78,63.7h-8.2c-2.3,0-4.2-1.9-4.2-4.2V38.6c0-2.3,1.9-4.2,4.2-4.2H78c2.3,0,4.2,1.9,4.2,4.2v20.9
					C82.2,61.8,80.3,63.7,78,63.7z M69.7,34.9c-2,0-3.7,1.7-3.7,3.7v20.9c0,2,1.7,3.7,3.7,3.7H78c2,0,3.7-1.7,3.7-3.7V38.6
					c0-2-1.7-3.7-3.7-3.7H69.7z"/>
			</g>
		</g>
		<g>
			<g>
				<path class="st6" d="M90,63.5L90,63.5c-4.5,0-8.1-3.6-8.1-8.1V42.7c0-4.5,3.6-8.1,8.1-8.1h0c4.5,0,8.1,3.6,8.1,8.1v12.7
					C98.1,59.8,94.5,63.5,90,63.5z"/>
			</g>
			<g>
				<path class="st7" d="M94.1,63.7h-8.2c-2.3,0-4.2-1.9-4.2-4.2V38.6c0-2.3,1.9-4.2,4.2-4.2h8.2c2.3,0,4.2,1.9,4.2,4.2v20.9
					C98.3,61.8,96.5,63.7,94.1,63.7z M85.9,34.9c-2,0-3.7,1.7-3.7,3.7v20.9c0,2,1.7,3.7,3.7,3.7h8.2c2,0,3.7-1.7,3.7-3.7V38.6
					c0-2-1.7-3.7-3.7-3.7H85.9z"/>
			</g>
		</g>
		<g>
			<g>
				<path class="st6" d="M106.2,63.5L106.2,63.5c-4.5,0-8.1-3.6-8.1-8.1V42.7c0-4.5,3.6-8.1,8.1-8.1h0c4.5,0,8.1,3.6,8.1,8.1v12.7
					C114.3,59.8,110.6,63.5,106.2,63.5z"/>
			</g>
			<g>
				<path class="st7" d="M110.3,63.7h-8.2c-2.3,0-4.2-1.9-4.2-4.2V38.6c0-2.3,1.9-4.2,4.2-4.2h8.2c2.3,0,4.2,1.9,4.2,4.2v20.9
					C114.5,61.8,112.6,63.7,110.3,63.7z M102.1,34.9c-2,0-3.7,1.7-3.7,3.7v20.9c0,2,1.7,3.7,3.7,3.7h8.2c2,0,3.7-1.7,3.7-3.7V38.6
					c0-2-1.7-3.7-3.7-3.7H102.1z"/>
			</g>
		</g>
		<g>
			<g>
				<path class="st6" d="M122.3,63.5L122.3,63.5c-4.5,0-8.1-3.6-8.1-8.1V42.7c0-4.5,3.6-8.1,8.1-8.1h0c4.5,0,8.1,3.6,8.1,8.1v12.7
					C130.4,59.8,126.8,63.5,122.3,63.5z"/>
			</g>
			<g>
				<path class="st7" d="M126.5,63.7h-8.2c-2.3,0-4.2-1.9-4.2-4.2V38.6c0-2.3,1.9-4.2,4.2-4.2h8.2c2.3,0,4.2,1.9,4.2,4.2v20.9
					C130.7,61.8,128.8,63.7,126.5,63.7z M118.2,34.9c-2,0-3.7,1.7-3.7,3.7v20.9c0,2,1.7,3.7,3.7,3.7h8.2c2,0,3.7-1.7,3.7-3.7V38.6
					c0-2-1.7-3.7-3.7-3.7H118.2z"/>
			</g>
		</g>
		<g>
			<g>
				<path class="st6" d="M67.8,68.4h3.9c10.9,0,14.6-6.1,15.8-10.9c0.7-2.8-1.4-5.5-4.3-5.5H64.4c-3.1,0-5.7,2.5-5.7,5.7v6.2"/>
			</g>
			<g>
				<path class="st7" d="M71.7,68.7h-3.9v-0.5h3.9c10.6,0,14.3-5.8,15.6-10.7c0.3-1.3,0.1-2.6-0.7-3.6c-0.8-1-2-1.6-3.3-1.6H64.4
					c-3,0-5.4,2.4-5.4,5.4v6.2h-0.5v-6.2c0-3.3,2.7-5.9,5.9-5.9h18.8c1.5,0,2.8,0.7,3.7,1.8c0.9,1.2,1.2,2.6,0.8,4
					C86.4,62.7,82.6,68.7,71.7,68.7z"/>
			</g>
		</g>
	</g>
</g>
<g>
	<circle class="st12" cx="100" cy="100" r="56.6"/>
	<line class="st12" x1="58.9" y1="60.7" x2="139.3" y2="141.1"/>
</g>
</svg>
