<?xml version="1.0" encoding="utf-8"?>
<!-- Generator: Adobe Illustrator 22.0.0, SVG Export Plug-In . SVG Version: 6.00 Build 0)  -->
<svg version="1.1" id="Capa_1" xmlns="http://www.w3.org/2000/svg" xmlns:xlink="http://www.w3.org/1999/xlink" x="0px" y="0px"
	 width="28px" height="28px" viewBox="0 0 28 28" style="enable-background:new 0 0 28 28;" xml:space="preserve">
<style type="text/css">
	.st0{fill:#848585;}
</style>
<g>
	<path class="st0" d="M10.5,10.5V8c0-1.9,1.6-3.5,3.5-3.5c1.9,0,3.5,1.6,3.5,3.5v2.4h2V8c0-3-2.4-5.5-5.5-5.5C11,2.6,8.5,5,8.5,8
		v2.4H10.5z"/>
	<path class="st0" d="M20.4,12.5H7.6c-1.1,0-2.1,0.9-2.1,2.1v8.8c0,1.1,0.9,2.1,2.1,2.1h12.8c1.1,0,2.1-0.9,2.1-2.1v-8.8
		C22.5,13.4,21.6,12.5,20.4,12.5z M14,22c-1.2,0-2.2-1-2.2-2.2c0-0.7,0.3-1.3,0.9-1.7c-0.2-0.3-0.4-0.7-0.4-1.1
		c0-0.9,0.8-1.7,1.7-1.7c0.9,0,1.7,0.8,1.7,1.7c0,0.4-0.1,0.8-0.4,1.1c0.5,0.4,0.9,1,0.9,1.7C16.2,21,15.2,22,14,22z"/>
</g>
</svg>
