<?xml version="1.0" encoding="utf-8"?>
<!-- Generator: Adobe Illustrator 16.0.0, SVG Export Plug-In . SVG Version: 6.00 Build 0)  -->
<!DOCTYPE svg PUBLIC "-//W3C//DTD SVG 1.1//EN" "http://www.w3.org/Graphics/SVG/1.1/DTD/svg11.dtd">
<svg version="1.1" id="Capa_1" xmlns="http://www.w3.org/2000/svg" xmlns:xlink="http://www.w3.org/1999/xlink" x="0px" y="0px"
	 width="80px" height="80px" viewBox="0 0 80 80" enable-background="new 0 0 80 80" xml:space="preserve">
<g>
	<g>
		<ellipse fill="#FCF9F7" cx="28.853" cy="29.764" rx="7.059" ry="14.245"/>
		<path fill="#211915" d="M28.853,44.139c-3.964,0-7.188-6.448-7.188-14.375s3.225-14.376,7.188-14.376s7.188,6.449,7.188,14.376
			S32.816,44.139,28.853,44.139z M28.853,15.646c-3.82,0-6.929,6.333-6.929,14.117c0,7.782,3.108,14.115,6.929,14.115
			s6.928-6.333,6.928-14.115C35.781,21.979,32.673,15.646,28.853,15.646z"/>
	</g>
	<g>
		<ellipse cx="28.867" cy="29.764" rx="3.505" ry="3.637"/>
		<path fill="#211915" d="M28.868,33.547c-2.014,0-3.651-1.698-3.651-3.783c0-2.087,1.638-3.784,3.651-3.784
			s3.651,1.697,3.651,3.784C32.519,31.849,30.881,33.547,28.868,33.547z M28.868,26.272c-1.853,0-3.359,1.566-3.359,3.491
			s1.507,3.49,3.359,3.49c1.852,0,3.359-1.565,3.359-3.49S30.72,26.272,28.868,26.272z"/>
	</g>
	<g>
		<ellipse fill="#FCFCFC" cx="50.74" cy="29.706" rx="7.059" ry="14.245"/>
		<path fill="#211915" d="M50.74,44.081c-3.964,0-7.188-6.449-7.188-14.375c0-7.927,3.225-14.377,7.188-14.377
			s7.188,6.45,7.188,14.377C57.929,37.632,54.704,44.081,50.74,44.081z M50.74,15.59c-3.82,0-6.928,6.333-6.928,14.116
			c0,7.782,3.107,14.114,6.928,14.114s6.928-6.332,6.928-14.114C57.668,21.923,54.561,15.59,50.74,15.59z"/>
	</g>
	<g>
		<ellipse cx="50.454" cy="29.646" rx="3.505" ry="3.638"/>
		<path fill="#211915" d="M50.454,33.431c-2.014,0-3.651-1.696-3.651-3.784c0-2.085,1.638-3.782,3.651-3.782
			c2.013,0,3.651,1.697,3.651,3.782C54.105,31.734,52.467,33.431,50.454,33.431z M50.454,26.156c-1.853,0-3.359,1.566-3.359,3.49
			c0,1.926,1.507,3.492,3.359,3.492s3.358-1.566,3.358-3.492C53.813,27.723,52.307,26.156,50.454,26.156z"/>
	</g>
	<path fill="#050403" d="M4.1,65.716c0,0,0.103-0.053,0.295-0.148s0.475-0.238,0.84-0.404c0.364-0.174,0.81-0.371,1.321-0.6
		c0.514-0.223,1.091-0.482,1.732-0.734c0.319-0.129,0.653-0.264,0.998-0.402c0.348-0.133,0.707-0.27,1.076-0.41
		c0.737-0.285,1.527-0.551,2.34-0.838c0.411-0.133,0.827-0.27,1.249-0.408c0.422-0.135,0.848-0.281,1.284-0.404
		c0.87-0.248,1.75-0.523,2.642-0.748c0.446-0.115,0.892-0.23,1.335-0.344c0.444-0.111,0.892-0.205,1.333-0.309
		c0.442-0.098,0.881-0.195,1.314-0.293c0.437-0.08,0.867-0.16,1.292-0.24c0.424-0.078,0.842-0.156,1.25-0.23
		c0.411-0.059,0.813-0.117,1.205-0.172c0.391-0.057,0.772-0.109,1.14-0.162c0.368-0.059,0.728-0.078,1.071-0.115
		c0.687-0.063,1.316-0.121,1.875-0.172c0.56-0.025,1.048-0.045,1.449-0.063c0.804-0.027,1.263-0.045,1.263-0.045
		s-0.458,0.045-1.257,0.123c-0.4,0.035-0.885,0.08-1.442,0.131c-0.554,0.074-1.179,0.158-1.86,0.252
		c-0.683,0.076-1.416,0.213-2.193,0.342c-0.388,0.066-0.787,0.133-1.194,0.203c-0.405,0.082-0.819,0.166-1.24,0.252
		c-0.421,0.086-0.849,0.172-1.282,0.26c-0.431,0.1-0.866,0.201-1.305,0.305s-0.884,0.197-1.326,0.311
		c-0.441,0.117-0.884,0.234-1.327,0.352c-0.89,0.217-1.766,0.486-2.634,0.73c-0.865,0.254-1.712,0.523-2.533,0.775
		c-0.409,0.137-0.809,0.268-1.202,0.398c-0.394,0.127-0.777,0.256-1.147,0.389c-0.373,0.129-0.734,0.256-1.084,0.377
		c-0.348,0.127-0.685,0.25-1.008,0.367c-0.648,0.232-1.235,0.463-1.759,0.658c-0.52,0.203-0.976,0.381-1.346,0.533
		c-0.372,0.152-0.664,0.273-0.863,0.355C4.206,65.671,4.1,65.716,4.1,65.716z"/>
	<path fill="#050403" d="M3.637,58.474c0,0,0.108-0.039,0.312-0.111c0.203-0.07,0.5-0.18,0.882-0.305
		c0.763-0.254,1.854-0.617,3.176-1.014c0.661-0.195,1.376-0.414,2.139-0.621c0.38-0.105,0.772-0.215,1.171-0.326
		c0.402-0.105,0.812-0.213,1.229-0.32c0.833-0.223,1.701-0.43,2.582-0.641c0.882-0.207,1.782-0.4,2.68-0.6
		c0.904-0.176,1.805-0.363,2.696-0.525c0.446-0.076,0.889-0.152,1.327-0.229c0.438-0.074,0.87-0.15,1.297-0.207
		c0.427-0.061,0.848-0.121,1.258-0.18c0.411-0.061,0.813-0.115,1.207-0.154c0.788-0.084,1.529-0.176,2.218-0.23
		c0.688-0.045,1.32-0.088,1.879-0.125c0.28-0.021,0.542-0.025,0.785-0.031c0.242-0.006,0.465-0.012,0.667-0.016
		c0.804-0.014,1.264-0.021,1.264-0.021s-0.458,0.035-1.26,0.1c-0.2,0.014-0.422,0.029-0.664,0.047
		c-0.242,0.018-0.502,0.033-0.78,0.068c-0.556,0.061-1.184,0.131-1.868,0.205c-0.683,0.082-1.42,0.197-2.202,0.297
		c-0.391,0.049-0.791,0.115-1.199,0.184c-0.408,0.066-0.826,0.135-1.25,0.203c-0.85,0.129-1.72,0.314-2.61,0.467
		c-0.888,0.164-1.785,0.357-2.685,0.535c-0.897,0.197-1.795,0.385-2.675,0.586c-0.878,0.209-1.749,0.395-2.583,0.605
		c-0.418,0.102-0.829,0.201-1.232,0.299c-0.401,0.1-0.794,0.199-1.177,0.295c-0.765,0.195-1.487,0.383-2.154,0.555
		c-1.331,0.354-2.442,0.646-3.215,0.867C4.079,58.349,3.637,58.474,3.637,58.474z"/>
	<path fill="#050403" d="M75.447,65.716c0,0-0.094-0.068-0.279-0.184c-0.18-0.121-0.457-0.277-0.803-0.49
		c-0.354-0.197-0.777-0.447-1.279-0.703c-0.496-0.268-1.076-0.531-1.699-0.836c-0.314-0.146-0.648-0.285-0.99-0.436
		c-0.17-0.076-0.344-0.152-0.521-0.23c-0.176-0.076-0.359-0.145-0.545-0.217c-0.369-0.146-0.748-0.297-1.137-0.449
		c-0.393-0.139-0.793-0.283-1.201-0.426c-0.811-0.307-1.678-0.537-2.543-0.814l-0.326-0.102l-0.332-0.086
		c-0.221-0.059-0.443-0.117-0.666-0.174c-0.445-0.117-0.893-0.232-1.34-0.35c-0.904-0.189-1.804-0.398-2.696-0.574
		c-0.897-0.15-1.78-0.299-2.634-0.443c-0.86-0.107-1.692-0.211-2.48-0.309c-0.395-0.059-0.781-0.072-1.153-0.105
		c-0.373-0.029-0.733-0.059-1.079-0.086c-0.692-0.051-1.326-0.119-1.891-0.125c-0.564-0.02-1.057-0.037-1.461-0.053
		c-0.813-0.031-1.275-0.051-1.275-0.051s0.464-0.01,1.275-0.025c0.406-0.004,0.899-0.012,1.465-0.02
		c0.566-0.021,1.204,0.016,1.9,0.047c0.348,0.016,0.71,0.031,1.086,0.047c0.374,0.021,0.764,0.029,1.16,0.076
		c0.795,0.082,1.633,0.168,2.501,0.256c0.862,0.129,1.752,0.268,2.657,0.414c0.898,0.172,1.807,0.377,2.717,0.566
		c0.451,0.119,0.9,0.238,1.35,0.357c0.223,0.061,0.445,0.119,0.67,0.178l0.332,0.09l0.33,0.104c0.871,0.281,1.736,0.535,2.549,0.854
		c0.41,0.152,0.814,0.297,1.205,0.449c0.387,0.164,0.766,0.326,1.133,0.48c0.184,0.078,0.367,0.152,0.543,0.234
		s0.348,0.164,0.518,0.246c0.338,0.162,0.67,0.314,0.98,0.471c0.617,0.326,1.186,0.619,1.67,0.914
		c0.492,0.279,0.906,0.551,1.25,0.764c0.338,0.227,0.602,0.408,0.773,0.539C75.357,65.644,75.447,65.716,75.447,65.716z"/>
	<path fill="none" stroke="#050403" stroke-width="0.1984" stroke-miterlimit="10" d="M75.447,58.466"/>
	<path fill="#050403" d="M75.447,58.466c0,0-0.107-0.037-0.313-0.109c-0.203-0.07-0.502-0.172-0.883-0.301
		c-0.379-0.131-0.844-0.279-1.377-0.449c-0.535-0.164-1.135-0.357-1.795-0.551c-0.66-0.201-1.377-0.404-2.135-0.619
		c-0.758-0.221-1.564-0.416-2.395-0.645c-0.834-0.205-1.695-0.424-2.574-0.627c-0.881-0.195-1.771-0.412-2.672-0.582
		c-0.449-0.09-0.898-0.182-1.346-0.273c-0.449-0.088-0.898-0.158-1.342-0.238c-0.443-0.078-0.885-0.154-1.32-0.232
		c-0.438-0.064-0.87-0.127-1.295-0.189c-0.424-0.063-0.842-0.125-1.252-0.186c-0.41-0.047-0.813-0.092-1.204-0.139
		c-0.782-0.09-1.521-0.186-2.208-0.227c-0.686-0.059-1.314-0.111-1.872-0.158c-0.558-0.023-1.045-0.043-1.446-0.061
		c-0.804-0.037-1.263-0.061-1.263-0.061s0.46-0.006,1.264-0.016c0.403-0.004,0.892-0.006,1.452-0.012
		c0.56,0.023,1.191,0.051,1.881,0.078c0.345,0.02,0.705,0.021,1.076,0.059c0.371,0.033,0.753,0.066,1.147,0.102
		c0.394,0.035,0.799,0.072,1.212,0.109c0.412,0.055,0.833,0.109,1.261,0.164c0.429,0.055,0.863,0.113,1.304,0.17
		c0.438,0.072,0.882,0.146,1.328,0.221c0.447,0.078,0.898,0.146,1.35,0.232c0.449,0.09,0.9,0.18,1.352,0.27
		c0.904,0.174,1.799,0.395,2.682,0.596c0.443,0.098,0.877,0.217,1.307,0.328c0.43,0.113,0.854,0.225,1.27,0.334
		c0.83,0.24,1.635,0.459,2.387,0.699c0.379,0.119,0.746,0.232,1.102,0.344c0.352,0.119,0.691,0.234,1.02,0.342
		c0.654,0.215,1.248,0.438,1.775,0.627c0.523,0.199,0.98,0.369,1.355,0.518c0.375,0.146,0.666,0.27,0.863,0.354
		C75.342,58.421,75.447,58.466,75.447,58.466z"/>
	<path fill="none" stroke="#050403" stroke-width="0.1984" stroke-miterlimit="10" d="M34.456,52.817"/>
	<g>
		<path fill="#CB6120" d="M35.217,52.817l8.994,0.168c0,0,1.687,0.197-1.224,3.141c-2.91,2.943-3.273,3.141-3.273,3.141
			l-3.439-3.225C36.274,56.042,32.935,53.147,35.217,52.817z"/>
		<path fill="#050403" d="M39.698,59.39l-3.491-3.275c-0.084-0.072-2.143-1.871-1.858-2.84c0.088-0.299,0.375-0.484,0.854-0.555
			l9.01,0.166c0.025,0.004,0.415,0.053,0.544,0.42c0.201,0.574-0.37,1.547-1.698,2.891c-2.888,2.92-3.282,3.15-3.297,3.158
			L39.698,59.39z M35.215,52.919c-0.38,0.055-0.613,0.193-0.677,0.412c-0.207,0.703,1.23,2.143,1.801,2.637l3.382,3.172
			c0.183-0.145,0.88-0.742,3.195-3.084c1.663-1.682,1.75-2.402,1.653-2.682c-0.086-0.252-0.359-0.289-0.371-0.291L35.215,52.919z"/>
	</g>
</g>
</svg>
