<svg width="29" height="29" viewBox="0 0 29 29" version="1.1" xmlns="http://www.w3.org/2000/svg"><title>star</title><g stroke="none" stroke-width="1" fill="none" fill-rule="evenodd"><g><g><path d="M14.602 24.483l6.643 3.514a2 2 0 0 0 2.907-2.104l-1.272-7.46 5.399-5.294a2 2 0 0 0-1.111-3.407l-7.45-1.089-3.32-6.768a2 2 0 0 0-3.592 0l-3.32 6.768-7.45 1.09a2 2 0 0 0-1.111 3.406l5.398 5.294-1.271 7.46a2 2 0 0 0 2.906 2.104l6.644-3.514z" fill="#FFC800"/><path d="M21.245 27.997l-6.643-3.514-6.644 3.514a2 2 0 0 1-2.106-.146l8.643-12.519 8.692 12.625a1.999 1.999 0 0 1-1.942.04z" fill="#FDB500"/><path d="M13.72.96a2 2 0 0 0-.914.915l-3.32 6.768-7.45 1.09a2 2 0 0 0-1.692 1.703l14.195 3.86V.756a1.993 1.993 0 0 0-.818.204z" fill="#FFD84E"/></g></g></g></svg>