<?xml version="1.0" encoding="utf-8"?>
<!-- Generator: Adobe Illustrator 22.0.0, SVG Export Plug-In . SVG Version: 6.00 Build 0)  -->
<svg version="1.1" id="Capa_1" xmlns="http://www.w3.org/2000/svg" xmlns:xlink="http://www.w3.org/1999/xlink" x="0px" y="0px"
	 width="22.2px" height="22.2px" viewBox="0 0 22.2 22.2" style="enable-background:new 0 0 22.2 22.2;" xml:space="preserve">
<style type="text/css">
	.st0{fill:#42454A;}
</style>
<g>
	<path class="st0" d="M11,1.8c-5,0-9.1,4.1-9.1,9.1c0,5,4.1,9.1,9.1,9.1s9.1-4.1,9.1-9.1C20.2,5.9,16.1,1.8,11,1.8z M11.7,18.6V18
		c0-0.4-0.3-0.7-0.7-0.7c-0.4,0-0.7,0.3-0.7,0.7v0.6c-3.7-0.3-6.7-3.3-7-7h0.6c0.4,0,0.7-0.3,0.7-0.7s-0.3-0.7-0.7-0.7H3.3
		c0.3-3.7,3.3-6.7,7-7v0.6c0,0.4,0.3,0.7,0.7,0.7c0.4,0,0.7-0.3,0.7-0.7V3.2c3.7,0.3,6.7,3.3,7,7h-0.6c-0.4,0-0.7,0.3-0.7,0.7
		s0.3,0.7,0.7,0.7h0.6C18.4,15.3,15.5,18.3,11.7,18.6z"/>
	<path class="st0" d="M15.1,6.4l-4.1,4.3c0,0,0,0,0,0c-0.1,0-0.1,0-0.1,0L7.5,8.2C7.3,8,6.9,8,6.8,8.3C6.6,8.5,6.6,8.8,6.9,9
		l3.4,2.6c0,0.4,0.4,0.7,0.8,0.7c0.4,0,0.8-0.3,0.8-0.8c0,0,0,0,0-0.1l4.1-4.3c0.2-0.2,0.2-0.5,0-0.7C15.7,6.2,15.3,6.2,15.1,6.4z"
		/>
</g>
</svg>
