<?xml version="1.0" encoding="utf-8"?>
<!-- Generator: Adobe Illustrator 22.0.0, SVG Export Plug-In . SVG Version: 6.00 Build 0)  -->
<svg version="1.1" id="Capa_1" xmlns="http://www.w3.org/2000/svg" xmlns:xlink="http://www.w3.org/1999/xlink" x="0px" y="0px"
	 width="62px" height="62px" viewBox="0 0 62 62" style="enable-background:new 0 0 62 62;" xml:space="preserve">
<style type="text/css">
	.st0{fill:#A8A8A8;}
</style>
<g>
	<g>
		<path class="st0" d="M55.6,33.8c1.2-1.4,1.8-3,1.8-4.9c0-1.7-0.6-3.2-1.9-4.5c-1.3-1.3-2.7-1.9-4.5-1.9h-9.2
			c0.1-0.3,0.2-0.6,0.3-0.8c0.1-0.2,0.2-0.5,0.4-0.7c0.2-0.3,0.3-0.5,0.3-0.6c0.4-0.7,0.7-1.4,0.9-1.9c0.2-0.5,0.4-1.1,0.6-2
			c0.2-0.8,0.3-1.7,0.3-2.5c0-0.5,0-1,0-1.3c0-0.3-0.1-0.8-0.2-1.5c-0.1-0.7-0.2-1.2-0.4-1.7c-0.2-0.4-0.4-0.9-0.8-1.5
			c-0.4-0.6-0.8-1-1.3-1.3c-0.5-0.3-1.2-0.6-2-0.9c-0.8-0.2-1.7-0.3-2.7-0.3c-0.6,0-1.1,0.2-1.5,0.6c-0.4,0.4-0.8,1-1.1,1.7
			c-0.3,0.7-0.5,1.2-0.6,1.7c-0.1,0.5-0.3,1.2-0.4,2c-0.2,0.9-0.3,1.6-0.4,2c-0.1,0.4-0.3,0.9-0.6,1.6c-0.3,0.7-0.6,1.2-1,1.6
			c-0.7,0.7-1.8,2-3.3,4c-1.1,1.4-2.2,2.7-3.3,4c-1.1,1.3-2,1.9-2.5,2c-0.6,0-1,0.3-1.4,0.7c-0.4,0.4-0.6,0.9-0.6,1.4V50
			c0,0.6,0.2,1.1,0.6,1.5c0.4,0.4,0.9,0.6,1.5,0.6c0.8,0,2.5,0.5,5.2,1.5c1.7,0.6,3,1,4,1.3c1,0.3,2.3,0.6,4,1
			c1.7,0.3,3.3,0.5,4.8,0.5h0.6h2.5h1.2c2.9,0,5.1-0.9,6.5-2.6c1.3-1.5,1.8-3.5,1.6-6c0.9-0.8,1.5-1.9,1.8-3.1
			c0.4-1.3,0.4-2.6,0-3.9c1-1.3,1.5-2.9,1.4-4.5C56.1,35.6,56,34.8,55.6,33.8z"/>
		<path class="st0" d="M16.2,26.8H6.7c-0.6,0-1.1,0.2-1.5,0.6c-0.4,0.4-0.6,0.9-0.6,1.5V50c0,0.6,0.2,1.1,0.6,1.5
			c0.4,0.4,0.9,0.6,1.5,0.6h9.5c0.6,0,1.1-0.2,1.5-0.6c0.4-0.4,0.6-0.9,0.6-1.5V28.9c0-0.6-0.2-1.1-0.6-1.5
			C17.3,27,16.8,26.8,16.2,26.8z M12.4,47.3c-0.4,0.4-0.9,0.6-1.5,0.6c-0.6,0-1.1-0.2-1.5-0.6c-0.4-0.4-0.6-0.9-0.6-1.5
			c0-0.6,0.2-1.1,0.6-1.5c0.4-0.4,0.9-0.6,1.5-0.6c0.6,0,1.1,0.2,1.5,0.6c0.4,0.4,0.6,0.9,0.6,1.5C13,46.4,12.8,46.9,12.4,47.3z"/>
	</g>
</g>
</svg>
