<?xml version="1.0" encoding="utf-8"?>
<!-- Generator: Adobe Illustrator 22.0.0, SVG Export Plug-In . SVG Version: 6.00 Build 0)  -->
<svg version="1.1" xmlns="http://www.w3.org/2000/svg" xmlns:xlink="http://www.w3.org/1999/xlink" x="0px" y="0px" width="31.1px"
	 height="31.1px" viewBox="0 0 31.1 31.1" style="enable-background:new 0 0 31.1 31.1;" xml:space="preserve">
<style type="text/css">
	.st0{fill:#5D7A7F;}
	.st1{opacity:0.18;}
	.st2{opacity:0.51;fill:#F2F2F2;}
	.st3{fill:#153E49;}
	.st4{fill:#F7D77F;}
	.st5{opacity:0.61;fill:#FFFFFF;}
	.st6{fill:#BA656D;}
</style>
<g id="Background">
</g>
<g id="object">
	<g>
		<g>
			<g>
				<polygon class="st0" points="7.1,22.2 8.6,23.9 15.4,17.7 13.9,16 				"/>
				<path class="st1" d="M15.3,17.8l-4.5,1.1l3-2.7C13.8,16.1,14.6,17.1,15.3,17.8z"/>
			</g>
			<ellipse transform="matrix(0.9837 -0.1801 0.1801 0.9837 -1.5795 3.9504)" class="st2" cx="21" cy="10.7" rx="8.7" ry="8.7"/>
			<path class="st1" d="M19,18c1.6,0.2,3.2,0,4.8-0.5c1.5-0.5,3-1.2,4.1-2.4c0.5-0.5,0.9-1,1.2-1.6c-0.8,2.1-2.3,3.8-4.5,4.8
				c-3.3,1.5-7,0.8-9.5-1.5C16.3,17.5,17.7,17.9,19,18z"/>
			<path class="st3" d="M1.2,28.7l0.6,0.7c0.4,0.5,1.1,0.5,1.6,0.1l7-6.4c0.1-0.1,0.1-0.2,0-0.3l-1.9-2.1c-0.1-0.1-0.2-0.1-0.3,0
				l-7,6.4C0.8,27.5,0.7,28.2,1.2,28.7z"/>
			<polygon class="st4" points="7,21.8 9.2,24.2 9.4,23.9 7.3,21.5 			"/>
			<polygon class="st4" points="6.3,22.4 8.5,24.8 8.8,24.6 6.6,22.1 			"/>
			<g>
				<path class="st3" d="M14.7,3.7c3.8-3.5,9.7-3.2,13.1,0.7c3.4,3.8,3.2,9.8-0.6,13.2c-3.8,3.5-9.7,3.2-13.1-0.7
					C10.7,13.1,10.9,7.2,14.7,3.7z M15.3,4.4c-3.4,3.1-3.7,8.5-0.6,12s8.5,3.8,11.9,0.6c3.4-3.1,3.7-8.5,0.6-12S18.7,1.2,15.3,4.4z"
					/>
			</g>
			<path class="st5" d="M18.7,3.5c1.2-0.5,2.5-0.6,3.8-0.3c1.1,0.3,2.2,0.9,2.7,1.9c0.1,0.2-0.1,0.4-0.3,0.3c-0.8-0.6-1.6-1-2.6-1.3
				c-1.1-0.2-2.2,0-3.2,0.3C18.5,4.5,18.2,3.7,18.7,3.5z"/>
		</g>
		<g>
			<path class="st6" d="M12.6,12.2c-0.9-4.7,2.2-9.2,6.9-10c4.6-0.9,9.1,2.3,10,7c0.9,4.7-2.2,9.2-6.9,10
				C17.9,20,13.4,16.9,12.6,12.2z M12.8,12.2c0.8,4.6,5.2,7.7,9.8,6.8s7.6-5.3,6.7-9.8c-0.8-4.6-5.2-7.7-9.8-6.8
				C14.9,3.2,11.9,7.6,12.8,12.2z"/>
		</g>
	</g>
</g>
</svg>
