<?xml version="1.0" encoding="utf-8"?>
<!-- Generator: Adobe Illustrator 16.0.0, SVG Export Plug-In . SVG Version: 6.00 Build 0)  -->
<!DOCTYPE svg PUBLIC "-//W3C//DTD SVG 1.1//EN" "http://www.w3.org/Graphics/SVG/1.1/DTD/svg11.dtd">
<svg version="1.1" xmlns="http://www.w3.org/2000/svg" xmlns:xlink="http://www.w3.org/1999/xlink" x="0px" y="0px" width="251.5px"
	 height="251.5px" viewBox="0 0 251.5 251.5" enable-background="new 0 0 251.5 251.5" xml:space="preserve">
<g id="Color">
	<path fill="#EEC8B9" stroke="#000000" stroke-miterlimit="10" d="M133.316,137.158"/>
	<path fill="#EEC8B9" d="M134.463,105.25L125.75,109c0,0-24.753-4.06-25.001-2.696S91,103.375,76,112c0,0,1.179-0.967,1.485-7.379
		c0,0-0.688-32.371-1.461-34.453c0,0-1.525-12.331,8.309-21.499l2.917-3.919c0,0,13.249,2.915,19.5-4.5c0,0,3.092-1.516,3.813-1.01
		s0.722,0.506,0.722,0.506s4.923,0.46,7.652-2.309c0,0,2.062-5.433-4.438-6.518l2.125-0.92l1.669-5.665c0,0,0.229-3.949-3.282-5.391
		l-9.168-7.2c0,0-2.438,0.225-2.375,0.506c0,0-2.701-1.709-4.913-0.323c0,0-3.542,0.071-4.252,1.135c0,0-2.96,2.813-2.429,3.282
		c0,0-1.213-1.943-3.713,0.625s-2.5,2.568-2.5,2.568l-7.799,7.396l-1.009,0.876l-3.157,4.05l-1.446,2.144
		c0,0-4.88,4.581-4.534,6.945s-4.41,13.055-4.41,13.055l-8.013,17.516l-4.717,8.482c0,0-12.897,21.249-6.612,31.999
		c0,0,3.869,10.742,3.702,11.163s43.094,37.233,81.13,15.952s38.036-21.281,38.036-21.281L134.463,105.25z"/>
</g>
<g id="Sombras">
	<path fill="#EBB3A0" d="M127.18,108.625c0,0,34.709,63.375-76.485,17.125c0,0,34.467,25.172,59.056,20.246
		c0,0,14.563-3.948,17.552-5.889l0.532-0.28c0,0,4.554-3.283,5.901-2.597s1.982-1.988,1.982-1.988l-1.255-29.992L127.18,108.625z"/>
</g>
<g id="Contorno">
	<g>
		<path d="M183.5,84.5H181c0,0-1.833-0.083-4.333,2.417s-22.001,17.375-40.334,16.208c0,0-2.833,0.708-2.833,4.708
			s0,31.667,0,31.667s0.334,4,4.417,4s19.083,0,19.083,0s16.668,15.917,18.334,29.917c0,0,0.582,35.207,2.916,41.873
			s5.25,7.875,5.25,7.875V84.5z"/>
		<path d="M184,84.241l-3,0.259h0.002c-1.012,0-1.915,0.5-2.743,1.089c-0.838,0.597-1.53,1.246-2.308,1.921
			c-1.564,1.349-3.213,2.526-4.905,3.702c-0.838,0.6-1.702,1.132-2.566,1.693c-0.854,0.578-1.751,1.071-2.627,1.614
			c-0.877,0.543-1.793,1.01-2.688,1.523c-0.896,0.511-1.831,0.944-2.745,1.421c-0.911,0.486-1.871,0.868-2.805,1.308
			c-0.93,0.449-1.903,0.794-2.86,1.181c-0.953,0.401-1.935,0.721-2.918,1.04l-1.472,0.485l-1.5,0.394
			c-1.002,0.255-1.996,0.546-3.021,0.698l-1.528,0.273c-0.509,0.101-1.021,0.178-1.538,0.208c-1.033,0.077-2.063,0.219-3.099,0.242
			l-3.112-0.027l0.099-0.012c-1.087,0.441-1.856,1.591-2.147,2.769c-0.091,0.297-0.164,0.599-0.168,0.917l-0.071,0.941l0.004,1.953
			l0.015,7.812l0.031,15.623l0.008,3.905l0.003,1.953c0.002,0.342-0.01,0.631,0.046,0.92c0.045,0.294,0.134,0.58,0.254,0.846
			c0.459,1.107,1.633,1.694,2.858,1.733c1.25,0.044,2.589-0.048,3.88-0.04L157,142.5h0.159l0.111,0.166
			c1.078,1.061,2.101,2.177,3.108,3.289c1.007,1.111,1.993,2.255,2.944,3.414c0.477,0.579,0.96,1.159,1.415,1.756
			c0.457,0.594,0.934,1.177,1.376,1.783l1.331,1.817l1.271,1.861c0.434,0.613,0.818,1.261,1.216,1.898
			c0.394,0.641,0.806,1.27,1.157,1.937l1.091,1.977l0.978,2.04c0.349,0.669,0.582,1.393,0.872,2.091l0.415,1.055
			c0.129,0.355,0.222,0.725,0.334,1.086c0.195,0.733,0.477,1.442,0.6,2.195l0.267,2.247l-0.145,0.013v0.031
			c1,8.669,0.779,17.34,1.332,25.989c0.145,2.162,0.386,4.321,0.579,6.478l0.372,3.227c0.154,1.064,0.271,2.147,0.472,3.197
			c0.098,0.525,0.187,1.061,0.301,1.577c0.139,0.496,0.263,1.032,0.415,1.497c0.42,0.991,0.76,2.061,1.281,2.955
			c0.457,0.939,1.034,1.842,1.682,2.66l0.498,0.605l0.555,0.543c0.363,0.35,0.808,0.675,1.184,0.876l-0.608,0.404l0.138-69.583
			l0.102-34.67L184,84.241z M184,83.759l0.199,34.912l0.133,34.851l0.168,69.644v0.718l-0.64-0.313
			c-0.585-0.301-1.028-0.641-1.454-1.032l-0.617-0.594l-0.543-0.648c-0.699-0.877-1.305-1.815-1.801-2.823
			c-0.568-0.988-0.888-2.004-1.317-3.008c-0.191-0.563-0.308-1.09-0.462-1.637c-0.121-0.541-0.204-1.081-0.308-1.622
			c-0.209-1.081-0.312-2.163-0.472-3.244l-0.352-3.248c-0.203-2.166-0.38-4.332-0.534-6.5c-0.602-8.672-0.899-17.351-1.126-26.035
			l0.003,0.043l-0.389-2.16c-0.112-0.724-0.387-1.416-0.572-2.126c-0.107-0.351-0.195-0.709-0.319-1.055l-0.401-1.031
			c-0.28-0.682-0.503-1.388-0.844-2.046l-0.95-2.004l-1.066-1.95c-0.343-0.657-0.748-1.279-1.133-1.913
			c-0.391-0.631-0.768-1.271-1.194-1.879l-1.249-1.844l-1.311-1.803c-0.436-0.603-0.906-1.18-1.356-1.771
			c-0.449-0.593-0.926-1.163-1.396-1.739c-0.938-1.153-1.913-2.278-2.908-3.384c-0.992-1.105-2.011-2.198-3.059-3.237l0.271,0.109
			l-15.623-0.03c-1.313-0.014-2.58,0.021-3.93-0.033c-0.682-0.051-1.39-0.19-2.016-0.561c-0.632-0.353-1.129-0.938-1.419-1.591
			c-0.302-0.631-0.385-1.416-0.352-2.047l0.003-1.953l0.008-3.905l0.031-15.623l0.015-7.812l0.004-1.953l0.08-1.006
			c0.007-0.338,0.086-0.668,0.187-0.996c0.345-1.296,1.144-2.699,2.513-3.25l0.033-0.13h0.065l3.063,0.155
			c1.021-0.018,2.037-0.097,3.057-0.168c1.023-0.05,2.02-0.288,3.033-0.429c1.016-0.138,2.003-0.401,2.999-0.643l1.491-0.366
			l1.466-0.462c0.979-0.305,1.958-0.61,2.908-0.999c0.956-0.374,1.929-0.706,2.858-1.142c0.934-0.427,1.894-0.797,2.806-1.271
			c0.916-0.465,1.853-0.889,2.751-1.388c0.897-0.5,1.816-0.964,2.696-1.495c0.879-0.532,1.78-1.029,2.639-1.595
			c0.868-0.55,1.736-1.101,2.579-1.69c1.701-1.153,3.364-2.373,4.934-3.695c0.783-0.665,1.487-1.671,2.338-2.263
			c0.842-0.584,1.752-0.55,2.78-1.55H181L184,83.759z"/>
	</g>
	<g>
		<path d="M76,112c0,0,0.722-0.613,2.175-1.394c0.356-0.208,0.771-0.399,1.22-0.613c0.445-0.222,0.935-0.444,1.471-0.651
			c1.055-0.461,2.288-0.866,3.64-1.288c1.366-0.364,2.847-0.773,4.443-1.06c1.584-0.364,3.287-0.539,5.041-0.777
			c0.882-0.066,1.777-0.134,2.686-0.202c0.453-0.034,0.91-0.067,1.369-0.102c0.46-0.01,0.922-0.02,1.386-0.029
			c0.928-0.019,1.862-0.039,2.802-0.058c0.938-0.007,1.88,0.048,2.822,0.069c0.94,0.044,1.884,0.069,2.819,0.133
			c0.934,0.087,1.864,0.175,2.787,0.261c0.922,0.091,1.839,0.162,2.74,0.268c0.898,0.127,1.787,0.254,2.66,0.378
			c1.748,0.239,3.435,0.487,5.013,0.838c1.584,0.32,3.08,0.622,4.462,0.901c0.384,0.124,0.574,0.015,0.878-0.055
			c0.311-0.091,0.613-0.206,0.911-0.314c0.592-0.227,1.15-0.46,1.672-0.69c1.043-0.458,1.943-0.885,2.682-1.24
			c1.478-0.716,2.321-1.125,2.321-1.125s-0.799,0.493-2.231,1.298c-0.718,0.399-1.592,0.88-2.612,1.404
			c-0.51,0.263-1.059,0.532-1.648,0.8c-0.297,0.132-0.606,0.257-0.938,0.37c-0.158,0.059-0.389,0.108-0.578,0.144
			c-0.108,0-0.124,0.016-0.309,0.003l-0.259-0.042c-1.385-0.227-2.886-0.473-4.473-0.733c-1.582-0.292-3.269-0.464-5.005-0.697
			c-0.869-0.113-1.752-0.228-2.646-0.344c-0.896-0.094-1.807-0.153-2.722-0.232c-0.916-0.075-1.84-0.15-2.767-0.225
			c-0.928-0.053-1.861-0.063-2.793-0.1c-0.933-0.032-1.864-0.099-2.793-0.103c-0.929,0.008-1.854,0.017-2.771,0.024
			c-0.459,0.004-0.916,0.008-1.371,0.012c-0.454,0.028-0.905,0.056-1.354,0.084c-0.897,0.056-1.784,0.112-2.656,0.167
			c-1.729,0.232-3.423,0.325-4.995,0.63c-1.589,0.225-3.061,0.575-4.425,0.885c-1.344,0.379-2.587,0.703-3.655,1.093
			c-0.543,0.173-1.039,0.363-1.492,0.556c-0.456,0.186-0.879,0.35-1.242,0.535C76.773,111.459,76,112,76,112z"/>
	</g>
	<g>
		<path d="M76.417,111.333c0,0,0.03-0.057,0.088-0.166c0.045-0.115,0.094-0.293,0.166-0.518c0.137-0.451,0.233-1.151,0.359-2.025
			c0.048-0.89,0.221-1.955,0.207-3.197c0.01-0.619,0.02-1.278,0.029-1.973c0.021-0.693,0.03-1.423-0.003-2.186
			c-0.048-1.525-0.06-3.176-0.144-4.921c-0.104-1.745-0.216-3.585-0.33-5.488c-0.076-1.904-0.301-3.867-0.449-5.864
			c-0.168-1.998-0.339-4.028-0.51-6.058c-0.172-2.024-0.24-4.095-0.279-6.104c-0.007-2.018,0.04-4.006,0.197-5.926
			c0.317-3.836,1.128-7.401,2.396-10.233c0.625-1.419,1.388-2.635,2.185-3.607c0.787-0.983,1.599-1.722,2.275-2.305
			c0.671-0.585,1.229-1.017,1.483-1.418c0.265-0.397,0.229-0.681,0.244-0.674c-0.017-0.007,0.044,0.273-0.197,0.702
			c-0.236,0.429-0.759,0.919-1.399,1.534c-0.641,0.616-1.396,1.387-2.11,2.387c-0.722,0.992-1.393,2.208-1.963,3.603
			c-1.162,2.792-1.77,6.306-2.05,10.078c-0.133,1.89-0.157,3.853-0.129,5.845c0.062,2,0.151,4.004,0.343,6.04
			c0.148,2.033,0.296,4.065,0.442,6.066c0.127,2.005,0.33,3.971,0.386,5.885c0.065,1.913,0.13,3.762,0.19,5.515
			c0.025,1.755-0.018,3.417-0.021,4.947c0.026,1.531-0.154,2.937-0.217,4.178c-0.056,1.243-0.289,2.317-0.386,3.203
			c-0.055,0.443-0.182,0.829-0.256,1.168c-0.087,0.336-0.139,0.627-0.244,0.848c-0.091,0.224-0.152,0.396-0.206,0.506
			C76.451,111.28,76.417,111.333,76.417,111.333z"/>
	</g>
	<g>
		<path d="M87.25,44.75c1.731,0.315,3.472,0.444,5.199,0.458c0.432,0.014,0.863-0.021,1.294-0.029
			c0.431-0.001,0.857-0.059,1.286-0.087c0.429-0.022,0.853-0.091,1.275-0.16c0.424-0.06,0.85-0.109,1.263-0.217
			c0.415-0.1,0.838-0.173,1.246-0.294l1.222-0.375c0.409-0.119,0.788-0.318,1.185-0.473c0.397-0.156,0.791-0.319,1.157-0.538
			l1.125-0.61l1.063-0.718c0.367-0.225,0.694-0.502,1.02-0.784l0.994-0.833l0.048-0.04l0.009-0.004
			c0.439-0.202,0.88-0.383,1.333-0.542c0.225-0.083,0.457-0.148,0.688-0.21c0.119-0.023,0.241-0.038,0.358-0.056
			c0.119-0.019,0.245,0.01,0.359,0.013c-0.12,0.021-0.235,0.016-0.346,0.058s-0.221,0.078-0.328,0.122
			c-0.213,0.1-0.426,0.191-0.631,0.307c-0.412,0.219-0.818,0.462-1.205,0.717l0.056-0.043l-0.919,0.971
			c-0.302,0.333-0.619,0.649-0.983,0.912l-1.056,0.839c-0.378,0.243-0.769,0.466-1.154,0.7c-0.38,0.246-0.781,0.448-1.199,0.62
			c-0.416,0.17-0.817,0.386-1.247,0.519l-1.287,0.413c-0.434,0.121-0.879,0.192-1.317,0.29c-0.879,0.18-1.775,0.281-2.668,0.311
			c-0.447,0.005-0.894,0.054-1.34,0.02c-0.445-0.026-0.892-0.026-1.335-0.075c-0.886-0.083-1.767-0.208-2.631-0.41
			C88.922,45.321,88.065,45.088,87.25,44.75z"/>
	</g>
	<g>
		<path d="M78.167,40.836c0,0,0.322,0.005,0.879-0.019c0.556-0.005,1.349-0.085,2.284-0.198c0.468-0.07,0.973-0.135,1.498-0.248
			c0.531-0.085,1.074-0.246,1.64-0.383c0.563-0.149,1.125-0.364,1.698-0.562c0.552-0.252,1.144-0.444,1.665-0.773l0.812-0.434
			l0.749-0.52c0.513-0.325,0.954-0.723,1.384-1.108c0.457-0.359,0.797-0.806,1.16-1.196c0.377-0.382,0.662-0.798,0.926-1.187
			c0.252-0.393,0.551-0.72,0.725-1.063c0.185-0.339,0.345-0.634,0.477-0.878c0.27-0.488,0.438-0.766,0.438-0.766
			s-0.085,0.307-0.259,0.842c-0.09,0.269-0.198,0.594-0.322,0.968c-0.114,0.381-0.353,0.761-0.57,1.198
			c-0.22,0.438-0.465,0.912-0.827,1.346c-0.344,0.445-0.663,0.959-1.133,1.366c-0.441,0.432-0.881,0.905-1.431,1.258
			c-0.265,0.19-0.531,0.381-0.798,0.573l-0.863,0.482c-0.569,0.341-1.202,0.538-1.797,0.794c-0.611,0.207-1.226,0.379-1.823,0.51
			c-1.2,0.256-2.34,0.349-3.312,0.348C79.418,41.184,78.167,40.836,78.167,40.836z"/>
	</g>
	<g>
		<path d="M94.501,27.836c0.376,0.404,0.771,0.759,1.189,1.063c0.208,0.152,0.428,0.281,0.646,0.402
			c0.22,0.116,0.443,0.223,0.676,0.291c0.225,0.093,0.463,0.129,0.693,0.178c0.239,0.009,0.47,0.062,0.71,0.036
			c0.237,0.011,0.473-0.05,0.711-0.081c0.238-0.035,0.472-0.123,0.709-0.179l1.522-0.36l-0.99,1.132
			c-0.096,0.109-0.207,0.263-0.309,0.397c-0.101,0.141-0.196,0.287-0.278,0.438c-0.159,0.302-0.317,0.61-0.379,0.934
			c-0.024,0.16-0.061,0.324-0.049,0.487c-0.007,0.084,0.007,0.164,0.025,0.245c0.015,0.082,0.018,0.17,0.054,0.247
			c0.049,0.167,0.129,0.323,0.227,0.48c0.09,0.163,0.226,0.294,0.343,0.456c-0.165-0.093-0.364-0.162-0.515-0.296
			c-0.166-0.122-0.312-0.271-0.43-0.451c-0.121-0.172-0.221-0.377-0.269-0.589c-0.063-0.213-0.081-0.432-0.083-0.652
			c0.018-0.437,0.12-0.858,0.288-1.242c0.082-0.193,0.177-0.378,0.28-0.559c0.105-0.185,0.211-0.346,0.361-0.528l0.531,0.772
			c-0.282,0.082-0.557,0.19-0.85,0.246c-0.295,0.048-0.59,0.096-0.895,0.08c-0.604,0.017-1.211-0.145-1.743-0.407
			c-0.532-0.27-0.997-0.641-1.362-1.079C94.953,28.859,94.659,28.37,94.501,27.836z"/>
	</g>
	<g>
		<path d="M97.251,36.226c0,0,0.479,0.161,1.196,0.403c0.351,0.117,0.754,0.247,1.181,0.367c0.43,0.107,0.88,0.234,1.328,0.271
			c0.224,0.05,0.441,0.03,0.661,0.052c0.209-0.032,0.428-0.006,0.625-0.053c0.189-0.06,0.402-0.056,0.57-0.144
			c0.17-0.079,0.363-0.11,0.502-0.213c0.146-0.09,0.293-0.164,0.424-0.237c0.117-0.092,0.22-0.172,0.305-0.238
			c0.186-0.132,0.291-0.208,0.291-0.208s-0.041,0.12-0.135,0.331c-0.048,0.104-0.106,0.235-0.185,0.379
			c-0.096,0.13-0.213,0.275-0.351,0.429c-0.125,0.171-0.322,0.285-0.52,0.426c-0.191,0.156-0.438,0.229-0.688,0.329
			c-0.25,0.087-0.522,0.128-0.798,0.164c-0.271-0.008-0.557,0.022-0.824-0.024c-0.546-0.071-1.06-0.234-1.511-0.439
			c-0.45-0.205-0.839-0.448-1.147-0.688C97.554,36.662,97.251,36.226,97.251,36.226z"/>
	</g>
	<g>
		<path d="M93.334,17.503c0.432,0.043,0.854,0.185,1.254,0.365c0.205,0.083,0.388,0.207,0.585,0.31
			c0.201,0.099,0.368,0.243,0.552,0.37c0.178,0.132,0.369,0.255,0.519,0.42l0.478,0.468c0.164,0.154,0.283,0.343,0.427,0.513
			l0.41,0.532l-0.236-0.164c0.794,0.144,1.54,0.348,2.283,0.617c0.37,0.131,0.739,0.27,1.098,0.435
			c0.366,0.147,0.72,0.324,1.063,0.522c0.353,0.18,0.692,0.384,1.02,0.614c0.334,0.216,0.667,0.437,0.963,0.71
			c0.303,0.262,0.621,0.506,0.88,0.82c0.259,0.31,0.573,0.57,0.783,0.921c0.219,0.342,0.457,0.671,0.646,1.028l0.479,1.118
			c0.129,0.382,0.181,0.79,0.271,1.18c0.111,0.39,0.088,0.794,0.098,1.193c-0.016,0.398,0.043,0.798-0.059,1.185l-0.222,1.158
			c-0.049,0.389-0.25,0.74-0.366,1.107c-0.132,0.365-0.282,0.721-0.425,1.076c0.071-0.381,0.135-0.761,0.217-1.133
			c0.059-0.376,0.2-0.735,0.188-1.12l0.061-1.125c0.058-0.372-0.044-0.741-0.068-1.107c-0.043-0.366-0.043-0.736-0.178-1.081
			c-0.109-0.348-0.188-0.704-0.319-1.04l-0.474-0.975c-0.182-0.311-0.419-0.59-0.617-0.89c-0.187-0.311-0.483-0.542-0.717-0.816
			c-0.233-0.279-0.532-0.497-0.813-0.732c-0.272-0.243-0.569-0.459-0.88-0.661c-0.297-0.218-0.61-0.414-0.939-0.586
			c-0.639-0.373-1.313-0.699-2.004-0.982c-0.342-0.154-0.699-0.264-1.048-0.403c-0.353-0.119-0.715-0.24-1.063-0.33l-0.156-0.041
			l-0.08-0.124l-0.335-0.522c-0.115-0.171-0.208-0.364-0.344-0.521c-0.267-0.315-0.511-0.66-0.821-0.939
			c-0.151-0.143-0.289-0.307-0.462-0.425c-0.169-0.124-0.326-0.27-0.508-0.377C94.116,17.854,93.748,17.634,93.334,17.503z"/>
	</g>
	<g>
		<path d="M100.001,15.503c0,0,0.31,0.14,0.839,0.406c0.524,0.274,1.291,0.635,2.182,1.115c0.895,0.474,1.937,1.022,3.036,1.639
			c0.545,0.283,1.107,0.575,1.68,0.871c0.661,0.289,1.27,0.672,1.824,1.125c0.554,0.454,1.041,0.988,1.444,1.567
			c0.201,0.291,0.397,0.582,0.536,0.9c0.165,0.305,0.298,0.618,0.396,0.938c0.119,0.313,0.217,0.626,0.262,0.945
			c0.059,0.314,0.135,0.618,0.138,0.922c0.018,0.301,0.034,0.593,0.05,0.876c-0.021,0.281-0.043,0.552-0.063,0.813
			c-0.011,0.522-0.162,0.98-0.242,1.389c-0.075,0.411-0.206,0.752-0.303,1.034c-0.196,0.563-0.321,0.876-0.321,0.876
			s0.04-0.341,0.133-0.921c0.047-0.29,0.118-0.638,0.124-1.047c0.008-0.407,0.079-0.859,0.036-1.353
			c-0.01-0.245-0.021-0.5-0.031-0.764c-0.039-0.259-0.08-0.527-0.121-0.803c-0.025-0.277-0.121-0.547-0.198-0.825
			c-0.068-0.281-0.16-0.56-0.286-0.831c-0.101-0.281-0.233-0.552-0.394-0.813c-0.138-0.272-0.321-0.521-0.499-0.775
			c-0.362-0.503-0.801-0.966-1.296-1.359c-0.48-0.408-1.02-0.757-1.57-1.01c-0.6-0.328-1.183-0.672-1.739-0.998
			c-1.069-0.682-2.063-1.326-2.893-1.91c-0.833-0.577-1.507-1.092-1.985-1.438C100.265,15.718,100.001,15.503,100.001,15.503z"/>
	</g>
	<g>
		<path d="M106.032,15.503c0.387,0.167,0.762,0.352,1.136,0.539c0.374,0.187,0.753,0.365,1.117,0.566
			c0.739,0.388,1.464,0.798,2.184,1.215c1.441,0.832,2.838,1.733,4.227,2.648l-0.034-0.02c0.18,0.104,0.27,0.203,0.396,0.305
			c0.114,0.104,0.204,0.222,0.306,0.333c0.206,0.219,0.325,0.49,0.486,0.733c0.117,0.263,0.2,0.54,0.297,0.806
			c0.055,0.132,0.052,0.276,0.08,0.413l0.059,0.414c0.054,0.275,0.035,0.549,0.014,0.822c-0.013,0.272-0.041,0.542-0.065,0.809
			c-0.133,0.523-0.261,1.04-0.421,1.539c-0.009-0.535,0.022-1.052,0.034-1.564c-0.033-0.256-0.07-0.509-0.092-0.759
			c-0.02-0.251-0.041-0.5-0.13-0.733l-0.097-0.354c-0.038-0.115-0.046-0.241-0.107-0.346c-0.109-0.213-0.206-0.431-0.316-0.636
			c-0.146-0.179-0.25-0.395-0.418-0.543c-0.081-0.075-0.155-0.164-0.239-0.229c-0.081-0.056-0.183-0.139-0.232-0.162l-0.009-0.004
			l-0.026-0.017c-1.414-0.875-2.818-1.765-4.179-2.724c-0.681-0.478-1.357-0.963-2.02-1.471c-0.335-0.247-0.657-0.516-0.983-0.776
			S106.346,15.784,106.032,15.503z"/>
	</g>
	<g>
		<path d="M113,31.188c-0.559,0.4-1.078,0.846-1.561,1.319c-0.481,0.475-0.906,1.002-1.253,1.559
			c-0.171,0.278-0.334,0.565-0.44,0.867c-0.049,0.152-0.126,0.296-0.152,0.452l-0.098,0.461l-0.02,0.464
			c-0.022,0.154,0.028,0.306,0.043,0.458c0.014,0.307,0.166,0.59,0.248,0.881l-0.017-0.037c0.123,0.207,0.293,0.448,0.471,0.65
			c0.176,0.211,0.374,0.4,0.579,0.578c0.209,0.172,0.429,0.326,0.661,0.456c0.234,0.121,0.47,0.242,0.722,0.31
			c0.123,0.046,0.249,0.079,0.379,0.094c0.129,0.015,0.254,0.061,0.387,0.053c0.262,0.014,0.522,0.015,0.786-0.033
			c0.265-0.011,0.521-0.122,0.783-0.178c0.258-0.083,0.51-0.202,0.766-0.298l-0.055,0.031c1.149-0.745,2.302-1.485,3.466-2.207
			l-0.184,0.251c0.088-0.315,0.149-0.69,0.184-1.043c0.045-0.358,0.054-0.719,0.035-1.077c-0.02-0.358-0.069-0.714-0.165-1.056
			c-0.033-0.178-0.108-0.337-0.173-0.503c-0.056-0.171-0.142-0.325-0.236-0.475c-0.087-0.155-0.175-0.311-0.3-0.438
			c-0.122-0.129-0.216-0.288-0.356-0.4l-0.41-0.358c-0.146-0.107-0.311-0.192-0.467-0.291c-0.305-0.219-0.678-0.301-1.021-0.459
			c-0.359-0.109-0.729-0.197-1.102-0.297c0.378,0.041,0.768,0.052,1.148,0.12c0.368,0.115,0.769,0.154,1.119,0.342
			c0.179,0.083,0.366,0.153,0.541,0.25l0.5,0.337c0.175,0.105,0.297,0.274,0.446,0.412c0.152,0.138,0.269,0.306,0.383,0.476
			c0.122,0.166,0.233,0.337,0.313,0.525c0.089,0.184,0.188,0.366,0.242,0.563c0.141,0.384,0.228,0.783,0.281,1.184
			c0.052,0.402,0.072,0.807,0.054,1.21c-0.018,0.409-0.066,0.792-0.165,1.217l-0.034,0.148l-0.149,0.104
			c-1.127,0.778-2.267,1.538-3.409,2.292l-0.035,0.023l-0.021,0.008c-0.297,0.121-0.586,0.259-0.893,0.362
			c-0.317,0.076-0.623,0.19-0.958,0.208c-0.326,0.053-0.66,0.05-0.994,0.027c-0.167,0.002-0.331-0.05-0.496-0.075
			c-0.166-0.024-0.328-0.067-0.484-0.127c-0.321-0.096-0.622-0.245-0.907-0.41c-0.282-0.173-0.543-0.372-0.785-0.588
			c-0.237-0.222-0.461-0.455-0.657-0.709c-0.204-0.255-0.373-0.507-0.541-0.819l-0.015-0.027l-0.002-0.01
			c-0.088-0.371-0.229-0.725-0.227-1.11c-0.005-0.189-0.044-0.378-0.008-0.565l0.068-0.559l0.155-0.535
			c0.048-0.179,0.145-0.337,0.215-0.505c0.148-0.333,0.352-0.635,0.561-0.922c0.418-0.582,0.951-1.052,1.496-1.481
			C111.792,31.857,112.376,31.48,113,31.188z"/>
	</g>
	<g>
		<path d="M105.625,11.563c0.921,0.608,1.803,1.26,2.707,1.885l2.656,1.941l2.639,1.948c0.434,0.334,0.877,0.642,1.32,0.949
			c0.219,0.146,0.448,0.329,0.657,0.445l0.61,0.363l0.049,0.02c0.224,0.114,0.386,0.217,0.558,0.345
			c0.173,0.12,0.325,0.261,0.482,0.397c0.291,0.296,0.575,0.607,0.777,0.975c0.216,0.356,0.379,0.75,0.475,1.152
			c0.063,0.2,0.098,0.402,0.113,0.608c0.022,0.205,0.055,0.409,0.037,0.611c0.004,0.41-0.058,0.806-0.143,1.194
			c-0.07,0.392-0.227,0.754-0.338,1.129c-0.169,0.35-0.325,0.705-0.504,1.045c-0.196,0.33-0.396,0.656-0.603,0.976l0.018-0.037
			c-0.168,0.391-0.315,0.804-0.425,1.219c-0.064,0.208-0.09,0.419-0.131,0.632l-0.02,0.322c0.01,0.104,0.042,0.208,0.063,0.318
			c-0.04-0.099-0.095-0.201-0.127-0.309l-0.046-0.335c-0.004-0.223,0.002-0.45,0.033-0.67c0.05-0.446,0.137-0.88,0.253-1.318
			l0.018-0.038c0.148-0.34,0.302-0.674,0.46-1.004c0.135-0.339,0.244-0.686,0.368-1.024c0.07-0.351,0.192-0.692,0.226-1.042
			l0.058-0.522c0.007-0.173-0.01-0.345-0.009-0.516c0.01-0.173-0.028-0.339-0.054-0.505c-0.02-0.169-0.055-0.333-0.114-0.489
			c-0.091-0.32-0.233-0.625-0.418-0.898c-0.168-0.285-0.397-0.53-0.632-0.763c-0.129-0.106-0.251-0.219-0.39-0.311
			c-0.128-0.096-0.288-0.187-0.397-0.243l0.049,0.02l-0.82-0.45c-0.266-0.158-0.463-0.324-0.697-0.486
			c-0.453-0.325-0.906-0.649-1.336-0.991c-0.871-0.678-1.724-1.373-2.562-2.084c-0.84-0.709-1.664-1.437-2.478-2.176
			C107.211,13.088,106.395,12.353,105.625,11.563z"/>
	</g>
	<g>
		<path d="M98.438,12c0.29-0.353,0.653-0.636,1.053-0.859c0.197-0.121,0.413-0.205,0.632-0.29c0.22-0.087,0.453-0.135,0.691-0.176
			c0.24-0.033,0.487-0.059,0.738-0.025c0.25,0.012,0.505,0.073,0.748,0.154c0.239,0.104,0.474,0.214,0.677,0.375
			c0.223,0.138,0.364,0.356,0.539,0.533l-0.328-0.149c0.771,0.076,1.542,0.18,2.313,0.436c-0.771,0.256-1.542,0.36-2.313,0.436
			l-0.103,0.01l-0.226-0.159c-0.15-0.106-0.272-0.245-0.433-0.319c-0.141-0.105-0.304-0.165-0.463-0.229
			c-0.17-0.039-0.331-0.11-0.515-0.121c-0.176-0.032-0.364-0.025-0.554-0.036C100.126,11.595,99.313,11.79,98.438,12z"/>
	</g>
	<g>
		<path d="M97.75,12.625c-0.316,0.018-0.643-0.029-0.946,0.016c-0.302,0.02-0.589,0.068-0.878,0.147
			c-0.145,0.025-0.283,0.072-0.418,0.132c-0.133,0.061-0.274,0.09-0.4,0.164c-0.261,0.125-0.505,0.274-0.737,0.444
			c-0.467,0.333-0.872,0.751-1.241,1.201c-0.185,0.226-0.348,0.47-0.508,0.715c-0.16,0.239-0.314,0.51-0.426,0.746l-0.219,0.462
			l-0.516-0.263c-0.155-0.079-0.295-0.221-0.451-0.274c-0.153-0.083-0.311-0.12-0.472-0.145c-0.081-0.016-0.161,0.005-0.244,0
			c-0.083-0.012-0.165,0.023-0.25,0.037c-0.17,0.03-0.341,0.108-0.505,0.202c-0.68,0.372-1.259,1.039-1.789,1.73
			c0.108-0.429,0.28-0.844,0.507-1.234c0.221-0.396,0.515-0.759,0.891-1.07c0.189-0.149,0.403-0.29,0.648-0.379
			c0.237-0.108,0.512-0.148,0.78-0.154c0.273,0.01,0.539,0.054,0.784,0.155c0.262,0.072,0.454,0.232,0.679,0.358l-0.734,0.199
			c0.146-0.336,0.298-0.613,0.476-0.901c0.171-0.287,0.379-0.549,0.594-0.805c0.427-0.515,0.951-0.958,1.539-1.301
			c0.295-0.172,0.613-0.296,0.938-0.399c0.157-0.062,0.331-0.078,0.496-0.111c0.165-0.035,0.332-0.055,0.501-0.051
			c0.332-0.03,0.67,0.02,0.995,0.08C97.166,12.375,97.448,12.518,97.75,12.625z"/>
	</g>
	<g>
		<path d="M105.625,35.59c0,0,0.254-0.063,0.564-0.078c0.314-0.021,0.693-0.002,1.034,0.027c0.173,0.032,0.333,0.031,0.487,0.059
			c0.152,0.016,0.29,0.026,0.43,0.037c0.126-0.008,0.266-0.001,0.357-0.023c0.107-0.014,0.169-0.021,0.169-0.021
			s-0.004,0.061-0.035,0.168c-0.026,0.113-0.105,0.25-0.242,0.394c-0.139,0.133-0.339,0.256-0.564,0.319
			c-0.11,0.021-0.231,0.07-0.347,0.064c-0.118,0.005-0.238,0.009-0.354-0.001c-0.466-0.05-0.872-0.257-1.128-0.483
			C105.736,35.831,105.625,35.59,105.625,35.59z"/>
	</g>
	<g>
		<path d="M87.25,17.938c-1.606,1.658-3.23,3.3-4.871,4.925c-0.821,0.812-1.647,1.618-2.49,2.409
			c-0.413,0.404-0.85,0.785-1.282,1.169c-0.223,0.188-0.42,0.395-0.663,0.567l-0.723,0.522l0.045-0.035l-2.516,3.256l-1.229,1.647
			l-0.594,0.834l-0.282,0.422l-0.128,0.211l-0.053,0.1c-0.027,0.001,0.019,0.119-0.045-0.076l-0.061,0.283
			c-0.892,0.661-1.689,1.532-2.316,2.482c-0.351,0.455-0.606,0.97-0.882,1.473c-0.303,0.488-0.481,1.039-0.706,1.565
			c-0.241,0.522-0.396,1.076-0.537,1.633l-0.462,1.682c-0.335,1.118-0.568,2.258-0.987,3.359l-1.149,3.326l-1.261,3.27
			c-0.426,1.087-0.832,2.184-1.3,3.253l-1.362,3.227c-0.882,2.164-1.917,4.259-2.868,6.392c-0.952,2.133-2.058,4.195-3.089,6.292
			c-1.038,2.094-2.242,4.104-3.355,6.16c-0.539,1.039-1.223,1.997-1.832,2.997l-1.88,2.971l0.022-0.035
			c-0.396,0.73-0.774,1.497-1.131,2.262c-0.354,0.769-0.706,1.541-1.02,2.328c-0.329,0.781-0.625,1.575-0.915,2.371
			c-0.296,0.793-0.538,1.605-0.807,2.408c-0.22,0.816-0.479,1.624-0.666,2.447c-0.176,0.826-0.405,1.642-0.521,2.477
			c-0.142,0.832-0.293,1.662-0.351,2.501l-0.122,1.256l-0.023,1.257c0.002,0.419-0.032,0.84-0.002,1.256l0.101,1.25
			c0.023,0.84,0.241,1.646,0.386,2.466c0.059,0.414,0.186,0.809,0.325,1.199l0.393,1.179c0.278,0.748,0.677,1.566,0.989,2.35
			c0.664,1.583,1.287,3.186,1.841,4.819c0.27,0.82,0.548,1.636,0.754,2.484c0.257,0.825,0.375,1.715,0.52,2.59l-0.16-0.317
			c2.714,2.33,5.637,4.472,8.611,6.498c1.492,1.011,3.01,1.983,4.546,2.926c1.54,0.937,3.101,1.837,4.679,2.707l2.387,1.27
			l2.419,1.204c1.63,0.769,3.266,1.525,4.933,2.208c0.825,0.361,1.666,0.683,2.507,1.006c0.838,0.329,1.678,0.653,2.533,0.935
			c1.694,0.615,3.422,1.121,5.148,1.637c1.744,0.445,3.484,0.913,5.255,1.24c0.881,0.193,1.766,0.357,2.657,0.479
			c0.892,0.122,1.776,0.302,2.674,0.378l2.688,0.264c0.897,0.061,1.798,0.079,2.697,0.121c0.899,0.06,1.8,0.022,2.7,0.004
			c0.899-0.027,1.802-0.009,2.697-0.113l2.691-0.227l2.672-0.404c0.896-0.107,1.77-0.337,2.649-0.529
			c0.876-0.212,1.77-0.358,2.624-0.65l2.589-0.786c0.854-0.288,1.687-0.643,2.53-0.96l1.264-0.49l1.224-0.578l2.445-1.169
			l-0.01,0.006c0.916-0.705,1.884-1.338,2.908-1.87c0.517-0.257,1.049-0.485,1.605-0.638c0.28-0.072,0.565-0.118,0.854-0.126
			c0.145-0.001,0.287,0.027,0.431,0.039c0.139,0.034,0.271,0.098,0.406,0.145c-0.137-0.045-0.269-0.105-0.408-0.137
			c-0.143-0.009-0.285-0.034-0.428-0.031c-0.288,0.014-0.569,0.064-0.847,0.141c-0.552,0.162-1.076,0.399-1.585,0.664
			c-1.009,0.548-1.963,1.197-2.857,1.913l-0.006,0.004l-0.004,0.002l-2.431,1.218l-1.218,0.604l-1.258,0.515
			c-0.843,0.335-1.672,0.706-2.525,1.011l-2.59,0.839c-0.855,0.311-1.751,0.475-2.629,0.704c-0.884,0.21-1.76,0.457-2.66,0.582
			l-2.688,0.457l-2.713,0.268c-0.903,0.114-1.813,0.105-2.722,0.143c-0.909,0.028-1.818,0.074-2.727,0.023
			c-0.908-0.032-1.817-0.042-2.725-0.093l-2.717-0.239c-0.907-0.067-1.802-0.239-2.704-0.354c-0.902-0.112-1.798-0.27-2.688-0.455
			c-1.793-0.313-3.554-0.766-5.319-1.198c-1.748-0.501-3.498-0.994-5.213-1.597c-0.867-0.275-1.718-0.594-2.567-0.917
			c-0.851-0.319-1.706-0.63-2.538-0.994c-1.685-0.684-3.337-1.44-4.982-2.21l-2.443-1.206l-2.41-1.271
			c-1.594-0.872-3.17-1.774-4.726-2.713c-1.552-0.944-3.084-1.92-4.592-2.933c-3.012-2.038-5.944-4.168-8.731-6.544l-0.122-0.104
			l-0.038-0.213c-0.142-0.809-0.244-1.618-0.499-2.427c-0.199-0.813-0.476-1.614-0.743-2.416c-0.549-1.601-1.169-3.184-1.832-4.749
			c-0.322-0.802-0.686-1.519-1.004-2.37l-0.413-1.254c-0.146-0.416-0.278-0.835-0.34-1.27c-0.152-0.862-0.374-1.717-0.397-2.592
			l-0.1-1.306c-0.03-0.435,0.006-0.87,0.006-1.305l0.029-1.304l0.13-1.294c0.063-0.867,0.221-1.718,0.368-2.571
			c0.123-0.858,0.359-1.69,0.543-2.535c0.195-0.842,0.461-1.663,0.688-2.496c0.276-0.816,0.526-1.643,0.83-2.449
			c0.297-0.809,0.601-1.615,0.938-2.407c0.321-0.799,0.682-1.582,1.044-2.363c0.368-0.782,0.748-1.547,1.169-2.317l0.003-0.005
			l0.02-0.03l1.869-2.934c0.606-0.989,1.286-1.931,1.825-2.963c1.113-2.04,2.316-4.031,3.356-6.112
			c1.028-2.086,2.146-4.129,3.12-6.243c0.969-2.116,2.022-4.194,2.923-6.341l1.392-3.203c0.478-1.062,0.894-2.148,1.328-3.228
			l1.289-3.243l1.17-3.272c0.425-1.077,0.674-2.229,1.02-3.339l0.48-1.686c0.152-0.572,0.317-1.14,0.571-1.677
			c0.429-1.102,0.989-2.159,1.688-3.117c0.677-0.977,1.489-1.848,2.483-2.554l-0.061,0.283c-0.058-0.097-0.024-0.243-0.017-0.235
			l0.035-0.086l0.069-0.127l0.144-0.226l0.297-0.429l0.616-0.831l1.263-1.63l2.578-3.214l0.007-0.009l0.038-0.027l0.688-0.483
			c0.231-0.156,0.44-0.366,0.662-0.546c0.437-0.374,0.877-0.745,1.297-1.141c0.855-0.774,1.695-1.564,2.531-2.36
			C83.96,21.178,85.613,19.566,87.25,17.938z"/>
	</g>
	<g>
		<path d="M114.053,37.016c0.076-0.825,0.138-1.634,0.08-2.409c-0.024-0.386-0.087-0.762-0.202-1.093
			c-0.049-0.17-0.135-0.317-0.22-0.451c-0.08-0.141-0.193-0.242-0.301-0.348l-0.98-0.963l1.306,0.186
			c0.317,0.045,0.573,0.105,0.841,0.215c0.264,0.103,0.517,0.239,0.754,0.401c0.478,0.324,0.854,0.808,1.07,1.339l0.117,0.411
			c0.047,0.134,0.043,0.276,0.064,0.413c0.046,0.275-0.003,0.547-0.015,0.813c-0.037,0.264-0.113,0.519-0.175,0.77
			c-0.096,0.244-0.195,0.483-0.302,0.715c0.005-0.26,0.018-0.513,0.033-0.761c-0.009-0.25-0.01-0.496-0.029-0.735
			c-0.039-0.237-0.053-0.475-0.132-0.692c-0.035-0.108-0.045-0.225-0.102-0.323l-0.138-0.302c-0.116-0.186-0.229-0.367-0.381-0.52
			c-0.15-0.152-0.318-0.285-0.497-0.407c-0.183-0.116-0.38-0.216-0.588-0.29c-0.201-0.075-0.438-0.145-0.617-0.174l0.324-0.777
			c0.187,0.178,0.362,0.365,0.481,0.584c0.075,0.104,0.106,0.22,0.153,0.332c0.049,0.112,0.084,0.224,0.105,0.337
			c0.119,0.452,0.122,0.899,0.081,1.328C114.7,35.473,114.449,36.282,114.053,37.016z"/>
	</g>
</g>
</svg>
