<?xml version="1.0" encoding="utf-8"?>
<!-- Generator: Adobe Illustrator 16.0.0, SVG Export Plug-In . SVG Version: 6.00 Build 0)  -->
<!DOCTYPE svg PUBLIC "-//W3C//DTD SVG 1.1//EN" "http://www.w3.org/Graphics/SVG/1.1/DTD/svg11.dtd">
<svg version="1.1" xmlns="http://www.w3.org/2000/svg" xmlns:xlink="http://www.w3.org/1999/xlink" x="0px" y="0px" width="251.5px"
	 height="251.5px" viewBox="0 0 251.5 251.5" enable-background="new 0 0 251.5 251.5" xml:space="preserve">
<g id="Color">
	<path fill="#EEC8B9" d="M135.5,107.333l-57.583,4.5c0,0,1.849-18.955-0.409-39.644c0,0-2.092-12.101,8.325-23.02l2.917-3.919
		c0,0,11.758,3.152,19.5-4.5c0,0,2.018-1.326,3.125-1.01c0,0,5.583,2.322,7.917-1.053l1.344-1.172c0,0,0.225-4.66-2.205-5.378
		c0,0-0.937-2.691,0.254-4.633c0,0,3.267-3.297-1.125-7.442l-10.434-8c0,0-0.719,0.188-1.031,0.578l-1.484-0.344
		c0,0-2.705-0.769-4.173-0.08s-3.665,0.353-3.629,0.912s-3.714,1.789-3.448,3.143c0,0-1.482-0.97-3.046,0.598
		S79.667,27.184,79.667,27.184l-0.743,0.576l-0.861,0.914l-4.121,5.432c0,0-4.734,3.769-5.755,10.957l-2.223,6.277l-7.633,21.29
		l-6.323,19.374c0,0-6.58,24.154-5.377,25.493s-3.062,6.943,8.404,7.474c0,0,61.78,13.054,79.998,8.792s19.218-8.012,19.218-8.012
		L135.5,107.333z"/>
</g>
<g id="Sombras">
	<path fill="#EBB3A0" d="M135.318,107.521c0,0,0.757,26.561-6.577,26.846S139,132.674,139,132.674V113l-3.31-5.479"/>
	<path fill="#EBB3A0" d="M48,107.964c0,0-3.113,13.232,8.756,17.384l-7.589-1.686C49.167,123.662,44.124,120.803,48,107.964z"/>
</g>
<g id="Contorno">
	<g>
		<path d="M185,84h-3c0,0-1.833-0.083-4.333,2.417s-21.751,17.375-40.084,16.208c0,0-2.583,0.708-2.583,4.708S135,139,135,139
			s-0.166,4,3.917,4S158,143,158,143s16.668,15.917,18.334,29.917c0,0,0.832,35.207,3.166,41.873s5.5,7.875,5.5,7.875V84z"/>
		<path d="M185.5,83.74L182,84h0.002c-1.006,0-1.905,0.496-2.731,1.081c-0.832,0.595-1.525,1.236-2.295,1.914
			c-1.552,1.35-3.187,2.53-4.866,3.708c-0.831,0.601-1.688,1.135-2.547,1.697c-0.848,0.579-1.738,1.074-2.608,1.619
			c-0.87,0.544-1.781,1.013-2.67,1.526c-0.89,0.511-1.82,0.946-2.729,1.424c-0.905,0.486-1.86,0.869-2.788,1.31
			c-0.925,0.45-1.895,0.794-2.846,1.182c-0.947,0.402-1.925,0.72-2.903,1.04l-1.464,0.485l-1.493,0.393
			c-0.997,0.257-1.987,0.544-3.009,0.696l-1.521,0.271c-0.506,0.103-1.016,0.176-1.532,0.207c-1.028,0.077-2.053,0.22-3.084,0.24
			l-3.099-0.027l0.106-0.015c-0.603,0.277-1.125,0.868-1.477,1.493c-0.321,0.659-0.534,1.382-0.599,2.13
			c-0.075,0.741-0.076,1.518-0.066,2.299l0.004,2.333l0.099,9.331L136,139v0.021l-0.086,0.042c-0.062,0.433-0.077,0.94,0.061,1.369
			c0.135,0.437,0.365,0.819,0.717,1.093c0.348,0.278,0.778,0.453,1.249,0.53c0.469,0.102,0.946,0.087,1.472,0.092l6.195-0.067
			L158,142h0.159l0.111,0.165c1.078,1.061,2.101,2.177,3.108,3.29c1.007,1.111,1.993,2.255,2.944,3.414
			c0.477,0.579,0.96,1.159,1.415,1.756c0.457,0.595,0.934,1.177,1.376,1.783l1.331,1.817l1.271,1.861
			c0.434,0.613,0.818,1.261,1.216,1.898c0.394,0.641,0.806,1.27,1.157,1.937l1.091,1.977l0.978,2.04
			c0.349,0.669,0.582,1.393,0.871,2.091l0.416,1.055c0.129,0.355,0.222,0.725,0.334,1.087c0.195,0.732,0.477,1.441,0.6,2.194
			l0.517,2.247l0.105,0.011v0.03c0,8.697,0.65,17.396,1.261,26.073c0.158,2.17,0.29,4.335,0.495,6.498l0.334,3.235
			c0.16,1.067,0.245,2.155,0.46,3.206c0.172,1.064,0.402,2.113,0.732,3.077c0.417,1.002,0.774,2.055,1.309,2.944
			c0.241,0.467,0.486,0.932,0.805,1.355c0.298,0.437,0.584,0.883,0.946,1.262c0.646,0.807,1.497,1.529,2.317,1.952l-0.598,0.408
			l0.138-69.583l0.102-34.671L185.5,83.74z M185.5,83.26l0.199,34.911l0.133,34.852L186,222.665v0.69l-0.629-0.282
			c-0.592-0.278-1.047-0.606-1.492-0.979l-0.639-0.575c-0.197-0.203-0.38-0.422-0.568-0.633c-0.393-0.41-0.701-0.88-1.019-1.343
			c-0.338-0.448-0.606-0.943-0.867-1.444c-0.585-0.988-0.934-2.004-1.357-3.01c-0.383-1.092-0.624-2.176-0.806-3.26
			c-0.225-1.083-0.325-2.168-0.493-3.253l-0.374-3.257c-0.216-2.172-0.408-4.346-0.575-6.52c-0.339-4.349-0.58-8.701-0.789-13.055
			c-0.207-4.354-0.384-8.707-0.517-13.065l0.003,0.04l-0.388-2.16c-0.113-0.724-0.388-1.416-0.572-2.126
			c-0.108-0.351-0.195-0.709-0.32-1.055l-0.401-1.031c-0.28-0.683-0.503-1.388-0.844-2.046l-0.95-2.005l-1.066-1.949
			c-0.342-0.657-0.747-1.28-1.133-1.913c-0.391-0.631-0.768-1.271-1.193-1.879l-1.25-1.845l-1.311-1.803
			c-0.436-0.602-0.905-1.179-1.356-1.77c-0.449-0.593-0.926-1.163-1.396-1.739c-0.938-1.153-1.913-2.278-2.907-3.385
			c-0.992-1.104-2.012-2.198-3.06-3.236l0.271,0.109l-12.396-0.024l-6.197-0.012c-0.504-0.008-1.066,0.008-1.609-0.111
			c-0.544-0.093-1.099-0.305-1.558-0.674c-0.463-0.361-0.798-0.884-0.962-1.435c-0.167-0.559-0.198-1.108-0.112-1.696L135.16,139
			l0.036-18.663l0.019-9.331l0.004-2.333c-0.006-0.774-0.004-1.553,0.08-2.362c0.073-0.798,0.305-1.591,0.67-2.325
			c0.418-0.711,0.949-1.479,1.774-1.854l0.035-0.132h0.071l3.05,0.155c1.016-0.016,2.028-0.096,3.043-0.167
			c0.509-0.028,1.013-0.07,1.513-0.169l1.506-0.245c1.011-0.138,1.995-0.405,2.985-0.647l1.484-0.368l1.458-0.464
			c0.974-0.306,1.948-0.61,2.895-0.999c0.949-0.375,1.918-0.707,2.843-1.144c0.928-0.428,1.882-0.799,2.789-1.273
			c0.909-0.466,1.841-0.892,2.734-1.391c0.891-0.501,1.804-0.966,2.678-1.499c0.873-0.533,1.768-1.031,2.62-1.599
			c0.862-0.551,1.724-1.104,2.56-1.694c1.688-1.156,3.338-2.378,4.895-3.701c0.774-0.667,1.479-1.664,2.326-2.254
			c0.84-0.58,1.745-0.541,2.771-1.541H182L185.5,83.26z"/>
	</g>
	<g>
		<path d="M85.833,49.169c-0.008,0.715-0.611,1.211-1.071,1.676c-0.495,0.467-0.995,0.925-1.46,1.417
			c-0.935,0.978-1.742,2.072-2.388,3.256c-1.299,2.37-2.024,5.01-2.465,7.667c-0.871,5.338-0.72,10.796-0.253,16.183
			c0.237,2.706,0.54,5.403,0.715,8.122c0.206,2.715,0.376,5.431,0.481,8.153c0.065,1.36,0.093,2.723,0.119,4.085
			c0.014,1.363,0.029,2.727-0.015,4.094c-0.031,1.366-0.093,2.733-0.231,4.104c-0.07,0.686-0.146,1.37-0.279,2.059
			c-0.053,0.343-0.141,0.689-0.225,1.035c-0.128,0.375-0.143,0.637-0.471,1.136l-0.431-0.813c5.791-0.668,11.588-1.232,17.389-1.778
			c5.802-0.529,11.605-1.048,17.421-1.424c5.815-0.378,11.635-0.693,17.464-0.819c2.914-0.045,5.831-0.044,8.745,0.087
			c1.457,0.068,2.913,0.169,4.361,0.36c0.723,0.102,1.443,0.225,2.15,0.408c0.69,0.197,1.442,0.4,1.941,0.949
			c-0.517-0.528-1.268-0.701-1.96-0.873c-0.708-0.157-1.429-0.254-2.15-0.329c-1.445-0.151-2.898-0.213-4.352-0.243
			c-2.907-0.054-5.815,0.025-8.722,0.144c-5.814,0.22-11.621,0.629-17.421,1.102c-5.8,0.483-11.6,0.977-17.392,1.554
			c-5.793,0.565-11.582,1.197-17.363,1.844l-0.431-0.813c-0.01,0.008,0.089-0.189,0.131-0.306l0.141-0.447
			c0.077-0.314,0.159-0.626,0.212-0.955c0.129-0.645,0.207-1.313,0.278-1.977c0.142-1.333,0.211-2.682,0.249-4.031
			c0.05-1.349,0.043-2.704,0.037-4.057c-0.019-1.354-0.039-2.708-0.097-4.063c-0.09-2.708-0.245-5.418-0.436-8.123
			c-0.174-2.704-0.408-5.416-0.608-8.125c-0.195-2.719-0.302-5.448-0.243-8.177c0.06-2.727,0.268-5.461,0.776-8.149
			c0.519-2.679,1.325-5.339,2.708-7.71c0.688-1.184,1.534-2.275,2.507-3.231c0.486-0.479,1.004-0.921,1.514-1.369
			C85.189,50.343,85.798,49.88,85.833,49.169z"/>
	</g>
	<g>
		<path d="M88.75,45.25c1.731,0.315,3.472,0.444,5.199,0.458c0.432,0.014,0.863-0.021,1.293-0.029
			c0.431-0.001,0.858-0.059,1.287-0.087c0.429-0.022,0.853-0.091,1.275-0.16c0.424-0.06,0.849-0.109,1.263-0.217
			c0.415-0.1,0.837-0.173,1.246-0.294l1.221-0.375c0.41-0.119,0.789-0.318,1.186-0.473c0.397-0.156,0.791-0.319,1.157-0.538
			l1.125-0.61l1.063-0.718c0.368-0.225,0.695-0.502,1.02-0.784l0.995-0.833l0.048-0.04l0.008-0.004
			c0.44-0.202,0.88-0.383,1.334-0.542c0.224-0.083,0.457-0.148,0.688-0.21c0.12-0.023,0.241-0.038,0.359-0.056
			c0.118-0.019,0.245,0.01,0.359,0.013c-0.121,0.021-0.236,0.016-0.346,0.058c-0.111,0.042-0.221,0.078-0.328,0.122
			c-0.213,0.1-0.426,0.191-0.631,0.307c-0.413,0.219-0.818,0.462-1.206,0.717l0.056-0.043l-0.918,0.971
			c-0.302,0.333-0.619,0.649-0.983,0.912l-1.056,0.839c-0.377,0.243-0.769,0.466-1.154,0.7c-0.38,0.246-0.782,0.448-1.2,0.62
			c-0.417,0.17-0.817,0.386-1.248,0.519l-1.287,0.413c-0.433,0.121-0.878,0.192-1.317,0.29c-0.879,0.18-1.775,0.281-2.668,0.311
			c-0.447,0.005-0.893,0.054-1.339,0.02c-0.446-0.026-0.892-0.026-1.335-0.075c-0.886-0.083-1.767-0.208-2.631-0.41
			C90.422,45.821,89.565,45.588,88.75,45.25z"/>
	</g>
	<g>
		<path d="M79.667,41.336c0,0,0.322,0.005,0.878-0.019c0.556-0.005,1.349-0.085,2.285-0.198c0.467-0.07,0.972-0.135,1.499-0.248
			c0.531-0.085,1.074-0.246,1.64-0.383c0.563-0.149,1.125-0.364,1.698-0.562c0.551-0.252,1.144-0.444,1.665-0.773l0.812-0.434
			l0.749-0.52c0.513-0.325,0.954-0.723,1.384-1.108c0.457-0.359,0.797-0.806,1.161-1.196c0.376-0.382,0.661-0.798,0.925-1.187
			c0.252-0.393,0.551-0.72,0.725-1.063c0.185-0.339,0.345-0.634,0.477-0.878c0.269-0.488,0.438-0.766,0.438-0.766
			s-0.084,0.307-0.259,0.842c-0.089,0.269-0.198,0.594-0.323,0.968c-0.114,0.381-0.352,0.761-0.57,1.198
			c-0.22,0.438-0.464,0.912-0.827,1.346c-0.343,0.445-0.663,0.959-1.133,1.366c-0.441,0.432-0.88,0.905-1.43,1.258
			c-0.265,0.19-0.531,0.381-0.798,0.573l-0.863,0.482c-0.569,0.341-1.202,0.538-1.796,0.794c-0.612,0.207-1.227,0.379-1.824,0.51
			c-1.2,0.256-2.34,0.349-3.311,0.348C80.917,41.684,79.667,41.336,79.667,41.336z"/>
	</g>
	<g>
		<path d="M96.001,28.336c0.376,0.404,0.771,0.759,1.189,1.063c0.208,0.152,0.428,0.281,0.646,0.402
			c0.22,0.116,0.443,0.223,0.676,0.291c0.224,0.093,0.463,0.129,0.694,0.178c0.239,0.009,0.47,0.062,0.709,0.036
			c0.238,0.011,0.474-0.05,0.711-0.081c0.238-0.035,0.472-0.123,0.709-0.179l1.522-0.36l-0.991,1.132
			c-0.095,0.109-0.207,0.263-0.308,0.397c-0.101,0.141-0.196,0.287-0.278,0.438c-0.16,0.302-0.317,0.61-0.379,0.934
			c-0.024,0.16-0.061,0.324-0.049,0.487c-0.007,0.084,0.007,0.164,0.025,0.245c0.015,0.082,0.018,0.17,0.055,0.247
			c0.048,0.167,0.128,0.323,0.226,0.48c0.09,0.163,0.226,0.294,0.343,0.456c-0.166-0.093-0.364-0.162-0.515-0.296
			c-0.166-0.122-0.311-0.271-0.43-0.451c-0.121-0.172-0.221-0.377-0.269-0.589c-0.063-0.213-0.081-0.432-0.083-0.652
			c0.017-0.437,0.12-0.858,0.289-1.242c0.081-0.193,0.177-0.378,0.28-0.559c0.105-0.185,0.211-0.346,0.361-0.528l0.532,0.772
			c-0.283,0.082-0.557,0.19-0.85,0.246c-0.295,0.048-0.59,0.096-0.895,0.08c-0.604,0.017-1.211-0.145-1.744-0.407
			c-0.532-0.27-0.997-0.641-1.362-1.079C96.453,29.359,96.159,28.87,96.001,28.336z"/>
	</g>
	<g>
		<path d="M98.751,36.726c0,0,0.479,0.161,1.196,0.403c0.351,0.117,0.754,0.247,1.181,0.367c0.429,0.107,0.879,0.234,1.327,0.271
			c0.224,0.05,0.442,0.03,0.661,0.052c0.209-0.032,0.429-0.006,0.625-0.053c0.19-0.06,0.403-0.056,0.571-0.144
			c0.169-0.079,0.363-0.11,0.502-0.213c0.146-0.09,0.293-0.164,0.424-0.237c0.118-0.092,0.22-0.172,0.304-0.238
			c0.186-0.132,0.292-0.208,0.292-0.208s-0.041,0.12-0.135,0.331c-0.048,0.104-0.106,0.235-0.185,0.379
			c-0.095,0.13-0.213,0.275-0.351,0.429c-0.125,0.171-0.321,0.285-0.519,0.426c-0.192,0.156-0.439,0.229-0.688,0.329
			c-0.251,0.087-0.523,0.128-0.798,0.164c-0.271-0.008-0.557,0.022-0.825-0.024c-0.546-0.071-1.06-0.234-1.51-0.439
			s-0.84-0.448-1.147-0.688C99.054,37.162,98.751,36.726,98.751,36.726z"/>
	</g>
	<g>
		<path d="M94.834,18.003c0.432,0.043,0.854,0.185,1.254,0.365c0.205,0.083,0.388,0.207,0.584,0.31
			c0.201,0.099,0.369,0.243,0.551,0.37c0.179,0.132,0.37,0.255,0.519,0.42l0.478,0.468c0.164,0.154,0.283,0.343,0.427,0.513
			l0.41,0.532l-0.236-0.164c0.793,0.144,1.541,0.348,2.283,0.617c0.371,0.131,0.739,0.27,1.098,0.435
			c0.367,0.147,0.72,0.324,1.063,0.522c0.353,0.18,0.693,0.384,1.02,0.614c0.335,0.216,0.667,0.437,0.963,0.71
			c0.303,0.262,0.622,0.506,0.88,0.82c0.259,0.31,0.573,0.57,0.783,0.921c0.219,0.342,0.458,0.671,0.646,1.028l0.479,1.118
			c0.129,0.382,0.181,0.79,0.271,1.18c0.112,0.39,0.088,0.794,0.098,1.193c-0.016,0.398,0.043,0.798-0.058,1.185l-0.223,1.158
			c-0.048,0.389-0.249,0.74-0.365,1.107c-0.132,0.365-0.282,0.721-0.425,1.076c0.071-0.381,0.135-0.761,0.217-1.133
			c0.058-0.376,0.2-0.735,0.188-1.12l0.061-1.125c0.058-0.372-0.044-0.741-0.068-1.107c-0.042-0.366-0.043-0.736-0.177-1.081
			c-0.11-0.348-0.189-0.704-0.319-1.04l-0.475-0.975c-0.182-0.311-0.418-0.59-0.617-0.89c-0.186-0.311-0.482-0.542-0.717-0.816
			c-0.233-0.279-0.532-0.497-0.812-0.732c-0.273-0.243-0.57-0.459-0.88-0.661c-0.297-0.218-0.611-0.414-0.94-0.586
			c-0.639-0.373-1.313-0.699-2.004-0.982c-0.341-0.154-0.699-0.264-1.047-0.403c-0.352-0.119-0.715-0.24-1.062-0.33l-0.157-0.041
			l-0.079-0.124l-0.335-0.522c-0.116-0.171-0.208-0.364-0.343-0.521c-0.268-0.315-0.511-0.66-0.821-0.939
			c-0.151-0.143-0.29-0.307-0.462-0.425c-0.168-0.124-0.326-0.27-0.507-0.377C95.617,18.354,95.248,18.134,94.834,18.003z"/>
	</g>
	<g>
		<path d="M101.501,16.003c0,0,0.31,0.14,0.839,0.406c0.524,0.274,1.291,0.635,2.182,1.115c0.895,0.474,1.937,1.022,3.036,1.639
			c0.545,0.283,1.108,0.575,1.68,0.871c0.661,0.289,1.269,0.672,1.824,1.125c0.554,0.454,1.042,0.988,1.445,1.567
			c0.201,0.291,0.396,0.582,0.536,0.9c0.165,0.305,0.298,0.618,0.396,0.938c0.12,0.313,0.217,0.626,0.263,0.945
			c0.059,0.314,0.134,0.618,0.137,0.922c0.017,0.301,0.034,0.593,0.05,0.876c-0.022,0.281-0.043,0.552-0.063,0.813
			c-0.011,0.522-0.162,0.98-0.242,1.389c-0.075,0.411-0.207,0.752-0.303,1.034c-0.197,0.563-0.322,0.876-0.322,0.876
			s0.041-0.341,0.132-0.921c0.047-0.29,0.119-0.638,0.125-1.047c0.008-0.407,0.079-0.859,0.036-1.353
			c-0.01-0.245-0.021-0.5-0.032-0.764c-0.039-0.259-0.08-0.527-0.121-0.803c-0.025-0.277-0.121-0.547-0.197-0.825
			c-0.069-0.281-0.161-0.56-0.286-0.831c-0.101-0.281-0.234-0.552-0.394-0.813c-0.138-0.272-0.321-0.521-0.499-0.775
			c-0.363-0.503-0.801-0.966-1.296-1.359c-0.481-0.408-1.02-0.757-1.571-1.01c-0.6-0.328-1.183-0.672-1.74-0.998
			c-1.069-0.682-2.063-1.326-2.892-1.91c-0.834-0.577-1.507-1.092-1.986-1.438C101.765,16.218,101.501,16.003,101.501,16.003z"/>
	</g>
	<g>
		<path d="M107.532,16.003c0.387,0.167,0.762,0.352,1.135,0.539c0.374,0.187,0.753,0.365,1.118,0.566
			c0.739,0.388,1.463,0.798,2.183,1.215c1.442,0.832,2.839,1.733,4.227,2.648l-0.035-0.02c0.18,0.104,0.27,0.203,0.396,0.305
			c0.115,0.104,0.205,0.222,0.306,0.333c0.206,0.219,0.325,0.49,0.486,0.733c0.117,0.263,0.2,0.54,0.297,0.806
			c0.055,0.132,0.052,0.276,0.08,0.413l0.059,0.414c0.053,0.275,0.034,0.549,0.014,0.822c-0.013,0.272-0.041,0.542-0.065,0.809
			c-0.133,0.523-0.261,1.04-0.421,1.539c-0.009-0.535,0.022-1.052,0.035-1.564c-0.034-0.256-0.07-0.509-0.092-0.759
			c-0.02-0.251-0.042-0.5-0.13-0.733l-0.097-0.354c-0.038-0.115-0.047-0.241-0.108-0.346c-0.109-0.213-0.206-0.431-0.316-0.636
			c-0.146-0.179-0.25-0.395-0.418-0.543c-0.082-0.075-0.155-0.164-0.24-0.229c-0.081-0.056-0.183-0.139-0.232-0.162l-0.008-0.004
			l-0.026-0.017c-1.414-0.875-2.818-1.765-4.179-2.724c-0.681-0.478-1.357-0.963-2.02-1.471c-0.335-0.247-0.657-0.516-0.983-0.776
			S107.846,16.284,107.532,16.003z"/>
	</g>
	<g>
		<path d="M114.5,31.688c-0.559,0.4-1.078,0.846-1.561,1.319c-0.481,0.475-0.906,1.002-1.253,1.559
			c-0.171,0.278-0.334,0.565-0.441,0.867c-0.049,0.152-0.126,0.296-0.152,0.452l-0.098,0.461l-0.02,0.464
			c-0.021,0.154,0.029,0.306,0.043,0.458c0.014,0.307,0.167,0.59,0.248,0.881l-0.017-0.037c0.123,0.207,0.292,0.448,0.471,0.65
			c0.176,0.211,0.375,0.4,0.579,0.578c0.209,0.172,0.429,0.326,0.661,0.456c0.234,0.121,0.47,0.242,0.722,0.31
			c0.123,0.046,0.249,0.079,0.378,0.094c0.129,0.015,0.254,0.061,0.387,0.053c0.261,0.014,0.523,0.015,0.786-0.033
			c0.265-0.011,0.521-0.122,0.783-0.178c0.258-0.083,0.51-0.202,0.767-0.298l-0.055,0.031c1.148-0.745,2.301-1.485,3.465-2.207
			l-0.184,0.251c0.088-0.315,0.149-0.69,0.184-1.043c0.045-0.358,0.053-0.719,0.036-1.077c-0.02-0.358-0.069-0.714-0.166-1.056
			c-0.032-0.178-0.108-0.337-0.172-0.503c-0.056-0.171-0.142-0.325-0.236-0.475c-0.087-0.155-0.176-0.311-0.3-0.438
			c-0.122-0.129-0.216-0.288-0.357-0.4l-0.41-0.358c-0.146-0.107-0.311-0.192-0.467-0.291c-0.304-0.219-0.678-0.301-1.021-0.459
			c-0.36-0.109-0.73-0.197-1.102-0.297c0.378,0.041,0.768,0.052,1.148,0.12c0.368,0.115,0.769,0.154,1.119,0.342
			c0.179,0.083,0.367,0.153,0.541,0.25l0.5,0.337c0.175,0.105,0.297,0.274,0.446,0.412c0.153,0.138,0.269,0.306,0.383,0.476
			c0.122,0.166,0.234,0.337,0.314,0.525c0.088,0.184,0.188,0.366,0.242,0.563c0.141,0.384,0.228,0.783,0.281,1.184
			c0.051,0.402,0.072,0.807,0.053,1.21c-0.017,0.409-0.066,0.792-0.164,1.217l-0.034,0.148l-0.15,0.104
			c-1.127,0.778-2.267,1.538-3.409,2.292l-0.035,0.023l-0.02,0.008c-0.297,0.121-0.586,0.259-0.893,0.362
			c-0.317,0.076-0.624,0.19-0.958,0.208c-0.327,0.053-0.66,0.05-0.994,0.027c-0.167,0.002-0.331-0.05-0.496-0.075
			c-0.167-0.024-0.328-0.067-0.484-0.127c-0.321-0.096-0.622-0.245-0.907-0.41c-0.282-0.173-0.543-0.372-0.786-0.588
			c-0.237-0.222-0.46-0.455-0.657-0.709c-0.204-0.255-0.373-0.507-0.54-0.819l-0.015-0.027l-0.002-0.01
			c-0.087-0.371-0.229-0.725-0.227-1.11c-0.005-0.189-0.044-0.378-0.008-0.565l0.068-0.559l0.156-0.535
			c0.047-0.179,0.145-0.337,0.214-0.505c0.149-0.333,0.352-0.635,0.561-0.922c0.418-0.582,0.952-1.052,1.497-1.481
			C113.292,32.357,113.876,31.98,114.5,31.688z"/>
	</g>
	<g>
		<path d="M107.125,12.063c0.92,0.608,1.803,1.26,2.707,1.885l2.656,1.941l2.639,1.948c0.434,0.334,0.877,0.642,1.321,0.949
			c0.218,0.146,0.448,0.329,0.657,0.445l0.61,0.363l0.05,0.02c0.223,0.114,0.386,0.217,0.558,0.345
			c0.172,0.12,0.325,0.261,0.481,0.397c0.291,0.296,0.576,0.607,0.778,0.975c0.216,0.356,0.378,0.75,0.474,1.152
			c0.063,0.2,0.097,0.402,0.113,0.608c0.022,0.205,0.055,0.409,0.037,0.611c0.004,0.41-0.058,0.806-0.143,1.194
			c-0.07,0.392-0.227,0.754-0.338,1.129c-0.169,0.35-0.325,0.705-0.503,1.045c-0.197,0.33-0.397,0.656-0.603,0.976l0.017-0.037
			c-0.167,0.391-0.315,0.804-0.424,1.219c-0.064,0.208-0.089,0.419-0.131,0.632l-0.019,0.322c0.01,0.104,0.042,0.208,0.063,0.318
			c-0.04-0.099-0.095-0.201-0.127-0.309l-0.045-0.335c-0.004-0.223,0.001-0.45,0.032-0.67c0.051-0.446,0.137-0.88,0.253-1.318
			l0.018-0.038c0.148-0.34,0.302-0.674,0.459-1.004c0.135-0.339,0.245-0.686,0.368-1.024c0.071-0.351,0.193-0.692,0.227-1.042
			l0.058-0.522c0.006-0.173-0.01-0.345-0.009-0.516c0.01-0.173-0.028-0.339-0.054-0.505c-0.019-0.169-0.055-0.333-0.114-0.489
			c-0.091-0.32-0.233-0.625-0.418-0.898c-0.167-0.285-0.396-0.53-0.632-0.763c-0.128-0.106-0.251-0.219-0.389-0.311
			c-0.128-0.096-0.288-0.187-0.398-0.243l0.049,0.02l-0.82-0.45c-0.266-0.158-0.463-0.324-0.698-0.486
			c-0.453-0.325-0.905-0.649-1.335-0.991c-0.871-0.678-1.724-1.373-2.562-2.084c-0.84-0.709-1.664-1.437-2.478-2.176
			C108.711,13.588,107.895,12.853,107.125,12.063z"/>
	</g>
	<g>
		<path d="M107,12.5c-0.771,0.254-1.542,0.359-2.313,0.435l-0.102,0.01l-0.226-0.159c-0.15-0.105-0.272-0.246-0.433-0.318
			c-0.141-0.105-0.304-0.165-0.463-0.229c-0.17-0.037-0.331-0.109-0.515-0.119c-0.176-0.032-0.365-0.024-0.554-0.035
			c-0.769,0.013-1.582,0.207-2.458,0.416c0.289-0.354,0.653-0.636,1.053-0.86c0.197-0.122,0.413-0.205,0.631-0.291
			c0.22-0.087,0.453-0.134,0.692-0.176c0.24-0.034,0.487-0.058,0.739-0.024c0.25,0.013,0.505,0.071,0.747,0.155
			c0.239,0.104,0.474,0.214,0.677,0.375c0.221,0.139,0.364,0.356,0.538,0.534l-0.327-0.148C105.458,12.141,106.229,12.246,107,12.5z
			"/>
	</g>
	<g>
		<path d="M99.25,13.125c-0.316,0.018-0.643-0.029-0.946,0.016c-0.302,0.02-0.589,0.068-0.877,0.147
			c-0.145,0.025-0.284,0.072-0.418,0.132c-0.133,0.061-0.275,0.09-0.401,0.164c-0.261,0.125-0.504,0.274-0.737,0.444
			c-0.467,0.333-0.872,0.751-1.241,1.201c-0.185,0.226-0.347,0.47-0.508,0.715c-0.16,0.239-0.314,0.51-0.425,0.746l-0.218,0.462
			l-0.516-0.263c-0.155-0.079-0.295-0.221-0.451-0.274c-0.153-0.083-0.311-0.12-0.472-0.145c-0.081-0.016-0.161,0.005-0.244,0
			c-0.084-0.012-0.166,0.023-0.25,0.037c-0.169,0.03-0.341,0.108-0.505,0.202c-0.68,0.372-1.259,1.039-1.789,1.73
			c0.108-0.429,0.28-0.844,0.507-1.234c0.22-0.396,0.514-0.759,0.89-1.07c0.189-0.149,0.404-0.29,0.649-0.379
			c0.237-0.108,0.511-0.148,0.78-0.154c0.273,0.01,0.54,0.054,0.784,0.155c0.261,0.072,0.455,0.232,0.679,0.358l-0.734,0.199
			c0.146-0.336,0.297-0.613,0.476-0.901c0.17-0.287,0.378-0.549,0.593-0.805c0.428-0.515,0.952-0.958,1.539-1.301
			c0.295-0.172,0.614-0.296,0.938-0.399c0.157-0.062,0.331-0.078,0.496-0.111c0.166-0.035,0.332-0.055,0.501-0.051
			c0.332-0.03,0.67,0.02,0.995,0.08C98.667,12.875,98.948,13.018,99.25,13.125z"/>
	</g>
	<g>
		<path d="M107.125,36.09c0,0,0.253-0.063,0.564-0.078c0.314-0.021,0.693-0.002,1.035,0.027c0.172,0.032,0.333,0.031,0.486,0.059
			c0.152,0.016,0.29,0.026,0.43,0.037c0.126-0.008,0.265-0.001,0.357-0.023c0.107-0.014,0.169-0.021,0.169-0.021
			s-0.004,0.061-0.035,0.168c-0.026,0.113-0.106,0.25-0.242,0.394c-0.139,0.133-0.339,0.256-0.565,0.319
			c-0.11,0.021-0.231,0.07-0.347,0.064c-0.118,0.005-0.238,0.009-0.353-0.001c-0.466-0.05-0.872-0.257-1.128-0.483
			C107.236,36.331,107.125,36.09,107.125,36.09z"/>
	</g>
	<g>
		<path d="M88.75,18.438c-1.607,1.658-3.229,3.302-4.871,4.927c-0.822,0.811-1.648,1.618-2.489,2.411
			c-0.421,0.396-0.845,0.789-1.278,1.173c-0.445,0.377-0.853,0.771-1.392,1.081l0.044-0.035l-2.516,3.256l-1.229,1.647l-0.595,0.834
			l-0.281,0.422l-0.128,0.211l-0.053,0.101c-0.027,0.001,0.018,0.118-0.045-0.074l-0.06,0.28c-1.636,1.21-2.834,3.015-3.664,4.89
			c-0.415,0.947-0.75,1.932-0.979,2.944c-0.22,1.031-0.563,2.058-0.892,3.05c-1.354,3.992-2.802,7.939-4.212,11.902
			c-2.833,7.921-5.618,15.856-8.255,23.838c-2.61,7.987-5.103,16.026-6.974,24.201c-0.894,4.082-1.729,8.229-1.757,12.359
			c0.007,1.024,0.072,2.053,0.31,3.011c0.234,0.945,0.68,1.854,1.447,2.19c0.341,0.15,0.933,0.237,1.429,0.36l1.54,0.347
			l3.077,0.692c8.205,1.834,16.441,3.524,24.719,4.98c8.279,1.445,16.592,2.711,24.947,3.597c8.352,0.869,16.762,1.382,25.151,0.984
			c4.187-0.22,8.383-0.668,12.447-1.723c2.027-0.532,4.021-1.226,5.888-2.186c1.871-0.942,3.584-2.23,4.92-3.858
			c-1.308,1.651-3.006,2.975-4.87,3.954c-1.859,0.996-3.852,1.728-5.881,2.298c-4.068,1.13-8.277,1.652-12.479,1.945
			c-4.208,0.294-8.428,0.273-12.639,0.134c-4.211-0.149-8.415-0.449-12.608-0.849c-8.387-0.8-16.731-1.99-25.028-3.432
			c-8.298-1.434-16.554-3.101-24.775-4.911l-3.082-0.683l-1.539-0.341c-0.521-0.136-0.989-0.167-1.623-0.42
			c-0.586-0.265-1.049-0.734-1.358-1.242c-0.311-0.51-0.502-1.055-0.643-1.596c-0.272-1.086-0.338-2.174-0.351-3.249
			c0.042-4.3,0.908-8.458,1.82-12.577c1.912-8.225,4.436-16.27,7.077-24.263c2.646-7.994,5.519-15.907,8.434-23.8
			c1.45-3.949,2.938-7.886,4.326-11.849c0.342-1,0.678-1.968,0.908-2.994c0.245-1.038,0.602-2.05,1.04-3.023
			c0.895-1.934,2.133-3.748,3.915-5.021l-0.059,0.28c-0.078-0.28,0.017-0.241,0.019-0.318l0.069-0.126l0.143-0.227l0.297-0.429
			l0.616-0.831l1.263-1.63l2.578-3.214l0.015-0.019l0.029-0.016c0.47-0.258,0.917-0.658,1.354-1.02
			c0.438-0.374,0.868-0.758,1.294-1.145c0.854-0.776,1.694-1.567,2.53-2.363C85.462,21.681,87.113,20.066,88.75,18.438z"/>
	</g>
	<g>
		<path d="M115.553,37.516c0.077-0.825,0.137-1.634,0.081-2.409c-0.025-0.386-0.087-0.762-0.203-1.093
			c-0.049-0.17-0.135-0.317-0.22-0.451c-0.08-0.141-0.193-0.242-0.3-0.348l-0.981-0.963l1.305,0.186
			c0.318,0.045,0.573,0.105,0.842,0.215c0.264,0.103,0.516,0.239,0.753,0.401c0.477,0.324,0.854,0.808,1.07,1.339l0.117,0.411
			c0.047,0.134,0.042,0.276,0.064,0.413c0.046,0.275-0.002,0.547-0.015,0.813c-0.037,0.264-0.113,0.519-0.174,0.77
			c-0.095,0.244-0.195,0.483-0.302,0.715c0.005-0.26,0.017-0.513,0.034-0.761c-0.009-0.25-0.01-0.496-0.03-0.735
			c-0.039-0.237-0.052-0.475-0.131-0.692c-0.036-0.108-0.045-0.225-0.102-0.323l-0.138-0.302c-0.116-0.186-0.229-0.367-0.38-0.52
			c-0.15-0.152-0.318-0.285-0.497-0.407c-0.183-0.116-0.379-0.216-0.588-0.29c-0.201-0.075-0.437-0.145-0.617-0.174l0.325-0.777
			c0.187,0.178,0.362,0.365,0.482,0.584c0.074,0.104,0.106,0.22,0.153,0.332c0.048,0.112,0.083,0.224,0.105,0.337
			c0.12,0.452,0.123,0.899,0.081,1.328C116.2,35.973,115.949,36.782,115.553,37.516z"/>
	</g>
</g>
</svg>
